<svg width="52" height="52" viewBox="0 0 52 52" fill="none" xmlns="http://www.w3.org/2000/svg">
<path d="M32.2908 0.779079C46.22 4.25422 54.6958 18.3586 51.221 32.294C47.7461 46.2195 33.638 54.696 19.7138 51.2209C5.78468 47.7507 -2.69612 33.6413 0.778714 19.7159C4.24858 5.7805 18.3617 -2.69607 32.2908 0.779079Z" fill="url(#paint0_linear_0_395)"/>
<path d="M32.6693 24.6661H23.4204C22.6349 24.6661 21.9985 24.0297 21.9985 23.2443V18.0849C21.9985 17.2995 22.6349 16.663 23.4204 16.663H32.6693V13.0474C32.6693 12.4109 33.4344 12.0995 33.8813 12.5463L41.0042 19.6557C41.5594 20.2109 41.5594 21.1115 41.0042 21.6667L33.8813 28.7896C33.4344 29.2365 32.6693 28.9182 32.6693 28.2885V24.6661ZM19.3308 35.337H28.5797C29.3651 35.337 30.0016 34.7005 30.0016 33.9151V28.7557C30.0016 27.9703 29.3651 27.3338 28.5797 27.3338H19.3308V23.7182C19.3308 23.0818 18.5657 22.7635 18.1188 23.2172L10.9959 30.3266C10.4407 30.8818 10.4407 31.7823 10.9959 32.3375L18.112 39.4604C18.5589 39.9073 19.324 39.5891 19.324 38.9594L19.3308 35.337Z" fill="#F0F0F2"/>
<defs>
<linearGradient id="paint0_linear_0_395" x1="-80.1667" y1="57.9526" x2="-75.991" y2="-16.0176" gradientUnits="userSpaceOnUse">
<stop stop-color="#13161F"/>
<stop offset="0.265" stop-color="#525661"/>
<stop offset="0.615" stop-color="#1E212A"/>
<stop offset="1" stop-color="#494F5C"/>
</linearGradient>
</defs>
</svg>
