<svg width="16" height="16" viewBox="0 0 16 16" fill="none" xmlns="http://www.w3.org/2000/svg">
<path d="M7.5 1.44226V12.7351L5.16125 10.3965C4.96606 10.2012 4.64941 10.2012 4.45422 10.3965C4.25891 10.5916 4.25891 10.9084 4.45422 11.1035L7.64616 14.2955C7.66927 14.3186 7.6947 14.3394 7.72197 14.3577C7.72865 14.3622 7.73618 14.365 7.74304 14.3691C7.76399 14.3817 7.78508 14.3942 7.80788 14.4037C7.81743 14.4077 7.82768 14.4095 7.83746 14.4129C7.85838 14.4202 7.87907 14.4279 7.90115 14.4323C7.93347 14.4388 7.96655 14.4423 8 14.4423C8.03345 14.4423 8.06653 14.4388 8.09885 14.4323C8.12093 14.4279 8.14162 14.4202 8.16254 14.4129C8.17232 14.4095 8.18257 14.4077 8.19212 14.4037C8.21492 14.3942 8.23601 14.3817 8.25696 14.3691C8.26382 14.365 8.27135 14.3622 8.27803 14.3577C8.3053 14.3394 8.33073 14.3186 8.35384 14.2955L11.5457 11.1035C11.6433 11.0059 11.6921 10.8779 11.6921 10.75C11.6921 10.6221 11.6433 10.494 11.5457 10.3965C11.3505 10.2012 11.0338 10.2012 10.8386 10.3965L8.5 12.7351V1.44226C8.5 1.16614 8.27612 0.942261 8 0.942261C7.72388 0.942261 7.5 1.16614 7.5 1.44226Z" fill="#97A1AD"/>
</svg>
