<svg width="44" height="44" viewBox="0 0 44 44" fill="none" xmlns="http://www.w3.org/2000/svg">
<g clip-path="url(#clip0_2016_4477)">
<path d="M33.5996 22.6306C32.3105 18.483 28.219 15.6526 23.3149 15.5685V10.7204C23.3149 10.4962 23.1187 10.3 22.8945 10.3C22.8104 10.3 22.7264 10.3281 22.6423 10.3841L10.1716 19.4078C9.97548 19.5479 9.94746 19.8001 10.0876 19.9963C10.1156 20.0243 10.1436 20.0524 10.1716 20.0804L22.6423 29.048C22.8384 29.1882 23.0907 29.1321 23.2308 28.964C23.2868 28.8799 23.3149 28.7958 23.3149 28.7117V23.8916C26.3414 23.8916 28.8916 25.3209 29.7884 27.4787C30.545 29.3283 29.9285 31.318 28.135 32.9714C27.9668 33.1395 27.9388 33.3917 28.1069 33.5599C28.191 33.6439 28.3031 33.7 28.4152 33.7H28.7515C28.8356 33.7 28.9196 33.672 28.9757 33.6159C33.0952 30.8976 34.8607 26.666 33.5996 22.6306Z" fill="#B6BDC7"/>
</g>
<defs>
<clipPath id="clip0_2016_4477">
<rect width="24" height="24" fill="white" transform="translate(10 10)"/>
</clipPath>
</defs>
</svg>
