<svg width="20" height="20" viewBox="0 0 20 20" fill="none" xmlns="http://www.w3.org/2000/svg">
<g clip-path="url(#clip0_40_712)">
<path d="M6.66667 0C3.90917 0 1.66667 2.2425 1.66667 5C1.66667 7.7575 3.90917 10 6.66667 10C9.42417 10 11.6667 7.7575 11.6667 5C11.6667 2.2425 9.42417 0 6.66667 0ZM6.66667 9.16667C4.36917 9.16667 2.5 7.2975 2.5 5C2.5 2.7025 4.36917 0.833333 6.66667 0.833333C8.96417 0.833333 10.8333 2.7025 10.8333 5C10.8333 7.2975 8.96417 9.16667 6.66667 9.16667ZM9.95167 12.9992C9.845 13.2033 9.5925 13.2808 9.38917 13.1725C8.55583 12.7325 7.615 12.5 6.66667 12.5C3.45 12.5 0.833333 15.1167 0.833333 18.3333V19.5833C0.833333 19.8133 0.646667 20 0.416667 20C0.186667 20 0 19.8133 0 19.5833V18.3333C0 14.6575 2.99083 11.6667 6.66667 11.6667C7.75 11.6667 8.82583 11.9325 9.77833 12.4358C9.98167 12.5433 10.06 12.795 9.95167 12.9983V12.9992ZM18.3333 12.7825V11.2508C18.3333 9.6425 17.025 8.33417 15.4167 8.33417C13.8083 8.33417 12.5 9.6425 12.5 11.2508V12.7825C11.5158 13.2517 10.8333 14.2567 10.8333 15.4175V17.0842C10.8333 18.6925 12.1417 20.0008 13.75 20.0008H17.0833C18.6917 20.0008 20 18.6925 20 17.0842V15.4175C20 14.2567 19.3175 13.2517 18.3333 12.7825ZM13.3333 11.2508C13.3333 10.1025 14.2683 9.1675 15.4167 9.1675C16.565 9.1675 17.5 10.1025 17.5 11.2508V12.5308C17.3642 12.5117 17.225 12.5008 17.0833 12.5008H13.75C13.6083 12.5008 13.4692 12.5108 13.3333 12.5308V11.2508ZM19.1667 17.0842C19.1667 18.2325 18.2317 19.1675 17.0833 19.1675H13.75C12.6017 19.1675 11.6667 18.2325 11.6667 17.0842V15.4175C11.6667 14.2692 12.6017 13.3342 13.75 13.3342H17.0833C18.2317 13.3342 19.1667 14.2692 19.1667 15.4175V17.0842ZM16.25 16.2508C16.25 16.7108 15.8767 17.0842 15.4167 17.0842C14.9567 17.0842 14.5833 16.7108 14.5833 16.2508C14.5833 15.7908 14.9567 15.4175 15.4167 15.4175C15.8767 15.4175 16.25 15.7908 16.25 16.2508Z" fill="#F0F0F2"/>
</g>
<defs>
<clipPath id="clip0_40_712">
<rect width="20" height="20" fill="white"/>
</clipPath>
</defs>
</svg>
