<svg width="32" height="32" viewBox="0 0 32 32" fill="none" xmlns="http://www.w3.org/2000/svg">
<g clip-path="url(#clip0_58_1274)">
<path opacity="0.6" d="M4.41053 0H4.6449C5.55428 0.034375 6.3574 0.333125 7.11803 0.768125C14.233 4.84104 21.2439 8.85583 28.1505 12.8125C29.0755 13.3425 30.0024 14.1419 30.3324 15.195C30.8799 16.9412 29.5843 18.3619 28.1824 19.165C21.227 23.1538 14.183 27.1896 7.05053 31.2725C6.32053 31.69 5.49928 31.9694 4.63678 32H4.40553C4.29803 31.9763 4.18928 31.9552 4.07928 31.9369C3.65178 31.8665 3.28844 31.7248 2.98928 31.5119C1.90178 30.7381 1.53615 29.3544 1.53553 28.0875C1.53178 20.0487 1.53178 12.011 1.53553 3.97438C1.53594 3.59938 1.57199 3.20708 1.64365 2.7975C1.71324 2.39917 1.83699 2.01875 2.0149 1.65625C2.50365 0.66 3.30219 0.107917 4.41053 0Z" fill="#FBFFFC"/>
</g>
<defs>
<clipPath id="clip0_58_1274">
<rect width="32" height="32" fill="white"/>
</clipPath>
</defs>
</svg>
