<svg width="20" height="20" viewBox="0 0 20 20" fill="none" xmlns="http://www.w3.org/2000/svg">
<path d="M2.57568 15.0537C2.9425 15.5145 3.49243 15.7788 4.08386 15.7788H5.95401C6.25095 17.4641 7.72247 18.75 9.49157 18.75C11.2607 18.75 12.7322 17.4641 13.0291 15.7788H14.9213C15.5127 15.7788 16.0626 15.5145 16.4294 15.0537C16.7963 14.5929 16.9305 13.9978 16.7981 13.4216L16.1157 10.4312C16.0388 10.0946 15.7019 9.88312 15.3674 9.96094C15.2677 9.98375 15.1841 10.0341 15.1107 10.0956C14.9367 10.2415 14.8434 10.4727 14.8975 10.7092L15.5798 13.7012C15.6268 13.9044 15.5798 14.1138 15.4517 14.2749C15.3235 14.436 15.13 14.5288 14.9213 14.5288H4.08386C3.87512 14.5288 3.68164 14.436 3.55346 14.2749C3.42529 14.1138 3.37829 13.9044 3.42529 13.7006L4.36035 9.61945C4.50256 9.00665 4.599 8.38409 4.69177 7.78168L4.78454 7.18781C5.13061 5.09552 6.83899 3.4671 8.9392 3.22754C9.06551 3.21316 9.17083 3.15357 9.26143 3.07766C9.41688 2.94735 9.51381 2.75242 9.48913 2.53571C9.45007 2.1933 9.14367 1.94397 8.7976 1.98547C6.14502 2.28821 3.98803 4.34357 3.55102 6.98547L3.45581 7.59155C3.36303 8.19763 3.27453 8.77014 3.1427 9.33838L2.20703 13.4204C2.07458 13.9978 2.20886 14.5929 2.57568 15.0537ZM9.49157 17.5C8.41587 17.5 7.51651 16.7679 7.24109 15.7788H11.7421C11.4666 16.7679 10.5673 17.5 9.49157 17.5Z" fill="#F0F0F2"/>
<path d="M14.011 8.77621C14.0337 8.77663 14.0556 8.7796 14.0784 8.7796C16.1542 8.7796 17.843 7.09076 17.843 5.01495C17.843 2.93884 16.1542 1.25 14.0784 1.25C12.2107 1.25 10.6606 2.61868 10.3677 4.40498C10.3351 4.60403 10.3137 4.80682 10.3137 5.01495C10.3137 7.06802 11.9665 8.73978 14.011 8.77621ZM11.5637 5.01495C11.5637 3.62823 12.6917 2.5 14.0784 2.5C15.4651 2.5 16.593 3.62823 16.593 5.01495C16.593 6.40167 15.4651 7.5296 14.0784 7.5296C12.6917 7.5296 11.5637 6.40167 11.5637 5.01495Z" fill="#F0F0F2"/>
</svg>
