<svg width="24" height="24" viewBox="0 0 24 24" fill="none" xmlns="http://www.w3.org/2000/svg">
<path d="M22.4066 12.6636L19.7618 5.16868C19.6169 4.76449 19.3183 4.43385 18.9309 4.24863C18.5435 4.06341 18.0987 4.03858 17.6931 4.17955L4.83225 8.72093H3.375C2.8779 8.72151 2.40132 8.91924 2.04982 9.27075C1.69832 9.62225 1.50058 10.0988 1.5 10.5959V18.0377C1.50058 18.5348 1.69832 19.0114 2.04982 19.3629C2.40132 19.7144 2.8779 19.9121 3.375 19.9127H17.2159C17.713 19.9121 18.1896 19.7144 18.5411 19.3629C18.8926 19.0114 19.0904 18.5348 19.0909 18.0377V15.5576L21.4182 14.7356C21.8233 14.5909 22.1547 14.2918 22.3399 13.9035C22.5252 13.5152 22.5491 13.0694 22.4066 12.6636ZM17.9421 4.88707C18.1603 4.81118 18.3996 4.82451 18.6079 4.92416C18.8163 5.02381 18.9768 5.20172 19.0547 5.41917L19.4303 6.48349L13.0907 8.72093H7.08552L17.9421 4.88707ZM3.375 9.47093H17.2159C17.5142 9.47125 17.8002 9.58988 18.0111 9.80079C18.222 10.0117 18.3406 10.2977 18.3409 10.5959V11.4704H2.25V10.5959C2.25033 10.2977 2.36896 10.0117 2.57986 9.80079C2.79077 9.58988 3.07673 9.47125 3.375 9.47093ZM17.2159 19.1627H3.375C3.07673 19.1624 2.79077 19.0437 2.57986 18.8328C2.36896 18.6219 2.25033 18.336 2.25 18.0377V12.2204H18.3409V18.0377C18.3406 18.336 18.222 18.6219 18.0111 18.8328C17.8002 19.0437 17.5142 19.1624 17.2159 19.1627ZM21.1674 14.0288L19.0909 14.7625V10.5959C19.0904 10.0988 18.8926 9.62224 18.5411 9.27073C18.1896 8.91923 17.713 8.7215 17.2159 8.72091H15.3452L19.68 7.19102L21.6995 12.9137C21.776 13.1321 21.763 13.372 21.6633 13.5809C21.5636 13.7899 21.3853 13.9509 21.1674 14.0288Z" fill="#71757F"/>
<path d="M7.20813 14.7122H3.36584C3.26765 14.7141 3.17413 14.7544 3.10537 14.8245C3.03661 14.8947 2.99809 14.989 2.99809 15.0872C2.9981 15.1854 3.03662 15.2797 3.10538 15.3498C3.17415 15.4199 3.26767 15.4602 3.36586 15.4622H7.20811C7.3063 15.4602 7.39983 15.4199 7.46859 15.3498C7.53736 15.2797 7.57588 15.1854 7.57588 15.0872C7.57588 14.989 7.53736 14.8947 7.4686 14.8245C7.39984 14.7544 7.30632 14.7141 7.20813 14.7122Z" fill="#71757F"/>
<path d="M6.09375 16.6849H3.36584C3.26765 16.6869 3.17413 16.7272 3.10537 16.7973C3.03661 16.8674 2.99809 16.9617 2.99809 17.0599C2.9981 17.1582 3.03662 17.2524 3.10538 17.3226C3.17415 17.3927 3.26767 17.433 3.36586 17.4349H6.09375C6.19194 17.433 6.28546 17.3927 6.35422 17.3226C6.42299 17.2524 6.46151 17.1581 6.46151 17.0599C6.46151 16.9617 6.42299 16.8674 6.35422 16.7973C6.28546 16.7272 6.19194 16.6869 6.09375 16.6849Z" fill="#71757F"/>
</svg>
