<svg width="32" height="32" viewBox="0 0 32 32" fill="none" xmlns="http://www.w3.org/2000/svg">
<path d="M31.5206 19.8713C29.382 28.4431 20.7024 33.659 12.1268 31.5206C3.55726 29.3822 -1.6591 20.7003 0.479452 12.1316C2.61494 3.5598 11.2976 -1.65915 19.8671 0.479209C28.4428 2.61451 33.6591 11.2995 31.5206 19.8713Z" fill="#E0BC85"/>
<path d="M23.0551 13.7193C23.3733 11.5901 21.7518 10.446 19.5367 9.68122L20.2557 6.79642L18.4996 6.35895L17.799 9.16728C17.337 9.05103 16.8628 8.94395 16.3916 8.83688L17.0953 6.01021L15.3392 5.57275L14.6202 8.45449C14.2378 8.36883 13.8645 8.28012 13.5004 8.1914L13.5035 8.18222L11.0835 7.57651L10.6154 9.45178C10.6154 9.45178 11.9187 9.75158 11.8912 9.76993C12.601 9.94737 12.7295 10.4185 12.708 10.7917L11.8881 14.0772C11.9371 14.0895 12.0013 14.1078 12.0717 14.1354C12.0136 14.1201 11.9493 14.1048 11.8851 14.0895L10.7378 18.6905C10.6521 18.9077 10.4288 19.2319 9.93313 19.1065C9.95148 19.131 8.65734 18.7884 8.65734 18.7884L7.7854 20.7982L10.0708 21.3672C10.4961 21.4743 10.9122 21.5844 11.3221 21.6915L10.597 24.61L12.3501 25.0474L13.0691 22.1626C13.5494 22.2911 14.0144 22.4135 14.4672 22.5267L13.7513 25.3992L15.5074 25.8367L16.2325 22.9244C19.2277 23.4903 21.4764 23.2609 22.4248 20.5535C23.1897 18.3723 22.3881 17.115 20.8125 16.2951C21.9629 16.0321 22.8256 15.2795 23.0551 13.7193ZM19.0442 19.3451C18.5026 21.5263 14.8313 20.3455 13.6412 20.0518L14.6049 16.1881C15.795 16.4848 19.6132 17.0722 19.0442 19.3451ZM19.5887 13.6887C19.0931 15.6711 16.0398 14.6646 15.0485 14.4168L15.9235 10.911C16.9117 11.1588 20.1027 11.6207 19.5887 13.6887Z" fill="#F0F0F2"/>
</svg>
