<svg width="135" height="200" viewBox="0 0 135 200" fill="none" xmlns="http://www.w3.org/2000/svg">
<path d="M19.672 66.4142C19.1038 67.0419 18.5158 67.4946 17.9098 67.8001C17.2932 68.1099 16.6587 68.2683 16.0079 68.2999C14.9604 68.3502 13.8707 68.072 12.7438 67.5728C12.7432 67.5728 12.7407 67.5722 12.7401 67.5716C12.7289 67.566 12.7177 67.5617 12.7065 67.5561C12.7034 67.5548 12.7003 67.5536 12.6972 67.5517C12.5587 67.4909 12.4215 67.4257 12.2831 67.358C11.8068 67.1233 11.3262 66.8544 10.8388 66.5564C10.6805 66.4583 10.5197 66.3589 10.3588 66.2534C10.3477 66.2466 10.3365 66.2391 10.3259 66.2323C10.0341 66.0435 9.73978 65.8454 9.44422 65.6399C8.33402 64.8675 7.20024 63.9914 6.05216 63.096C2.32356 60.1901 -1.07286 53.3427 2.9482 49.4259C3.93235 48.4679 5.09595 47.9326 6.37566 47.7588C6.8519 47.6948 7.34429 47.6799 7.84971 47.7122C8.15893 47.7321 8.47312 47.7706 8.79165 47.8252C8.87485 47.8389 8.95805 47.8544 9.04125 47.8705C9.47278 47.955 9.91302 48.0717 10.3588 48.2164C10.4427 48.2437 10.5271 48.2716 10.6115 48.3015C11.0555 48.4548 11.5044 48.6374 11.9565 48.8454C12.203 48.9596 12.4495 49.0795 12.6972 49.2086C12.7003 49.2105 12.7034 49.2117 12.7065 49.2136C12.7177 49.2186 12.7289 49.2248 12.7401 49.231C12.7407 49.2316 12.7432 49.2316 12.7438 49.2334C13.1114 49.4247 13.4796 49.6333 13.8496 49.8569C14.1129 50.017 14.3774 50.1853 14.6413 50.361C14.8443 50.4958 15.0468 50.6342 15.2492 50.7777C15.4597 50.9267 15.6702 51.0801 15.8794 51.2384C15.9229 51.2707 15.9651 51.303 16.0079 51.3352C16.3029 51.5613 16.5966 51.7947 16.8884 52.0369C17.2498 52.3362 17.5894 52.6497 17.9098 52.9776C21.8849 57.0452 22.6623 63.1128 19.672 66.4142Z" fill="#FCB89D"/>
<path d="M104.116 118.832C103.562 122.438 102.119 129.218 99.9556 136.124C97.9802 142.434 98.2609 150.828 98.3244 152.229C98.3309 152.361 98.3345 152.433 98.3345 152.433L53.0722 171.278C53.0348 171.223 52.998 171.169 52.9618 171.116C52.4442 170.36 51.9492 169.661 51.4732 169.011C51.4565 168.989 51.4393 168.966 51.4227 168.943C51.2778 168.744 51.1348 168.552 50.9935 168.364C50.9258 168.274 50.8588 168.185 50.7923 168.097C50.6557 167.917 50.5204 167.741 50.3869 167.569C50.191 167.316 49.9981 167.072 49.8069 166.835C49.7986 166.825 49.7915 166.816 49.7838 166.806L49.6841 166.683C49.6746 166.67 49.6657 166.66 49.6579 166.649C49.6419 166.63 49.6271 166.611 49.6111 166.592C49.6045 166.584 49.5974 166.575 49.5909 166.567C49.4781 166.429 49.3659 166.294 49.2549 166.162C45.833 162.058 43.1998 160.326 39.2188 156.967C38.4608 156.328 37.4814 155.443 36.3583 154.399C34.7836 152.934 32.9281 151.155 31.0067 149.283C30.2771 148.571 29.5376 147.848 28.8015 147.123C28.7535 147.076 28.7054 147.029 28.6573 146.981C28.1213 146.453 27.5877 145.926 27.0588 145.403C26.527 144.878 26.0023 144.356 25.4876 143.845H47.7092V107.733H81.8848V97.328L85.1465 96.145L85.1145 95.0457L84.9536 89.4145L84.3974 69.9637C84.3974 69.9637 84.4479 67.8975 85.1506 66.0206C85.1542 66.0117 85.1572 66.0034 85.1608 65.9945C85.3709 65.4413 85.638 64.9059 85.9787 64.4447C87.3659 62.5696 88.9673 61.6217 90.805 61.538C90.8448 61.535 90.8852 61.5333 90.9249 61.5333C90.9718 61.5321 91.0193 61.5314 91.0673 61.5314C91.1273 61.5314 91.1866 61.5321 91.2484 61.5333C92.4433 61.5665 93.9385 62.3429 94.9499 63.8185C95.6533 64.843 96.124 66.2029 96.1027 67.8845C96.0623 70.7621 96.3098 73.8712 96.7111 77.3098C96.8803 78.7754 97.0791 80.2985 97.294 81.8892C98.0146 87.2147 101.731 100.749 103.34 106.352C104.949 111.954 104.671 115.227 104.116 118.832Z" fill="#FCB89D"/>
<path d="M75.6458 161.672L51.999 171.517C49.1971 172.684 47.8715 175.901 49.0378 178.703L50.8523 183.053L79.5723 171.095L75.6458 161.672Z" fill="#97A1AD"/>
<path d="M20.1286 142.657C16.7504 142.657 14.002 139.909 14.002 136.53V7.42504C14.002 4.04682 16.7504 1.29852 20.1286 1.29852H77.7169C81.0951 1.29852 83.8434 4.04689 83.8434 7.42504V136.53C83.8434 139.909 81.0951 142.657 77.7169 142.657L20.1286 142.657Z" fill="#0E111A"/>
<path d="M77.7172 0H20.1287C16.0349 0 12.7039 3.33097 12.7039 7.42479V136.531C12.7039 140.624 16.0349 143.955 20.1287 143.955H77.7172C79.5696 143.955 81.2652 143.273 82.5667 142.148C84.1427 140.785 85.1415 138.772 85.1415 136.531V7.42479C85.1414 3.33097 81.8111 0 77.7172 0ZM82.5452 136.531C82.5452 138.062 81.8319 139.428 80.7186 140.312C79.8944 140.967 78.8515 141.358 77.7172 141.358H20.1287C17.462 141.358 15.3002 139.197 15.3002 136.531V7.42479C15.3002 4.75808 17.462 2.59624 20.1287 2.59624H77.7172C80.3834 2.59624 82.5452 4.75808 82.5452 7.42479V136.531Z" fill="#333333"/>
<path d="M12.704 41.4351H11.8246C11.3053 41.4351 10.8843 41.0141 10.8843 40.4948V31.9904C10.8843 31.471 11.3053 31.05 11.8246 31.05H12.704V41.4351Z" fill="#333333"/>
<path d="M12.704 24.1083H11.8246C11.3053 24.1083 10.8843 23.6874 10.8843 23.168V20.3717C10.8843 19.8523 11.3053 19.4314 11.8246 19.4314H12.704V24.1083Z" fill="#333333"/>
<path d="M12.704 54.4558H11.8246C11.3053 54.4558 10.8843 54.0348 10.8843 53.5155V45.011C10.8843 44.4917 11.3053 44.0707 11.8246 44.0707H12.704V54.4558Z" fill="#333333"/>
<path d="M85.1414 31.9181H85.7458C86.417 31.9181 86.9611 32.4622 86.9611 33.1333V48.0483C86.9611 48.7195 86.417 49.2636 85.7458 49.2636H85.1414V31.9181Z" fill="#333333"/>
<path d="M78.4426 16.313V47.312C78.4426 49.0888 77.0023 50.5292 75.2258 50.5292H22.6196C21.0181 50.5292 19.69 49.3587 19.4443 47.826C19.4167 47.6587 19.4027 47.4871 19.4027 47.312V16.313C19.4027 14.5362 20.843 13.0959 22.6196 13.0959H75.2258C75.4008 13.0959 75.5721 13.1098 75.7391 13.1365C77.2715 13.3828 78.4426 14.7113 78.4426 16.313Z" fill="#272A35"/>
<path d="M31.9444 30.0102H25.2208C24.8008 30.0102 24.4604 29.6698 24.4604 29.2498V23.8336C24.4604 23.4136 24.8008 23.0732 25.2208 23.0732H31.9444C32.3644 23.0732 32.7048 23.4136 32.7048 23.8336V29.2498C32.7049 29.6698 32.3644 30.0102 31.9444 30.0102Z" fill="#FFD524"/>
<path d="M31.9444 23.0732H28.7027H28.4626H25.2208C24.8008 23.0732 24.4604 23.4136 24.4604 23.8336V24.0337V24.2738V25.6258H24.4603V25.8659H24.4604V27.2174H24.4603V27.4575H24.4604V28.8096V29.0497V29.2498C24.4604 29.6698 24.8008 30.0102 25.2208 30.0102H28.4626H28.7027H31.9444C32.3644 30.0102 32.7048 29.6698 32.7048 29.2498V29.0497V28.8096V23.8336C32.7048 23.4136 32.3644 23.0732 31.9444 23.0732ZM32.4984 27.2175H30.0865C30.055 27.0583 29.9993 26.9062 29.9194 26.7643C29.842 26.6271 29.8454 26.4546 29.9285 26.3029C30.0037 26.1654 30.0568 26.0188 30.0869 25.8659H32.4983L32.4984 27.2175ZM31.9444 23.2796C32.2499 23.2796 32.4984 23.5281 32.4984 23.8336V25.6258H29.9848C29.9844 25.6258 29.984 25.6258 29.9836 25.6258C29.9213 25.6265 29.8704 25.6745 29.8651 25.7355C29.8443 25.8948 29.7947 26.0469 29.7179 26.1876C29.5947 26.4126 29.5918 26.6722 29.7101 26.8821C29.7921 27.0277 29.8445 27.1861 29.8658 27.353C29.8725 27.4049 29.8759 27.46 29.8759 27.5164C29.8759 28.2603 29.2431 28.8602 28.4903 28.8062C27.8551 28.7622 27.3402 28.2505 27.2926 27.6161C27.2862 27.5282 27.2884 27.4395 27.2992 27.3525C27.3193 27.1917 27.3691 27.0382 27.447 26.8962C27.5702 26.6713 27.5731 26.4116 27.4548 26.2017C27.3463 26.0088 27.2889 25.7894 27.2889 25.5674C27.2889 24.8545 27.8692 24.2743 28.5825 24.2739C28.6011 24.2739 28.6195 24.2695 28.6362 24.2612C28.6768 24.2409 28.7025 24.1993 28.7025 24.1538V23.2797L31.9444 23.2796ZM24.6668 23.8336C24.6668 23.5281 24.9153 23.2796 25.2208 23.2796H28.4626V24.0337H24.6668V23.8336ZM24.6668 24.2738H27.7606C27.3332 24.5464 27.0489 25.0243 27.0489 25.5674C27.0489 25.5869 27.05 25.6063 27.0508 25.6258H24.6668V24.2738ZM24.6668 25.8659H27.0784C27.1099 26.0246 27.1661 26.178 27.2457 26.3195C27.323 26.4567 27.3196 26.6292 27.2366 26.7807C27.1612 26.9181 27.1085 27.0646 27.0784 27.2175H24.6668V25.8659ZM24.6668 27.4576H27.0505C27.0482 27.5163 27.0489 27.5753 27.0532 27.6339C27.0901 28.1264 27.3644 28.5565 27.7606 28.8096H24.6668V27.4576ZM25.2208 29.8039C24.9153 29.8039 24.6668 29.5554 24.6668 29.2499V29.0498H28.4626V29.8039H25.2208ZM32.4984 29.2499C32.4984 29.5554 32.2499 29.8039 31.9444 29.8039H28.7027V29.0498H32.4984V29.2499ZM29.405 28.8096C29.832 28.5372 30.1161 28.0595 30.1161 27.5165C30.1161 27.4966 30.115 27.4772 30.1143 27.4577H32.4984V28.8097L29.405 28.8096Z" fill="#B3B3B3"/>
<path d="M25.6432 16.6548C25.5301 16.5704 25.3574 16.5281 25.1253 16.5281C24.893 16.5281 24.7242 16.5711 24.6186 16.657C24.513 16.7429 24.4603 16.8779 24.4603 17.0618V18.8983C24.4603 19.0582 24.5161 19.181 24.6277 19.267C24.7392 19.3529 24.9096 19.3959 25.1389 19.3959C25.356 19.3959 25.5226 19.3529 25.6387 19.267C25.7547 19.181 25.8129 19.0582 25.8129 18.8983V18.2379L25.451 18.2832V18.8124C25.451 18.8938 25.4276 18.961 25.3809 19.0137C25.3341 19.0665 25.252 19.0929 25.1344 19.0929C25.0198 19.0929 24.9398 19.0665 24.8946 19.0137C24.8494 18.961 24.8268 18.8953 24.8268 18.8169V17.1478C24.8268 17.0544 24.8471 16.9775 24.8879 16.9172C24.9286 16.8569 25.0107 16.8267 25.1344 16.8267C25.2611 16.8267 25.3454 16.8554 25.3877 16.9126C25.4298 16.9699 25.451 17.0498 25.451 17.1524V17.7132L25.8129 17.668V17.0664C25.8128 16.8764 25.7563 16.7392 25.6432 16.6548Z" fill="#EAEAEA"/>
<path d="M26.9527 17.2112C26.8713 17.2112 26.7905 17.2323 26.7107 17.2745C26.6308 17.3168 26.5682 17.3786 26.523 17.46L26.4868 17.2383H26.1973V19.3643H26.5547V17.8037C26.5788 17.7132 26.624 17.6439 26.6903 17.5956C26.7566 17.5475 26.8351 17.5232 26.9255 17.5232C26.9918 17.5232 27.0484 17.527 27.0952 17.5345C27.1419 17.5421 27.1834 17.5534 27.2195 17.5685L27.2331 17.2564C27.206 17.2413 27.1713 17.23 27.1291 17.2225C27.0868 17.215 27.028 17.2112 26.9527 17.2112Z" fill="#EAEAEA"/>
<path d="M28.5562 17.2858C28.4582 17.2391 28.3202 17.2157 28.1423 17.2157C27.9523 17.2157 27.8082 17.2398 27.7103 17.2881C27.6123 17.3363 27.5459 17.3989 27.5113 17.4758C27.4766 17.5527 27.4593 17.6349 27.4593 17.7223V18.8758C27.4593 18.9602 27.4758 19.0417 27.509 19.12C27.5422 19.1985 27.6063 19.2618 27.7013 19.31C27.7963 19.3583 27.9357 19.3824 28.1197 19.3824C28.3036 19.3824 28.4469 19.3583 28.5494 19.31C28.6519 19.2618 28.7228 19.1962 28.762 19.1133C28.8011 19.0304 28.8208 18.9391 28.8208 18.8396V18.5681L28.4635 18.5998V18.7852C28.4635 18.8848 28.4356 18.961 28.3798 19.0137C28.324 19.0665 28.2373 19.0928 28.1197 19.0928C28.0262 19.0928 27.9524 19.0679 27.8981 19.0182C27.8438 18.9685 27.8167 18.8983 27.8167 18.8079V18.3556H28.8208V18.1882V18.1611V17.7178C28.8208 17.6274 28.8012 17.5445 28.762 17.4691C28.7228 17.3936 28.6541 17.3325 28.5562 17.2858ZM27.8166 18.161V17.7811C27.8166 17.6937 27.8452 17.6228 27.9026 17.5685C27.9598 17.5142 28.0397 17.4871 28.1423 17.4871C28.2478 17.4871 28.3278 17.5142 28.382 17.5685C28.4363 17.6228 28.4634 17.6937 28.4634 17.7811V18.161H27.8166Z" fill="#EAEAEA"/>
<path d="M30.2184 17.2383H29.7028C29.5791 17.2383 29.4819 17.2519 29.411 17.279C29.3401 17.3062 29.2896 17.3522 29.2595 17.417C29.2293 17.4819 29.2142 17.5701 29.2142 17.6816V18.8622C29.2142 19.01 29.2248 19.1194 29.2459 19.1901C29.2669 19.2611 29.3047 19.3077 29.359 19.3303C29.4132 19.353 29.4931 19.3643 29.5987 19.3643H30.5757V16.5191H30.2184V17.2383H30.2184ZM30.2184 19.0747H29.7661C29.6937 19.0747 29.6432 19.0619 29.6146 19.0363C29.5859 19.0107 29.5716 18.9466 29.5716 18.844V17.7404C29.5716 17.6529 29.5859 17.5956 29.6146 17.5685C29.6432 17.5414 29.6997 17.5278 29.7842 17.5278H30.2185L30.2184 19.0747Z" fill="#EAEAEA"/>
<path d="M31.3809 17.2383H31.0235V19.3643H31.3809V17.2383Z" fill="#EAEAEA"/>
<path d="M31.2 16.6502C31.1156 16.6502 31.0613 16.6623 31.0371 16.6864C31.013 16.7106 31.0009 16.7559 31.0009 16.8222C31.0009 16.8855 31.013 16.9292 31.0371 16.9533C31.0612 16.9775 31.1156 16.9895 31.2 16.9895C31.2844 16.9895 31.3386 16.9775 31.3628 16.9533C31.3869 16.9292 31.399 16.8854 31.399 16.8222C31.399 16.7559 31.3869 16.7106 31.3628 16.6864C31.3386 16.6623 31.2844 16.6502 31.2 16.6502Z" fill="#EAEAEA"/>
<path d="M32.2787 19.0114C32.2319 18.9692 32.2086 18.8892 32.2086 18.7716V17.5096H32.5162L32.5976 17.2382H32.2086V16.8401H31.9508L31.892 17.2382H31.7065V17.5096H31.8558V18.9028C31.8558 19.0265 31.8754 19.1221 31.9146 19.19C31.9537 19.2579 32.0126 19.3039 32.091 19.328C32.1694 19.3521 32.2658 19.3642 32.3805 19.3642H32.6338V19.0747H32.48C32.3925 19.0747 32.3254 19.0537 32.2787 19.0114Z" fill="#EAEAEA"/>
<path d="M34.78 16.6548C34.6669 16.5704 34.4943 16.5281 34.2621 16.5281C34.0299 16.5281 33.8611 16.5711 33.7555 16.657C33.6499 16.7429 33.5972 16.8779 33.5972 17.0618V18.8983C33.5972 19.0582 33.6529 19.181 33.7646 19.267C33.8761 19.3529 34.0465 19.3959 34.2757 19.3959C34.4928 19.3959 34.6594 19.3529 34.7755 19.267C34.8916 19.181 34.9497 19.0582 34.9497 18.8983V18.2379L34.5878 18.2832V18.8124C34.5878 18.8938 34.5644 18.961 34.5177 19.0137C34.471 19.0665 34.3888 19.0929 34.2712 19.0929C34.1566 19.0929 34.0767 19.0665 34.0315 19.0137C33.9863 18.961 33.9636 18.8953 33.9636 18.8169V17.1478C33.9636 17.0544 33.984 16.9775 34.0247 16.9172C34.0655 16.8569 34.1476 16.8267 34.2712 16.8267C34.3979 16.8267 34.4823 16.8554 34.5245 16.9126C34.5667 16.9699 34.5878 17.0498 34.5878 17.1524V17.7132L34.9497 17.668V17.0664C34.9497 16.8764 34.8931 16.7392 34.78 16.6548Z" fill="#EAEAEA"/>
<path d="M35.5037 17.2813C35.4298 17.31 35.3794 17.3581 35.3522 17.426C35.3251 17.4939 35.3115 17.5866 35.3115 17.7042V18.7807C35.3115 18.9315 35.3175 19.0491 35.3296 19.1335C35.3416 19.218 35.3725 19.2776 35.4223 19.3122C35.4721 19.3469 35.5542 19.3642 35.6688 19.3642H36.1619L36.2026 19.0747H35.8588C35.8045 19.0747 35.7638 19.068 35.7367 19.0544C35.7095 19.0408 35.6914 19.0136 35.6824 18.973C35.6733 18.9322 35.6688 18.8712 35.6688 18.7898V17.8082C35.6688 17.7358 35.6718 17.6801 35.6779 17.6409C35.6839 17.6018 35.7012 17.573 35.7299 17.555C35.7585 17.5369 35.8075 17.5278 35.8769 17.5278H36.3156V19.3643H36.6729V17.2384H35.818C35.6824 17.2383 35.5776 17.2526 35.5037 17.2813Z" fill="#EAEAEA"/>
<path d="M37.8807 17.2112C37.7993 17.2112 37.7186 17.2323 37.6388 17.2745C37.5589 17.3168 37.4963 17.3786 37.4511 17.46L37.4149 17.2383H37.1253V19.3643H37.4827V17.8037C37.5068 17.7132 37.552 17.6439 37.6183 17.5956C37.6847 17.5475 37.7631 17.5232 37.8535 17.5232C37.9199 17.5232 37.9764 17.527 38.0232 17.5345C38.0699 17.5421 38.1114 17.5534 38.1476 17.5685L38.1611 17.2564C38.134 17.2413 38.0993 17.23 38.0571 17.2225C38.0149 17.215 37.9561 17.2112 37.8807 17.2112Z" fill="#EAEAEA"/>
<path d="M39.4096 16.5191V17.2383H38.8939C38.7702 17.2383 38.673 17.2519 38.6021 17.279C38.5312 17.3062 38.4807 17.3522 38.4506 17.417C38.4204 17.4819 38.4053 17.5701 38.4053 17.6816V18.8622C38.4053 19.01 38.4159 19.1194 38.437 19.1901C38.4581 19.2611 38.4958 19.3077 38.5501 19.3303C38.6044 19.353 38.6842 19.3643 38.7898 19.3643H39.7668V16.5191H39.4096ZM39.4096 19.0747H38.9572C38.8848 19.0747 38.8343 19.0619 38.8057 19.0363C38.777 19.0107 38.7627 18.9466 38.7627 18.844V17.7404C38.7627 17.6529 38.777 17.5956 38.8057 17.5685C38.8343 17.5414 38.8908 17.5278 38.9754 17.5278H39.4096V19.0747H39.4096Z" fill="#EAEAEA"/>
<path d="M58.5663 17.8896C58.5135 17.8444 58.4434 17.8172 58.356 17.8082V17.7991C58.4132 17.7961 58.466 17.772 58.5143 17.7267C58.5625 17.6815 58.6017 17.6197 58.6319 17.5412C58.662 17.4629 58.6772 17.3738 58.6772 17.2744V17.0663C58.6772 16.9306 58.6591 16.8273 58.6229 16.7565C58.5867 16.6856 58.5301 16.6374 58.4533 16.6117C58.3763 16.5861 58.276 16.5733 58.1525 16.5733H57.3428V19.3778H58.1751C58.3258 19.3778 58.4397 19.3582 58.5166 19.319C58.5935 19.2798 58.6455 19.2172 58.6726 19.1313C58.6998 19.0453 58.7134 18.9315 58.7134 18.7898V18.2922C58.7134 18.2078 58.7021 18.131 58.6795 18.0616C58.6567 17.9921 58.619 17.9348 58.5663 17.8896ZM57.7136 16.8402H58.0484C58.1298 16.8402 58.1893 16.8508 58.227 16.8718C58.2647 16.8929 58.2888 16.9283 58.2994 16.9781C58.3099 17.0279 58.3152 17.0935 58.3152 17.1749V17.3151C58.3152 17.4146 58.3024 17.4923 58.2768 17.5481C58.2511 17.6039 58.2172 17.6431 58.175 17.6657C58.1327 17.6883 58.0891 17.6996 58.0438 17.6996H57.7136V16.8402ZM58.3378 18.758C58.3378 18.8516 58.328 18.9225 58.3084 18.9706C58.2888 19.0189 58.2579 19.0514 58.2157 19.0679C58.1734 19.0845 58.1207 19.0928 58.0574 19.0928H57.7136V17.9846H58.0076C58.101 17.9846 58.1794 18.0057 58.2428 18.0479C58.3061 18.0902 58.3378 18.1671 58.3378 18.2786L58.3378 18.758Z" fill="#EAEAEA"/>
<path d="M59.2763 17.2948C59.2024 17.3234 59.152 17.3716 59.1248 17.4395C59.0977 17.5074 59.0841 17.6001 59.0841 17.7177V18.7942C59.0841 18.945 59.0901 19.0626 59.1022 19.147C59.1142 19.2315 59.1451 19.2911 59.1949 19.3256C59.2447 19.3604 59.3268 19.3777 59.4414 19.3777H59.9344L59.9751 19.0882H59.6313C59.5771 19.0882 59.5363 19.0814 59.5092 19.0678C59.482 19.0542 59.464 19.0271 59.4549 18.9864C59.4458 18.9458 59.4413 18.8847 59.4413 18.8033V17.8217C59.4413 17.7493 59.4443 17.6936 59.4504 17.6544C59.4564 17.6153 59.4737 17.5865 59.5024 17.5685C59.531 17.5503 59.58 17.5413 59.6494 17.5413H60.0881V19.3778H60.4455V17.2518H59.5905C59.455 17.2518 59.3502 17.2661 59.2763 17.2948Z" fill="#EAEAEA"/>
<path d="M62.1215 17.331C62.0325 17.2541 61.9021 17.2156 61.7302 17.2156C61.6096 17.2156 61.5063 17.2382 61.4204 17.2835C61.3344 17.3287 61.2688 17.3905 61.2236 17.4689L61.1874 17.2473H60.8979V19.3777H61.2552V17.7132C61.2793 17.6529 61.317 17.6039 61.3683 17.5662C61.4195 17.5285 61.4889 17.5097 61.5764 17.5097C61.6788 17.5097 61.758 17.5323 61.8139 17.5775C61.8696 17.6228 61.8975 17.6967 61.8975 17.7991V19.3777H62.2549V17.6815C62.2549 17.5247 62.2104 17.4078 62.1215 17.331Z" fill="#EAEAEA"/>
<path d="M64.0099 17.3242L63.6797 17.1975L63.1324 18.1565H63.0419V16.5507H62.6846V19.3777H63.0419V18.4279H63.1324L63.7295 19.3777H64.1366L63.4491 18.256L64.0099 17.3242Z" fill="#EAEAEA"/>
<path d="M66.1132 18.6224L66.1087 18.6178L66.1042 18.5907L65.4212 16.5733H65.0502V19.3777H65.4166V17.4598L65.4257 17.4915L66.0997 19.3777H66.4751V16.5733H66.1132V18.6224Z" fill="#EAEAEA"/>
<path d="M67.088 17.2948C67.014 17.3234 66.9636 17.3716 66.9365 17.4395C66.9093 17.5074 66.8957 17.6001 66.8957 17.7177V18.7942C66.8957 18.945 66.9017 19.0626 66.9139 19.147C66.9259 19.2315 66.9568 19.2911 67.0066 19.3256C67.0563 19.3604 67.1384 19.3777 67.2531 19.3777H67.7461L67.7868 19.0882H67.443C67.3887 19.0882 67.348 19.0814 67.3209 19.0678C67.2937 19.0542 67.2756 19.0271 67.2666 18.9864C67.2575 18.9457 67.253 18.8847 67.253 18.8033V17.8217C67.253 17.7493 67.256 17.6936 67.2621 17.6544C67.2681 17.6153 67.2854 17.5865 67.3141 17.5685C67.3427 17.5503 67.3917 17.5413 67.4611 17.5413H67.8998V19.3778H68.2571V17.2518H67.4022C67.2667 17.2518 67.1618 17.2661 67.088 17.2948Z" fill="#EAEAEA"/>
<path d="M70.883 17.2925C70.8091 17.2443 70.6982 17.2201 70.5506 17.2201C70.4722 17.2201 70.3929 17.2314 70.3131 17.254C70.2332 17.2766 70.1631 17.3181 70.1028 17.3784C70.0755 17.4057 70.0524 17.4389 70.0332 17.4772C70.0225 17.4522 70.0099 17.4275 69.9942 17.4033C69.958 17.3475 69.9044 17.3031 69.8337 17.2698C69.7627 17.2367 69.6655 17.2201 69.5419 17.2201C69.4212 17.2201 69.318 17.2412 69.2321 17.2834C69.1461 17.3257 69.0806 17.3874 69.0353 17.4689L68.9991 17.2472H68.7096V19.3777H69.067V17.7132C69.091 17.6529 69.128 17.6032 69.1778 17.5639C69.2276 17.5248 69.2976 17.5051 69.3882 17.5051C69.4877 17.5051 69.566 17.5285 69.6234 17.5752C69.6806 17.622 69.7093 17.6967 69.7093 17.7991V19.3777H70.0666V17.8081C70.0666 17.6996 70.0983 17.622 70.1616 17.5751C70.225 17.5285 70.3018 17.505 70.3923 17.505C70.4918 17.505 70.5702 17.5285 70.6275 17.5751C70.6848 17.622 70.7134 17.6996 70.7134 17.8081V19.3777H71.0708V17.6815C71.0708 17.6152 71.0579 17.5458 71.0323 17.4734C71.0066 17.401 70.9568 17.3408 70.883 17.2925Z" fill="#EAEAEA"/>
<path d="M72.7579 17.4825C72.7187 17.4072 72.6501 17.3461 72.5521 17.2994C72.4541 17.2527 72.3161 17.2293 72.1382 17.2293C71.9482 17.2293 71.8042 17.2534 71.7063 17.3017C71.6082 17.3499 71.5419 17.4125 71.5073 17.4894C71.4725 17.5662 71.4552 17.6484 71.4552 17.7359V18.8893C71.4552 18.9738 71.4718 19.0553 71.505 19.1336C71.5381 19.212 71.6022 19.2754 71.6972 19.3236C71.7922 19.3719 71.9317 19.396 72.1156 19.396C72.2996 19.396 72.4428 19.3719 72.5454 19.3236C72.6478 19.2754 72.7187 19.2098 72.758 19.1268C72.7972 19.044 72.8168 18.9527 72.8168 18.8532V18.5818L72.4594 18.6135V18.7989C72.4594 18.8985 72.4316 18.9747 72.3757 19.0274C72.3199 19.0802 72.2332 19.1065 72.1156 19.1065C72.0221 19.1065 71.9483 19.0816 71.894 19.0319C71.8397 18.9822 71.8126 18.912 71.8126 18.8215V18.3692H72.8167V18.2019V18.1747V17.7315C72.8167 17.6408 72.797 17.5579 72.7579 17.4825ZM71.8125 18.1745V17.7945C71.8125 17.7071 71.8411 17.6362 71.8984 17.5819C71.9557 17.5277 72.0356 17.5005 72.1382 17.5005C72.2437 17.5005 72.3236 17.5277 72.3779 17.5819C72.4322 17.6362 72.4593 17.7071 72.4593 17.7945V18.1745H71.8125Z" fill="#EAEAEA"/>
<path d="M25.523 37.3322V33.4695L24.7045 34.4388L24.4604 34.209L25.5302 32.8808H25.9466V37.3322H25.523Z" fill="#EAEAEA"/>
<path d="M26.5783 37.3322V37.0666C26.583 36.7842 26.6022 36.5472 26.6357 36.3557C26.6692 36.1643 26.7206 36.0039 26.7901 35.8747C26.8594 35.7455 26.9455 35.6318 27.0486 35.5337C27.1514 35.4357 27.2699 35.3387 27.404 35.2429C27.4566 35.2047 27.5081 35.17 27.5583 35.1388C27.6086 35.1078 27.6552 35.0778 27.6983 35.0491C27.885 34.9008 28.0189 34.7596 28.1004 34.6255C28.1817 34.4916 28.2225 34.3168 28.2225 34.1014V33.8357C28.2225 33.606 28.1769 33.4433 28.086 33.3475C27.9951 33.2518 27.873 33.2039 27.7199 33.2039H27.5547C27.4158 33.2039 27.3082 33.2363 27.2317 33.3008C27.155 33.3655 27.1036 33.4433 27.0773 33.5342C27.0509 33.6251 27.0378 33.7137 27.0378 33.7998V34.5106L26.607 34.4244V33.7855C26.607 33.551 26.6417 33.3679 26.7111 33.2362C26.7804 33.1046 26.8834 33.0125 27.0199 32.9598C27.1563 32.9072 27.3322 32.8808 27.5476 32.8808H27.7773C27.9735 32.8808 28.1363 32.9083 28.2655 32.9634C28.3948 33.0184 28.4905 33.1082 28.5527 33.2326C28.6149 33.3571 28.6461 33.5246 28.6461 33.7352V34.1372C28.6461 34.4054 28.5851 34.6254 28.463 34.7977C28.3409 34.97 28.1769 35.14 27.9712 35.3075C27.9137 35.3554 27.8538 35.4033 27.7917 35.4511C27.7294 35.499 27.6696 35.5444 27.6122 35.5875C27.4302 35.7264 27.2962 35.876 27.2101 36.0363C27.1239 36.1967 27.0677 36.3583 27.0413 36.5209C27.015 36.6836 27.0019 36.8392 27.0019 36.9876H28.646L28.5598 37.3322H26.5783Z" fill="#EAEAEA"/>
<path d="M30.1035 37.3393C29.864 37.3393 29.6738 37.307 29.5326 37.2424C29.3914 37.1778 29.2909 37.0749 29.2311 36.9337C29.1712 36.7926 29.1414 36.6118 29.1414 36.3916V35.7742L29.5722 35.8388V36.2768C29.5722 36.5066 29.6117 36.6825 29.6907 36.8045C29.7697 36.9266 29.9048 36.9876 30.0963 36.9876H30.2615C30.4625 36.9876 30.6001 36.9243 30.6743 36.7974C30.7485 36.6707 30.7856 36.4994 30.7856 36.2841V35.9107C30.7856 35.7145 30.7604 35.565 30.7102 35.462C30.6599 35.3591 30.5929 35.2897 30.5092 35.2538C30.4253 35.2179 30.3236 35.2 30.204 35.2H29.6799V34.8983H30.1466C30.2662 34.8983 30.3739 34.878 30.4697 34.8372C30.5654 34.7966 30.642 34.7212 30.6995 34.6111C30.7569 34.5011 30.7857 34.3431 30.7857 34.1372V33.8069C30.7857 33.5725 30.7462 33.4133 30.6672 33.3295C30.5882 33.2458 30.4601 33.2038 30.2831 33.2038H30.0748C29.9408 33.2038 29.8379 33.2326 29.7661 33.29C29.6943 33.3475 29.644 33.4217 29.6154 33.5126C29.5867 33.6036 29.5723 33.7041 29.5723 33.8141V34.3814L29.1415 34.288V33.7926C29.1415 33.4863 29.2168 33.2577 29.3676 33.1069C29.5184 32.9562 29.7325 32.8808 30.0102 32.8808H30.3549C30.5319 32.8808 30.6839 32.9072 30.8108 32.9598C30.9376 33.0125 31.0357 33.1058 31.1052 33.2397C31.1745 33.3738 31.2093 33.5676 31.2093 33.8213V34.1157C31.2093 34.2689 31.1865 34.4041 31.1411 34.5213C31.0955 34.6387 31.0345 34.7379 30.958 34.8193C30.8813 34.9007 30.8 34.9605 30.7139 34.9988C30.6277 35.0372 30.5463 35.0562 30.4698 35.0562V35.0706C30.5463 35.0706 30.6278 35.0839 30.7139 35.1101C30.8 35.1364 30.8813 35.1807 30.958 35.2429C31.0345 35.3052 31.0955 35.3865 31.1411 35.4869C31.1865 35.5875 31.2093 35.7095 31.2093 35.8531L31.2165 36.3844C31.2165 36.7147 31.1339 36.9564 30.9688 37.1096C30.8037 37.2628 30.5775 37.3393 30.2903 37.3393H30.1035Z" fill="#EAEAEA"/>
<path d="M33.3127 37.3322L33.3199 36.4204H31.6973L31.5537 36.205L33.2481 32.8808H33.7794L33.7722 36.0686H34.4686L34.3825 36.4204H33.7794V37.3322H33.3127ZM32.0563 36.0686H33.3343V33.448L32.0563 36.0686Z" fill="#EAEAEA"/>
<path d="M38.3347 37.3465C38.1145 37.3465 37.9386 37.3095 37.807 37.2353C37.6753 37.1611 37.5832 37.0522 37.5305 36.9086C37.4778 36.765 37.4516 36.5855 37.4516 36.3701V35.7742L37.8967 35.8604V36.3199C37.8967 36.5257 37.9277 36.6897 37.99 36.8117C38.0522 36.9338 38.1767 36.9948 38.3634 36.9948H38.586C38.7534 36.9948 38.8827 36.9327 38.9737 36.8081C39.0645 36.6837 39.1101 36.5186 39.1101 36.3128V35.5875C39.1101 35.353 39.0922 35.1735 39.0563 35.049C39.0204 34.9246 38.9641 34.8408 38.8876 34.7977C38.8109 34.7546 38.7128 34.7331 38.5932 34.7331H38.4639C38.3442 34.7331 38.2437 34.7618 38.1624 34.8193C38.0809 34.8767 38.0188 34.9414 37.9757 35.0131C37.9327 35.0849 37.9063 35.1448 37.8968 35.1926L37.4731 35.0993V32.8808H39.4619V33.2254H37.8967V34.7332C37.9158 34.7141 37.9553 34.6793 38.0152 34.629C38.075 34.5788 38.1527 34.531 38.2485 34.4854C38.3442 34.44 38.4567 34.4172 38.586 34.4172H38.7726C38.8922 34.4172 38.9999 34.4341 39.0957 34.4675C39.1914 34.501 39.2716 34.5584 39.3362 34.6398C39.4009 34.7212 39.4511 34.8349 39.487 34.9808C39.5229 35.1268 39.5408 35.3123 39.5408 35.5372V36.2982C39.5408 36.5185 39.5108 36.6967 39.451 36.8332C39.3911 36.9696 39.3146 37.0761 39.2213 37.1527C39.128 37.2293 39.0311 37.2808 38.9305 37.307C38.83 37.3333 38.739 37.3465 38.6577 37.3465H38.3347Z" fill="#EAEAEA"/>
<path d="M41.0917 37.3609C40.9481 37.3609 40.814 37.3477 40.6896 37.3214C40.5652 37.2951 40.4563 37.2424 40.363 37.1634C40.2697 37.0845 40.1966 36.9708 40.144 36.8224C40.0913 36.6741 40.065 36.4802 40.065 36.2408V33.7781C40.065 33.5676 40.0996 33.394 40.1691 33.2576C40.2384 33.1212 40.3498 33.0196 40.503 32.9525C40.6561 32.8856 40.8572 32.852 41.1061 32.852C41.3406 32.852 41.5333 32.8831 41.6841 32.9453C41.8349 33.0076 41.9472 33.0997 42.0215 33.2217C42.0956 33.3438 42.1328 33.4982 42.1328 33.6848V34.1227L41.7091 34.1802V33.8068C41.7091 33.6106 41.6625 33.4622 41.5691 33.3617C41.4758 33.2612 41.3214 33.2109 41.106 33.2109C40.8906 33.2109 40.735 33.2611 40.6394 33.3617C40.5435 33.4622 40.4957 33.6106 40.4957 33.8068V34.934C40.5244 34.8192 40.6022 34.7199 40.7291 34.6361C40.8558 34.5524 41.0366 34.5104 41.2711 34.5104C41.5009 34.5104 41.6779 34.5535 41.8024 34.6397C41.9268 34.7258 42.0129 34.8371 42.0609 34.9735C42.1087 35.1099 42.1327 35.2596 42.1327 35.4223V36.2408C42.1327 36.4801 42.1075 36.6751 42.0573 36.8259C42.007 36.9767 41.9363 37.0904 41.8455 37.1669C41.7545 37.2435 41.6444 37.295 41.5152 37.3213C41.3861 37.3477 41.2449 37.3609 41.0917 37.3609ZM41.0845 37.0019C41.2138 37.0019 41.325 36.9804 41.4184 36.9373C41.5117 36.8942 41.5835 36.8105 41.6337 36.686C41.684 36.5616 41.7091 36.3798 41.7091 36.1404V35.4798C41.7091 35.3649 41.6948 35.2549 41.666 35.1496C41.6373 35.0443 41.5799 34.9581 41.4937 34.8911C41.4076 34.8241 41.2759 34.7905 41.0988 34.7905C40.8882 34.7905 40.735 34.8516 40.6394 34.9736C40.5435 35.0957 40.4957 35.2644 40.4957 35.4798V36.1404C40.4957 36.3798 40.5219 36.5616 40.5747 36.686C40.6273 36.8105 40.6979 36.8943 40.7865 36.9373C40.875 36.9804 40.9743 37.0019 41.0845 37.0019Z" fill="#EAEAEA"/>
<path d="M42.585 37.3322L44.2937 33.2254H42.5204L42.5993 32.8808H44.9112L43.0876 37.3322H42.585Z" fill="#EAEAEA"/>
<path d="M46.1245 37.3465C45.9091 37.3465 45.7308 37.3131 45.5896 37.246C45.4483 37.179 45.3455 37.0677 45.2809 36.9121C45.2162 36.7567 45.184 36.5472 45.184 36.2839V35.9608C45.184 35.7502 45.2102 35.5815 45.2629 35.4546C45.3156 35.3279 45.3874 35.2309 45.4783 35.1638C45.5692 35.0968 45.6673 35.0586 45.7727 35.049C45.6722 35.0202 45.5789 34.9761 45.4927 34.9161C45.4066 34.8564 45.3383 34.7643 45.288 34.6397C45.2378 34.5153 45.2126 34.3502 45.2126 34.1443V33.8715C45.2126 33.6322 45.2425 33.4395 45.3024 33.2935C45.3622 33.1476 45.4603 33.0399 45.5967 32.9704C45.7332 32.9011 45.9114 32.8663 46.1317 32.8663H46.3471C46.6676 32.8663 46.8999 32.9429 47.0435 33.0961C47.1871 33.2493 47.2589 33.5029 47.2589 33.8571V34.1371C47.2589 34.343 47.2325 34.5068 47.1799 34.6289C47.1272 34.751 47.0578 34.8443 46.9716 34.9089C46.8855 34.9736 46.7874 35.0202 46.6773 35.049C46.7873 35.0633 46.8891 35.104 46.9824 35.171C47.0757 35.2381 47.1498 35.335 47.2049 35.4618C47.2599 35.5887 47.2875 35.7551 47.2875 35.9608V36.169C47.2875 36.4705 47.2527 36.7075 47.1834 36.8798C47.114 37.0521 47.005 37.1731 46.8567 37.2423C46.7083 37.3118 46.5168 37.3465 46.2824 37.3465H46.1245V37.3465ZM46.2178 36.9947C46.3471 36.9947 46.4595 36.9757 46.5553 36.9373C46.651 36.899 46.724 36.8201 46.7743 36.7003C46.8245 36.5808 46.8497 36.4013 46.8497 36.1619V35.8532C46.8497 35.7049 46.8341 35.5816 46.8031 35.4834C46.7719 35.3854 46.7133 35.31 46.6272 35.2573C46.541 35.2047 46.4093 35.1783 46.2323 35.1783C46.0647 35.1783 45.9367 35.2047 45.8482 35.2573C45.7596 35.31 45.6997 35.3854 45.6686 35.4834C45.6375 35.5816 45.622 35.7049 45.622 35.8532V36.2337C45.622 36.4491 45.6495 36.6119 45.7046 36.722C45.7596 36.8321 45.8326 36.9051 45.9236 36.941C46.0144 36.9768 46.1125 36.9947 46.2178 36.9947ZM46.2323 34.848C46.3615 34.848 46.4716 34.8289 46.5625 34.7905C46.6534 34.7523 46.7228 34.6828 46.7707 34.5823C46.8185 34.4818 46.8425 34.3383 46.8425 34.1516V33.8715C46.8425 33.7327 46.8281 33.613 46.7994 33.5126C46.7706 33.4121 46.7133 33.3331 46.6271 33.2756C46.5409 33.2182 46.4092 33.1894 46.2322 33.1894C46.0646 33.1894 45.9378 33.2182 45.8517 33.2756C45.7656 33.3331 45.7068 33.4109 45.6758 33.509C45.6446 33.6071 45.6292 33.7232 45.6292 33.8572V34.1587C45.6292 34.3454 45.6531 34.4878 45.7009 34.5859C45.7487 34.684 45.8169 34.7522 45.9056 34.7905C45.9941 34.8289 46.103 34.848 46.2323 34.848Z" fill="#EAEAEA"/>
<path d="M51.5126 37.3681C51.278 37.3681 51.0854 37.3369 50.9346 37.2748C50.7839 37.2126 50.6726 37.1193 50.6008 36.9948C50.529 36.8704 50.4931 36.7173 50.4931 36.5353V36.004L50.9096 36.0542V36.4132C50.9096 36.6095 50.9562 36.7578 51.0495 36.8583C51.1429 36.9589 51.2973 37.0091 51.5126 37.0091C51.7327 37.0091 51.8895 36.9589 51.9829 36.8583C52.0762 36.7578 52.1229 36.6095 52.1229 36.4132V35.286C52.0894 35.4008 52.0104 35.5003 51.8859 35.584C51.7614 35.6678 51.5844 35.7096 51.3546 35.7096C51.12 35.7096 50.9406 35.6665 50.8162 35.5804C50.6917 35.4942 50.6055 35.3818 50.5577 35.2429C50.5098 35.1041 50.4859 34.9557 50.4859 34.7978V33.9793C50.4859 33.7352 50.511 33.539 50.5613 33.3905C50.6115 33.2422 50.6821 33.1297 50.7731 33.053C50.8639 32.9765 50.9741 32.925 51.1033 32.8987C51.2326 32.8724 51.3762 32.8592 51.5341 32.8592C51.6729 32.8592 51.8045 32.8724 51.929 32.8987C52.0535 32.925 52.1624 32.9777 52.2557 33.0566C52.349 33.1356 52.4208 33.2494 52.4711 33.3977C52.5213 33.546 52.5465 33.7399 52.5465 33.9792V36.4418C52.5465 36.6476 52.5129 36.82 52.4459 36.9588C52.3789 37.0977 52.27 37.2005 52.1193 37.2675C51.9685 37.3345 51.7662 37.3681 51.5126 37.3681ZM51.5197 35.4295C51.7303 35.4295 51.8835 35.3674 51.9793 35.2429C52.075 35.1185 52.1229 34.951 52.1229 34.7403V34.0798C52.1229 33.8405 52.0965 33.6587 52.0439 33.5341C51.9912 33.4097 51.9207 33.3259 51.8321 33.2828C51.7435 33.2398 51.6466 33.2182 51.5413 33.2182C51.4073 33.2182 51.2936 33.2398 51.2003 33.2828C51.1069 33.3259 51.0352 33.4098 50.9849 33.5341C50.9347 33.6586 50.9096 33.8405 50.9096 34.0798V34.7403C50.9096 34.8552 50.925 34.9641 50.9562 35.067C50.9872 35.17 51.046 35.2561 51.1321 35.3255C51.2182 35.3949 51.3474 35.4295 51.5197 35.4295Z" fill="#EAEAEA"/>
<path d="M53.9967 37.3322V33.4695L53.1782 34.4388L52.9341 34.209L54.0039 32.8808H54.4203V37.3322H53.9967Z" fill="#EAEAEA"/>
<path d="M55.052 37.3322V37.0666C55.0567 36.7842 55.0759 36.5472 55.1094 36.3557C55.1429 36.1643 55.1944 36.0039 55.2638 35.8747C55.3331 35.7455 55.4193 35.6318 55.5223 35.5337C55.6252 35.4357 55.7436 35.3387 55.8777 35.2429C55.9303 35.2047 55.9818 35.17 56.0321 35.1388C56.0823 35.1078 56.129 35.0778 56.1721 35.0491C56.3587 34.9008 56.4926 34.7596 56.5741 34.6255C56.6555 34.4916 56.6962 34.3168 56.6962 34.1014V33.8357C56.6962 33.606 56.6507 33.4433 56.5598 33.3475C56.4688 33.2518 56.3467 33.2039 56.1936 33.2039H56.0284C55.8895 33.2039 55.7819 33.2363 55.7054 33.3008C55.6288 33.3655 55.5773 33.4433 55.551 33.5342C55.5246 33.6251 55.5115 33.7137 55.5115 33.7998V34.5106L55.0807 34.4244V33.7855C55.0807 33.551 55.1154 33.3679 55.1849 33.2362C55.2542 33.1046 55.3572 33.0125 55.4936 32.9598C55.63 32.9072 55.8059 32.8808 56.0213 32.8808H56.2511C56.4473 32.8808 56.6101 32.9083 56.7393 32.9634C56.8685 33.0184 56.9643 33.1082 57.0265 33.2326C57.0887 33.3571 57.1198 33.5246 57.1198 33.7352V34.1372C57.1198 34.4054 57.0588 34.6254 56.9367 34.7977C56.8147 34.97 56.6507 35.14 56.4449 35.3075C56.3875 35.3554 56.3275 35.4033 56.2654 35.4511C56.2031 35.499 56.1433 35.5444 56.0859 35.5875C55.9039 35.7264 55.77 35.876 55.6838 36.0363C55.5976 36.1967 55.5414 36.3583 55.5151 36.5209C55.4887 36.6836 55.4756 36.8392 55.4756 36.9876H57.1197L57.0335 37.3322H55.052Z" fill="#EAEAEA"/>
<path d="M58.5772 37.3393C58.3379 37.3393 58.1476 37.307 58.0064 37.2424C57.8652 37.1778 57.7647 37.0749 57.7049 36.9337C57.645 36.7926 57.6151 36.6118 57.6151 36.3916V35.7742L58.0459 35.8388V36.2768C58.0459 36.5066 58.0854 36.6825 58.1644 36.8045C58.2434 36.9266 58.3786 36.9876 58.57 36.9876H58.7352C58.9363 36.9876 59.0738 36.9243 59.148 36.7974C59.2222 36.6707 59.2593 36.4994 59.2593 36.2841V35.9107C59.2593 35.7145 59.2342 35.565 59.1839 35.462C59.1336 35.3591 59.0666 35.2897 58.9829 35.2538C58.8991 35.2179 58.7974 35.2 58.6778 35.2H58.1537V34.8983H58.6203C58.7399 34.8983 58.8477 34.878 58.9435 34.8372C59.0391 34.7966 59.1158 34.7212 59.1732 34.6111C59.2306 34.5011 59.2593 34.3431 59.2593 34.1372V33.8069C59.2593 33.5725 59.2198 33.4133 59.1408 33.3295C59.0619 33.2458 58.9338 33.2038 58.7567 33.2038H58.5485C58.4144 33.2038 58.3116 33.2326 58.2398 33.29C58.168 33.3475 58.1177 33.4217 58.089 33.5126C58.0603 33.6036 58.0459 33.7041 58.0459 33.8141V34.3814L57.6151 34.288V33.7926C57.6151 33.4863 57.6905 33.2577 57.8413 33.1069C57.9921 32.9562 58.2063 32.8808 58.4839 32.8808H58.8285C59.0055 32.8808 59.1575 32.9072 59.2845 32.9598C59.4113 33.0125 59.5094 33.1058 59.5789 33.2397C59.6481 33.3738 59.683 33.5676 59.683 33.8213V34.1157C59.683 34.2689 59.6602 34.4041 59.6147 34.5213C59.5692 34.6387 59.5082 34.7379 59.4316 34.8193C59.355 34.9007 59.2737 34.9605 59.1875 34.9988C59.1014 35.0372 59.02 35.0562 58.9435 35.0562V35.0706C59.02 35.0706 59.1014 35.0839 59.1875 35.1101C59.2737 35.1364 59.3551 35.1807 59.4316 35.2429C59.5081 35.3052 59.5692 35.3865 59.6147 35.4869C59.6602 35.5875 59.683 35.7095 59.683 35.8531L59.6902 36.3844C59.6902 36.7147 59.6076 36.9564 59.4424 37.1096C59.2773 37.2628 59.0511 37.3393 58.764 37.3393H58.5772Z" fill="#EAEAEA"/>
<path d="M64.4391 37.3322L64.4463 36.4204H62.8236L62.68 36.205L64.3744 32.8808H64.9057L64.8986 36.0686H65.595L65.5088 36.4204H64.9057V37.3322H64.4391ZM63.1827 36.0686H64.4607V33.448L63.1827 36.0686Z" fill="#EAEAEA"/>
<path d="M66.8084 37.3465C66.5882 37.3465 66.4123 37.3095 66.2807 37.2353C66.149 37.1611 66.0569 37.0522 66.0043 36.9086C65.9516 36.765 65.9253 36.5855 65.9253 36.3701V35.7742L66.3704 35.8604V36.3199C66.3704 36.5257 66.4015 36.6897 66.4637 36.8117C66.5259 36.9338 66.6504 36.9948 66.8371 36.9948H67.0597C67.2272 36.9948 67.3564 36.9327 67.4474 36.8081C67.5382 36.6837 67.5838 36.5186 67.5838 36.3128V35.5875C67.5838 35.353 67.5659 35.1735 67.53 35.049C67.4941 34.9246 67.4378 34.8408 67.3612 34.7977C67.2846 34.7546 67.1864 34.7331 67.0668 34.7331H66.9376C66.8179 34.7331 66.7173 34.7618 66.6361 34.8193C66.5546 34.8767 66.4924 34.9414 66.4494 35.0131C66.4064 35.0849 66.38 35.1448 66.3704 35.1926L65.9468 35.0993V32.8808H67.9356V33.2254H66.3704V34.7332C66.3894 34.7141 66.4289 34.6793 66.4888 34.629C66.5486 34.5788 66.6263 34.531 66.7221 34.4854C66.8178 34.44 66.9303 34.4172 67.0596 34.4172H67.2462C67.3658 34.4172 67.4735 34.4341 67.5693 34.4675C67.665 34.501 67.7452 34.5584 67.8098 34.6398C67.8745 34.7212 67.9247 34.8349 67.9606 34.9808C67.9965 35.1268 68.0144 35.3123 68.0144 35.5372V36.2982C68.0144 36.5185 67.9844 36.6967 67.9246 36.8332C67.8647 36.9696 67.7882 37.0761 67.6949 37.1527C67.6016 37.2293 67.5046 37.2808 67.4041 37.307C67.3036 37.3333 67.2126 37.3465 67.1313 37.3465H66.8084Z" fill="#EAEAEA"/>
<path d="M69.5654 37.3609C69.4218 37.3609 69.2877 37.3477 69.1634 37.3214C69.0388 37.2951 68.93 37.2424 68.8367 37.1634C68.7434 37.0845 68.6704 36.9708 68.6177 36.8224C68.565 36.6741 68.5387 36.4802 68.5387 36.2408V33.7781C68.5387 33.5676 68.5734 33.394 68.6429 33.2576C68.7121 33.1212 68.8235 33.0196 68.9767 32.9525C69.1299 32.8856 69.3309 32.852 69.5798 32.852C69.8143 32.852 70.007 32.8831 70.1578 32.9453C70.3086 33.0076 70.421 33.0997 70.4953 33.2217C70.5694 33.3438 70.6066 33.4982 70.6066 33.6848V34.1227L70.1829 34.1802V33.8068C70.1829 33.6106 70.1363 33.4622 70.0429 33.3617C69.9496 33.2612 69.7952 33.2109 69.5798 33.2109C69.3644 33.2109 69.2088 33.2611 69.1132 33.3617C69.0173 33.4622 68.9695 33.6106 68.9695 33.8068V34.934C68.9983 34.8192 69.076 34.7199 69.2029 34.6361C69.3297 34.5524 69.5103 34.5104 69.7449 34.5104C69.9747 34.5104 70.1517 34.5535 70.2762 34.6397C70.4006 34.7258 70.4868 34.8371 70.5347 34.9735C70.5825 35.1099 70.6064 35.2596 70.6064 35.4223V36.2408C70.6064 36.4801 70.5813 36.6751 70.5311 36.8259C70.4808 36.9767 70.4101 37.0904 70.3193 37.1669C70.2283 37.2435 70.1182 37.295 69.989 37.3213C69.8599 37.3477 69.7186 37.3609 69.5654 37.3609ZM69.5583 37.0019C69.6876 37.0019 69.7988 36.9804 69.8921 36.9373C69.9855 36.8942 70.0573 36.8105 70.1075 36.686C70.1578 36.5616 70.1829 36.3798 70.1829 36.1404V35.4798C70.1829 35.3649 70.1686 35.2549 70.1398 35.1496C70.1111 35.0443 70.0537 34.9581 69.9675 34.8911C69.8813 34.8241 69.7496 34.7905 69.5726 34.7905C69.3619 34.7905 69.2088 34.8516 69.1132 34.9736C69.0173 35.0957 68.9695 35.2644 68.9695 35.4798V36.1404C68.9695 36.3798 68.9958 36.5616 69.0485 36.686C69.1011 36.8105 69.1717 36.8943 69.2603 36.9373C69.3488 36.9804 69.4481 37.0019 69.5583 37.0019Z" fill="#EAEAEA"/>
<path d="M71.0588 37.3322L72.7675 33.2254H70.9941L71.0731 32.8808H73.385L71.5613 37.3322H71.0588Z" fill="#EAEAEA"/>
<path d="M25.7617 43.0132C25.6368 42.9195 25.4459 42.8726 25.1891 42.8726C24.9322 42.8726 24.7466 42.9204 24.6321 43.0158C24.5176 43.1113 24.4603 43.2597 24.4603 43.4609V45.6212C24.4603 45.8017 24.5228 45.9387 24.6477 46.0324C24.7726 46.1261 24.9582 46.173 25.2047 46.173C25.4406 46.173 25.6228 46.1261 25.7512 46.0324C25.8795 45.9387 25.9438 45.7999 25.9438 45.616V44.8768L25.6315 44.9184V45.5483C25.6315 45.6524 25.5985 45.7383 25.5326 45.806C25.4666 45.8736 25.3556 45.9075 25.1995 45.9075C25.0467 45.9075 24.9383 45.8736 24.8741 45.806C24.8098 45.7383 24.7778 45.6524 24.7778 45.5483V43.5338C24.7778 43.4159 24.8064 43.3196 24.8637 43.2449C24.9209 43.1703 25.0329 43.1329 25.1995 43.1329C25.3729 43.1329 25.4884 43.1694 25.5456 43.2423C25.6029 43.3152 25.6315 43.414 25.6315 43.5389V44.2L25.9438 44.1584V43.466C25.9474 43.2579 25.8867 43.1069 25.7617 43.0132Z" fill="#EAEAEA"/>
<path d="M26.6336 43.7315C26.552 43.7593 26.4974 43.8088 26.4696 43.8799C26.4418 43.951 26.4279 44.0542 26.4279 44.1896V45.4753C26.4279 45.6489 26.434 45.7842 26.4462 45.8813C26.4583 45.9785 26.4913 46.0453 26.5451 46.0817C26.5989 46.1182 26.69 46.1363 26.8184 46.1363H27.4222L27.4587 45.8865H26.9745C26.9016 45.8865 26.8487 45.877 26.8158 45.8579C26.7827 45.8389 26.7611 45.8032 26.7507 45.7511C26.7403 45.6991 26.735 45.621 26.735 45.5169V44.3144C26.735 44.2207 26.7385 44.147 26.7455 44.0932C26.7524 44.0394 26.7741 44.0004 26.8106 43.9761C26.847 43.9518 26.9103 43.9396 27.0006 43.9396H27.6148V46.1363H27.9272V43.6897H26.9901C26.834 43.6899 26.7151 43.7038 26.6336 43.7315Z" fill="#EAEAEA"/>
<path d="M29.3014 43.6587C29.2007 43.6587 29.1053 43.6839 29.0151 43.7342C28.9248 43.7846 28.8519 43.8548 28.7965 43.945L28.76 43.6899H28.5102V46.1365H28.8225V44.2521C28.8606 44.1515 28.9188 44.0725 28.9969 44.0152C29.075 43.958 29.1695 43.9293 29.2806 43.9293C29.3535 43.9293 29.415 43.9346 29.4654 43.9449C29.5157 43.9554 29.5617 43.9693 29.6034 43.9866L29.619 43.7107C29.5842 43.6934 29.5435 43.6804 29.4966 43.6717C29.4498 43.663 29.3847 43.6587 29.3014 43.6587Z" fill="#EAEAEA"/>
<path d="M31.1285 43.6899H30.4778C30.3355 43.6899 30.2253 43.7038 30.1473 43.7316C30.0692 43.7594 30.0154 43.808 29.9859 43.8774C29.9564 43.9468 29.9417 44.0458 29.9417 44.1741V45.5744C29.9417 45.741 29.9521 45.8642 29.9729 45.944C29.9937 46.0239 30.0335 46.076 30.0926 46.1002C30.1516 46.1246 30.2383 46.1367 30.3529 46.1367H31.4409V42.8624H31.1285L31.1285 43.6899ZM31.1285 45.8867H30.4882C30.3979 45.8867 30.3354 45.8702 30.3008 45.8372C30.2661 45.8042 30.2488 45.7236 30.2488 45.5952V44.2157C30.2488 44.1012 30.2661 44.0266 30.3008 43.9919C30.3354 43.9572 30.4101 43.9399 30.5246 43.9399H31.1285V45.8867Z" fill="#EAEAEA"/>
<path d="M33.3018 43.7524C33.2133 43.697 33.0806 43.6691 32.9036 43.6691C32.7579 43.6691 32.6407 43.6925 32.5522 43.7394C32.4637 43.7863 32.3917 43.8531 32.3362 43.9399V42.8623H32.0239V46.1366H32.3362V44.1585C32.3743 44.0856 32.4264 44.0257 32.4924 43.9789C32.5582 43.932 32.6519 43.9086 32.7735 43.9086C32.9122 43.9086 33.0198 43.9391 33.0962 43.9997C33.1725 44.0605 33.2107 44.1603 33.2107 44.2991V46.1366H33.523V44.1949C33.523 44.1186 33.5082 44.0396 33.4788 43.958C33.4492 43.8765 33.3903 43.8079 33.3018 43.7524Z" fill="#EAEAEA"/>
<path d="M35.2459 43.7446C35.1383 43.6908 34.9857 43.6638 34.7879 43.6638C34.5762 43.6638 34.4165 43.6917 34.309 43.7471C34.2014 43.8027 34.1294 43.8729 34.093 43.9579C34.0565 44.043 34.0383 44.1341 34.0383 44.2312V45.5898C34.0383 45.6835 34.0556 45.7738 34.0904 45.8605C34.125 45.9473 34.1945 46.0185 34.2986 46.0739C34.4027 46.1295 34.5554 46.1572 34.7567 46.1572C34.9649 46.1572 35.1254 46.1294 35.2382 46.0739C35.3509 46.0185 35.429 45.943 35.4725 45.8475C35.5158 45.7521 35.5375 45.6489 35.5375 45.5378V44.226C35.5375 44.1323 35.5158 44.042 35.4725 43.9553C35.429 43.8687 35.3535 43.7984 35.2459 43.7446ZM35.2251 45.5014C35.2251 45.6368 35.1852 45.7375 35.1054 45.8033C35.0256 45.8693 34.9076 45.9023 34.7515 45.9023C34.6334 45.9023 34.5362 45.8719 34.4599 45.8112C34.3836 45.7505 34.3454 45.6576 34.3454 45.5327V44.2833C34.3454 44.1584 34.3853 44.0639 34.4651 43.9996C34.5449 43.9354 34.6525 43.9033 34.7879 43.9033C34.9233 43.9033 35.0299 43.9363 35.108 44.0023C35.1861 44.0682 35.2251 44.1619 35.2251 44.2833V45.5014Z" fill="#EAEAEA"/>
<path d="M36.3859 42.8727H36.0736V46.1365H36.3859V42.8727Z" fill="#EAEAEA"/>
<path d="M38.135 43.6899H37.4843C37.342 43.6899 37.2319 43.7038 37.1538 43.7316C37.0757 43.7594 37.0219 43.808 36.9925 43.8774C36.9629 43.9468 36.9482 44.0458 36.9482 44.1741V45.5744C36.9482 45.741 36.9586 45.8642 36.9794 45.944C37.0002 46.0239 37.0401 46.076 37.0991 46.1002C37.1581 46.1246 37.2449 46.1367 37.3594 46.1367H38.4474V42.8624H38.1351L38.135 43.6899ZM38.135 45.8867H37.4947C37.4044 45.8867 37.342 45.8702 37.3073 45.8372C37.2726 45.8042 37.2553 45.7236 37.2553 45.5952V44.2157C37.2553 44.1012 37.2726 44.0266 37.3073 43.9919C37.342 43.9572 37.4166 43.9399 37.5312 43.9399H38.135V45.8867Z" fill="#EAEAEA"/>
<path d="M40.1963 43.7446C40.0887 43.6908 39.936 43.6638 39.7383 43.6638C39.5265 43.6638 39.3669 43.6917 39.2594 43.7471C39.1518 43.8027 39.0798 43.8729 39.0433 43.9579C39.0069 44.043 38.9887 44.1341 38.9887 44.2312V45.5898C38.9887 45.6835 39.006 45.7738 39.0407 45.8605C39.0754 45.9473 39.1449 46.0185 39.249 46.0739C39.3531 46.1295 39.5057 46.1572 39.707 46.1572C39.9153 46.1572 40.0757 46.1294 40.1886 46.0739C40.3013 46.0185 40.3794 45.943 40.4228 45.8475C40.4661 45.7521 40.4879 45.6489 40.4879 45.5378V45.2255L40.1755 45.2567V45.5013C40.1755 45.6367 40.1356 45.7373 40.0558 45.8032C39.976 45.8692 39.858 45.9021 39.7018 45.9021C39.5838 45.9021 39.4866 45.8718 39.4103 45.811C39.3339 45.7504 39.2958 45.6575 39.2958 45.5326V44.9495H40.4879V44.8038V44.7778V44.226C40.4879 44.1323 40.4661 44.042 40.4228 43.9553C40.3794 43.8687 40.3039 43.7984 40.1963 43.7446ZM39.2958 44.7778V44.2833C39.2958 44.1584 39.3357 44.0639 39.4155 43.9996C39.4953 43.9354 39.6029 43.9033 39.7383 43.9033C39.8736 43.9033 39.9803 43.9363 40.0584 44.0023C40.1365 44.0682 40.1755 44.1619 40.1755 44.2833V44.7778H39.2958Z" fill="#EAEAEA"/>
<path d="M42.0104 43.6717C41.9636 43.663 41.8986 43.6586 41.8152 43.6586C41.7145 43.6586 41.6191 43.6838 41.5289 43.7341C41.4386 43.7845 41.3658 43.8548 41.3103 43.9449L41.2739 43.6899H41.024V46.1365H41.3363V44.252C41.3744 44.1515 41.4326 44.0725 41.5107 44.0152C41.5888 43.9579 41.6834 43.9293 41.7944 43.9293C41.8673 43.9293 41.9289 43.9345 41.9792 43.9449C42.0295 43.9553 42.0755 43.9692 42.1172 43.9865L42.1328 43.7107C42.0981 43.6934 42.0573 43.6804 42.0104 43.6717Z" fill="#EAEAEA"/>
<path d="M61.537 43.3902H62.01V43.3095H61.6397V42.8448H61.9663L61.9814 42.7656H61.6397V42.4272H62.01V42.3464H61.537V43.3902Z" fill="#EAEAEA"/>
<path d="M62.5622 42.599H62.4747L62.334 42.9492H62.309L62.1683 42.599H62.0791L62.234 42.9845L62.0757 43.3903H62.165L62.3055 43.03H62.3376L62.4781 43.3903H62.5656L62.4107 42.9845L62.5622 42.599Z" fill="#EAEAEA"/>
<path d="M63.1237 42.6167C63.1052 42.6049 63.0735 42.599 63.0286 42.599H62.6784V43.658H62.7794V43.3903H62.9798C63.0314 43.3903 63.0701 43.3858 63.096 43.3768C63.1218 43.3679 63.1394 43.3519 63.149 43.3288C63.1585 43.3059 63.1633 43.2724 63.1633 43.2287V42.8212C63.1633 42.7606 63.1613 42.7143 63.1574 42.6823C63.1535 42.6504 63.1422 42.6285 63.1237 42.6167ZM63.0622 43.1882C63.0622 43.2174 63.0614 43.241 63.0597 43.259C63.058 43.2769 63.051 43.2898 63.0387 43.2977C63.0263 43.3056 63.0056 43.3095 62.9764 43.3095H62.7794V42.6798H62.9848C63.0084 42.6798 63.0255 42.683 63.0362 42.6891C63.0468 42.6953 63.0539 42.7068 63.0572 42.7236C63.0606 42.7404 63.0622 42.7657 63.0622 42.7994V43.1882Z" fill="#EAEAEA"/>
<path d="M63.4444 42.599H63.3434V43.3903H63.4444V42.599Z" fill="#EAEAEA"/>
<path d="M63.3922 42.3936C63.3675 42.3936 63.3518 42.3973 63.3451 42.4045C63.3384 42.4119 63.335 42.425 63.335 42.4441C63.335 42.4643 63.3383 42.4777 63.3451 42.4845C63.3518 42.4912 63.3676 42.4946 63.3922 42.4946C63.4169 42.4946 63.4329 42.4913 63.4402 42.4845C63.4475 42.4777 63.4511 42.4643 63.4511 42.4441C63.4511 42.425 63.4475 42.4119 63.4402 42.4045C63.4329 42.3973 63.4169 42.3936 63.3922 42.3936Z" fill="#EAEAEA"/>
<path d="M63.8889 42.5889C63.8563 42.5889 63.8254 42.597 63.7963 42.6133C63.7671 42.6296 63.7435 42.6523 63.7256 42.6815L63.7138 42.599H63.6329V43.3903H63.734V42.7808C63.7463 42.7482 63.7651 42.7227 63.7903 42.7041C63.8156 42.6856 63.8462 42.6764 63.8821 42.6764C63.9057 42.6764 63.9256 42.6781 63.9419 42.6814C63.9582 42.6848 63.973 42.6893 63.9866 42.6949L63.9916 42.6057C63.9803 42.6001 63.9672 42.5959 63.952 42.5931C63.9369 42.5903 63.9158 42.5889 63.8889 42.5889Z" fill="#EAEAEA"/>
<path d="M64.4798 42.6167C64.445 42.5993 64.3956 42.5906 64.3317 42.5906C64.2632 42.5906 64.2115 42.5996 64.1767 42.6176C64.1419 42.6355 64.1187 42.6583 64.1069 42.6858C64.0951 42.7133 64.0892 42.7428 64.0892 42.7741V43.2135C64.0892 43.2438 64.0948 43.273 64.106 43.3011C64.1173 43.3292 64.1397 43.3522 64.1734 43.3701C64.207 43.3881 64.2564 43.3971 64.3215 43.3971C64.3889 43.3971 64.4408 43.3881 64.4773 43.3701C64.5137 43.3522 64.539 43.3278 64.553 43.2969C64.567 43.2661 64.5741 43.2327 64.5741 43.1968V43.0958L64.473 43.1059V43.185C64.473 43.2288 64.4601 43.2613 64.4343 43.2826C64.4085 43.304 64.3703 43.3146 64.3198 43.3146C64.2816 43.3146 64.2502 43.3048 64.2255 43.2852C64.2008 43.2656 64.1885 43.2355 64.1885 43.1951V43.0065H64.574V42.9594V42.951V42.7726C64.574 42.7423 64.567 42.7131 64.5529 42.685C64.539 42.6568 64.5146 42.6341 64.4798 42.6167ZM64.1885 42.9509V42.7909C64.1885 42.7505 64.2014 42.72 64.2273 42.6992C64.2531 42.6784 64.2879 42.6681 64.3317 42.6681C64.3754 42.6681 64.41 42.6787 64.4352 42.7C64.4604 42.7214 64.473 42.7517 64.473 42.7909V42.9509H64.1885Z" fill="#EAEAEA"/>
<path d="M65.1819 42.8836V42.7691C65.1819 42.7063 65.1647 42.6608 65.1305 42.6327C65.0962 42.6047 65.0387 42.5906 64.958 42.5906C64.8772 42.5906 64.818 42.6058 64.7803 42.6361C64.7427 42.6664 64.7239 42.713 64.7239 42.7758V42.7994C64.7239 42.8275 64.7271 42.8516 64.7332 42.8718C64.7393 42.892 64.7503 42.91 64.766 42.9257C64.7817 42.9414 64.8042 42.9571 64.8334 42.9728C64.8401 42.9773 64.8508 42.9826 64.8654 42.9888C64.88 42.995 64.8957 43.0017 64.9125 43.009C64.9293 43.0163 64.9454 43.023 64.9605 43.0292C64.9757 43.0354 64.9872 43.0407 64.995 43.0452C65.0332 43.062 65.0584 43.0817 65.0708 43.1041C65.0831 43.1266 65.0893 43.1614 65.0893 43.2085C65.0893 43.2579 65.0769 43.2905 65.0523 43.3062C65.0276 43.3219 64.9934 43.3298 64.9496 43.3298C64.9126 43.3298 64.8845 43.3239 64.8654 43.3121C64.8463 43.3003 64.8332 43.2849 64.8259 43.2658C64.8186 43.2467 64.815 43.2276 64.815 43.2085V43.0856L64.7241 43.0991V43.2119C64.7241 43.2714 64.7411 43.3177 64.7754 43.3508C64.8096 43.3839 64.8666 43.4005 64.9463 43.4005C65.0372 43.4005 65.0992 43.384 65.1323 43.3508C65.1654 43.3177 65.182 43.2686 65.182 43.2035V43.1867C65.182 43.134 65.173 43.0939 65.155 43.0663C65.1371 43.0388 65.1039 43.0139 65.0557 42.9914C65.0377 42.9824 65.0178 42.9734 64.9959 42.9644C64.974 42.9554 64.9533 42.9467 64.9336 42.9383C64.914 42.9299 64.8969 42.9218 64.8823 42.914C64.8564 42.8994 64.8391 42.8836 64.8301 42.8668C64.8211 42.85 64.8167 42.8214 64.8167 42.781C64.8167 42.7641 64.8194 42.7464 64.825 42.7279C64.8306 42.7094 64.843 42.6937 64.862 42.6808C64.8811 42.6679 64.912 42.6614 64.9546 42.6614C64.9984 42.6614 65.032 42.6696 65.0556 42.6858C65.0792 42.7021 65.091 42.7327 65.091 42.7776V42.8954L65.1819 42.8836Z" fill="#EAEAEA"/>
<path d="M61.537 44.9712H62.01V44.8904H61.6397V44.4257H61.9663L61.9814 44.3466H61.6397V44.0082H62.01V43.9274H61.537V44.9712Z" fill="#EAEAEA"/>
<path d="M62.5858 44.2103C62.5522 44.1811 62.5022 44.1665 62.436 44.1665C62.3889 44.1665 62.3493 44.1752 62.3173 44.1926C62.2853 44.21 62.2609 44.2327 62.2441 44.2607L62.2323 44.1782H62.1514V44.9712H62.2524V44.3314C62.2648 44.3078 62.2822 44.2885 62.3047 44.2733C62.3271 44.2582 62.3569 44.2506 62.3939 44.2506C62.4377 44.2506 62.4722 44.2602 62.4974 44.2792C62.5227 44.2984 62.5353 44.3297 62.5353 44.3735V44.9712H62.6363V44.3398C62.6364 44.2827 62.6195 44.2394 62.5858 44.2103Z" fill="#EAEAEA"/>
<path d="M63.1936 43.9122V44.1799H62.9831C62.9371 44.1799 62.9015 44.1845 62.8762 44.1934C62.851 44.2024 62.8336 44.2181 62.824 44.2405C62.8144 44.263 62.8097 44.295 62.8097 44.3365V44.7894C62.8097 44.8433 62.8131 44.8832 62.8198 44.9089C62.8266 44.9348 62.8395 44.9516 62.8586 44.9594C62.8776 44.9673 62.9057 44.9712 62.9428 44.9712H63.2947V43.9122H63.1936ZM63.1936 44.8904H62.9865C62.9573 44.8904 62.9371 44.8851 62.9259 44.8744C62.9146 44.8637 62.9091 44.8377 62.9091 44.7961V44.35C62.9091 44.3129 62.9146 44.2888 62.9259 44.2776C62.9371 44.2663 62.9612 44.2608 62.9983 44.2608H63.1936V44.8904Z" fill="#EAEAEA"/>
<path d="M66.8354 42.7892C66.7927 42.7613 66.7445 42.7425 66.6908 42.7325C66.6371 42.7225 66.5814 42.7176 66.5237 42.7176C66.468 42.7176 66.4138 42.7225 66.3611 42.7325C66.3084 42.7425 66.2612 42.7613 66.2194 42.7892C66.1776 42.817 66.1444 42.8568 66.1195 42.9085C66.0946 42.9602 66.0821 43.0278 66.0821 43.1114V43.2725V44.0452V44.2062C66.0821 44.2897 66.0946 44.3574 66.1195 44.4091C66.1443 44.4608 66.1776 44.5 66.2194 44.5269C66.2612 44.5537 66.3084 44.5722 66.3611 44.5821C66.4138 44.5921 66.468 44.597 66.5237 44.597C66.5814 44.597 66.6371 44.5921 66.6908 44.5821C66.7445 44.5722 66.7927 44.5537 66.8354 44.5269C66.8782 44.5001 66.912 44.4603 66.9369 44.4076C66.9617 44.3549 66.9742 44.2868 66.9742 44.2032V44.0451V43.2724V43.1143C66.9742 43.0308 66.9617 42.9627 66.9369 42.9099C66.912 42.8573 66.8782 42.817 66.8354 42.7892ZM66.7922 44.0452V44.1675C66.7922 44.247 66.7792 44.3072 66.7534 44.348C66.7275 44.3888 66.6942 44.4156 66.6534 44.4285C66.6126 44.4415 66.5693 44.4479 66.5236 44.4479C66.4858 44.4479 66.4465 44.4409 66.4058 44.427C66.365 44.4131 66.3316 44.3863 66.3058 44.3465C66.2799 44.3067 66.267 44.2481 66.267 44.1705V44.0452V43.2725V43.1442C66.267 43.0667 66.2799 43.0085 66.3058 42.9697C66.3316 42.9309 66.365 42.9045 66.4058 42.8906C66.4465 42.8767 66.4858 42.8698 66.5236 42.8698C66.5693 42.8698 66.6126 42.8757 66.6534 42.8876C66.6941 42.8996 66.7275 42.9255 66.7534 42.9652C66.7792 43.005 66.7922 43.0657 66.7922 43.1472V43.2725V44.0452Z" fill="#EAEAEA"/>
<path d="M67.9721 42.7892C67.9293 42.7613 67.8811 42.7425 67.8274 42.7325C67.7736 42.7225 67.7179 42.7176 67.6603 42.7176C67.6046 42.7176 67.5504 42.7225 67.4977 42.7325C67.445 42.7425 67.3977 42.7613 67.356 42.7892C67.3142 42.817 67.2809 42.8568 67.256 42.9085C67.2311 42.9602 67.2187 43.0278 67.2187 43.1114V43.2725V44.0452V44.2062C67.2187 44.2897 67.2311 44.3574 67.256 44.4091C67.2809 44.4608 67.3142 44.5 67.356 44.5269C67.3978 44.5538 67.445 44.5722 67.4977 44.5821C67.5504 44.5921 67.6046 44.597 67.6603 44.597C67.718 44.597 67.7737 44.5921 67.8274 44.5821C67.8811 44.5722 67.9292 44.5537 67.9721 44.5269C68.0148 44.5001 68.0486 44.4603 68.0735 44.4076C68.0984 44.3549 68.1109 44.2868 68.1109 44.2032V44.0451V43.2724V43.1143C68.1109 43.0308 68.0984 42.9627 68.0735 42.9099C68.0486 42.8573 68.0148 42.817 67.9721 42.7892ZM67.9288 44.0452V44.1675C67.9288 44.247 67.9158 44.3072 67.89 44.348C67.8641 44.3888 67.8308 44.4156 67.79 44.4285C67.7492 44.4415 67.706 44.4479 67.6603 44.4479C67.6224 44.4479 67.5831 44.4409 67.5424 44.427C67.5016 44.4131 67.4683 44.3863 67.4424 44.3465C67.4165 44.3067 67.4036 44.2481 67.4036 44.1705V44.0452V43.2725V43.1442C67.4036 43.0667 67.4165 43.0085 67.4424 42.9697C67.4683 42.9309 67.5016 42.9045 67.5424 42.8906C67.5831 42.8767 67.6224 42.8698 67.6603 42.8698C67.706 42.8698 67.7492 42.8757 67.79 42.8876C67.8308 42.8996 67.8641 42.9255 67.89 42.9652C67.9158 43.005 67.9288 43.0657 67.9288 43.1472V43.2725V44.0452Z" fill="#EAEAEA"/>
<path d="M68.3435 44.7104H68.4569L69.4772 42.6996H69.3578L68.3435 44.7104Z" fill="#EAEAEA"/>
<path d="M70.4631 42.7892C70.4204 42.7613 70.3722 42.7425 70.3185 42.7325C70.2648 42.7225 70.2091 42.7176 70.1514 42.7176C70.0957 42.7176 70.0415 42.7225 69.9888 42.7325C69.9361 42.7425 69.8888 42.7613 69.8471 42.7892C69.8053 42.817 69.7721 42.8568 69.7472 42.9085C69.7223 42.9602 69.7098 43.0278 69.7098 43.1114V43.2725V44.0452V44.2062C69.7098 44.2897 69.7223 44.3574 69.7472 44.4091C69.772 44.4608 69.8053 44.5 69.8471 44.5269C69.8889 44.5537 69.9361 44.5722 69.9888 44.5821C70.0415 44.5921 70.0957 44.597 70.1514 44.597C70.2091 44.597 70.2648 44.5921 70.3185 44.5821C70.3722 44.5722 70.4204 44.5537 70.4631 44.5269C70.5059 44.5001 70.5397 44.4603 70.5646 44.4076C70.5894 44.3549 70.6019 44.2868 70.6019 44.2032V44.0451V43.2724V43.1143C70.6019 43.0308 70.5894 42.9627 70.5646 42.9099C70.5397 42.8573 70.5059 42.817 70.4631 42.7892ZM70.4199 44.0452V44.1675C70.4199 44.247 70.4069 44.3072 70.3811 44.348C70.3552 44.3888 70.3219 44.4156 70.2811 44.4285C70.2403 44.4415 70.1971 44.4479 70.1514 44.4479C70.1136 44.4479 70.0743 44.4409 70.0335 44.427C69.9927 44.4131 69.9594 44.3863 69.9336 44.3465C69.9077 44.3067 69.8947 44.2481 69.8947 44.1705V44.0452V43.2725V43.1442C69.8947 43.0667 69.9077 43.0085 69.9336 42.9697C69.9594 42.9309 69.9927 42.9045 70.0335 42.8906C70.0743 42.8767 70.1136 42.8698 70.1514 42.8698C70.1971 42.8698 70.2403 42.8757 70.2811 42.8876C70.3219 42.8996 70.3552 42.9255 70.3811 42.9652C70.4069 43.005 70.4199 43.0657 70.4199 43.1472V43.2725V44.0452Z" fill="#EAEAEA"/>
<path d="M71.7013 42.91C71.6764 42.8573 71.6426 42.817 71.5998 42.7892C71.557 42.7613 71.5088 42.7425 71.4551 42.7325C71.4014 42.7225 71.3457 42.7176 71.288 42.7176C71.2323 42.7176 71.1781 42.7225 71.1254 42.7325C71.0727 42.7425 71.0255 42.7613 70.9837 42.7892C70.9419 42.817 70.9087 42.8568 70.8838 42.9085C70.8589 42.9602 70.8464 43.0278 70.8464 43.1114V43.2725V44.0452V44.2062C70.8464 44.2897 70.8589 44.3574 70.8838 44.4091C70.9086 44.4608 70.9419 44.5 70.9837 44.5269C71.0255 44.5538 71.0727 44.5722 71.1254 44.5821C71.1781 44.5921 71.2323 44.597 71.288 44.597C71.3457 44.597 71.4014 44.5921 71.4551 44.5821C71.5088 44.5722 71.557 44.5537 71.5998 44.5269C71.6425 44.5001 71.6763 44.4603 71.7013 44.4076C71.7261 44.3549 71.7386 44.2868 71.7386 44.2032V44.0451V43.2724V43.1143C71.7386 43.0308 71.7261 42.9627 71.7013 42.91ZM71.5566 44.0452V44.1675C71.5566 44.247 71.5436 44.3072 71.5178 44.348C71.4919 44.3888 71.4586 44.4156 71.4178 44.4285C71.377 44.4415 71.3337 44.4479 71.288 44.4479C71.2502 44.4479 71.2109 44.4409 71.1702 44.427C71.1294 44.4131 71.096 44.3863 71.0702 44.3465C71.0443 44.3067 71.0314 44.2481 71.0314 44.1705V44.0452V43.2725V43.1442C71.0314 43.0667 71.0443 43.0085 71.0702 42.9697C71.096 42.9309 71.1294 42.9045 71.1702 42.8906C71.2109 42.8767 71.2502 42.8698 71.288 42.8698C71.3337 42.8698 71.377 42.8757 71.4178 42.8876C71.4585 42.8996 71.4919 42.9255 71.5178 42.9652C71.5436 43.005 71.5566 43.0657 71.5566 43.1472V43.2725V44.0452Z" fill="#EAEAEA"/>
<path d="M48.9227 91.3465C58.2128 91.3465 65.7439 83.8153 65.7439 74.5252C65.7439 65.2351 58.2128 57.704 48.9227 57.704C39.6326 57.704 32.1014 65.2351 32.1014 74.5252C32.1014 83.8153 39.6326 91.3465 48.9227 91.3465Z" fill="#6FCF97"/>
<path d="M45.6737 82.8497L38.6938 75.8698L41.865 72.6987L45.6737 76.5075L55.9805 66.2008L59.1515 69.3719L45.6737 82.8497Z" fill="white"/>
<path d="M72.5486 109.011H25.2968V112.4H72.5486V109.011Z" fill="#97A1AD"/>
<path d="M72.5486 100.977H25.2968V104.367H72.5486V100.977Z" fill="#97A1AD"/>
<path d="M108.293 159.138L79.5729 171.096H79.5723L75.6458 161.672L99.2932 151.826C102.095 150.659 105.312 151.985 106.479 154.787L108.293 159.138Z" fill="#B6BDC7"/>
<path d="M79.4412 170.786H79.4406L50.7206 182.744V182.744L49.2146 183.371C45.5575 184.894 43.8268 189.093 45.3498 192.751L48.3682 200H91.6044L79.4412 170.786Z" fill="#272A35"/>
<path d="M134.841 200H91.6043L79.4412 170.786L108.161 158.829L108.162 158.828L109.667 158.201C113.325 156.679 117.525 158.409 119.047 162.066L134.841 200Z" fill="#71757F"/>
<path d="M109.702 176.808C111.469 176.808 112.901 175.376 112.901 173.609C112.901 171.842 111.469 170.41 109.702 170.41C107.936 170.41 106.504 171.842 106.504 173.609C106.504 175.376 107.936 176.808 109.702 176.808Z" fill="white"/>
<path d="M18.2543 128.432C17.5266 129.245 16.7771 129.763 16.008 130.046C14.9532 130.433 13.8626 130.379 12.7405 130.034C10.7798 129.432 8.72463 127.945 6.60805 126.389C3.61052 124.186 1.02633 118.796 4.10154 115.159C4.21505 115.023 4.3378 114.89 4.46813 114.76C4.49421 114.734 4.52079 114.708 4.54743 114.683C4.86354 114.376 5.19702 114.115 5.54567 113.895C7.58997 112.602 10.1411 112.752 12.7405 113.904C13.8327 114.388 14.9331 115.049 16.0079 115.854C16.1459 115.957 16.2839 116.063 16.4207 116.171C17.2745 116.844 17.9811 117.635 18.5362 118.495C18.7665 118.852 18.9707 119.221 19.1489 119.598C19.2445 119.802 19.333 120.007 19.4128 120.214C20.5225 123.073 20.1716 126.29 18.2543 128.432Z" fill="#FCB89D"/>
<path d="M14.7198 121.173C14.4513 119.806 12.968 117.749 11.5766 117.408C10.1853 117.066 8.3455 117.216 7.56439 118.51C7.11621 119.252 6.98092 120.155 6.86524 120.92C6.70852 121.957 6.58781 123.088 7.19606 123.942C7.22065 123.976 8.52637 125.55 9.45576 126.136C11.2377 127.258 11.9898 127.824 13.1852 126.239C14.0661 125.07 14.9883 122.54 14.7198 121.173Z" fill="#666666"/>
<path d="M18.9164 118.177C17.9356 119.047 16.9709 119.526 16.008 119.696C14.9244 119.889 13.8431 119.69 12.7405 119.218C10.0862 118.082 7.31417 115.358 4.11893 112.676C0.0411242 109.253 -1.75122 100.262 2.23209 97.0033C2.8458 96.501 3.49379 96.1539 4.16891 95.9448C4.40244 95.872 4.63982 95.8161 4.87986 95.7759C5.41702 95.6858 5.96882 95.6755 6.53261 95.7362C8.49713 95.947 10.6088 97.0223 12.7406 98.6322C13.8301 99.455 14.925 100.417 16.008 101.476C16.1433 101.607 16.278 101.741 16.4127 101.876C16.6185 102.082 16.8244 102.291 17.0291 102.504C17.1551 102.634 17.2784 102.766 17.399 102.899C17.557 103.073 17.7108 103.249 17.8601 103.427C22.065 108.437 22.6912 114.828 18.9164 118.177Z" fill="#FCB89D"/>
<path d="M15.5088 109.297C15.2037 107.744 12.9017 105.081 11.3209 104.693C9.74002 104.305 7.65996 104.139 6.77248 105.608C6.26327 106.452 6.00056 107.651 5.86911 108.521C5.69104 109.699 5.95455 110.909 6.64563 111.88C6.67357 111.919 6.70207 111.958 6.73113 111.996C7.30492 112.755 8.15719 113.707 9.21306 114.372C11.2377 115.648 12.0974 116.342 13.7338 114.788C15.3701 113.235 15.8139 110.85 15.5088 109.297Z" fill="#666666"/>
<path d="M18.5175 86.0482C22.6201 90.8219 22.6269 97.7157 18.8419 100.689C14.3693 104.202 10.2911 99.8539 5.9751 95.1267C2.78793 91.6359 0.592184 84.3142 5.21484 81.1298C9.09973 78.4536 14.2263 81.0551 18.5175 86.0482Z" fill="#FCB89D"/>
<path d="M16.133 92.6844C15.9904 91.1081 13.9763 88.2217 12.4442 87.6718C10.912 87.122 8.86031 86.7412 7.82549 88.1114C7.23171 88.8976 6.84631 90.0634 6.62557 90.9145C6.32654 92.0676 6.46333 93.2993 7.05022 94.3359C7.07393 94.3779 7.09827 94.4194 7.12317 94.4607C7.61537 95.2747 8.3645 96.3098 9.34586 97.081C11.2276 98.5594 12.011 99.338 13.7992 97.9626C15.5875 96.5872 16.2757 94.2608 16.133 92.6844Z" fill="#666666"/>
<path d="M96.7104 77.3095C96.447 77.2932 95.5975 77.2188 94.521 76.8978C93.2175 76.5095 92.6076 75.622 91.7755 74.3185C90.9434 73.015 90.8044 69.4651 90.6659 68.1616C90.5274 66.8581 90.6105 65.8039 91.4149 64.6948C92.2193 63.5853 94.9094 63.8074 94.9094 63.8074L94.9512 63.8193C95.6546 64.843 96.1249 66.203 96.1021 67.884C96.0629 70.7621 96.3106 73.872 96.7104 77.3095Z" fill="#666666"/>
<path d="M90.8054 61.537C90.1162 61.569 89.2261 62.7738 88.3828 64.2673C86.6205 67.3881 85.6836 70.9071 85.6092 74.4903L85.1814 95.1052C83.1306 93.2081 81.5706 87.3242 81.5706 80.4319C81.5706 74.8035 83.2109 69.5085 84.2629 66.7858C84.8022 65.3883 85.6729 64.137 86.8238 63.1778C87.9236 62.261 89.2369 61.6044 90.8054 61.537Z" fill="#FCB89D"/>
</svg>
