<svg width="300" height="88" viewBox="0 0 300 88" fill="none" xmlns="http://www.w3.org/2000/svg">
<path d="M61.6971 38.8988C57.5112 55.6783 40.522 65.8886 23.7364 61.7027C6.96283 57.5168 -3.24745 40.5216 0.938461 23.748C5.11839 6.96844 22.1136 -3.24785 38.8872 0.938068C55.6727 5.11799 65.883 22.1192 61.6971 38.8988Z" fill="url(#paint0_linear_73_4008)"/>
<path d="M45.1271 26.8559C45.7499 22.6879 42.576 20.4483 38.2404 18.9511L39.6477 13.3041L36.2103 12.4477L34.839 17.9451C33.9347 17.7175 33.0065 17.5079 32.0843 17.2983L33.4616 11.765L30.0243 10.9087L28.617 16.5498C27.8684 16.3821 27.1378 16.2085 26.4252 16.0348L26.4312 16.0168L21.6944 14.8311L20.7781 18.502C20.7781 18.502 23.3292 19.0889 23.2753 19.1248C24.6646 19.4721 24.9161 20.3944 24.8742 21.125L23.2693 27.5565C23.3651 27.5805 23.4909 27.6164 23.6286 27.6703C23.5149 27.6404 23.3891 27.6104 23.2633 27.5805L21.0177 36.5871C20.85 37.0123 20.4128 37.647 19.4427 37.4015C19.4786 37.4494 16.9455 36.7787 16.9455 36.7787L15.2388 40.7131L19.7122 41.827C20.5446 42.0366 21.359 42.2521 22.1615 42.4617L20.7422 48.1747L24.1736 49.0311L25.5809 43.3839C26.521 43.6355 27.4313 43.875 28.3176 44.0966L26.9163 49.7197L30.3536 50.5761L31.7729 44.8751C37.6356 45.9829 42.0371 45.5338 43.8935 40.234C45.3906 35.9643 43.8216 33.503 40.7376 31.8981C42.9892 31.3831 44.678 29.91 45.1271 26.8559ZM37.2763 37.8686C36.2163 42.1384 29.0302 39.8268 26.7007 39.2519L28.5871 31.6885C30.9166 32.2694 38.3901 33.4192 37.2763 37.8686ZM38.3422 26.796C37.3721 30.6765 31.3956 28.7063 29.4554 28.2213L31.1681 21.3585C33.1023 21.8436 39.3483 22.7478 38.3422 26.796Z" fill="white"/>
<path d="M91.7889 18.9512C94.328 18.9512 96.5258 19.4063 98.3643 20.2986C100.215 21.2028 101.748 22.4185 102.969 23.9455C104.179 25.4846 105.077 27.2811 105.658 29.3351C106.233 31.4011 106.526 33.6168 106.526 35.9943C106.526 39.6412 105.856 43.0905 104.508 46.3423C103.161 49.594 101.329 52.4205 98.999 54.8279C96.6695 57.2352 93.9208 59.1276 90.753 60.5289C87.5911 61.9302 84.1477 62.6308 80.4528 62.6308C79.9738 62.6308 79.1354 62.6188 77.9497 62.5949C76.764 62.5709 75.3986 62.4452 73.8716 62.2416C72.3325 62.026 70.7097 61.7086 68.997 61.2834C67.2843 60.8642 65.6554 60.2833 64.1224 59.5408L77.8359 1.91408L90.1182 0.00976562L85.2077 20.4603C86.2616 19.9872 87.3156 19.6219 88.3755 19.3524C89.4355 19.0889 90.5733 18.9512 91.7889 18.9512ZM81.4829 52.8876C83.3333 52.8876 85.0759 52.4325 86.7108 51.5402C88.3516 50.6479 89.7708 49.4383 90.9565 47.9352C92.1423 46.4261 93.0824 44.7194 93.7711 42.8211C94.4538 40.9167 94.8011 38.9346 94.8011 36.8686C94.8011 34.3355 94.376 32.3533 93.5316 30.9221C92.6872 29.4968 91.1242 28.7842 88.8546 28.7842C88.1121 28.7842 87.1539 28.9279 85.9622 29.1794C84.7705 29.4489 83.7046 30.0058 82.7464 30.8502L77.5185 52.5643C77.8359 52.6182 78.1114 52.672 78.3509 52.7199C78.5844 52.7738 78.8419 52.8098 79.0995 52.8397C79.3689 52.8697 79.6803 52.8876 80.0576 52.8876C80.4349 52.8876 80.902 52.8876 81.4829 52.8876Z" fill="#71757F"/>
<path d="M119.27 61.5289H107.545L117.449 19.8374H129.265L119.27 61.5289ZM124.977 14.7532C123.342 14.7532 121.857 14.2681 120.539 13.286C119.21 12.3159 118.551 10.8188 118.551 8.80669C118.551 7.69883 118.779 6.65684 119.222 5.68073C119.677 4.70461 120.27 3.86025 121.007 3.14164C121.749 2.42901 122.605 1.8661 123.582 1.43493C124.564 1.01574 125.606 0.806152 126.72 0.806152C128.354 0.806152 129.833 1.2912 131.157 2.27331C132.474 3.25541 133.139 4.75253 133.139 6.75266C133.139 7.86651 132.918 8.90849 132.462 9.8846C132.013 10.8607 131.42 11.7051 130.684 12.4237C129.947 13.1363 129.085 13.6992 128.109 14.1244C127.127 14.5496 126.085 14.7532 124.977 14.7532Z" fill="#71757F"/>
<path d="M139.541 9.44777L151.829 7.54346L148.811 19.8317H161.973L159.596 29.497H146.517L143.032 44.0789C142.709 45.2945 142.529 46.4323 142.475 47.4863C142.415 48.5462 142.553 49.4565 142.87 50.223C143.188 50.9895 143.751 51.5824 144.577 52.0016C145.397 52.4268 146.565 52.6423 148.104 52.6423C149.368 52.6423 150.601 52.5226 151.793 52.283C152.979 52.0495 154.176 51.7201 155.392 51.2949L156.266 60.3375C154.679 60.9183 152.967 61.4214 151.116 61.8406C149.266 62.2657 147.068 62.4753 144.535 62.4753C140.888 62.4753 138.068 61.9364 136.049 60.8585C134.037 59.7746 132.618 58.2894 131.768 56.415C130.929 54.5467 130.552 52.3908 130.66 49.9595C130.768 47.5222 131.133 44.9652 131.768 42.2704L139.541 9.44777Z" fill="#71757F"/>
<path d="M161.452 44.8812C161.452 41.2882 162.033 37.9047 163.195 34.7309C164.357 31.557 166.028 28.7843 168.195 26.4009C170.357 24.0295 172.986 22.1551 176.082 20.7778C179.166 19.4064 182.616 18.7178 186.424 18.7178C188.808 18.7178 190.933 18.9453 192.802 19.3945C194.682 19.8496 196.383 20.4365 197.916 21.173L193.868 30.3713C192.808 29.9401 191.712 29.5628 190.58 29.2215C189.442 28.8742 188.059 28.7065 186.418 28.7065C182.502 28.7065 179.406 30.0539 177.1 32.7487C174.807 35.4435 173.651 39.0665 173.651 43.6117C173.651 46.3065 174.232 48.4863 175.399 50.1511C176.561 51.8159 178.705 52.6482 181.819 52.6482C183.358 52.6482 184.837 52.4866 186.256 52.1752C187.688 51.8578 188.951 51.4565 190.065 50.9894L190.939 60.4212C189.454 60.9961 187.819 61.5171 186.023 61.9722C184.226 62.4094 182.083 62.637 179.597 62.637C176.322 62.637 173.543 62.1579 171.273 61.2117C169.004 60.2536 167.129 58.978 165.65 57.3671C164.165 55.7502 163.099 53.8639 162.441 51.6961C161.794 49.5283 161.452 47.2527 161.452 44.8812Z" fill="#71757F"/>
<path d="M213.57 62.6308C210.767 62.6308 208.336 62.2056 206.276 61.3613C204.216 60.5169 202.515 59.3312 201.168 57.7922C199.82 56.2651 198.808 54.4506 198.114 52.3666C197.419 50.2827 197.09 47.9711 197.09 45.438C197.09 42.2642 197.599 39.0843 198.629 35.9224C199.653 32.7485 201.174 29.898 203.192 27.3649C205.192 24.8258 207.653 22.7538 210.558 21.137C213.456 19.5321 216.791 18.7236 220.54 18.7236C223.289 18.7236 225.708 19.1488 227.798 19.9932C229.882 20.8375 231.595 22.0293 232.948 23.5623C234.29 25.1013 235.308 26.9038 235.99 28.9938C236.679 31.0778 237.02 33.3953 237.02 35.9284C237.02 39.0963 236.517 42.2701 235.517 45.444C234.517 48.6059 233.038 51.4624 231.08 54.0015C229.128 56.5346 226.684 58.6066 223.75 60.2175C220.828 61.8224 217.432 62.6308 213.57 62.6308ZM219.432 28.7064C217.696 28.7064 216.157 29.2094 214.839 30.2094C213.516 31.2215 212.408 32.4851 211.516 34.0181C210.611 35.5571 209.941 37.2279 209.486 39.0544C209.036 40.8808 208.815 42.6055 208.815 44.2463C208.815 46.8932 209.24 48.9532 210.078 50.4324C210.929 51.9055 212.456 52.6481 214.678 52.6481C216.42 52.6481 217.953 52.1451 219.277 51.139C220.588 50.1389 221.702 48.8694 222.6 47.3364C223.499 45.8093 224.175 44.1266 224.63 42.3001C225.073 40.4796 225.301 38.743 225.301 37.1081C225.301 34.4672 224.876 32.4072 224.032 30.9221C223.187 29.4489 221.654 28.7064 219.432 28.7064Z" fill="#71757F"/>
<path d="M249.818 61.5289H238.074L247.985 19.8374H259.806L249.818 61.5289ZM255.519 14.7532C253.884 14.7532 252.399 14.2681 251.081 13.286C249.758 12.3159 249.099 10.8188 249.099 8.80669C249.099 7.69883 249.327 6.65684 249.776 5.68073C250.225 4.70461 250.818 3.86025 251.56 3.14164C252.297 2.42901 253.165 1.8661 254.135 1.43493C255.112 1.01574 256.154 0.806152 257.261 0.806152C258.902 0.806152 260.381 1.2912 261.705 2.27331C263.022 3.25541 263.693 4.75253 263.693 6.75266C263.693 7.86651 263.453 8.90849 263.01 9.8846C262.567 10.8607 261.968 11.7051 261.232 12.4237C260.489 13.1363 259.633 13.6992 258.657 14.1244C257.669 14.5496 256.633 14.7532 255.519 14.7532Z" fill="#71757F"/>
<path d="M268.256 21.7299C269.148 21.4724 270.142 21.155 271.22 20.8137C272.304 20.4723 273.52 20.1549 274.873 19.8675C276.215 19.5741 277.724 19.3345 279.389 19.1489C281.053 18.9573 282.946 18.8674 285.054 18.8674C291.24 18.8674 295.509 20.67 297.863 24.263C300.216 27.8561 300.624 32.7726 299.097 39.0065L293.701 61.517H281.892L287.12 39.4796C287.437 38.1023 287.689 36.7728 287.874 35.4734C288.06 34.1858 288.048 33.048 287.832 32.0659C287.623 31.0958 287.132 30.2993 286.371 29.6825C285.599 29.0777 284.425 28.7723 282.838 28.7723C281.311 28.7723 279.754 28.934 278.161 29.2514L270.472 61.5111H258.657C258.657 61.523 268.256 21.7299 268.256 21.7299Z" fill="#71757F"/>
<path d="M74.7949 74.0089C78.6694 74.0089 82.4721 73.9789 86.2688 74.0209C87.8497 74.0388 88.9756 75.5539 88.6043 77.2486C88.0593 79.7697 87.3706 82.2609 86.7419 84.7701C86.7359 84.8 86.7059 84.824 86.682 84.8599C86.0232 84.8599 85.3585 84.8599 84.6399 84.8599C85.0411 83.2371 85.4424 81.6381 85.8376 80.0392C86.0771 79.0691 86.3227 78.093 86.5622 77.1229C86.8497 75.9252 86.3466 75.2724 85.137 75.2664C84.4004 75.2605 83.6578 75.2664 82.8614 75.2664C82.0649 78.4523 81.2684 81.6321 80.466 84.8479C79.7893 84.8479 79.1066 84.8479 78.376 84.8479C78.6515 83.7461 78.915 82.6562 79.1845 81.5723C79.6456 79.7338 80.1067 77.8894 80.5678 76.0509C80.7295 75.3922 80.6337 75.2724 79.951 75.2724C78.9809 75.2724 78.0167 75.2904 77.0466 75.2605C76.6633 75.2485 76.5436 75.3802 76.4597 75.7395C75.7531 78.6439 75.0105 81.5363 74.3039 84.4347C74.2141 84.8 74.0703 84.9198 73.7051 84.8959C73.196 84.8599 72.687 84.8899 72.0882 84.8899C72.9924 81.2369 73.8907 77.6379 74.7949 74.0089Z" fill="#71757F"/>
<path d="M203.594 79.7698C204.492 80.3267 204.738 80.9256 204.516 82.0634C204.325 83.0455 203.965 83.9258 203.055 84.4527C202.702 84.6563 202.289 84.848 201.899 84.8659C200.558 84.9139 199.217 84.8839 197.845 84.8839C198.708 81.4226 199.564 77.9793 200.426 74.512C200.528 74.506 200.618 74.488 200.714 74.488C201.732 74.488 202.744 74.482 203.762 74.488C205.199 74.5 206.055 75.5719 205.774 76.9852C205.594 77.8655 205.313 78.6919 204.552 79.2488C204.259 79.4584 203.906 79.6021 203.594 79.7698ZM199.522 84.0216C200.097 84.0216 200.618 84.0276 201.145 84.0216C202.019 84.0096 202.63 83.5665 202.888 82.7281C203.031 82.261 203.145 81.7879 203.235 81.3088C203.349 80.68 203.013 80.201 202.372 80.153C201.756 80.1051 201.133 80.1411 200.492 80.1411C200.169 81.4286 199.851 82.7041 199.522 84.0216ZM200.708 79.2368C201.36 79.2368 201.983 79.2787 202.6 79.2249C203.319 79.159 203.816 78.7278 204.043 78.0391C204.205 77.5541 204.325 77.051 204.415 76.548C204.534 75.9132 204.199 75.4402 203.558 75.3863C202.941 75.3384 202.319 75.3743 201.672 75.3743C201.348 76.6618 201.031 77.9373 200.708 79.2368Z" fill="#71757F"/>
<path d="M256.274 74.4879C256.688 74.4879 257.107 74.4699 257.52 74.4939C258.526 74.5418 259.149 75.2424 258.981 76.2305C258.813 77.2126 258.544 78.1828 258.304 79.1529C257.993 80.4105 257.706 81.668 257.34 82.9136C256.963 84.2071 255.969 84.9018 254.634 84.9078C253.975 84.9138 253.31 84.9138 252.651 84.9078C251.352 84.8958 250.693 84.1592 250.981 82.8957C251.466 80.7638 251.999 78.6439 252.574 76.5419C252.951 75.1706 253.951 74.4939 255.382 74.4939C255.688 74.4819 255.981 74.4819 256.274 74.4879C256.274 74.4819 256.274 74.4819 256.274 74.4879ZM253.873 84.0275C255.208 84.0275 255.735 83.6203 256.065 82.3088C256.448 80.7937 256.825 79.2786 257.203 77.7636C257.292 77.3983 257.394 77.033 257.466 76.6617C257.616 75.8892 257.221 75.3981 256.436 75.3682C256.25 75.3622 256.071 75.3622 255.885 75.3622C254.777 75.3622 254.166 75.8413 253.897 76.9192C253.448 78.7157 253.023 80.5242 252.538 82.3148C252.268 83.3448 252.496 84.1173 253.873 84.0275Z" fill="#71757F"/>
<path d="M268.754 74.4879C269.167 74.4879 269.587 74.4699 270 74.4939C271.006 74.5478 271.629 75.2424 271.455 76.2365C271.287 77.2186 271.018 78.1887 270.778 79.1589C270.473 80.4045 270.186 81.656 269.826 82.8837C269.431 84.2191 268.455 84.9018 267.072 84.9078C266.425 84.9078 265.778 84.9138 265.125 84.9078C263.826 84.8898 263.173 84.1532 263.46 82.8897C263.946 80.7578 264.479 78.6379 265.053 76.5359C265.425 75.1766 266.431 74.4939 267.832 74.4939C268.143 74.4819 268.449 74.4819 268.754 74.4879C268.754 74.4819 268.754 74.4819 268.754 74.4879ZM266.377 84.0275C267.676 84.0275 268.215 83.6083 268.533 82.3567C268.874 81.0093 269.209 79.6559 269.545 78.3085C269.683 77.7516 269.838 77.2007 269.952 76.6377C270.102 75.8832 269.694 75.3981 268.934 75.3682C268.76 75.3622 268.593 75.3622 268.419 75.3622C267.251 75.3622 266.658 75.8233 266.377 76.9491C265.928 78.7337 265.509 80.5302 265.03 82.3088C264.754 83.2969 264.916 84.1233 266.377 84.0275Z" fill="#71757F"/>
<path d="M277.491 74.4879C277.905 74.4879 278.324 74.4699 278.737 74.4939C279.743 74.5478 280.366 75.2424 280.192 76.2365C280.024 77.2186 279.755 78.1887 279.515 79.1589C279.204 80.4164 278.917 81.674 278.551 82.9196C278.174 84.2071 277.18 84.9018 275.845 84.9078C275.186 84.9138 274.521 84.9138 273.862 84.9078C272.563 84.8898 271.91 84.1532 272.198 82.8897C272.683 80.7578 273.216 78.6379 273.791 76.5359C274.162 75.1766 275.168 74.4939 276.569 74.4939C276.881 74.4819 277.186 74.4819 277.491 74.4879C277.491 74.4819 277.491 74.4819 277.491 74.4879ZM275.102 84.0275C276.401 84.0275 276.94 83.6083 277.258 82.3567C277.593 81.0332 277.929 79.7098 278.258 78.3804C278.402 77.7995 278.563 77.2246 278.677 76.6377C278.827 75.8832 278.426 75.3981 277.665 75.3622C277.479 75.3562 277.3 75.3562 277.114 75.3562C275.982 75.3562 275.383 75.8293 275.108 76.9372C274.659 78.7217 274.24 80.5183 273.761 82.2968C273.485 83.3029 273.659 84.1233 275.102 84.0275Z" fill="#71757F"/>
<path d="M286.217 74.4819C286.618 74.4819 287.025 74.4699 287.426 74.4819C288.468 74.5178 289.103 75.2244 288.923 76.2545C288.756 77.2366 288.486 78.2067 288.247 79.1768C287.941 80.4224 287.648 81.668 287.289 82.9016C286.905 84.2071 285.917 84.8958 284.552 84.9017C283.905 84.9017 283.258 84.9077 282.606 84.9017C281.294 84.8898 280.635 84.1292 280.935 82.8537C281.426 80.7398 281.947 78.6259 282.528 76.5359C282.905 75.1586 283.905 74.4819 285.336 74.4819C285.63 74.4819 285.923 74.4819 286.217 74.4819ZM283.827 84.0274C285.151 84.0274 285.684 83.6142 286.007 82.3387C286.456 80.5541 286.905 78.7636 287.348 76.9791C287.396 76.7934 287.432 76.5958 287.438 76.4042C287.456 75.8413 287.151 75.47 286.6 75.3861C286.36 75.3502 286.115 75.3622 285.869 75.3622C284.725 75.3622 284.127 75.8293 283.851 76.9252C283.402 78.7217 282.977 80.5302 282.492 82.3207C282.216 83.3328 282.432 84.1232 283.827 84.0274Z" fill="#71757F"/>
<path d="M123.493 74.003C123.792 72.7993 124.104 71.6136 124.367 70.4159C124.463 69.9967 124.625 69.8291 125.068 69.871C125.553 69.9189 126.05 69.8829 126.607 69.8829C126.337 70.9669 126.08 72.0029 125.822 73.0329C124.876 76.8295 123.918 80.6262 122.99 84.4289C122.9 84.8001 122.75 84.89 122.391 84.884C120.966 84.86 119.541 84.884 118.121 84.872C116.025 84.86 114.756 83.2791 115.223 81.249C115.552 79.8118 115.882 78.3746 116.313 76.9613C116.882 75.0869 118.427 74.009 120.397 73.997C121.415 73.997 122.433 74.003 123.493 74.003ZM123.175 75.2665C122.289 75.2665 121.469 75.2546 120.642 75.2725C119.624 75.2965 118.78 75.9073 118.439 76.8655C118.331 77.1589 118.265 77.4703 118.187 77.7757C117.864 79.0512 117.54 80.3268 117.223 81.6083C116.894 82.9377 117.415 83.6084 118.768 83.6204C119.439 83.6264 120.103 83.6384 120.774 83.6084C120.912 83.6025 121.127 83.4468 121.163 83.321C121.834 80.6621 122.493 78.0092 123.175 75.2665Z" fill="#71757F"/>
<path d="M151.058 74.0026C151.375 72.7271 151.698 71.4995 151.98 70.2718C152.052 69.9724 152.159 69.8646 152.465 69.8766C153.01 69.9006 153.549 69.8826 154.172 69.8826C153.938 70.8288 153.716 71.727 153.495 72.6193C152.513 76.5537 151.525 80.4881 150.561 84.4225C150.471 84.7878 150.333 84.8956 149.968 84.8896C148.542 84.8657 147.117 84.8896 145.698 84.8776C143.572 84.8657 142.326 83.2907 142.806 81.2127C143.141 79.7755 143.464 78.3383 143.895 76.925C144.446 75.1165 146.009 74.0206 147.902 74.0026C148.938 73.9967 149.974 74.0026 151.058 74.0026ZM150.728 75.3081C150.626 75.2902 150.573 75.2722 150.525 75.2722C149.752 75.2722 148.98 75.2602 148.201 75.2722C147.183 75.2961 146.339 75.907 145.997 76.8651C145.89 77.1585 145.824 77.4699 145.746 77.7754C145.423 79.0509 145.099 80.3264 144.782 81.6079C144.452 82.9374 144.973 83.6081 146.333 83.6141C147.003 83.6201 147.668 83.632 148.339 83.6021C148.477 83.5961 148.692 83.4404 148.728 83.3147C149.405 80.6618 150.058 78.0029 150.728 75.3081Z" fill="#71757F"/>
<path d="M239.147 84.0214C240.746 84.0214 242.244 84.0214 243.806 84.0214C243.735 84.3268 243.669 84.5903 243.603 84.8778C241.585 84.8778 239.573 84.8778 237.537 84.8778C237.644 83.9615 237.92 83.1112 238.573 82.4465C239.153 81.8596 239.776 81.3027 240.417 80.7817C241.231 80.117 242.094 79.5121 242.908 78.8474C243.579 78.3025 244.016 77.5958 244.178 76.7215C244.345 75.8352 244.004 75.3621 243.112 75.3621C242.711 75.3621 242.303 75.3562 241.908 75.428C241.327 75.5418 240.926 75.9191 240.758 76.494C240.686 76.7335 240.591 76.8353 240.333 76.8113C240.082 76.7874 239.824 76.8054 239.573 76.8054C239.639 75.7574 240.387 74.8411 241.519 74.6315C242.321 74.4818 243.178 74.4519 243.992 74.5417C245.148 74.6735 245.783 75.7274 245.579 76.8892C245.387 77.9851 244.866 78.8893 244.01 79.584C243.16 80.2787 242.255 80.9134 241.405 81.6081C240.782 82.1171 240.189 82.662 239.615 83.225C239.429 83.4226 239.327 83.71 239.147 84.0214Z" fill="#71757F"/>
<path d="M177.155 84.8538C176.736 84.8538 176.305 84.9077 175.892 84.8478C174.227 84.6082 173.173 83.195 173.502 81.5422C173.808 80.0091 174.185 78.4881 174.634 76.997C175.203 75.1166 176.754 74.0267 178.706 74.0147C179.323 74.0087 179.94 73.9788 180.551 74.0387C182.311 74.2183 183.413 75.7394 183.036 77.5179C182.736 78.9252 182.395 80.3265 181.982 81.7039C181.353 83.8178 179.844 84.8897 177.628 84.8897C177.473 84.8897 177.311 84.8897 177.155 84.8897C177.155 84.8717 177.155 84.8598 177.155 84.8538ZM177.209 83.6501C178.772 83.6202 179.539 83.0333 179.928 81.5242C180.263 80.2307 180.593 78.9432 180.904 77.6437C181 77.2545 181.06 76.8532 181.072 76.452C181.084 75.9669 180.832 75.5657 180.383 75.428C179.113 75.0268 177.251 75.1585 176.724 76.991C176.263 78.5899 175.886 80.2187 175.484 81.8356C175.437 82.0212 175.443 82.2189 175.455 82.4105C175.478 82.9854 175.766 83.3686 176.329 83.5243C176.61 83.6022 176.916 83.6082 177.209 83.6501Z" fill="#71757F"/>
<path d="M186.97 74.0151C188.725 74.0151 190.432 73.9492 192.132 74.033C193.953 74.1169 195.079 75.7457 194.647 77.6081C194.085 80.0215 193.462 82.4168 192.857 84.8541C192.168 84.8541 191.492 84.8541 190.761 84.8541C191.102 83.4768 191.438 82.1114 191.773 80.7521C192.054 79.6262 192.342 78.5064 192.605 77.3746C192.923 76.0152 192.324 75.2726 190.929 75.2726C190.348 75.2726 189.767 75.2906 189.186 75.2666C188.839 75.2487 188.713 75.3685 188.629 75.7098C187.916 78.6262 187.18 81.5425 186.449 84.4589C186.413 84.5966 186.371 84.7284 186.329 84.8721C185.647 84.8721 184.982 84.8721 184.252 84.8721C185.168 81.2311 186.066 77.6261 186.97 74.0151Z" fill="#71757F"/>
<path d="M135.997 69.907C138.362 69.907 140.698 69.907 143.087 69.907C142.979 70.3321 142.883 70.7154 142.782 71.1406C141.111 71.1406 139.464 71.1406 137.787 71.1406C137.32 73.015 136.859 74.8474 136.386 76.7398C137.512 76.7398 138.596 76.7398 139.734 76.7398C139.632 77.1829 139.548 77.5722 139.452 77.9973C138.332 77.9973 137.23 77.9973 136.093 77.9973C135.625 79.8657 135.164 81.7042 134.697 83.5965C136.362 83.5965 137.985 83.5965 139.686 83.5965C139.572 84.0576 139.476 84.4589 139.374 84.8601C136.991 84.8601 134.655 84.8601 132.278 84.8601C133.518 79.8597 134.757 74.8893 135.997 69.907Z" fill="#71757F"/>
<path d="M230.434 75.3505C230.111 76.65 229.788 77.9255 229.464 79.237C230.243 79.237 230.991 79.237 231.794 79.237C231.722 79.5604 231.656 79.8358 231.584 80.1233C230.8 80.1233 230.045 80.1233 229.255 80.1233C228.931 81.4108 228.614 82.6863 228.284 83.9978C229.44 83.9978 230.566 83.9978 231.746 83.9978C231.68 84.2733 231.644 84.5068 231.566 84.7284C231.542 84.8002 231.416 84.8841 231.333 84.8841C229.77 84.896 228.207 84.8901 226.602 84.8901C227.47 81.4048 228.332 77.9495 229.195 74.4822C230.836 74.4822 232.458 74.4822 234.117 74.4822C234.045 74.7696 233.979 75.0391 233.908 75.3385C232.746 75.3505 231.602 75.3505 230.434 75.3505Z" fill="#71757F"/>
<path d="M219.026 82.6025C218.757 83.92 217.918 84.7284 216.619 84.8722C216.014 84.938 215.391 84.944 214.793 84.8722C213.595 84.7344 212.852 83.6745 213.128 82.4828C213.565 80.5785 214.026 78.6801 214.535 76.7938C214.948 75.2428 216.026 74.4643 217.631 74.4822C218.224 74.4882 218.835 74.4942 219.41 74.62C220.338 74.8176 220.787 75.632 220.547 76.5542C220.523 76.65 220.398 76.7818 220.302 76.7938C220.014 76.8237 219.721 76.8057 219.398 76.8057C219.416 76.674 219.422 76.5842 219.44 76.4884C219.553 75.8835 219.248 75.4344 218.637 75.3745C218.224 75.3386 217.799 75.3206 217.391 75.3805C216.649 75.4883 216.2 75.9614 216.02 76.68C215.697 77.9316 215.391 79.1891 215.074 80.4407C214.894 81.1653 214.715 81.8839 214.535 82.6085C214.301 83.5667 214.649 84.0218 215.625 84.0158C215.99 84.0158 216.361 84.0158 216.715 83.9499C217.284 83.8362 217.679 83.4649 217.829 82.902C217.901 82.6385 218.02 82.5726 218.26 82.5906C218.511 82.6145 218.751 82.6025 219.026 82.6025Z" fill="#71757F"/>
<path d="M112.624 80.0211C110.438 80.0211 108.312 80.0211 106.108 80.0211C105.947 80.7218 105.737 81.4104 105.647 82.1171C105.528 83.0393 106.043 83.5902 106.983 83.6142C108.055 83.6381 109.127 83.6202 110.205 83.6262C110.396 83.6262 110.588 83.6262 110.869 83.6262C110.761 84.0573 110.672 84.4406 110.564 84.8897C110.169 84.8897 109.773 84.8897 109.372 84.8897C108.384 84.8897 107.402 84.9077 106.42 84.8837C104.593 84.8358 103.324 83.3208 103.683 81.5242C103.995 79.9912 104.372 78.4701 104.821 76.979C105.378 75.1286 106.935 74.0387 108.857 74.0147C109.348 74.0087 109.845 74.0087 110.336 74.0147C112.312 74.0387 113.552 75.4699 113.241 77.4222C113.097 78.2725 112.839 79.1169 112.624 80.0211ZM110.851 78.7396C111.013 78.039 111.211 77.3443 111.318 76.6377C111.396 76.1287 111.151 75.7214 110.684 75.4699C109.684 74.931 108.013 75.2783 107.324 76.1766C106.755 76.9251 106.695 77.8413 106.48 78.7396C107.965 78.7396 109.384 78.7396 110.851 78.7396Z" fill="#71757F"/>
<path d="M209.984 75.3623C209.086 75.3623 208.259 75.3623 207.379 75.3623C207.451 75.0569 207.511 74.7814 207.576 74.5C209.81 74.5 212.02 74.5 214.23 74.5C214.104 75.3623 214.104 75.3623 213.271 75.3623C212.673 75.3623 212.074 75.3623 211.439 75.3623C211.229 76.2067 211.02 77.0451 210.81 77.8834C210.253 80.1231 209.69 82.3568 209.139 84.5965C209.08 84.83 209.002 84.9258 208.756 84.9079C208.391 84.8899 208.026 84.9019 207.6 84.9019C208.409 81.716 209.193 78.5601 209.984 75.3623Z" fill="#71757F"/>
<path d="M59.6921 83.6201C61.3869 83.6201 63.0037 83.6201 64.6266 83.6201C64.6386 83.698 64.6565 83.7519 64.6446 83.7938C64.417 84.8777 64.417 84.8777 63.2912 84.8777C61.321 84.8777 59.3568 84.8777 57.2908 84.8777C58.5304 79.8714 59.758 74.9069 60.9976 69.9126C61.6803 69.9126 62.357 69.9126 63.0936 69.9126C61.9677 74.4698 60.8419 79.009 59.6921 83.6201Z" fill="#71757F"/>
<path d="M220.152 84.9018C221.015 81.4105 221.871 77.9672 222.727 74.5058C223.2 74.5058 223.673 74.5058 224.182 74.5058C223.398 77.6737 222.613 80.8236 221.817 84.0215C222.979 84.0215 224.111 84.0215 225.242 84.0215C225.248 84.0873 225.26 84.1233 225.254 84.1532C225.093 84.9077 225.093 84.9077 224.314 84.9077C222.949 84.9018 221.583 84.9018 220.152 84.9018Z" fill="#71757F"/>
<path d="M100.934 71.1644C100.707 72.1166 100.485 73.0148 100.258 73.9789C101.366 73.9789 102.444 73.9789 103.593 73.9789C103.486 74.4341 103.396 74.8233 103.288 75.2665C102.336 75.2665 101.39 75.2904 100.449 75.2545C100.03 75.2365 99.8865 75.3862 99.7907 75.7815C99.3236 77.7457 98.8205 79.7039 98.3414 81.6681C98.03 82.9496 98.5451 83.6083 99.8505 83.6203C100.27 83.6263 100.695 83.6203 101.186 83.6203C101.132 83.8479 101.096 84.0455 101.048 84.2371C101 84.4407 100.94 84.6443 100.887 84.8659C100.12 84.8659 99.3595 84.9258 98.6109 84.8539C96.9282 84.6982 95.9042 83.2011 96.3233 81.4345C97.1078 78.117 97.9522 74.8173 98.7846 71.5117C98.8205 71.374 99.0122 71.1883 99.1379 71.1824C99.7008 71.1464 100.282 71.1644 100.934 71.1644Z" fill="#71757F"/>
<path d="M165.047 71.1645C164.813 72.1287 164.597 73.0269 164.364 73.9851C165.478 73.9851 166.562 73.9851 167.706 73.9851C167.592 74.4402 167.502 74.8234 167.394 75.2606C166.418 75.2606 165.454 75.2726 164.49 75.2546C164.148 75.2486 164.011 75.3444 163.927 75.6918C163.454 77.6739 162.945 79.6501 162.46 81.6263C162.13 82.9737 162.639 83.6025 164.023 83.6145C164.424 83.6145 164.831 83.6145 165.298 83.6145C165.19 84.0576 165.095 84.4528 164.999 84.8601C164.208 84.8601 163.448 84.9199 162.699 84.8481C161.016 84.6864 160.016 83.1893 160.43 81.4167C161.1 78.5602 161.831 75.7157 162.531 72.8712C162.645 72.4101 162.747 71.949 162.891 71.4939C162.933 71.3621 163.088 71.1825 163.202 71.1765C163.795 71.1465 164.388 71.1645 165.047 71.1645Z" fill="#71757F"/>
<path d="M248.645 76.5302C248.256 76.5302 247.903 76.5302 247.531 76.5302C247.603 76.0212 247.651 75.578 248.208 75.3624C248.663 75.1888 249.088 74.9373 249.501 74.6798C249.849 74.4642 250.208 74.4642 250.609 74.5061C249.747 77.9794 248.891 81.4347 248.034 84.89C247.537 84.89 247.076 84.89 246.579 84.89C247.262 82.1054 247.95 79.3388 248.645 76.5302Z" fill="#71757F"/>
<path d="M68.6927 84.8599C67.9921 84.8599 67.3274 84.8599 66.5968 84.8599C66.8723 83.7521 67.1357 82.6682 67.4052 81.5843C67.9921 79.2128 68.5909 76.8474 69.1598 74.47C69.2437 74.1167 69.3574 73.961 69.7467 73.9909C70.2557 74.0268 70.7647 74.0029 71.3815 74.0029C70.4773 77.6498 69.585 81.2489 68.6927 84.8599Z" fill="#71757F"/>
<path d="M169.454 84.8598C168.759 84.8598 168.095 84.8598 167.358 84.8598C167.634 83.752 167.903 82.6681 168.167 81.5842C168.741 79.2487 169.334 76.9132 169.885 74.5717C169.999 74.0986 170.197 73.9489 170.664 73.9908C171.131 74.0387 171.604 74.0028 172.143 74.0028C171.239 77.6618 170.346 81.2548 169.454 84.8598Z" fill="#71757F"/>
<path d="M92.0356 84.854C91.311 84.854 90.6463 84.854 89.9397 84.854C90.323 83.321 90.6942 81.8239 91.0655 80.3267C91.5566 78.3506 92.0536 76.3744 92.5327 74.3922C92.6046 74.0928 92.7123 73.985 93.0237 73.997C93.5687 74.0209 94.1136 74.003 94.7304 74.003C93.8202 77.6499 92.9339 81.237 92.0356 84.854Z" fill="#71757F"/>
<path d="M156.142 84.8657C155.423 84.8657 154.77 84.8657 154.052 84.8657C154.291 83.8896 154.525 82.9434 154.758 82.0032C155.387 79.4821 156.022 76.961 156.627 74.4278C156.711 74.0745 156.854 73.9787 157.19 73.9967C157.711 74.0206 158.238 74.0027 158.831 74.0027C157.932 77.6556 157.04 81.2487 156.142 84.8657Z" fill="#71757F"/>
<path d="M261.149 82.8479C260.808 83.9797 260.73 85.1475 260.137 86.1595C259.802 86.7284 259.328 87.1177 258.61 87.2314C258.748 86.7584 258.736 86.3032 259.173 85.9559C259.436 85.7463 259.532 85.3152 259.724 84.9379C259.49 84.9139 259.352 84.896 259.179 84.878C259.334 84.2432 259.484 83.6204 259.652 82.9976C259.67 82.9318 259.784 82.8539 259.855 82.8539C260.269 82.8419 260.682 82.8479 261.149 82.8479Z" fill="#71757F"/>
<path d="M69.9144 71.5538C70.0521 70.9609 70.1719 70.4519 70.2976 69.9189C70.9624 69.9189 71.6271 69.9189 72.3996 69.9189C72.2678 70.4339 72.1481 70.9429 72.0043 71.446C71.9864 71.5059 71.8307 71.5538 71.7409 71.5538C71.16 71.5538 70.5851 71.5538 69.9144 71.5538Z" fill="#71757F"/>
<path d="M171.065 69.9009C171.79 69.9009 172.454 69.9009 173.155 69.9009C173.041 70.3859 172.945 70.853 172.814 71.3022C172.784 71.4099 172.604 71.5357 172.49 71.5417C171.915 71.5656 171.334 71.5537 170.682 71.5537C170.813 70.9728 170.933 70.4518 171.065 69.9009Z" fill="#71757F"/>
<path d="M157.369 71.5538C157.507 70.9669 157.627 70.4579 157.753 69.9189C158.435 69.9189 159.112 69.9189 159.843 69.9189C159.729 70.398 159.633 70.8711 159.495 71.3382C159.465 71.434 159.304 71.5418 159.196 71.5478C158.621 71.5598 158.046 71.5538 157.369 71.5538Z" fill="#71757F"/>
<path d="M93.6465 69.907C94.3412 69.907 94.9999 69.907 95.7305 69.907C95.6167 70.392 95.5209 70.8651 95.3892 71.3262C95.3592 71.422 95.2035 71.5418 95.1017 71.5418C94.5088 71.5598 93.916 71.5538 93.2573 71.5538C93.395 70.9609 93.5208 70.4399 93.6465 69.907Z" fill="#71757F"/>
<defs>
<linearGradient id="paint0_linear_73_4008" x1="-7.17012" y1="-96.5718" x2="81.9292" y2="-91.5425" gradientUnits="userSpaceOnUse">
<stop stop-color="#13161F"/>
<stop offset="0.265" stop-color="#525661"/>
<stop offset="0.615" stop-color="#1E212A"/>
<stop offset="1" stop-color="#494F5C"/>
</linearGradient>
</defs>
</svg>
