<svg width="32" height="32" viewBox="0 0 32 32" fill="none" xmlns="http://www.w3.org/2000/svg">
<g clip-path="url(#clip0_33_4338)">
<path d="M14.6181 32C13.8644 32 13.2144 31.4381 13.1056 30.6925L12.5963 27.2025C11.7413 26.9425 10.92 26.5856 10.145 26.1394L7.24625 28.1125C6.64063 28.525 5.825 28.4481 5.30625 27.9306L3.71 26.3369C3.17625 25.8044 3.11375 24.9463 3.56438 24.3419L5.67125 21.5144C5.45875 21.115 5.2675 20.7006 5.10188 20.2781C4.94188 19.8706 4.80375 19.4519 4.69 19.0294L1.24563 18.375C0.525625 18.2381 0.00312552 17.6075 0.00250052 16.875L5.20898e-07 14.6194C-0.000624479 13.865 0.561251 13.2144 1.3075 13.1056L4.79688 12.5962C5.0575 11.7406 5.41375 10.9194 5.86063 10.145L3.8875 7.24625C3.475 6.64062 3.55125 5.825 4.06938 5.30625L5.66313 3.70937C6.19563 3.17562 7.05375 3.11313 7.65813 3.56375L10.4856 5.67125C10.885 5.45875 11.2994 5.26813 11.7219 5.10187C12.13 4.94187 12.5488 4.80375 12.9713 4.69L13.625 1.24563C13.7619 0.525625 14.3925 0.003125 15.125 0.0025L17.3806 0H17.3819C18.1356 0 18.7856 0.561875 18.8944 1.3075L19.4037 4.7975C20.2587 5.05813 21.0806 5.41437 21.855 5.86062L24.7537 3.88687C25.3594 3.47438 26.1756 3.55062 26.6938 4.06875L28.29 5.6625C28.8238 6.19562 28.8862 7.05312 28.4356 7.6575L26.3288 10.485C26.5413 10.8844 26.7325 11.2987 26.8981 11.7212C27.0581 12.1287 27.1962 12.5475 27.31 12.97L30.7544 13.625C31.4744 13.7619 31.9969 14.3925 31.9975 15.125L31.9994 17.3806C32 18.135 31.4381 18.7856 30.6919 18.8944L27.2025 19.4037C26.9419 20.2587 26.5856 21.08 26.1388 21.855L28.1125 24.7537C28.525 25.3594 28.4488 26.175 27.9306 26.6938L26.3369 28.29C25.8044 28.8238 24.9463 28.8862 24.3419 28.4356L21.5144 26.3281C21.115 26.5406 20.7006 26.7319 20.2781 26.8975C19.87 27.0575 19.4519 27.1956 19.0287 27.3094L18.375 30.7544C18.2381 31.4744 17.6075 31.9969 16.875 31.9975L14.6194 32C14.6188 32 14.6181 32 14.6181 32ZM10.1244 24.8237C10.2344 24.8237 10.3444 24.8538 10.4419 24.9144C11.3263 25.465 12.285 25.8806 13.2906 26.15C13.5225 26.2119 13.6956 26.4062 13.73 26.6444L14.2956 30.5187C14.3188 30.6775 14.4575 30.7975 14.6175 30.7975L16.8731 30.7956C17.0294 30.7956 17.1637 30.6844 17.1925 30.5306L17.9181 26.7087C17.9625 26.475 18.1406 26.2894 18.3725 26.235C18.8681 26.1194 19.3612 25.9656 19.8381 25.7787C20.3294 25.5856 20.8088 25.355 21.2619 25.0938C21.47 24.9737 21.7294 24.9888 21.9219 25.1325L25.0606 27.4719C25.1894 27.5675 25.3719 27.5544 25.4856 27.4406L27.0794 25.8444C27.1894 25.7338 27.2056 25.56 27.1181 25.4312L24.9281 22.215C24.7944 22.0181 24.7887 21.7606 24.9144 21.5588C25.465 20.6744 25.8806 19.7156 26.15 18.71C26.2119 18.4781 26.4062 18.305 26.6444 18.2706L30.5187 17.705C30.6775 17.6819 30.7975 17.5431 30.7975 17.3825L30.7956 15.1269C30.7956 14.9706 30.6844 14.8363 30.5306 14.8075L26.7087 14.0819C26.475 14.0375 26.2894 13.8594 26.235 13.6275C26.1194 13.1319 25.9656 12.6388 25.7787 12.1619C25.5856 11.6706 25.3556 11.1913 25.0938 10.7388C24.9737 10.5306 24.9888 10.2712 25.1325 10.0787L27.4719 6.94C27.5681 6.81125 27.5544 6.62875 27.4406 6.515L25.8444 4.92125C25.7338 4.81063 25.56 4.795 25.4312 4.8825L22.215 7.0725C22.0181 7.20625 21.7606 7.21187 21.5588 7.08625C20.675 6.53625 19.7162 6.12063 18.71 5.85125C18.4781 5.78938 18.305 5.595 18.2706 5.35687L17.705 1.4825C17.6819 1.32375 17.5431 1.20375 17.3831 1.20375L15.1275 1.20563C14.9713 1.20563 14.8369 1.31687 14.8081 1.47063L14.0825 5.2925C14.0381 5.52625 13.86 5.71187 13.6281 5.76625C13.1331 5.88188 12.64 6.03562 12.1625 6.2225C11.6706 6.41562 11.1919 6.64562 10.7394 6.9075C10.5313 7.0275 10.2719 7.0125 10.0794 6.86875L6.94063 4.52938C6.81188 4.43313 6.62938 4.44688 6.51563 4.56063L4.92063 6.15625C4.81063 6.26687 4.79438 6.44063 4.88188 6.56938L7.07188 9.78563C7.20563 9.9825 7.21125 10.24 7.08563 10.4419C6.53563 11.3256 6.12 12.2837 5.85 13.2906C5.78813 13.5225 5.59375 13.6956 5.35563 13.73L1.48125 14.2956C1.3225 14.3187 1.2025 14.4575 1.2025 14.6181L1.20438 16.8738C1.20438 17.03 1.31563 17.1644 1.46938 17.1931L5.29125 17.9188C5.525 17.9631 5.71063 18.1413 5.765 18.3731C5.88063 18.8687 6.03438 19.3619 6.22125 19.8388C6.41438 20.33 6.64438 20.8088 6.90625 21.2625C7.02625 21.4706 7.01125 21.73 6.8675 21.9225L4.52813 25.0613C4.43188 25.19 4.44563 25.3725 4.55938 25.4862L6.15563 27.08C6.26625 27.19 6.44 27.2069 6.56875 27.1187L9.785 24.9287C9.8875 24.8587 10.0056 24.8237 10.1244 24.8237Z" fill="#71757F"/>
<path d="M16.0081 22.6681C13.345 22.6681 10.8238 21.0619 9.79314 18.4369C8.44939 15.0144 10.1406 11.1369 13.5631 9.79312C16.9856 8.44937 20.8631 10.1406 22.2069 13.5631C23.5506 16.9856 21.8594 20.8631 18.4369 22.2069C17.6394 22.52 16.8169 22.6681 16.0081 22.6681ZM15.9938 10.535C15.3306 10.535 14.6569 10.6562 14.0031 10.9131C11.1981 12.0144 9.81189 15.1925 10.9131 17.9975C12.0144 20.8025 15.1925 22.1887 17.9975 21.0875C20.8025 19.9862 22.1888 16.8081 21.0875 14.0031C20.2425 11.8512 18.1763 10.535 15.9938 10.535Z" fill="#71757F"/>
</g>
<defs>
<clipPath id="clip0_33_4338">
<rect width="32" height="32" fill="white"/>
</clipPath>
</defs>
</svg>
