<svg width="16" height="16" viewBox="0 0 16 16" fill="none" xmlns="http://www.w3.org/2000/svg">
<path fill-rule="evenodd" clip-rule="evenodd" d="M5.29398 10.173C5.22532 10.0994 5.14252 10.0402 5.05052 9.99926C4.95852 9.95826 4.8592 9.93622 4.7585 9.93445C4.6578 9.93267 4.55777 9.95119 4.46438 9.98891C4.37099 10.0266 4.28616 10.0828 4.21494 10.154C4.14372 10.2252 4.08758 10.3101 4.04986 10.4034C4.01213 10.4968 3.99361 10.5969 3.99539 10.6976C3.99716 10.7983 4.01921 10.8976 4.0602 10.9896C4.10119 11.0816 4.16029 11.1644 4.23398 11.233L7.48398 14.483L8.01398 15.014L8.54398 14.484L11.794 11.234C11.9307 11.0927 12.0064 10.9032 12.0047 10.7066C12.0031 10.5099 11.9243 10.3218 11.7853 10.1827C11.6463 10.0435 11.4583 9.96458 11.2616 9.96278C11.065 9.96098 10.8755 10.0365 10.734 10.173L8.76398 12.143L8.76398 1.76404C8.76398 1.56513 8.68496 1.37436 8.54431 1.23371C8.40366 1.09306 8.21289 1.01404 8.01398 1.01404C7.81507 1.01404 7.6243 1.09306 7.48365 1.23371C7.343 1.37436 7.26398 1.56513 7.26398 1.76404L7.26398 12.143L5.29398 10.173Z" fill="#56CCF2"/>
</svg>
