<svg width="59" height="59" viewBox="0 0 59 59" fill="none" xmlns="http://www.w3.org/2000/svg">
<path d="M58.9992 23.6773L50.6493 15.3286L42.5883 23.3904H35.4034V16.6168L43.671 8.34912L35.3219 0L29.4996 5.82231L23.6769 0L15.3278 8.34952L23.5958 16.6172V23.3904H16.4109L8.34912 15.3286L0 23.6777L5.82192 29.5L0 35.3223L8.34992 43.671L16.8222 35.1979H23.5958V42.3832L15.3282 50.6509L23.6773 59L29.4996 53.1777L35.3223 59L43.6714 50.6505L35.4034 42.3828V35.1979H42.177L50.6501 43.671L58.9992 35.3223L53.1773 29.5L58.9992 23.6773Z" fill="#B6BDC7"/>
</svg>
