<svg width="20" height="20" viewBox="0 0 20 20" fill="none" xmlns="http://www.w3.org/2000/svg">
<g clip-path="url(#clip0_41_833)">
<path d="M18.8098 7.80541C18.8297 7.64798 18.8149 7.48811 18.7663 7.33704C18.7178 7.18596 18.6368 7.04734 18.529 6.93093C18.4212 6.81451 18.2892 6.72312 18.1422 6.66318C17.9953 6.60324 17.8371 6.57621 17.6786 6.58398C16.1455 -2.10977 3.85179 -2.10442 2.32143 6.58398C2.16309 6.57648 2.00503 6.60371 1.85833 6.66377C1.71163 6.72383 1.57985 6.81526 1.47223 6.93164C1.36461 7.04803 1.28375 7.18655 1.23534 7.33749C1.18692 7.48843 1.17212 7.64814 1.19196 7.80541C0.876299 7.80541 0.573524 7.93062 0.350064 8.15358C0.126604 8.37653 0.00070936 8.67903 0 8.99469L0 10.1268C0.00047328 10.4426 0.126292 10.7452 0.349803 10.9682C0.573314 11.1912 0.876227 11.3164 1.19196 11.3161C1.17286 11.4675 1.18591 11.6213 1.23028 11.7673C1.27464 11.9133 1.34932 12.0484 1.44943 12.1635C1.54954 12.2787 1.67283 12.3715 1.81124 12.4358C1.94966 12.5001 2.10008 12.5345 2.25268 12.5367H2.80179C3.08311 12.5362 3.35277 12.4242 3.55162 12.2251C3.75046 12.0261 3.86226 11.7564 3.8625 11.475V7.64737C3.8618 7.39076 3.76787 7.14315 3.5982 6.95064C3.42852 6.75814 3.19467 6.63386 2.94018 6.60094C3.23019 4.93914 4.09717 3.43291 5.38848 2.34745C6.67978 1.26198 8.31263 0.666862 9.99955 0.666862C11.6865 0.666862 13.3193 1.26198 14.6106 2.34745C15.9019 3.43291 16.7689 4.93914 17.0589 6.60094C16.8044 6.63386 16.5706 6.75814 16.4009 6.95064C16.2312 7.14315 16.1373 7.39076 16.1366 7.64737V11.4759C16.1374 11.7322 16.231 11.9795 16.4 12.172C16.5691 12.3646 16.8022 12.4894 17.0562 12.5233C16.8313 13.8414 16.2426 15.0705 15.3565 16.072C14.4704 17.0734 13.3221 17.8074 12.0411 18.1911C11.9385 18.0306 11.7973 17.8985 11.6304 17.8067C11.4635 17.715 11.2762 17.6667 11.0857 17.6661H8.7375C8.44169 17.6744 8.16077 17.7978 7.95447 18.0099C7.74816 18.2221 7.63275 18.5064 7.63275 18.8023C7.63275 19.0982 7.74816 19.3825 7.95447 19.5946C8.16077 19.8068 8.44169 19.9301 8.7375 19.9384H11.0857C11.2369 19.9386 11.3866 19.9085 11.5259 19.8499C11.6653 19.7913 11.7915 19.7053 11.8971 19.5971C12.0027 19.4889 12.0856 19.3607 12.1408 19.22C12.1961 19.0792 12.2226 18.9289 12.2188 18.7777C13.6208 18.3554 14.8754 17.5464 15.8387 16.4437C16.802 15.3409 17.4351 13.989 17.6652 12.5429C17.8251 12.5524 17.9851 12.5265 18.1338 12.467C18.2825 12.4074 18.4163 12.3158 18.5255 12.1986C18.6346 12.0814 18.7166 11.9415 18.7654 11.789C18.8143 11.6364 18.8288 11.4749 18.808 11.3161C18.9643 11.3164 19.1191 11.2858 19.2636 11.2262C19.4081 11.1666 19.5395 11.0791 19.6501 10.9688C19.7608 10.8584 19.8487 10.7274 19.9087 10.5831C19.9687 10.4387 19.9998 10.284 20 10.1277V8.99469C19.9993 8.67934 19.8736 8.37711 19.6506 8.15421C19.4275 7.9313 19.1252 7.80588 18.8098 7.80541ZM1.18929 10.7108C0.342857 10.6733 0.664286 9.59826 0.60625 8.99469C0.606485 8.84005 0.667959 8.6918 0.777223 8.58237C0.886487 8.47294 1.03465 8.41123 1.18929 8.41076V10.7099V10.7108ZM3.25625 7.64737V11.4759C3.24286 12.0277 2.63125 11.9286 2.25268 11.9313C1.7375 11.9152 1.78839 11.3831 1.79821 11.0134V8.10898C1.78571 7.74469 1.73839 7.20898 2.25268 7.19201C2.63036 7.19469 3.24196 7.0938 3.25625 7.64737ZM11.0857 19.3277H8.7375C8.59684 19.3277 8.46194 19.2719 8.36248 19.1724C8.26302 19.0729 8.20714 18.938 8.20714 18.7974C8.20714 18.6567 8.26302 18.5218 8.36248 18.4224C8.46194 18.3229 8.59684 18.267 8.7375 18.267H11.0857C11.2264 18.267 11.3613 18.3229 11.4607 18.4224C11.5602 18.5218 11.6161 18.6567 11.6161 18.7974C11.6161 18.938 11.5602 19.0729 11.4607 19.1724C11.3613 19.2719 11.2264 19.3277 11.0857 19.3277ZM18.2018 11.4759C18.1884 12.0277 17.5768 11.9286 17.1973 11.9313C17.0767 11.9311 16.9611 11.883 16.8759 11.7976C16.7907 11.7122 16.7429 11.5966 16.7429 11.4759V7.64737C16.7571 7.09558 17.3679 7.1938 17.7473 7.19201C18.2625 7.20719 18.2107 7.74023 18.2018 8.10898C18.2027 8.41612 18.2009 11.2599 18.2018 11.4759ZM19.3938 10.1277C19.3938 10.2045 19.3786 10.2806 19.3491 10.3515C19.3196 10.4224 19.2765 10.4868 19.222 10.5409C19.1676 10.5951 19.103 10.638 19.032 10.6672C18.9609 10.6963 18.8848 10.7111 18.808 10.7108V8.41166C19.6571 8.44916 19.3357 9.52505 19.3938 10.1277ZM8.69732 12.592L8.77679 12.625L8.9875 13.9438C9.1 14.35 9.67054 14.2117 9.99911 14.2581C10.3295 14.2099 10.8982 14.3474 11.0116 13.9447L11.2214 12.6242C11.2482 12.6134 11.275 12.6036 11.3009 12.5911L12.3821 13.3768C12.434 13.4147 12.4965 13.4351 12.5607 13.4351C12.6249 13.4351 12.6874 13.4147 12.7393 13.3768C13.1541 13.0785 13.5173 12.7141 13.8143 12.2983C13.8519 12.2463 13.8722 12.1838 13.8722 12.1197C13.8722 12.0556 13.8519 11.9931 13.8143 11.9411L13.0295 10.8599C13.0411 10.8331 13.0518 10.8081 13.0625 10.7804L14.383 10.5706C14.7875 10.4617 14.6509 9.87326 14.6973 9.55808C14.65 9.24648 14.7866 8.65541 14.383 8.54648L13.0625 8.33666L13.0295 8.25809L13.8143 7.17684C13.8523 7.12505 13.8728 7.0625 13.8728 6.99826C13.8728 6.93403 13.8523 6.87147 13.8143 6.81969C13.5172 6.40307 13.153 6.0386 12.7366 5.74112C12.6848 5.70311 12.6223 5.68262 12.558 5.68262C12.4938 5.68262 12.4312 5.70311 12.3795 5.74112L11.2982 6.52594C11.2714 6.51344 11.2455 6.50273 11.2187 6.49291L11.0089 5.17148C10.9987 5.10886 10.9691 5.05104 10.9242 5.00618C10.8794 4.96132 10.8215 4.93169 10.7589 4.92148C10.2544 4.83752 9.73939 4.83752 9.23482 4.92148C9.17221 4.93169 9.11439 4.96132 9.06953 5.00618C9.02466 5.05104 8.99504 5.10886 8.98482 5.17148L8.77679 6.50005C8.75089 6.50987 8.725 6.52148 8.69821 6.53309L7.61518 5.74916C7.5634 5.71115 7.50084 5.69065 7.43661 5.69065C7.37237 5.69065 7.30982 5.71115 7.25804 5.74916C6.84336 6.0471 6.48049 6.41118 6.18393 6.82684C6.14565 6.8785 6.12499 6.9411 6.12499 7.00541C6.12499 7.06971 6.14565 7.13231 6.18393 7.18398L6.96964 8.26433C6.95714 8.29201 6.94643 8.31791 6.93571 8.3438L5.61786 8.54826C5.21339 8.65898 5.35 9.23666 5.30268 9.55987C5.35089 9.88487 5.21339 10.4608 5.61786 10.5724L6.93661 10.7804C6.94732 10.8081 6.95804 10.834 6.96964 10.8599L6.18482 11.9411C6.14695 11.993 6.12653 12.0555 6.12653 12.1197C6.12653 12.1839 6.14695 12.2464 6.18482 12.2983C6.48286 12.7136 6.84655 13.0776 7.26161 13.3759C7.31344 13.4138 7.37598 13.4342 7.44018 13.4342C7.50438 13.4342 7.56691 13.4138 7.61875 13.3759L8.69732 12.592ZM6.80714 12.1197L7.56518 11.075C7.725 10.859 7.49732 10.6331 7.44821 10.4179C7.43071 10.3652 7.39904 10.3183 7.35668 10.2824C7.31431 10.2465 7.26289 10.223 7.20804 10.2143L5.93393 10.0108C5.9009 9.71257 5.9009 9.41164 5.93393 9.11344L7.20804 8.91166C7.47589 8.86969 7.47143 8.55451 7.59018 8.36433C7.61557 8.31463 7.62667 8.25885 7.62226 8.20321C7.61784 8.14757 7.59808 8.09424 7.56518 8.04916L6.80714 7.00719C6.99465 6.77251 7.20755 6.55931 7.44196 6.37148L8.48661 7.12862C8.69643 7.28844 8.94375 7.05541 9.14375 7.01076C9.19662 6.99339 9.24367 6.96179 9.27974 6.91941C9.31581 6.87704 9.3395 6.82555 9.34821 6.77059L9.55357 5.49737C9.85177 5.46434 10.1527 5.46434 10.4509 5.49737L10.6536 6.77059C10.6991 7.03844 11.0018 7.02951 11.2027 7.15451C11.252 7.17947 11.3073 7.19034 11.3624 7.18593C11.4176 7.18152 11.4704 7.162 11.5152 7.12951L12.5589 6.37148C12.7936 6.55908 13.0065 6.77231 13.1938 7.00719L12.4357 8.04916C12.275 8.26255 12.508 8.50362 12.5554 8.70809C12.5731 8.76035 12.6046 8.80685 12.6465 8.84269C12.6885 8.87852 12.7394 8.90235 12.7938 8.91166L14.0679 9.11344C14.1018 9.41159 14.1018 9.71262 14.0679 10.0108L12.7938 10.2143C12.5259 10.2581 12.5339 10.5634 12.4098 10.7617C12.3853 10.8113 12.3748 10.8667 12.3793 10.9219C12.3839 10.9771 12.4034 11.0301 12.4357 11.075L13.1938 12.1197C13.0057 12.3534 12.7929 12.5659 12.5589 12.7536L11.5152 11.9965C11.2991 11.8358 11.0687 12.0643 10.8571 12.1152C10.8045 12.1326 10.7577 12.1641 10.7218 12.2063C10.6859 12.2485 10.6623 12.2998 10.6536 12.3545L10.4464 13.6268C10.1482 13.6599 9.8473 13.6599 9.54911 13.6268L9.34643 12.3545C9.30893 12.0911 8.97946 12.0867 8.80089 11.9724C8.75116 11.9467 8.69525 11.9353 8.63944 11.9396C8.58362 11.9438 8.53009 11.9635 8.48482 11.9965L7.44018 12.7536C7.20643 12.5663 6.99412 12.3537 6.80714 12.1197ZM10 11.2268C10.4353 11.2168 10.8494 11.0368 11.1537 10.7253C11.458 10.4139 11.6284 9.99574 11.6284 9.56032C11.6284 9.12489 11.458 8.70675 11.1537 8.39531C10.8494 8.08388 10.4353 7.90388 10 7.8938C9.56469 7.90388 9.1506 8.08388 8.84629 8.39531C8.54198 8.70675 8.37161 9.12489 8.37161 9.56032C8.37161 9.99574 8.54198 10.4139 8.84629 10.7253C9.1506 11.0368 9.56469 11.2168 10 11.2268ZM10 8.50005C10.2759 8.50806 10.5378 8.62327 10.7301 8.82124C10.9224 9.0192 11.0299 9.28433 11.0299 9.56032C11.0299 9.83631 10.9224 10.1014 10.7301 10.2994C10.5378 10.4974 10.2759 10.6126 10 10.6206C9.72825 10.6069 9.47214 10.4893 9.28464 10.2922C9.09713 10.095 8.99257 9.8333 8.99257 9.56121C8.99257 9.28911 9.09713 9.02743 9.28464 8.83025C9.47214 8.63308 9.72825 8.5155 10 8.50183V8.50005Z" fill="#F0F0F2"/>
</g>
<defs>
<clipPath id="clip0_41_833">
<rect width="20" height="20" fill="white"/>
</clipPath>
</defs>
</svg>
