<svg width="16" height="16" viewBox="0 0 16 16" fill="none" xmlns="http://www.w3.org/2000/svg">
<path d="M14.7207 5.19476C14.7173 5.18498 14.7154 5.17473 14.7115 5.16518C14.702 5.14238 14.6895 5.12129 14.6768 5.10034C14.6727 5.09348 14.6699 5.08595 14.6654 5.07927C14.6471 5.052 14.6263 5.02657 14.6032 5.00346L11.4113 1.81165C11.2159 1.61633 10.8993 1.61633 10.7042 1.81165C10.5089 2.00684 10.5089 2.32349 10.7042 2.51868L13.0428 4.8573H1.75C1.47388 4.8573 1.25 5.08118 1.25 5.3573C1.25 5.63342 1.47388 5.8573 1.75 5.8573H13.0429L10.7042 8.19604C10.5089 8.39124 10.5089 8.70789 10.7042 8.90308C10.8018 9.00073 10.9298 9.04956 11.0577 9.04956C11.1857 9.04956 11.3137 9.00073 11.4113 8.90308L14.6032 5.71114C14.6263 5.68803 14.6471 5.6626 14.6654 5.63533C14.6699 5.62865 14.6727 5.62112 14.6768 5.61426C14.6895 5.59331 14.702 5.57222 14.7115 5.54942C14.7154 5.53987 14.7173 5.52962 14.7207 5.51984C14.7279 5.49892 14.7356 5.47823 14.74 5.45615C14.7466 5.42383 14.75 5.39075 14.75 5.3573C14.75 5.32385 14.7466 5.29077 14.74 5.25845C14.7356 5.23637 14.7279 5.21568 14.7207 5.19476Z" fill="#97A1AD"/>
<path d="M14.25 10.1427H2.95714L5.29578 7.80396C5.49109 7.60876 5.49109 7.29211 5.29578 7.09692C5.10071 6.90161 4.78381 6.90161 4.58875 7.09692L1.3968 10.2889C1.37366 10.312 1.35286 10.3374 1.33458 10.3647C1.33011 10.3714 1.32727 10.3789 1.32315 10.3857C1.31052 10.4067 1.29803 10.4278 1.28853 10.4506C1.28456 10.4601 1.28271 10.4704 1.27933 10.4802C1.27211 10.5011 1.2644 10.5218 1.25996 10.5439C1.25343 10.5762 1.25 10.6093 1.25 10.6427C1.25 10.6761 1.25343 10.7092 1.25996 10.7415C1.2644 10.7636 1.27211 10.7843 1.27933 10.8052C1.28271 10.815 1.28456 10.8253 1.28853 10.8348C1.29803 10.8576 1.31052 10.8787 1.32315 10.8997C1.32727 10.9065 1.33011 10.914 1.33458 10.9207C1.35286 10.948 1.37366 10.9734 1.3968 10.9965L4.58875 14.1884C4.6864 14.286 4.81433 14.3348 4.94226 14.3348C5.07019 14.3348 5.19824 14.286 5.29578 14.1884C5.49109 13.9932 5.49109 13.6765 5.29578 13.4813L2.95715 11.1427H14.25C14.5261 11.1427 14.75 10.9188 14.75 10.6427C14.75 10.3666 14.5261 10.1427 14.25 10.1427Z" fill="#97A1AD"/>
</svg>
