<svg width="20" height="20" viewBox="0 0 20 20" fill="none" xmlns="http://www.w3.org/2000/svg">
<g clip-path="url(#clip0_40_693)">
<path d="M13.4895 0H14.3117C14.8315 0.0596354 15.1747 0.320052 15.3414 0.78125C15.4105 0.971875 15.4383 1.2375 15.4789 1.46172C15.4812 1.47526 15.4888 1.48464 15.5016 1.48984L16.0238 1.70859C16.0353 1.71328 16.0461 1.71224 16.0562 1.70547C16.2437 1.57891 16.4504 1.40898 16.6324 1.32383C17.0618 1.12227 17.4668 1.1612 17.8473 1.44062C17.998 1.55078 18.1598 1.73398 18.3074 1.88125C18.4605 2.03385 18.5646 2.15404 18.6195 2.2418C18.844 2.59935 18.8622 2.97604 18.6742 3.37187C18.5879 3.55312 18.4191 3.75664 18.2922 3.94258C18.2852 3.95273 18.284 3.96354 18.2887 3.975L18.5055 4.4918C18.5091 4.5007 18.5151 4.50848 18.5227 4.51437C18.5303 4.52027 18.5393 4.52407 18.5488 4.52539C18.8527 4.5668 19.198 4.61172 19.4469 4.76445C19.7742 4.96497 19.9586 5.27292 20 5.68828V6.51445C19.957 6.92773 19.7723 7.23424 19.4457 7.43398C19.1992 7.58476 18.85 7.63281 18.5512 7.67305C18.5417 7.67437 18.5327 7.6781 18.5251 7.68385C18.5176 7.68961 18.5118 7.6972 18.5082 7.70586L18.2918 8.22227C18.2895 8.22765 18.2886 8.23351 18.2891 8.23931C18.2897 8.24511 18.2917 8.25066 18.2949 8.25547C18.3741 8.37422 18.4536 8.49062 18.5336 8.60469C18.8628 9.07448 18.8896 9.52799 18.6141 9.96523C18.5555 10.0582 18.4469 10.1827 18.2883 10.3387C18.1332 10.4918 17.9656 10.6812 17.8047 10.7914C17.4607 11.0276 17.0797 11.063 16.6617 10.8977C16.5695 10.8609 16.3728 10.7262 16.0715 10.4934C16.0653 10.4887 16.058 10.4858 16.0503 10.4848C16.0427 10.4839 16.0349 10.4849 16.0277 10.4879L15.5008 10.7078C15.4906 10.712 15.4845 10.7195 15.4824 10.7305C15.4391 10.9437 15.4125 11.202 15.3559 11.3773C15.2301 11.7672 14.9799 12.0215 14.6055 12.1402C14.474 12.1819 14.2862 12.2025 14.0422 12.202C13.752 12.2016 13.4211 12.2242 13.1645 12.1328C12.9152 12.044 12.7201 11.8893 12.5789 11.6687C12.4184 11.4176 12.3664 11.0566 12.327 10.7477C12.3246 10.7292 12.3148 10.7164 12.2977 10.7094L11.782 10.4934C11.775 10.4904 11.7673 10.4892 11.7596 10.49C11.752 10.4907 11.7446 10.4934 11.7383 10.4977C11.5695 10.6109 11.382 10.7617 11.2262 10.8441C10.8051 11.0676 10.4034 11.0548 10.0211 10.8059C9.93594 10.7501 9.81901 10.6469 9.67031 10.4961C9.52578 10.3492 9.3457 10.1875 9.23789 10.0437C9.03034 9.76614 8.95976 9.45872 9.02617 9.12148C9.08594 8.81914 9.30039 8.53398 9.49531 8.28125C9.50289 8.27141 9.50772 8.25974 9.5093 8.24745C9.51088 8.23516 9.50915 8.22269 9.5043 8.21133L9.29258 7.7043C9.28711 7.69128 9.27734 7.68333 9.26328 7.68047C9.04844 7.63867 8.79141 7.61211 8.61016 7.55078C8.1888 7.40833 7.92956 7.12396 7.83242 6.69766C7.8095 6.59766 7.79922 6.44193 7.80156 6.23047C7.80391 6.02617 7.78594 5.78633 7.81328 5.60586C7.88307 5.14414 8.13125 4.83125 8.55781 4.66719C8.7543 4.5918 9.02969 4.56328 9.26172 4.5207C9.27578 4.5181 9.28555 4.51016 9.29101 4.49687L9.50898 3.97539C9.51393 3.96393 9.51289 3.95312 9.50586 3.94297C9.3707 3.74687 9.19453 3.53047 9.1082 3.33281C8.94232 2.95234 8.96406 2.59193 9.17344 2.25156C9.22891 2.16094 9.33568 2.03698 9.49375 1.87969C9.6457 1.72852 9.81211 1.53984 9.96953 1.42812C10.3531 1.15573 10.7583 1.12409 11.1852 1.3332C11.3582 1.41797 11.559 1.58281 11.7402 1.70664C11.752 1.71445 11.7642 1.71576 11.777 1.71055L12.2953 1.49336C12.3017 1.49073 12.3072 1.48656 12.3115 1.48123C12.3158 1.47591 12.3187 1.4696 12.3199 1.46289C12.3605 1.24727 12.3883 0.990625 12.45 0.808203C12.6107 0.330859 12.9572 0.0614583 13.4895 0ZM9.80586 6.75703C10.1195 6.8332 10.182 7.11094 10.282 7.42617C10.3473 7.63242 10.4527 7.81445 10.5422 8.01172C10.6469 8.24336 10.6426 8.40664 10.502 8.60742C10.348 8.82747 10.197 9.04349 10.0488 9.25547C10.0277 9.28555 10.0179 9.32212 10.0211 9.35877C10.0243 9.39542 10.0404 9.4298 10.0664 9.45586L10.5449 9.93437C10.5708 9.96021 10.6049 9.97614 10.6412 9.97935C10.6776 9.98257 10.7139 9.97287 10.7437 9.95195C10.9641 9.79805 11.1898 9.63997 11.4211 9.47773C11.7227 9.26641 12.0145 9.46719 12.2859 9.60273C12.3802 9.64961 12.4812 9.69075 12.5891 9.72617C12.8664 9.8168 13.202 9.89023 13.2625 10.2344C13.312 10.5154 13.3609 10.7913 13.4094 11.0621C13.4154 11.0964 13.4334 11.1274 13.46 11.1497C13.4866 11.1721 13.5203 11.1844 13.5551 11.1844L14.2387 11.1848C14.2754 11.1847 14.311 11.1717 14.3392 11.148C14.3673 11.1243 14.3862 11.0914 14.3926 11.0551C14.4309 10.8368 14.4699 10.6161 14.5098 10.393C14.566 10.0777 14.6254 9.93164 14.9227 9.82539C15.1277 9.75234 15.3266 9.69453 15.5254 9.59453C15.8059 9.45351 16.0754 9.26992 16.3855 9.48477C16.6111 9.64075 16.8311 9.79362 17.0457 9.94336C17.1254 9.99909 17.1997 9.99258 17.2687 9.92383L17.7402 9.45195C17.7643 9.42788 17.7792 9.39609 17.7822 9.36216C17.7852 9.32823 17.7761 9.29433 17.7566 9.26641C17.5996 9.04062 17.4414 8.81146 17.282 8.57891C17.0754 8.27617 17.2426 8.02617 17.4062 7.70312C17.5742 7.37226 17.6027 6.81211 18.0371 6.73672C18.3181 6.68802 18.5927 6.63984 18.8609 6.59219C18.8955 6.58604 18.9269 6.56787 18.9494 6.54087C18.972 6.51387 18.9844 6.47977 18.9844 6.44453V5.76133C18.9844 5.72508 18.9716 5.68998 18.9483 5.66219C18.9251 5.63441 18.8927 5.61571 18.857 5.60937C18.5909 5.56172 18.3184 5.51341 18.0395 5.46445C17.6703 5.4 17.6082 5.03086 17.5078 4.73867C17.3801 4.36601 17.0152 3.98945 17.2902 3.6C17.4457 3.37995 17.597 3.16484 17.7441 2.95469C17.7999 2.87526 17.7935 2.8013 17.725 2.73281L17.2535 2.26133C17.2285 2.23639 17.1955 2.22107 17.1603 2.21807C17.1252 2.21507 17.0901 2.22458 17.0613 2.24492C16.8267 2.41029 16.5923 2.57409 16.3582 2.73633C16.0687 2.93672 15.7344 2.70703 15.4707 2.57734C15.1344 2.41211 14.6117 2.39883 14.534 1.95273C14.4863 1.67956 14.4391 1.41029 14.3922 1.14492C14.3858 1.10871 14.3669 1.07589 14.3388 1.05224C14.3106 1.02859 14.275 1.01563 14.2383 1.01562H13.5645C13.5274 1.01561 13.4916 1.02865 13.4632 1.05244C13.4349 1.07623 13.4158 1.10925 13.4094 1.1457C13.3622 1.41211 13.3129 1.68203 13.2613 1.95547C13.1934 2.31445 12.9027 2.37148 12.5641 2.48203C12.4659 2.51406 12.3654 2.55625 12.2625 2.60859C11.9961 2.74375 11.7148 2.92695 11.4207 2.71992C11.1928 2.55977 10.9681 2.40195 10.7465 2.24648C10.7161 2.22515 10.6792 2.21518 10.6423 2.21832C10.6054 2.22146 10.5707 2.23752 10.5445 2.26367L10.0766 2.73164C10.0073 2.80117 10.0009 2.87604 10.0574 2.95625C10.2126 3.17734 10.3698 3.40273 10.5289 3.63242C10.7328 3.92656 10.5258 4.22734 10.3941 4.49336C10.2961 4.6918 10.2402 4.89219 10.1695 5.09883C10.0746 5.37656 9.89219 5.43867 9.60039 5.49141C9.3845 5.53021 9.17187 5.56771 8.9625 5.60391C8.86615 5.62057 8.81771 5.67773 8.81719 5.77539C8.81562 5.9845 8.81549 6.19505 8.8168 6.40703C8.81719 6.48711 8.85351 6.58398 8.93437 6.59492C9.22812 6.63372 9.51862 6.68776 9.80586 6.75703Z" fill="#F0F0F2"/>
<path d="M16.3246 6.09963C16.3246 6.74258 16.0692 7.35919 15.6146 7.81382C15.16 8.26845 14.5434 8.52385 13.9004 8.52385C13.2575 8.52385 12.6409 8.26845 12.1862 7.81382C11.7316 7.35919 11.4762 6.74258 11.4762 6.09963C11.4762 5.45669 11.7316 4.84008 12.1862 4.38545C12.6409 3.93082 13.2575 3.67542 13.9004 3.67542C14.5434 3.67542 15.16 3.93082 15.6146 4.38545C16.0692 4.84008 16.3246 5.45669 16.3246 6.09963ZM15.3063 6.09963C15.3063 5.72667 15.1581 5.36899 14.8944 5.10527C14.6307 4.84154 14.273 4.69338 13.9 4.69338C13.5271 4.69338 13.1694 4.84154 12.9057 5.10527C12.6419 5.36899 12.4938 5.72667 12.4938 6.09963C12.4938 6.47259 12.6419 6.83028 12.9057 7.094C13.1694 7.35773 13.5271 7.50588 13.9 7.50588C14.273 7.50588 14.6307 7.35773 14.8944 7.094C15.1581 6.83028 15.3063 6.47259 15.3063 6.09963Z" fill="#F0F0F2"/>
<path d="M8.11133 20H7.09414C6.50247 19.9362 6.10872 19.6467 5.91289 19.1316C5.81289 18.8688 5.77344 18.4824 5.71484 18.1656C5.7125 18.1534 5.70547 18.1453 5.69375 18.1414C5.41693 18.0492 5.14831 17.9374 4.88789 17.8059C4.88318 17.8034 4.87786 17.8023 4.8725 17.8026C4.86713 17.803 4.86192 17.8048 4.85742 17.8078C4.59102 17.9922 4.28945 18.2414 4.02539 18.3563C3.5569 18.5596 3.11484 18.5128 2.69922 18.2156C2.49961 18.073 2.2793 17.8234 2.08242 17.6277C1.89779 17.4444 1.77253 17.2962 1.70664 17.1832C1.4806 16.797 1.45964 16.3939 1.64375 15.9738C1.7582 15.7125 2.00625 15.4105 2.18984 15.1461C2.19399 15.1401 2.19643 15.1331 2.19691 15.1259C2.1974 15.1186 2.1959 15.1114 2.19258 15.1051C2.06237 14.8467 1.95156 14.5805 1.86016 14.3063C1.85599 14.2935 1.8474 14.2859 1.83437 14.2836C1.50273 14.2223 1.09648 14.1813 0.823828 14.0676C0.334766 13.8639 0.0601562 13.475 0 12.9008V11.8836C0.0674479 11.2906 0.359505 10.8979 0.876172 10.7055C1.13398 10.6094 1.51719 10.5691 1.83008 10.5117C1.8444 10.5089 1.85391 10.5007 1.85859 10.4871C1.95104 10.2129 2.06185 9.94649 2.19102 9.68789C2.19753 9.67487 2.19674 9.66237 2.18867 9.65039C2.00664 9.38321 1.7582 9.08203 1.64414 8.82071C1.4556 8.38867 1.48112 7.97748 1.7207 7.58711C1.78815 7.47722 1.92161 7.32422 2.12109 7.12813C2.31094 6.94141 2.51953 6.70547 2.71484 6.56992C3.12708 6.28268 3.56211 6.23802 4.01992 6.43594C4.28359 6.55 4.59062 6.80157 4.86055 6.98633C4.87096 6.99336 4.88177 6.99414 4.89297 6.98867C5.15234 6.85873 5.4194 6.7474 5.69414 6.65469C5.70872 6.64974 5.71732 6.63959 5.71992 6.62422C5.75612 6.41693 5.79232 6.21094 5.82852 6.00625C5.8543 5.8599 5.89115 5.75404 5.93906 5.68867C6.20078 5.33047 6.72383 5.43946 6.83477 5.85742C6.85508 5.93425 6.85456 6.03373 6.8332 6.15586C6.77669 6.48034 6.71953 6.80482 6.66172 7.1293C6.6263 7.32878 6.5013 7.4599 6.28672 7.52266C5.88698 7.63985 5.49271 7.80677 5.10391 8.02344C4.84688 8.16641 4.66211 8.08555 4.42266 7.91875C4.16979 7.74271 3.91745 7.56602 3.66562 7.38867C3.48711 7.2625 3.33594 7.35039 3.1918 7.49336C2.91549 7.76654 2.73073 7.95104 2.6375 8.04688C2.47695 8.21289 2.53008 8.36563 2.65469 8.54336C2.83984 8.80768 3.02539 9.07188 3.21133 9.33594C3.37773 9.57188 3.29102 9.77383 3.15469 10.0316C2.98073 10.3603 2.84297 10.7043 2.74141 11.0637C2.65586 11.3664 2.46758 11.4293 2.15898 11.4844C1.87148 11.5357 1.58424 11.5874 1.29727 11.6395C1.04688 11.6852 1.01602 11.8438 1.01562 12.0813C1.01536 12.3315 1.01536 12.5818 1.01562 12.832C1.01602 13.0598 1.16758 13.1324 1.37812 13.1699C1.69089 13.2257 2.00378 13.2809 2.3168 13.3355C2.61641 13.3883 2.6918 13.5746 2.78477 13.8672C2.89076 14.2008 3.04245 14.5499 3.23984 14.9145C3.33568 15.0918 3.32305 15.2707 3.20195 15.4512C3.00638 15.7423 2.80846 16.0318 2.6082 16.3195C2.46484 16.5254 2.55195 16.6605 2.71445 16.8234C2.89362 17.0034 3.07305 17.1828 3.25273 17.3617C3.42266 17.5309 3.58242 17.4633 3.76328 17.3363C4.02708 17.1509 4.29102 16.9659 4.55508 16.7813C4.77578 16.627 4.97773 16.7082 5.22031 16.8352C5.53698 17.0008 5.89935 17.1449 6.30742 17.2676C6.57227 17.3473 6.64062 17.5535 6.68906 17.8273C6.74037 18.1167 6.79102 18.4059 6.84102 18.6949C6.88477 18.9484 7.04883 18.9844 7.28906 18.9844C7.53542 18.9841 7.78151 18.9831 8.02734 18.9813C8.28477 18.9793 8.34102 18.8293 8.38281 18.5945C8.43776 18.2883 8.49258 17.982 8.54727 17.6758C8.59961 17.384 8.78633 17.307 9.07227 17.2172C9.41159 17.1102 9.76185 16.9586 10.123 16.7625C10.3035 16.6646 10.4839 16.6766 10.6641 16.7984C10.9544 16.9951 11.243 17.1943 11.5297 17.3961C11.7406 17.5445 11.8852 17.4355 12.0496 17.2707C12.223 17.097 12.3957 16.9225 12.5676 16.7473C12.7383 16.5734 12.6781 16.4258 12.548 16.2406C12.3671 15.9823 12.1861 15.7241 12.0051 15.466C11.8277 15.2129 11.9172 15.0246 12.0605 14.7488C12.2238 14.4342 12.3605 14.0883 12.4707 13.7109C12.552 13.4313 12.75 13.3621 13.0371 13.3105C13.3048 13.2621 13.5728 13.2152 13.841 13.1699C13.9803 13.1465 14.0891 13.1464 14.1672 13.1695C14.5918 13.2961 14.6594 13.8543 14.282 14.0848C14.2211 14.122 14.0978 14.1565 13.9121 14.1883C13.734 14.2188 13.5562 14.2497 13.3789 14.2813C13.3722 14.2824 13.3659 14.2854 13.3606 14.2899C13.3554 14.2943 13.3515 14.3001 13.3492 14.3066C13.2565 14.5809 13.1454 14.8474 13.016 15.1063C13.0098 15.1188 13.0107 15.1309 13.0188 15.1426C13.2051 15.4129 13.4574 15.7191 13.5707 15.9875C13.746 16.4018 13.7236 16.7984 13.5035 17.1773C13.4376 17.2906 13.3124 17.4392 13.1277 17.623C12.9289 17.8211 12.7062 18.0723 12.5043 18.216C12.0848 18.5145 11.6401 18.5589 11.1703 18.3492C10.9148 18.2352 10.6137 17.9879 10.3477 17.8074C10.3428 17.8042 10.3372 17.8024 10.3315 17.802C10.3257 17.8017 10.32 17.8029 10.3148 17.8055C10.056 17.9354 9.78932 18.0465 9.51484 18.1387C9.50847 18.1408 9.50278 18.1446 9.49839 18.1497C9.49399 18.1548 9.49104 18.161 9.48984 18.1676C9.43203 18.4801 9.39219 18.8605 9.29648 19.1191C9.10299 19.6408 8.70794 19.9344 8.11133 20Z" fill="#F0F0F2"/>
<path d="M10.993 12.5793C10.9285 13.734 10.2824 14.7754 9.28476 15.3445C7.64297 16.2812 5.55351 15.6883 4.6414 14.0539C3.40781 11.8433 4.95507 9.0777 7.50078 9.00505C7.64557 9.00088 7.75872 9.02119 7.84023 9.06599C8.20195 9.26403 8.19257 9.75622 7.84023 9.95192C7.64804 10.0586 7.30273 10.0191 7.13828 10.0586C6.37239 10.2419 5.82135 10.6623 5.48515 11.3199C4.76367 12.7324 5.6082 14.4258 7.14492 14.7328C8.58945 15.0215 9.88281 13.9527 9.98007 12.5066C9.99049 12.3511 10.0091 12.2444 10.0359 12.1863C10.2152 11.8 10.7617 11.7945 10.941 12.1754C10.9855 12.2702 11.0029 12.4048 10.993 12.5793Z" fill="#F0F0F2"/>
</g>
<defs>
<clipPath id="clip0_40_693">
<rect width="20" height="20" fill="white"/>
</clipPath>
</defs>
</svg>
