<svg width="16" height="16" viewBox="0 0 16 16" fill="none" xmlns="http://www.w3.org/2000/svg">
<g clip-path="url(#clip0_2016_1179)">
<path d="M6.70344 13.4069C4.91281 13.4069 3.22937 12.7097 1.96344 11.4434C0.697188 10.1772 0 8.49406 0 6.70344C0 4.91281 0.697188 3.22937 1.96344 1.96344C3.22937 0.697188 4.91281 0 6.70344 0C8.49406 0 10.1775 0.697188 11.4434 1.96344C12.7097 3.22969 13.4069 4.91281 13.4069 6.70344C13.4069 8.49406 12.7097 10.1775 11.4434 11.4434C10.1772 12.7094 8.49406 13.4069 6.70344 13.4069ZM6.70344 0.885625C5.14937 0.885625 3.68844 1.49094 2.58969 2.58969C0.32125 4.85812 0.32125 8.54906 2.58969 10.8172C3.68844 11.9159 5.14937 12.5212 6.70344 12.5212C8.2575 12.5212 9.71844 11.9159 10.8172 10.8172C13.0856 8.54875 13.0856 4.85781 10.8172 2.58969C9.71844 1.49063 8.2575 0.885625 6.70344 0.885625Z" fill="#97A1AD"/>
<path d="M15.5572 16C15.4438 16 15.3307 15.9569 15.2441 15.8703L10.8172 11.4434C10.6444 11.2706 10.6444 10.99 10.8172 10.8172C10.99 10.6444 11.2707 10.6444 11.4435 10.8172L15.8704 15.2441C16.0432 15.4169 16.0432 15.6975 15.8704 15.8703C15.7838 15.9569 15.6707 16 15.5572 16Z" fill="#97A1AD"/>
</g>
<defs>
<clipPath id="clip0_2016_1179">
<rect width="16" height="16" fill="white"/>
</clipPath>
</defs>
</svg>
