<svg width="132" height="36" viewBox="0 0 132 36" fill="none" xmlns="http://www.w3.org/2000/svg">
<g clip-path="url(#clip0_2016_1092)">
<path d="M16.3793 24.7586C14.141 24.7586 12.0367 23.8871 10.4543 22.3043C8.87148 20.7215 8 18.6176 8 16.3793C8 14.141 8.87148 12.0367 10.4543 10.4543C12.0367 8.87148 14.141 8 16.3793 8C18.6176 8 20.7219 8.87148 22.3043 10.4543C23.8871 12.0371 24.7586 14.141 24.7586 16.3793C24.7586 18.6176 23.8871 20.7219 22.3043 22.3043C20.7215 23.8867 18.6176 24.7586 16.3793 24.7586ZM16.3793 9.10703C14.4367 9.10703 12.6105 9.86367 11.2371 11.2371C8.40156 14.0727 8.40156 18.6863 11.2371 21.5215C12.6105 22.8949 14.4367 23.6516 16.3793 23.6516C18.3219 23.6516 20.148 22.8949 21.5215 21.5215C24.357 18.6859 24.357 14.0723 21.5215 11.2371C20.148 9.86328 18.3219 9.10703 16.3793 9.10703Z" fill="#B6BDC7"/>
<path d="M27.4465 28C27.3047 28 27.1633 27.9461 27.0551 27.8379L21.5215 22.3043C21.3055 22.0883 21.3055 21.7375 21.5215 21.5215C21.7375 21.3055 22.0883 21.3055 22.3043 21.5215L27.8379 27.0551C28.0539 27.2711 28.0539 27.6219 27.8379 27.8379C27.7297 27.9461 27.5883 28 27.4465 28Z" fill="#B6BDC7"/>
</g>
<g clip-path="url(#clip1_2016_1092)">
<path d="M76.5718 15.3664C76.5956 15.1775 76.5778 14.9857 76.5196 14.8044C76.4614 14.6231 76.3642 14.4568 76.2348 14.3171C76.1054 14.1774 75.947 14.0677 75.7707 13.9958C75.5944 13.9238 75.4045 13.8914 75.2143 13.9007C73.3746 3.46821 58.6221 3.47464 56.7857 13.9007C56.5957 13.8917 56.406 13.9244 56.23 13.9965C56.054 14.0685 55.8958 14.1783 55.7667 14.3179C55.6375 14.4576 55.5405 14.6238 55.4824 14.8049C55.4243 14.9861 55.4065 15.1777 55.4304 15.3664C55.0516 15.3664 54.6882 15.5167 54.4201 15.7842C54.1519 16.0518 54.0009 16.4148 54 16.7936V18.1521C54.0006 18.531 54.1516 18.8942 54.4198 19.1618C54.688 19.4294 55.0515 19.5796 55.4304 19.5793C55.4074 19.761 55.4231 19.9455 55.4763 20.1207C55.5296 20.2959 55.6192 20.458 55.7393 20.5962C55.8594 20.7344 56.0074 20.8458 56.1735 20.9229C56.3396 21.0001 56.5201 21.0413 56.7032 21.0439H57.3621C57.6997 21.0434 58.0233 20.9089 58.2619 20.6701C58.5006 20.4313 58.6347 20.1076 58.635 19.77V15.1768C58.6342 14.8689 58.5214 14.5717 58.3178 14.3407C58.1142 14.1097 57.8336 13.9606 57.5282 13.9211C57.8762 11.9269 58.9166 10.1194 60.4662 8.81688C62.0157 7.51432 63.9752 6.80018 65.9995 6.80018C68.0238 6.80018 69.9832 7.51432 71.5328 8.81688C73.0823 10.1194 74.1227 11.9269 74.4707 13.9211C74.1653 13.9606 73.8847 14.1097 73.6811 14.3407C73.4775 14.5717 73.3648 14.8689 73.3639 15.1768V19.7711C73.3649 20.0786 73.4772 20.3753 73.6801 20.6064C73.883 20.8375 74.1627 20.9872 74.4675 21.0279C74.1976 22.6097 73.4911 24.0846 72.4278 25.2863C71.3644 26.4881 69.9865 27.3688 68.4493 27.8293C68.3262 27.6367 68.1568 27.4781 67.9565 27.368C67.7562 27.2579 67.5314 27.1999 67.3029 27.1993H64.485C64.13 27.2092 63.7929 27.3572 63.5454 27.6118C63.2978 27.8664 63.1593 28.2076 63.1593 28.5627C63.1593 28.9178 63.2978 29.2589 63.5454 29.5135C63.7929 29.7681 64.13 29.9161 64.485 29.9261H67.3029C67.4843 29.9263 67.6639 29.8901 67.8311 29.8198C67.9984 29.7494 68.1498 29.6463 68.2765 29.5165C68.4033 29.3867 68.5027 29.2328 68.569 29.0639C68.6353 28.895 68.6671 28.7146 68.6625 28.5332C70.3449 28.0264 71.8505 27.0557 73.0065 25.7324C74.1625 24.409 74.9221 22.7867 75.1982 21.0514C75.3901 21.0628 75.5821 21.0317 75.7606 20.9603C75.939 20.8889 76.0995 20.7789 76.2305 20.6383C76.3616 20.4976 76.4599 20.3298 76.5185 20.1467C76.5771 19.9636 76.5946 19.7699 76.5696 19.5793C76.7572 19.5796 76.943 19.5429 77.1164 19.4714C77.2897 19.3999 77.4473 19.2949 77.5802 19.1625C77.713 19.0301 77.8184 18.8728 77.8905 18.6996C77.9625 18.5264 77.9997 18.3408 78 18.1532V16.7936C77.9991 16.4151 77.8484 16.0525 77.5807 15.785C77.313 15.5175 76.9502 15.367 76.5718 15.3664ZM55.4271 18.8529C54.4114 18.8079 54.7971 17.5179 54.7275 16.7936C54.7278 16.608 54.8016 16.4301 54.9327 16.2988C55.0638 16.1675 55.2416 16.0934 55.4271 16.0929V18.8518V18.8529ZM57.9075 15.1768V19.7711C57.8914 20.4332 57.1575 20.3143 56.7032 20.3175C56.085 20.2982 56.1461 19.6596 56.1579 19.2161V15.7307C56.1429 15.2936 56.0861 14.6507 56.7032 14.6304C57.1564 14.6336 57.8904 14.5125 57.9075 15.1768ZM67.3029 29.1932H64.485C64.3162 29.1932 64.1543 29.1262 64.035 29.0068C63.9156 28.8875 63.8486 28.7256 63.8486 28.5568C63.8486 28.388 63.9156 28.2261 64.035 28.1068C64.1543 27.9874 64.3162 27.9204 64.485 27.9204H67.3029C67.4716 27.9204 67.6335 27.9874 67.7529 28.1068C67.8722 28.2261 67.9393 28.388 67.9393 28.5568C67.9393 28.7256 67.8722 28.8875 67.7529 29.0068C67.6335 29.1262 67.4716 29.1932 67.3029 29.1932ZM75.8421 19.7711C75.8261 20.4332 75.0921 20.3143 74.6368 20.3175C74.492 20.3172 74.3533 20.2595 74.2511 20.1571C74.1489 20.0546 74.0914 19.9158 74.0914 19.7711V15.1768C74.1086 14.5146 74.8414 14.6325 75.2968 14.6304C75.915 14.6486 75.8529 15.2882 75.8421 15.7307C75.8432 16.0993 75.8411 19.5118 75.8421 19.7711ZM77.2725 18.1532C77.2725 18.2454 77.2543 18.3366 77.2189 18.4217C77.1836 18.5068 77.1318 18.5841 77.0664 18.6491C77.0011 18.7141 76.9236 18.7656 76.8384 18.8005C76.7531 18.8355 76.6618 18.8533 76.5696 18.8529V16.0939C77.5886 16.1389 77.2029 17.43 77.2725 18.1532ZM64.4368 21.1104L64.5321 21.15L64.785 22.7325C64.92 23.22 65.6046 23.0539 65.9989 23.1096C66.3954 23.0518 67.0779 23.2168 67.2139 22.7336L67.4657 21.1489C67.4979 21.1361 67.53 21.1243 67.5611 21.1093L68.8586 22.0521C68.9208 22.0976 68.9958 22.1221 69.0729 22.1221C69.1499 22.1221 69.2249 22.0976 69.2871 22.0521C69.785 21.6941 70.2207 21.2569 70.5771 20.7579C70.6223 20.6955 70.6466 20.6205 70.6466 20.5436C70.6466 20.4666 70.6223 20.3916 70.5771 20.3293L69.6354 19.0318C69.6493 18.9996 69.6621 18.9696 69.675 18.9364L71.2596 18.6846C71.745 18.5539 71.5811 17.8479 71.6368 17.4696C71.58 17.0957 71.7439 16.3864 71.2596 16.2557L69.675 16.0039L69.6354 15.9096L70.5771 14.6121C70.6228 14.55 70.6473 14.4749 70.6473 14.3979C70.6473 14.3208 70.6228 14.2457 70.5771 14.1836C70.2206 13.6836 69.7836 13.2463 69.2839 12.8893C69.2218 12.8437 69.1467 12.8191 69.0696 12.8191C68.9926 12.8191 68.9175 12.8437 68.8554 12.8893L67.5579 13.8311C67.5257 13.8161 67.4946 13.8032 67.4625 13.7914L67.2107 12.2057C67.1985 12.1306 67.1629 12.0612 67.1091 12.0074C67.0552 11.9535 66.9859 11.918 66.9107 11.9057C66.3052 11.805 65.6873 11.805 65.0818 11.9057C65.0066 11.918 64.9373 11.9535 64.8834 12.0074C64.8296 12.0612 64.794 12.1306 64.7818 12.2057L64.5321 13.8C64.5011 13.8118 64.47 13.8257 64.4379 13.8396L63.1382 12.8989C63.0761 12.8533 63.001 12.8287 62.9239 12.8287C62.8468 12.8287 62.7718 12.8533 62.7096 12.8989C62.212 13.2565 61.7766 13.6934 61.4207 14.1921C61.3748 14.2541 61.35 14.3293 61.35 14.4064C61.35 14.4836 61.3748 14.5587 61.4207 14.6207L62.3636 15.9171C62.3486 15.9504 62.3357 15.9814 62.3229 16.0125L60.7414 16.2579C60.2561 16.3907 60.42 17.0839 60.3632 17.4718C60.4211 17.8618 60.2561 18.5529 60.7414 18.6868L62.3239 18.9364C62.3368 18.9696 62.3496 19.0007 62.3636 19.0318L61.4218 20.3293C61.3763 20.3915 61.3518 20.4665 61.3518 20.5436C61.3518 20.6206 61.3763 20.6957 61.4218 20.7579C61.7794 21.2562 62.2159 21.693 62.7139 22.0511C62.7761 22.0965 62.8512 22.121 62.9282 22.121C63.0053 22.121 63.0803 22.0965 63.1425 22.0511L64.4368 21.1104ZM62.1686 20.5436L63.0782 19.29C63.27 19.0307 62.9968 18.7596 62.9379 18.5014C62.9168 18.4382 62.8788 18.3819 62.828 18.3389C62.7772 18.2958 62.7155 18.2675 62.6496 18.2571L61.1207 18.0129C61.0811 17.655 61.0811 17.2939 61.1207 16.9361L62.6496 16.6939C62.9711 16.6436 62.9657 16.2654 63.1082 16.0371C63.1387 15.9775 63.152 15.9106 63.1467 15.8438C63.1414 15.777 63.1177 15.713 63.0782 15.6589L62.1686 14.4086C62.3936 14.127 62.6491 13.8711 62.9304 13.6457L64.1839 14.5543C64.4357 14.7461 64.7325 14.4664 64.9725 14.4129C65.0359 14.392 65.0924 14.3541 65.1357 14.3032C65.179 14.2524 65.2074 14.1906 65.2179 14.1246L65.4643 12.5968C65.8221 12.5571 66.1832 12.5571 66.5411 12.5968L66.7843 14.1246C66.8389 14.4461 67.2021 14.4354 67.4432 14.5854C67.5024 14.6153 67.5688 14.6283 67.6349 14.6231C67.7011 14.6178 67.7645 14.5943 67.8182 14.5554L69.0707 13.6457C69.3523 13.8708 69.6078 14.1267 69.8325 14.4086L68.9229 15.6589C68.73 15.915 69.0096 16.2043 69.0664 16.4496C69.0877 16.5124 69.1255 16.5682 69.1758 16.6112C69.2262 16.6542 69.2872 16.6828 69.3525 16.6939L70.8814 16.9361C70.9221 17.2938 70.9221 17.6551 70.8814 18.0129L69.3525 18.2571C69.0311 18.3096 69.0407 18.6761 68.8918 18.9139C68.8624 18.9735 68.8497 19.04 68.8552 19.1063C68.8607 19.1725 68.8841 19.236 68.9229 19.29L69.8325 20.5436C69.6069 20.824 69.3515 21.0791 69.0707 21.3043L67.8182 20.3957C67.5589 20.2029 67.2825 20.4771 67.0286 20.5382C66.9654 20.559 66.9092 20.5968 66.8661 20.6475C66.823 20.6981 66.7947 20.7597 66.7843 20.8254L66.5357 22.3521C66.1779 22.3918 65.8168 22.3918 65.4589 22.3521L65.2157 20.8254C65.1707 20.5093 64.7754 20.5039 64.5611 20.3668C64.5014 20.336 64.4343 20.3223 64.3673 20.3274C64.3003 20.3326 64.2361 20.3562 64.1818 20.3957L62.9282 21.3043C62.6477 21.0795 62.3929 20.8244 62.1686 20.5436ZM66 19.4721C66.5224 19.4601 67.0193 19.244 67.3844 18.8703C67.7496 18.4966 67.9541 17.9948 67.9541 17.4723C67.9541 16.9498 67.7496 16.448 67.3844 16.0743C67.0193 15.7006 66.5224 15.4846 66 15.4725C65.4776 15.4846 64.9807 15.7006 64.6156 16.0743C64.2504 16.448 64.0459 16.9498 64.0459 17.4723C64.0459 17.9948 64.2504 18.4966 64.6156 18.8703C64.9807 19.244 65.4776 19.4601 66 19.4721ZM66 16.2C66.331 16.2096 66.6453 16.3479 66.8761 16.5854C67.1068 16.823 67.2359 17.1411 67.2359 17.4723C67.2359 17.8035 67.1068 18.1217 66.8761 18.3592C66.6453 18.5968 66.331 18.735 66 18.7446C65.6739 18.7282 65.3666 18.5871 65.1416 18.3505C64.9166 18.1139 64.7911 17.7999 64.7911 17.4734C64.7911 17.1469 64.9166 16.8329 65.1416 16.5962C65.3666 16.3596 65.6739 16.2185 66 16.2021V16.2Z" fill="#B6BDC7"/>
</g>
<g clip-path="url(#clip2_2016_1092)">
<path d="M105.091 24.0645C105.531 24.6174 106.191 24.9346 106.901 24.9346H109.145C109.501 26.957 111.267 28.5 113.39 28.5C115.513 28.5 117.279 26.957 117.635 24.9346H119.906C120.615 24.9346 121.275 24.6174 121.715 24.0645C122.156 23.5115 122.317 22.7974 122.158 22.106L121.339 18.5175C121.247 18.1135 120.842 17.8597 120.441 17.9531C120.321 17.9805 120.221 18.0409 120.133 18.1148C119.924 18.2899 119.812 18.5672 119.877 18.8511L120.696 22.4414C120.752 22.6853 120.696 22.9365 120.542 23.1299C120.388 23.3232 120.156 23.4346 119.906 23.4346H106.901C106.65 23.4346 106.418 23.3232 106.264 23.1299C106.11 22.9365 106.054 22.6853 106.11 22.4407L107.232 17.5433C107.403 16.808 107.519 16.0609 107.63 15.338L107.741 14.6254C108.157 12.1146 110.207 10.1605 112.727 9.87305C112.879 9.85579 113.005 9.78429 113.114 9.69319C113.3 9.53682 113.417 9.30291 113.387 9.04285C113.34 8.63196 112.972 8.33277 112.557 8.38257C109.374 8.74585 106.786 11.2123 106.261 14.3826L106.147 15.1099C106.036 15.8372 105.929 16.5242 105.771 17.2061L104.648 22.1045C104.49 22.7974 104.651 23.5115 105.091 24.0645ZM113.39 27C112.099 27 111.02 26.1215 110.689 24.9346H116.09C115.76 26.1215 114.681 27 113.39 27Z" fill="#B6BDC7"/>
<g filter="url(#filter0_d_2016_1092)">
<path d="M118.813 16.5314C118.84 16.532 118.867 16.5355 118.894 16.5355C121.385 16.5355 123.412 14.5089 123.412 12.0179C123.412 9.52661 121.385 7.5 118.894 7.5C116.653 7.5 114.793 9.14241 114.441 11.286C114.402 11.5248 114.376 11.7682 114.376 12.0179C114.376 14.4816 116.36 16.4877 118.813 16.5314ZM115.876 12.0179C115.876 10.3539 117.23 9 118.894 9C120.558 9 121.912 10.3539 121.912 12.0179C121.912 13.682 120.558 15.0355 118.894 15.0355C117.23 15.0355 115.876 13.682 115.876 12.0179Z" fill="#EB5757"/>
</g>
</g>
<defs>
<filter id="filter0_d_2016_1092" x="106.376" y="3.5" width="25.0352" height="25.0355" filterUnits="userSpaceOnUse" color-interpolation-filters="sRGB">
<feFlood flood-opacity="0" result="BackgroundImageFix"/>
<feColorMatrix in="SourceAlpha" type="matrix" values="0 0 0 0 0 0 0 0 0 0 0 0 0 0 0 0 0 0 127 0" result="hardAlpha"/>
<feOffset dy="4"/>
<feGaussianBlur stdDeviation="4"/>
<feComposite in2="hardAlpha" operator="out"/>
<feColorMatrix type="matrix" values="0 0 0 0 0.921569 0 0 0 0 0.341176 0 0 0 0 0.341176 0 0 0 1 0"/>
<feBlend mode="normal" in2="BackgroundImageFix" result="effect1_dropShadow_2016_1092"/>
<feBlend mode="normal" in="SourceGraphic" in2="effect1_dropShadow_2016_1092" result="shape"/>
</filter>
<clipPath id="clip0_2016_1092">
<rect width="20" height="20" fill="white" transform="translate(8 8)"/>
</clipPath>
<clipPath id="clip1_2016_1092">
<rect width="24" height="24" fill="white" transform="translate(54 6)"/>
</clipPath>
<clipPath id="clip2_2016_1092">
<rect width="24" height="24" fill="white" transform="translate(102 6)"/>
</clipPath>
</defs>
</svg>
