<svg width="24" height="24" viewBox="0 0 24 24" fill="none" xmlns="http://www.w3.org/2000/svg">
<g clip-path="url(#clip0_29_987)">
<path d="M10.2787 3.9375H4.5C4.35082 3.9375 4.20774 3.99676 4.10225 4.10225C3.99676 4.20774 3.9375 4.35082 3.9375 4.5V10.2787C3.9375 10.4279 3.99676 10.571 4.10225 10.6765C4.20774 10.782 4.35082 10.8412 4.5 10.8412H10.2787C10.4279 10.8412 10.571 10.782 10.6765 10.6765C10.782 10.571 10.8412 10.4279 10.8412 10.2787V4.5C10.8412 4.35082 10.782 4.20774 10.6765 4.10225C10.571 3.99676 10.4279 3.9375 10.2787 3.9375ZM9.71625 9.71625H5.0625V5.0625H9.71625V9.71625Z" fill="#F0F0F2"/>
<path d="M10.2787 17.625C10.1296 17.625 9.98649 17.6843 9.881 17.7898C9.77551 17.8952 9.71625 18.0383 9.71625 18.1875V18.9375H8.77875C8.62956 18.9375 8.48649 18.9968 8.381 19.1023C8.27551 19.2077 8.21625 19.3508 8.21625 19.5C8.21625 19.6492 8.27551 19.7923 8.381 19.8977C8.48649 20.0032 8.62956 20.0625 8.77875 20.0625H10.2787C10.4279 20.0625 10.571 20.0032 10.6765 19.8977C10.782 19.7923 10.8412 19.6492 10.8412 19.5V18.1875C10.8412 18.0383 10.782 17.8952 10.6765 17.7898C10.571 17.6843 10.4279 17.625 10.2787 17.625Z" fill="#F0F0F2"/>
<path d="M4.5 17.4375C4.35082 17.4375 4.20774 17.4968 4.10225 17.6023C3.99676 17.7077 3.9375 17.8508 3.9375 18V19.5C3.9375 19.6492 3.99676 19.7923 4.10225 19.8977C4.20774 20.0032 4.35082 20.0625 4.5 20.0625H6C6.14918 20.0625 6.29226 20.0032 6.39775 19.8977C6.50324 19.7923 6.5625 19.6492 6.5625 19.5C6.5625 19.3508 6.50324 19.2077 6.39775 19.1023C6.29226 18.9968 6.14918 18.9375 6 18.9375H5.0625V18C5.0625 17.8508 5.00324 17.7077 4.89775 17.6023C4.79226 17.4968 4.64918 17.4375 4.5 17.4375Z" fill="#F0F0F2"/>
<path d="M5.8125 13.1587H4.5C4.35082 13.1587 4.20774 13.218 4.10225 13.3234C3.99676 13.4289 3.9375 13.572 3.9375 13.7212V15.2212C3.9375 15.3704 3.99676 15.5135 4.10225 15.6189C4.20774 15.7244 4.35082 15.7837 4.5 15.7837C4.64918 15.7837 4.79226 15.7244 4.89775 15.6189C5.00324 15.5135 5.0625 15.3704 5.0625 15.2212V14.2837H5.8125C5.96168 14.2837 6.10476 14.2244 6.21025 14.1189C6.31574 14.0135 6.375 13.8704 6.375 13.7212C6.375 13.572 6.31574 13.4289 6.21025 13.3234C6.10476 13.218 5.96168 13.1587 5.8125 13.1587Z" fill="#F0F0F2"/>
<path d="M10.2787 13.1587H7.62C7.47081 13.1587 7.32774 13.218 7.22225 13.3234C7.11676 13.4289 7.0575 13.572 7.0575 13.7212V16.3799C7.0575 16.5291 7.11676 16.6722 7.22225 16.7777C7.32774 16.8832 7.47081 16.9424 7.62 16.9424H10.2787C10.4279 16.9424 10.571 16.8832 10.6765 16.7777C10.782 16.6722 10.8412 16.5291 10.8412 16.3799V13.7212C10.8412 13.572 10.782 13.4289 10.6765 13.3234C10.571 13.218 10.4279 13.1587 10.2787 13.1587ZM9.71625 15.8174H8.1825V14.2837H9.71625V15.8174Z" fill="#F0F0F2"/>
<path d="M13.7213 10.8413H15.0338C15.1829 10.8413 15.326 10.782 15.4315 10.6766C15.537 10.5711 15.5963 10.428 15.5963 10.2788C15.5963 10.1296 15.537 9.98655 15.4315 9.88106C15.326 9.77557 15.1829 9.71631 15.0338 9.71631H14.2838V8.77881C14.2838 8.62962 14.2245 8.48655 14.119 8.38106C14.0135 8.27557 13.8704 8.21631 13.7213 8.21631C13.5721 8.21631 13.429 8.27557 13.3235 8.38106C13.218 8.48655 13.1588 8.62962 13.1588 8.77881V10.2788C13.1588 10.428 13.218 10.5711 13.3235 10.6766C13.429 10.782 13.5721 10.8413 13.7213 10.8413Z" fill="#F0F0F2"/>
<path d="M13.7213 6.5625C13.8704 6.5625 14.0135 6.50324 14.119 6.39775C14.2245 6.29226 14.2838 6.14918 14.2838 6V5.0625H15.2213C15.3704 5.0625 15.5135 5.00324 15.619 4.89775C15.7245 4.79226 15.7838 4.64918 15.7838 4.5C15.7838 4.35082 15.7245 4.20774 15.619 4.10225C15.5135 3.99676 15.3704 3.9375 15.2213 3.9375H13.7213C13.5721 3.9375 13.429 3.99676 13.3235 4.10225C13.218 4.20774 13.1588 4.35082 13.1588 4.5V6C13.1588 6.14918 13.218 6.29226 13.3235 6.39775C13.429 6.50324 13.5721 6.5625 13.7213 6.5625Z" fill="#F0F0F2"/>
<path d="M19.5 6.375C19.6492 6.375 19.7923 6.31574 19.8977 6.21025C20.0032 6.10476 20.0625 5.96168 20.0625 5.8125V4.5C20.0625 4.35082 20.0032 4.20774 19.8977 4.10225C19.7923 3.99676 19.6492 3.9375 19.5 3.9375H18C17.8508 3.9375 17.7077 3.99676 17.6023 4.10225C17.4968 4.20774 17.4375 4.35082 17.4375 4.5C17.4375 4.64918 17.4968 4.79226 17.6023 4.89775C17.7077 5.00324 17.8508 5.0625 18 5.0625H18.9375V5.8125C18.9375 5.96168 18.9968 6.10476 19.1023 6.21025C19.2077 6.31574 19.3508 6.375 19.5 6.375Z" fill="#F0F0F2"/>
<path d="M16.2787 7.62V10.2787C16.2787 10.4279 16.338 10.571 16.4435 10.6765C16.549 10.782 16.6921 10.8412 16.8412 10.8412H19.5C19.6492 10.8412 19.7923 10.782 19.8977 10.6765C20.0032 10.571 20.0625 10.4279 20.0625 10.2787V7.62C20.0625 7.47081 20.0032 7.32774 19.8977 7.22225C19.7923 7.11676 19.6492 7.0575 19.5 7.0575H16.8412C16.6921 7.0575 16.549 7.11676 16.4435 7.22225C16.338 7.32774 16.2787 7.47081 16.2787 7.62ZM17.4037 8.1825H18.9375V9.71625H17.4037V8.1825Z" fill="#F0F0F2"/>
<path d="M20.0625 19.4999V13.7212C20.0625 13.572 20.0032 13.4289 19.8978 13.3234C19.7923 13.218 19.6492 13.1587 19.5 13.1587H13.7213C13.5721 13.1587 13.429 13.218 13.3235 13.3234C13.218 13.4289 13.1588 13.572 13.1588 13.7212V19.4999C13.1588 19.6491 13.218 19.7922 13.3235 19.8977C13.429 20.0032 13.5721 20.0624 13.7213 20.0624H19.5C19.6492 20.0624 19.7923 20.0032 19.8978 19.8977C20.0032 19.7922 20.0625 19.6491 20.0625 19.4999ZM18.9375 18.9374H14.2838V14.2837H18.9375V18.9374Z" fill="#F0F0F2"/>
<path d="M7.84875 21.9375H5.54625C4.62261 21.9365 3.73708 21.5692 3.08396 20.916C2.43085 20.2629 2.06349 19.3774 2.0625 18.4538V16.6613C2.0625 16.5121 2.00324 16.369 1.89775 16.2635C1.79226 16.158 1.64918 16.0988 1.5 16.0988C1.35082 16.0988 1.20774 16.158 1.10225 16.2635C0.996763 16.369 0.9375 16.5121 0.9375 16.6613V18.4538C0.938493 19.6758 1.42438 20.8474 2.28847 21.7115C3.15256 22.5756 4.32424 23.0615 5.54625 23.0625H7.84875C7.99793 23.0625 8.14101 23.0032 8.2465 22.8978C8.35199 22.7923 8.41125 22.6492 8.41125 22.5C8.41125 22.3508 8.35199 22.2077 8.2465 22.1023C8.14101 21.9968 7.99793 21.9375 7.84875 21.9375Z" fill="#F0F0F2"/>
<path d="M22.5 16.0988C22.3508 16.0988 22.2077 16.158 22.1022 16.2635C21.9968 16.369 21.9375 16.5121 21.9375 16.6613V18.4538C21.9365 19.3774 21.5691 20.2629 20.916 20.916C20.2629 21.5692 19.3774 21.9365 18.4537 21.9375H16.1512C16.0021 21.9375 15.859 21.9968 15.7535 22.1023C15.648 22.2077 15.5887 22.3508 15.5887 22.5C15.5887 22.6492 15.648 22.7923 15.7535 22.8978C15.859 23.0032 16.0021 23.0625 16.1512 23.0625H18.4537C19.6758 23.0615 20.8474 22.5756 21.7115 21.7115C22.5756 20.8474 23.0615 19.6758 23.0625 18.4538V16.6613C23.0625 16.5121 23.0032 16.369 22.8977 16.2635C22.7923 16.158 22.6492 16.0988 22.5 16.0988Z" fill="#F0F0F2"/>
<path d="M18.4537 0.9375H16.1512C16.0021 0.9375 15.859 0.996763 15.7535 1.10225C15.648 1.20774 15.5887 1.35082 15.5887 1.5C15.5887 1.64918 15.648 1.79226 15.7535 1.89775C15.859 2.00324 16.0021 2.0625 16.1512 2.0625H18.4537C19.3774 2.06349 20.2629 2.43085 20.916 3.08396C21.5691 3.73708 21.9365 4.62261 21.9375 5.54625V8.35875C21.9375 8.50793 21.9968 8.65101 22.1022 8.7565C22.2077 8.86199 22.3508 8.92125 22.5 8.92125C22.6492 8.92125 22.7923 8.86199 22.8977 8.7565C23.0032 8.65101 23.0625 8.50793 23.0625 8.35875V5.54625C23.0615 4.32424 22.5756 3.15256 21.7115 2.28847C20.8474 1.42438 19.6758 0.938493 18.4537 0.9375Z" fill="#F0F0F2"/>
<path d="M1.5 8.92125C1.64918 8.92125 1.79226 8.86199 1.89775 8.7565C2.00324 8.65101 2.0625 8.50793 2.0625 8.35875V5.54625C2.06349 4.62261 2.43085 3.73708 3.08396 3.08396C3.73708 2.43085 4.62261 2.06349 5.54625 2.0625H7.84875C7.99793 2.0625 8.14101 2.00324 8.2465 1.89775C8.35199 1.79226 8.41125 1.64918 8.41125 1.5C8.41125 1.35082 8.35199 1.20774 8.2465 1.10225C8.14101 0.996763 7.99793 0.9375 7.84875 0.9375H5.54625C4.32424 0.938493 3.15256 1.42438 2.28847 2.28847C1.42438 3.15256 0.938493 4.32424 0.9375 5.54625V8.35875C0.9375 8.50793 0.996763 8.65101 1.10225 8.7565C1.20774 8.86199 1.35082 8.92125 1.5 8.92125Z" fill="#F0F0F2"/>
</g>
<defs>
<clipPath id="clip0_29_987">
<rect width="24" height="24" fill="white"/>
</clipPath>
</defs>
</svg>
