<svg width="32" height="32" viewBox="0 0 32 32" fill="none" xmlns="http://www.w3.org/2000/svg">
<path fill-rule="evenodd" clip-rule="evenodd" d="M4.0001 6.40002C3.36358 6.40002 2.75313 6.65288 2.30304 7.10297C1.85295 7.55306 1.6001 8.1635 1.6001 8.80002V9.60002H30.4001V8.80002C30.4001 8.1635 30.1472 7.55306 29.6972 7.10297C29.2471 6.65288 28.6366 6.40002 28.0001 6.40002H4.0001ZM30.4001 13.6H1.6001V23.2C1.6001 23.8365 1.85295 24.447 2.30304 24.8971C2.75313 25.3472 3.36358 25.6 4.0001 25.6H28.0001C28.6366 25.6 29.2471 25.3472 29.6972 24.8971C30.1472 24.447 30.4001 23.8365 30.4001 23.2V13.6ZM4.8001 21.2C4.8001 20.8818 4.92653 20.5765 5.15157 20.3515C5.37661 20.1265 5.68184 20 6.0001 20H8.4001C8.71836 20 9.02358 20.1265 9.24863 20.3515C9.47367 20.5765 9.6001 20.8818 9.6001 21.2C9.6001 21.5183 9.47367 21.8235 9.24863 22.0486C9.02358 22.2736 8.71836 22.4 8.4001 22.4H6.0001C5.68184 22.4 5.37661 22.2736 5.15157 22.0486C4.92653 21.8235 4.8001 21.5183 4.8001 21.2ZM12.4001 20C12.0818 20 11.7766 20.1265 11.5516 20.3515C11.3265 20.5765 11.2001 20.8818 11.2001 21.2C11.2001 21.5183 11.3265 21.8235 11.5516 22.0486C11.7766 22.2736 12.0818 22.4 12.4001 22.4H18.0001C18.3184 22.4 18.6236 22.2736 18.8486 22.0486C19.0737 21.8235 19.2001 21.5183 19.2001 21.2C19.2001 20.8818 19.0737 20.5765 18.8486 20.3515C18.6236 20.1265 18.3184 20 18.0001 20H12.4001Z" fill="#ACACAC"/>
</svg>
