<svg width="12" height="12" viewBox="0 0 12 12" fill="none" xmlns="http://www.w3.org/2000/svg">
<path d="M2.25 8.60355V9.50005C2.25 9.56635 2.27634 9.62994 2.32322 9.67682C2.37011 9.72371 2.4337 9.75005 2.5 9.75005H3.3965C3.46268 9.75003 3.52615 9.72378 3.573 9.67705L7.823 5.42705L6.573 4.17705L2.323 8.42705C2.27627 8.4739 2.25001 8.53737 2.25 8.60355ZM7.545 3.20505L8.795 4.45505L9.3965 3.85355C9.49024 3.75978 9.54289 3.63263 9.54289 3.50005C9.54289 3.36746 9.49024 3.24031 9.3965 3.14655L8.8535 2.60355C8.75974 2.50981 8.63258 2.45715 8.5 2.45715C8.36742 2.45715 8.24026 2.50981 8.1465 2.60355L7.545 3.20505Z" stroke="#F0F0F2" stroke-width="0.75"/>
</svg>
