<svg width="16" height="16" viewBox="0 0 16 16" fill="none" xmlns="http://www.w3.org/2000/svg">
<path d="M7.49988 1.4422V12.7351L5.16113 10.3964C4.96594 10.2011 4.64929 10.2011 4.4541 10.3964C4.25879 10.5915 4.25879 10.9084 4.4541 11.1035L7.64604 14.2954C7.66914 14.3185 7.69458 14.3393 7.72185 14.3576C7.72853 14.3621 7.73605 14.3649 7.74292 14.369C7.76387 14.3817 7.78496 14.3942 7.80775 14.4037C7.81731 14.4076 7.82756 14.4095 7.83734 14.4129C7.85826 14.4201 7.87895 14.4278 7.90103 14.4322C7.93335 14.4388 7.96643 14.4422 7.99988 14.4422C8.03333 14.4422 8.06641 14.4388 8.09872 14.4322C8.1208 14.4278 8.14149 14.4201 8.16241 14.4129C8.1722 14.4095 8.18245 14.4076 8.192 14.4037C8.2148 14.3942 8.23589 14.3817 8.25684 14.369C8.2637 14.3649 8.27122 14.3621 8.27791 14.3576C8.30518 14.3393 8.33061 14.3185 8.35371 14.2954L11.5455 11.1035C11.6432 11.0058 11.692 10.8779 11.692 10.7499C11.692 10.622 11.6432 10.494 11.5455 10.3964C11.3503 10.2011 11.0337 10.2011 10.8385 10.3964L8.49988 12.735V1.4422C8.49988 1.16608 8.276 0.9422 7.99988 0.9422C7.72375 0.9422 7.49988 1.16608 7.49988 1.4422Z" fill="#F0F0F2"/>
</svg>
