<svg width="24" height="24" viewBox="0 0 24 24" fill="none" xmlns="http://www.w3.org/2000/svg">
<g clip-path="url(#clip0_32_853)">
<path d="M10.8952 18.8161L6.90518 22.8061C6.35018 23.3236 7.18268 24.1561 7.70018 23.6011L11.6902 19.6111C12.2002 19.0936 11.4202 18.2986 10.8952 18.8161Z" fill="#F0F0F2"/>
<path d="M9.95765 14.0611C9.73265 13.8436 9.38015 13.8436 9.15515 14.0611L5.17265 18.0511C4.95515 18.2686 4.95515 18.6211 5.17265 18.8461C5.39015 19.0636 5.75015 19.0636 5.96765 18.8461L9.95765 14.8561C10.1751 14.6386 10.1751 14.2786 9.95765 14.0611Z" fill="#F0F0F2"/>
<path d="M22.8878 0.216046C20.9603 0.306046 15.8378 2.06105 5.88527 5.06105C4.41527 5.46605 4.24277 7.61105 5.60027 8.27105L11.9903 11.571C12.1853 11.676 12.3428 11.8335 12.4403 12.0285L15.7478 18.411C16.3778 19.7835 18.5603 19.596 18.9503 18.1335C22.5503 6.33605 23.6153 2.97605 23.7503 1.13855C23.7878 0.628546 23.3903 0.193546 22.8878 0.216046ZM6.11777 7.27355C5.63027 7.02605 5.72027 6.29855 6.22277 6.13355C11.0603 4.61855 18.3878 2.39855 21.6128 1.58855C21.5078 1.55105 12.6278 10.8585 12.5078 10.5735C12.5078 10.5735 6.13277 7.28105 6.11777 7.27355ZM20.0678 10.6335C19.4303 12.756 17.9753 17.6835 17.7953 17.9535C17.5403 18.336 16.9553 18.3135 16.7453 17.901L13.4453 11.511C13.1453 11.406 22.4678 2.45105 22.4153 2.36855C22.2878 2.87105 20.7128 8.48105 20.0678 10.6335Z" fill="#F0F0F2"/>
<path d="M5.1952 12.3285C4.9702 12.111 4.6177 12.111 4.4002 12.3285L0.410195 16.3185C0.192695 16.536 0.192695 16.896 0.410195 17.1135C0.627695 17.331 0.987695 17.331 1.2052 17.1135L5.1952 13.1235C5.4127 12.906 5.4127 12.5535 5.1952 12.3285Z" fill="#F0F0F2"/>
</g>
<defs>
<clipPath id="clip0_32_853">
<rect width="24" height="24" fill="white"/>
</clipPath>
</defs>
</svg>
