<svg width="16" height="16" viewBox="0 0 16 16" fill="none" xmlns="http://www.w3.org/2000/svg">
<path fill-rule="evenodd" clip-rule="evenodd" d="M11.4401 8.40084C11.4366 8.50149 11.4533 8.60183 11.4894 8.69587C11.5255 8.78991 11.5801 8.87572 11.6501 8.94819C11.72 9.02065 11.8038 9.07828 11.8966 9.11765C11.9893 9.15701 12.089 9.17729 12.1897 9.17729C12.2904 9.1773 12.3901 9.15701 12.4828 9.11765C12.5755 9.07828 12.6593 9.02065 12.7293 8.94819C12.7992 8.87572 12.8539 8.78991 12.8899 8.69587C12.926 8.60183 12.9428 8.50149 12.9392 8.40084V3.80464L12.9399 3.0544L12.1904 3.0544L7.59418 3.0544C7.39756 3.05773 7.2101 3.13815 7.07219 3.27834C6.93428 3.41853 6.85695 3.60729 6.85686 3.80394C6.85677 4.0006 6.93392 4.18942 7.07169 4.32975C7.20947 4.47007 7.39685 4.55067 7.59348 4.55418L10.3795 4.55418L3.04042 11.8932C2.89976 12.0339 2.82075 12.2247 2.82075 12.4236C2.82075 12.6225 2.89976 12.8132 3.04042 12.9539C3.18107 13.0946 3.37183 13.1736 3.57075 13.1736C3.76966 13.1736 3.96042 13.0946 4.10108 12.9539L11.4401 5.61484L11.4401 8.40084Z" fill="#EB5757"/>
</svg>
