<svg width="60" height="60" viewBox="0 0 60 60" fill="none" xmlns="http://www.w3.org/2000/svg">
<path d="M22.5521 14.2357C22.3084 13.227 22.9309 12.2145 23.9359 11.9745C35.8907 9.09829 47.8717 14.7644 59.564 28.7967C60.1415 29.4905 60.1453 30.4992 59.5678 31.1929C56.7553 34.5941 53.7479 37.6541 50.6317 40.279C50.2792 40.5753 49.8517 40.7215 49.4242 40.7215C48.8917 40.7215 48.363 40.4928 47.9917 40.054C47.3205 39.2628 47.4255 38.0816 48.2167 37.4103C50.7929 35.2391 53.2941 32.7492 55.6678 29.9967C45.303 18.0269 34.9344 13.2007 24.8134 15.6194C23.7634 15.8594 22.7921 15.2407 22.5521 14.2357ZM29.4183 20.4456C29.2795 21.4731 29.9958 22.4181 31.0195 22.5568C34.3532 23.0068 36.9894 25.6468 37.4431 28.973C37.5669 29.9142 38.3731 30.5967 39.2956 30.5967C39.3781 30.5967 39.4644 30.5929 39.5506 30.5817C40.5743 30.4429 41.2943 29.498 41.1556 28.4705C40.4806 23.4718 36.5207 19.5119 31.522 18.8369C30.5095 18.7019 29.5533 19.4181 29.4183 20.4456ZM59.4515 56.7938C60.1828 57.525 60.1828 58.7137 59.4515 59.445C59.084 59.8125 58.604 59.9962 58.1241 59.9962C57.6441 59.9962 57.1641 59.8125 56.7966 59.4487L42.7831 45.4352C38.5231 47.6139 34.2519 48.7614 29.9883 48.7614C20.0809 48.7614 10.1923 42.8965 0.434997 31.2004C-0.142493 30.5067 -0.146243 29.4942 0.431248 28.8005C4.86743 23.4643 9.37485 19.3956 13.8635 16.5119L0.551246 3.19964C-0.179992 2.4684 -0.179992 1.27967 0.551246 0.548428C1.28248 -0.18281 2.47121 -0.18281 3.20245 0.548428L59.4515 56.7938ZM22.4996 29.9967C22.4996 34.1329 25.8633 37.4966 29.9995 37.4966C31.3457 37.4966 32.6507 37.1066 33.7907 36.4391L23.5534 26.2018C22.8821 27.3417 22.4996 28.6317 22.4996 29.9967ZM40.0119 42.6602L36.5019 39.1503C34.6157 40.4853 32.3395 41.2465 29.9995 41.2465C23.7971 41.2465 18.7497 36.1991 18.7497 29.9967C18.7497 27.623 19.4997 25.3805 20.8422 23.4906L16.571 19.2194C12.5248 21.6906 8.41862 25.2643 4.33118 29.9967C16.4472 43.9952 28.1545 48.1577 40.0119 42.6602Z" fill="#F0F0F2"/>
</svg>
