<svg width="120" height="44" viewBox="0 0 120 44" fill="none" xmlns="http://www.w3.org/2000/svg">
<path d="M17.0565 9.36497C18.3119 9.36497 19.3985 9.58999 20.3075 10.0311C21.2223 10.4782 21.9803 11.0793 22.5843 11.8343C23.1824 12.5952 23.6265 13.4834 23.9137 14.499C24.1979 15.5204 24.343 16.6159 24.343 17.7914C24.343 19.5945 24.0114 21.2999 23.3452 22.9076C22.679 24.5153 21.7731 25.9128 20.6213 27.1031C19.4696 28.2933 18.1106 29.2289 16.5443 29.9217C14.981 30.6145 13.2785 30.961 11.4517 30.961C11.2149 30.961 10.8004 30.955 10.2141 30.9432C9.6279 30.9313 8.95284 30.8692 8.19784 30.7685C7.43692 30.6619 6.63454 30.505 5.78775 30.2948C4.94097 30.0875 4.13564 29.8003 3.37768 29.4332L10.1579 0.941528L16.2305 0L13.8026 10.1111C14.3237 9.87718 14.8448 9.69657 15.3689 9.56334C15.8929 9.43307 16.4555 9.36497 17.0565 9.36497ZM11.961 26.1437C12.8759 26.1437 13.7375 25.9187 14.5458 25.4776C15.357 25.0364 16.0587 24.4383 16.645 23.6952C17.2312 22.9491 17.696 22.1052 18.0365 21.1667C18.3741 20.2251 18.5458 19.2451 18.5458 18.2236C18.5458 16.9712 18.3356 15.9912 17.9181 15.2836C17.5006 14.5789 16.7279 14.2266 15.6057 14.2266C15.2386 14.2266 14.7649 14.2976 14.1757 14.422C13.5865 14.5552 13.0595 14.8306 12.5857 15.2481L10.001 25.9839C10.1579 26.0105 10.2941 26.0372 10.4125 26.0608C10.528 26.0875 10.6553 26.1053 10.7826 26.1201C10.9158 26.1349 11.0698 26.1437 11.2563 26.1437C11.4429 26.1437 11.6738 26.1437 11.961 26.1437Z" fill="#71757F"/>
<path d="M30.6436 30.4162H24.8464L29.7435 9.80318H35.5852L30.6436 30.4162ZM33.4652 7.28947C32.6569 7.28947 31.9227 7.04965 31.2713 6.56408C30.614 6.08443 30.2883 5.34423 30.2883 4.34941C30.2883 3.80166 30.4008 3.28648 30.6199 2.80387C30.8449 2.32127 31.1381 1.9038 31.5022 1.5485C31.8694 1.19617 32.2928 0.917854 32.7754 0.704677C33.261 0.497422 33.7761 0.393798 34.3268 0.393798C35.1351 0.393798 35.8664 0.633616 36.5208 1.11919C37.1721 1.60475 37.5008 2.34495 37.5008 3.33386C37.5008 3.88456 37.3912 4.39974 37.1662 4.88234C36.9442 5.36495 36.651 5.78243 36.2869 6.13772C35.9227 6.49006 35.4963 6.76837 35.0137 6.97859C34.5282 7.1888 34.013 7.28947 33.4652 7.28947Z" fill="#71757F"/>
<path d="M40.666 4.66625L46.7416 3.72472L45.2493 9.80026H51.7571L50.5817 14.579H44.1153L42.3922 21.7885C42.2323 22.3895 42.1435 22.9521 42.1168 23.4732C42.0872 23.9972 42.1553 24.4473 42.3122 24.8262C42.4691 25.2052 42.7475 25.4983 43.156 25.7056C43.5617 25.9158 44.139 26.0224 44.9 26.0224C45.5247 26.0224 46.1346 25.9632 46.7238 25.8448C47.31 25.7293 47.9022 25.5664 48.5032 25.3562L48.9355 29.827C48.1509 30.1142 47.3041 30.3629 46.3892 30.5702C45.4743 30.7804 44.3877 30.884 43.1353 30.884C41.3322 30.884 39.9377 30.6176 38.9399 30.0846C37.9451 29.5487 37.2434 28.8144 36.8229 27.8877C36.4084 26.9639 36.2219 25.8981 36.2752 24.696C36.3285 23.4909 36.5091 22.2267 36.8229 20.8943L40.666 4.66625Z" fill="#71757F"/>
<path d="M51.4994 22.1852C51.4994 20.4087 51.7866 18.7359 52.361 17.1666C52.9354 15.5974 53.7615 14.2266 54.8333 13.0482C55.9021 11.8757 57.2019 10.949 58.7326 10.268C60.2574 9.58998 61.9628 9.24949 63.8459 9.24949C65.0243 9.24949 66.0754 9.362 66.9991 9.58406C67.9288 9.80908 68.7697 10.0992 69.5276 10.4634L67.5261 15.0112C67.0021 14.798 66.4603 14.6115 65.9007 14.4427C65.3381 14.271 64.6542 14.1881 63.8429 14.1881C61.9066 14.1881 60.3758 14.8543 59.2359 16.1866C58.102 17.519 57.5305 19.3103 57.5305 21.5575C57.5305 22.8898 57.8177 23.9676 58.3951 24.7907C58.9695 25.6138 60.0294 26.0253 61.569 26.0253C62.33 26.0253 63.0613 25.9454 63.763 25.7914C64.4706 25.6345 65.0953 25.4361 65.646 25.2052L66.0783 29.8684C65.344 30.1527 64.5357 30.4102 63.6475 30.6353C62.7593 30.8514 61.6993 30.9639 60.4706 30.9639C58.851 30.9639 57.4772 30.7271 56.3551 30.2592C55.233 29.7855 54.3062 29.1549 53.5749 28.3584C52.8406 27.559 52.3136 26.6264 51.9879 25.5546C51.6682 24.4827 51.4994 23.3576 51.4994 22.1852Z" fill="#71757F"/>
<path d="M77.2671 30.961C75.8814 30.961 74.6793 30.7508 73.6608 30.3334C72.6423 29.9159 71.8015 29.3296 71.1353 28.5687C70.4691 27.8137 69.9687 26.9166 69.6253 25.8862C69.2818 24.8559 69.119 23.713 69.119 22.4606C69.119 20.8914 69.3707 19.3192 69.8799 17.7559C70.3862 16.1867 71.1383 14.7774 72.136 13.525C73.1249 12.2696 74.3418 11.2452 75.7778 10.4457C77.2108 9.65225 78.86 9.25254 80.7134 9.25254C82.0724 9.25254 83.2686 9.46276 84.3019 9.88023C85.3323 10.2977 86.1791 10.8869 86.8482 11.6449C87.5114 12.4058 88.0147 13.297 88.3523 14.3303C88.6928 15.3606 88.8615 16.5065 88.8615 17.7589C88.8615 19.3251 88.6128 20.8944 88.1184 22.4636C87.6239 24.0269 86.8926 25.4392 85.9244 26.6945C84.9592 27.947 83.7512 28.9714 82.3004 29.7678C80.8555 30.5613 79.1768 30.961 77.2671 30.961ZM80.1657 14.1882C79.3071 14.1882 78.5462 14.4369 77.8948 14.9313C77.2404 15.4317 76.6927 16.0564 76.2515 16.8144C75.8044 17.5753 75.4729 18.4014 75.2478 19.3044C75.0258 20.2075 74.9162 21.0602 74.9162 21.8714C74.9162 23.1801 75.1264 24.1986 75.5409 24.9299C75.9614 25.6583 76.7164 26.0254 77.8148 26.0254C78.6764 26.0254 79.4344 25.7767 80.0887 25.2793C80.7371 24.7848 81.2878 24.1571 81.7319 23.3992C82.1761 22.6442 82.5106 21.8122 82.7357 20.9092C82.9548 20.0091 83.0673 19.1505 83.0673 18.3422C83.0673 17.0365 82.857 16.0179 82.4396 15.2837C82.0221 14.5553 81.2641 14.1882 80.1657 14.1882Z" fill="#71757F"/>
<path d="M95.1887 30.4162H89.3826L94.2827 9.80318H100.127L95.1887 30.4162ZM98.0074 7.28947C97.1991 7.28947 96.4648 7.04965 95.8135 6.56408C95.1591 6.08443 94.8334 5.34423 94.8334 4.34941C94.8334 3.80166 94.9459 3.28648 95.168 2.80387C95.3901 2.32127 95.6832 1.9038 96.0503 1.5485C96.4145 1.19617 96.8438 0.917854 97.3235 0.704677C97.8061 0.497422 98.3212 0.393798 98.869 0.393798C99.6802 0.393798 100.412 0.633616 101.066 1.11919C101.717 1.60475 102.049 2.34495 102.049 3.33386C102.049 3.88456 101.93 4.39974 101.711 4.88234C101.492 5.36495 101.196 5.78243 100.832 6.13772C100.465 6.49006 100.041 6.76837 99.5589 6.97859C99.0703 7.1888 98.5581 7.28947 98.0074 7.28947Z" fill="#71757F"/>
<path d="M104.305 10.7388C104.746 10.6115 105.238 10.4546 105.771 10.2858C106.307 10.1171 106.908 9.96016 107.577 9.81804C108.24 9.67297 108.986 9.55453 109.809 9.46275C110.632 9.368 111.568 9.32359 112.61 9.32359C115.669 9.32359 117.78 10.2148 118.943 11.9913C120.107 13.7677 120.308 16.1985 119.553 19.2807L116.886 30.4103H111.047L113.632 19.5146C113.789 18.8336 113.913 18.1763 114.005 17.5339C114.097 16.8973 114.091 16.3347 113.984 15.8492C113.88 15.3695 113.638 14.9757 113.262 14.6708C112.88 14.3717 112.299 14.2207 111.515 14.2207C110.76 14.2207 109.99 14.3007 109.202 14.4576L105.401 30.4074H99.5591C99.5591 30.4133 104.305 10.7388 104.305 10.7388Z" fill="#71757F"/>
<path d="M8.65442 36.5861C10.57 36.5861 12.4501 36.5713 14.3273 36.592C15.1089 36.6009 15.6656 37.35 15.482 38.1879C15.2126 39.4344 14.8721 40.6661 14.5612 41.9066C14.5582 41.9214 14.5434 41.9333 14.5316 41.951C14.2059 41.951 13.8772 41.951 13.522 41.951C13.7203 41.1487 13.9187 40.3581 14.1141 39.5676C14.2325 39.088 14.3539 38.6054 14.4724 38.1257C14.6145 37.5336 14.3658 37.2108 13.7677 37.2079C13.4035 37.2049 13.0364 37.2079 12.6426 37.2079C12.2488 38.783 11.855 40.3552 11.4583 41.9451C11.1237 41.9451 10.7862 41.9451 10.425 41.9451C10.5612 41.4003 10.6914 40.8615 10.8247 40.3256C11.0527 39.4166 11.2806 38.5047 11.5086 37.5957C11.5886 37.27 11.5412 37.2108 11.2037 37.2108C10.724 37.2108 10.2473 37.2197 9.76768 37.2049C9.57819 37.199 9.51898 37.2641 9.47753 37.4418C9.12815 38.8777 8.76101 40.3078 8.41164 41.7408C8.36723 41.9214 8.29617 41.9807 8.11556 41.9688C7.8639 41.951 7.61223 41.9658 7.31615 41.9658C7.76323 40.1598 8.20734 38.3803 8.65442 36.5861Z" fill="#71757F"/>
<path d="M72.3349 39.4346C72.779 39.7099 72.9004 40.006 72.7909 40.5685C72.6961 41.0541 72.5185 41.4893 72.0684 41.7499C71.8937 41.8506 71.6894 41.9453 71.497 41.9542C70.8338 41.9779 70.1706 41.9631 69.4925 41.9631C69.9189 40.2517 70.3423 38.5493 70.7686 36.835C70.819 36.832 70.8634 36.8231 70.9108 36.8231C71.4141 36.8231 71.9145 36.8202 72.4178 36.8231C73.1284 36.8291 73.5518 37.359 73.4126 38.0578C73.3238 38.493 73.1846 38.9016 72.8086 39.177C72.6635 39.2806 72.4889 39.3517 72.3349 39.4346ZM70.3216 41.5367C70.6058 41.5367 70.8634 41.5397 71.1239 41.5367C71.5562 41.5308 71.8582 41.3117 71.9855 40.8972C72.0566 40.6662 72.1128 40.4323 72.1572 40.1955C72.2135 39.8846 72.0477 39.6477 71.7309 39.624C71.4259 39.6004 71.118 39.6181 70.8012 39.6181C70.6413 40.2547 70.4844 40.8853 70.3216 41.5367ZM70.9078 39.171C71.2305 39.171 71.5384 39.1918 71.8434 39.1651C72.1987 39.1326 72.4444 38.9194 72.557 38.5789C72.6369 38.3391 72.6961 38.0904 72.7405 37.8417C72.7997 37.5278 72.6339 37.2939 72.3171 37.2673C72.0122 37.2436 71.7042 37.2613 71.3845 37.2613C71.2246 37.8979 71.0677 38.5286 70.9078 39.171Z" fill="#71757F"/>
<path d="M98.381 36.8231C98.5853 36.8231 98.7926 36.8142 98.9969 36.826C99.4943 36.8497 99.8022 37.1961 99.7193 37.6847C99.6364 38.1702 99.5032 38.6499 99.3847 39.1295C99.2308 39.7513 99.0887 40.3731 98.908 40.9889C98.7215 41.6284 98.23 41.9719 97.5698 41.9748C97.2441 41.9778 96.9154 41.9778 96.5897 41.9748C95.9473 41.9689 95.6216 41.6047 95.7637 40.98C96.0035 39.926 96.267 38.8779 96.5513 37.8386C96.7378 37.1606 97.2322 36.826 97.9399 36.826C98.0909 36.8201 98.2359 36.8201 98.381 36.8231C98.381 36.8201 98.381 36.8201 98.381 36.8231ZM97.1938 41.5396C97.854 41.5396 98.1146 41.3383 98.2774 40.6899C98.4669 39.9408 98.6534 39.1917 98.84 38.4426C98.8844 38.262 98.9347 38.0814 98.9702 37.8978C99.0443 37.5159 98.8488 37.2731 98.461 37.2583C98.3692 37.2553 98.2804 37.2553 98.1886 37.2553C97.6408 37.2553 97.3388 37.4922 97.2056 38.0251C96.9835 38.9134 96.7733 39.8075 96.5335 40.6928C96.4003 41.2021 96.5128 41.584 97.1938 41.5396Z" fill="#71757F"/>
<path d="M104.551 36.8231C104.756 36.8231 104.963 36.8142 105.167 36.826C105.665 36.8527 105.973 37.1961 105.887 37.6876C105.804 38.1732 105.671 38.6528 105.552 39.1325C105.401 39.7483 105.259 40.3671 105.081 40.9741C104.886 41.6343 104.403 41.9719 103.719 41.9748C103.4 41.9748 103.08 41.9778 102.757 41.9748C102.115 41.966 101.792 41.6018 101.934 40.9771C102.174 39.923 102.437 38.8749 102.722 37.8357C102.905 37.1636 103.403 36.826 104.095 36.826C104.249 36.8201 104.4 36.8201 104.551 36.8231C104.551 36.8201 104.551 36.8201 104.551 36.8231ZM103.376 41.5396C104.018 41.5396 104.285 41.3323 104.442 40.7135C104.611 40.0474 104.776 39.3782 104.942 38.7121C105.01 38.4367 105.087 38.1643 105.144 37.886C105.218 37.5129 105.016 37.2731 104.64 37.2583C104.554 37.2553 104.471 37.2553 104.386 37.2553C103.808 37.2553 103.515 37.4833 103.376 38.0399C103.154 38.9223 102.947 39.8105 102.71 40.6899C102.574 41.1784 102.654 41.587 103.376 41.5396Z" fill="#71757F"/>
<path d="M108.871 36.8231C109.075 36.8231 109.283 36.8142 109.487 36.826C109.984 36.8527 110.292 37.1961 110.206 37.6876C110.124 38.1732 109.99 38.6528 109.872 39.1325C109.718 39.7542 109.576 40.376 109.395 40.9919C109.209 41.6284 108.717 41.9719 108.057 41.9748C107.731 41.9778 107.403 41.9778 107.077 41.9748C106.434 41.966 106.112 41.6018 106.254 40.9771C106.494 39.923 106.757 38.8749 107.041 37.8357C107.225 37.1636 107.722 36.826 108.415 36.826C108.569 36.8201 108.72 36.8201 108.871 36.8231C108.871 36.8201 108.871 36.8201 108.871 36.8231ZM107.69 41.5396C108.332 41.5396 108.599 41.3323 108.756 40.7135C108.922 40.0592 109.087 39.4049 109.25 38.7476C109.321 38.4604 109.401 38.1761 109.457 37.886C109.531 37.5129 109.333 37.2731 108.957 37.2553C108.865 37.2524 108.776 37.2524 108.685 37.2524C108.125 37.2524 107.829 37.4863 107.693 38.034C107.471 38.9163 107.263 39.8046 107.027 40.6839C106.89 41.1813 106.976 41.587 107.69 41.5396Z" fill="#71757F"/>
<path d="M113.185 36.8201C113.383 36.8201 113.585 36.8141 113.783 36.8201C114.298 36.8378 114.612 37.1872 114.523 37.6965C114.44 38.182 114.307 38.6617 114.189 39.1413C114.038 39.7572 113.893 40.373 113.715 40.9829C113.526 41.6284 113.037 41.9689 112.362 41.9718C112.042 41.9718 111.722 41.9748 111.4 41.9718C110.751 41.9659 110.426 41.5899 110.574 40.9592C110.816 39.9141 111.074 38.8689 111.361 37.8356C111.548 37.1546 112.042 36.8201 112.75 36.8201C112.895 36.8201 113.04 36.8201 113.185 36.8201ZM112.004 41.5396C112.658 41.5396 112.922 41.3353 113.081 40.7046C113.303 39.8223 113.526 38.937 113.745 38.0547C113.768 37.9629 113.786 37.8652 113.789 37.7705C113.798 37.4922 113.647 37.3086 113.375 37.2671C113.256 37.2494 113.135 37.2553 113.013 37.2553C112.448 37.2553 112.152 37.4862 112.016 38.0281C111.793 38.9163 111.583 39.8105 111.343 40.6957C111.207 41.1961 111.314 41.5869 112.004 41.5396Z" fill="#71757F"/>
<path d="M32.7315 36.5833C32.8795 35.9882 33.0335 35.402 33.1638 34.8098C33.2112 34.6025 33.2911 34.5196 33.5102 34.5404C33.75 34.5641 33.9958 34.5463 34.2711 34.5463C34.1379 35.0822 34.0106 35.5944 33.8833 36.1037C33.4154 37.9808 32.9417 39.8579 32.4828 41.738C32.4384 41.9216 32.3644 41.966 32.1867 41.9631C31.4821 41.9512 30.7774 41.9631 30.0757 41.9571C29.0394 41.9512 28.4117 41.1696 28.6427 40.1659C28.8055 39.4553 28.9683 38.7447 29.1815 38.0459C29.4628 37.1192 30.2267 36.5863 31.2008 36.5803C31.7041 36.5803 32.2074 36.5833 32.7315 36.5833ZM32.5746 37.208C32.1364 37.208 31.7308 37.2021 31.3222 37.211C30.8188 37.2228 30.4014 37.5248 30.2326 37.9986C30.1793 38.1436 30.1467 38.2976 30.1082 38.4486C29.9484 39.0793 29.7885 39.7099 29.6316 40.3435C29.4687 41.0008 29.7263 41.3324 30.3954 41.3383C30.7271 41.3413 31.0557 41.3472 31.3873 41.3324C31.4554 41.3295 31.562 41.2525 31.5798 41.1903C31.9114 39.8757 32.2371 38.5641 32.5746 37.208Z" fill="#71757F"/>
<path d="M46.3599 36.5832C46.5168 35.9526 46.6767 35.3456 46.8159 34.7386C46.8514 34.5906 46.9047 34.5373 47.0557 34.5432C47.3251 34.5551 47.5916 34.5462 47.8995 34.5462C47.784 35.014 47.6745 35.4581 47.5649 35.8993C47.0794 37.8445 46.5908 39.7897 46.1142 41.735C46.0697 41.9156 46.0016 41.9689 45.821 41.9659C45.1164 41.9541 44.4117 41.9659 43.71 41.96C42.6589 41.9541 42.0431 41.1754 42.2799 40.148C42.4457 39.4374 42.6056 38.7268 42.8188 38.0281C43.0912 37.1339 43.864 36.5921 44.7996 36.5832C45.3118 36.5802 45.824 36.5832 46.3599 36.5832ZM46.1971 37.2287C46.1467 37.2198 46.1201 37.2109 46.0964 37.2109C45.7144 37.2109 45.3325 37.205 44.9476 37.2109C44.4443 37.2227 44.0268 37.5247 43.858 37.9985C43.8047 38.1435 43.7722 38.2975 43.7337 38.4485C43.5738 39.0791 43.4139 39.7098 43.257 40.3434C43.0942 41.0007 43.3517 41.3323 44.0238 41.3353C44.3554 41.3382 44.6841 41.3441 45.0157 41.3293C45.0838 41.3264 45.1904 41.2494 45.2082 41.1872C45.5427 39.8756 45.8654 38.561 46.1971 37.2287Z" fill="#71757F"/>
<path d="M89.9132 41.5367C90.7037 41.5367 91.444 41.5367 92.2167 41.5367C92.1812 41.6877 92.1486 41.8179 92.116 41.9601C91.1183 41.9601 90.1234 41.9601 89.1168 41.9601C89.1701 41.5071 89.3062 41.0866 89.629 40.758C89.9162 40.4678 90.2241 40.1925 90.5409 39.9349C90.9436 39.6062 91.3699 39.3072 91.7726 38.9785C92.1042 38.7091 92.3203 38.3597 92.4003 37.9275C92.4832 37.4893 92.3144 37.2554 91.8733 37.2554C91.6749 37.2554 91.4735 37.2524 91.2781 37.2879C90.9909 37.3442 90.7926 37.5307 90.7097 37.815C90.6741 37.9334 90.6268 37.9837 90.4994 37.9719C90.3751 37.96 90.2478 37.9689 90.1234 37.9689C90.156 37.4508 90.5261 36.9978 91.0857 36.8941C91.4824 36.8201 91.9058 36.8053 92.3085 36.8497C92.8799 36.9149 93.1938 37.436 93.0931 38.0104C92.9984 38.5522 92.7408 38.9993 92.3174 39.3427C91.8969 39.6862 91.4499 40 91.0294 40.3435C90.7215 40.5951 90.4284 40.8646 90.1442 41.1429C90.0524 41.2406 90.002 41.3827 89.9132 41.5367Z" fill="#71757F"/>
<path d="M59.2632 41.9482C59.056 41.9482 58.8428 41.9748 58.6385 41.9452C57.8154 41.8268 57.2943 41.128 57.4571 40.3108C57.6081 39.5529 57.7947 38.8008 58.0167 38.0636C58.298 37.1339 59.0648 36.595 60.0301 36.5891C60.335 36.5862 60.64 36.5714 60.942 36.601C61.8124 36.6898 62.3572 37.4418 62.1707 38.3212C62.0227 39.017 61.8539 39.7098 61.6496 40.3908C61.3387 41.4359 60.5926 41.9659 59.4971 41.9659C59.4201 41.9659 59.3402 41.9659 59.2632 41.9659C59.2632 41.957 59.2632 41.9511 59.2632 41.9482ZM59.2899 41.353C60.0626 41.3382 60.4416 41.0481 60.6341 40.302C60.7999 39.6624 60.9627 39.0259 61.1167 38.3834C61.164 38.1909 61.1936 37.9925 61.1996 37.7942C61.2055 37.5543 61.0811 37.356 60.8591 37.2879C60.2314 37.0895 59.3106 37.1546 59.05 38.0606C58.8221 38.8512 58.6355 39.6565 58.4372 40.4559C58.4135 40.5477 58.4164 40.6454 58.4224 40.7402C58.4342 41.0244 58.5763 41.2139 58.8546 41.2909C58.9938 41.3293 59.1448 41.3323 59.2899 41.353Z" fill="#71757F"/>
<path d="M64.1158 36.5892C64.9833 36.5892 65.8271 36.5567 66.668 36.5981C67.5681 36.6396 68.1247 37.4449 67.9115 38.3657C67.6332 39.5589 67.3253 40.7432 67.0263 41.9483C66.6858 41.9483 66.3512 41.9483 65.99 41.9483C66.1587 41.2673 66.3245 40.5922 66.4903 39.9201C66.6295 39.3635 66.7716 38.8098 66.9019 38.2502C67.0588 37.5781 66.7627 37.211 66.0729 37.211C65.7857 37.211 65.4985 37.2199 65.2113 37.208C65.0396 37.1992 64.9774 37.2584 64.9359 37.4271C64.5836 38.869 64.2194 40.3109 63.8582 41.7529C63.8404 41.8209 63.8197 41.8861 63.799 41.9571C63.4615 41.9571 63.1328 41.9571 62.7716 41.9571C63.2246 40.157 63.6687 38.3746 64.1158 36.5892Z" fill="#71757F"/>
<path d="M38.9135 34.5582C40.083 34.5582 41.2377 34.5582 42.4191 34.5582C42.3658 34.7684 42.3184 34.9579 42.2681 35.1681C41.442 35.1681 40.6278 35.1681 39.7988 35.1681C39.5679 36.0948 39.3399 37.0008 39.106 37.9364C39.6626 37.9364 40.1985 37.9364 40.7611 37.9364C40.7107 38.1555 40.6693 38.348 40.6219 38.5582C40.0682 38.5582 39.5234 38.5582 38.9609 38.5582C38.73 39.4819 38.502 40.3909 38.271 41.3265C39.0941 41.3265 39.8965 41.3265 40.7374 41.3265C40.6811 41.5545 40.6337 41.7529 40.5834 41.9512C39.405 41.9512 38.2503 41.9512 37.0749 41.9512C37.6878 39.479 38.3006 37.0215 38.9135 34.5582Z" fill="#71757F"/>
<path d="M85.6052 37.2494C85.4453 37.8919 85.2854 38.5226 85.1255 39.171C85.5104 39.171 85.8805 39.171 86.2773 39.171C86.2418 39.3309 86.2092 39.4671 86.1737 39.6092C85.7858 39.6092 85.4127 39.6092 85.0219 39.6092C84.862 40.2458 84.7051 40.8764 84.5423 41.5248C85.1137 41.5248 85.6703 41.5248 86.2536 41.5248C86.221 41.661 86.2033 41.7765 86.1648 41.886C86.1529 41.9216 86.0908 41.963 86.0493 41.963C85.2765 41.9689 84.5038 41.966 83.7103 41.966C84.1396 40.2428 84.566 38.5344 84.9923 36.8201C85.8036 36.8201 86.6059 36.8201 87.4261 36.8201C87.3905 36.9622 87.358 37.0955 87.3224 37.2435C86.7481 37.2494 86.1825 37.2494 85.6052 37.2494Z" fill="#71757F"/>
<path d="M79.9651 40.835C79.8319 41.4863 79.4174 41.8861 78.7749 41.9571C78.4758 41.9897 78.1679 41.9926 77.8718 41.9571C77.2797 41.889 76.9125 41.365 77.0487 40.7758C77.2649 39.8342 77.4929 38.8957 77.7445 37.963C77.9488 37.1962 78.4817 36.8113 79.2752 36.8201C79.5684 36.8231 79.8703 36.8261 80.1546 36.8882C80.6135 36.986 80.8356 37.3886 80.7171 37.8446C80.7053 37.892 80.6431 37.9571 80.5958 37.963C80.4536 37.9778 80.3086 37.9689 80.1487 37.9689C80.1576 37.9038 80.1605 37.8594 80.1694 37.812C80.2257 37.513 80.0746 37.2909 79.7726 37.2613C79.5684 37.2435 79.3581 37.2347 79.1568 37.2643C78.7897 37.3176 78.5676 37.5515 78.4788 37.9068C78.3189 38.5256 78.1679 39.1473 78.011 39.7661C77.9222 40.1244 77.8333 40.4797 77.7445 40.8379C77.629 41.3117 77.8008 41.5367 78.2834 41.5337C78.464 41.5337 78.6475 41.5337 78.8222 41.5011C79.1035 41.4449 79.2989 41.2613 79.373 40.983C79.4085 40.8527 79.4677 40.8202 79.5861 40.8291C79.7105 40.8409 79.8289 40.835 79.9651 40.835Z" fill="#71757F"/>
<path d="M27.3578 39.5589C26.2771 39.5589 25.226 39.5589 24.1364 39.5589C24.0565 39.9053 23.9529 40.2458 23.9085 40.5951C23.8492 41.0511 24.1039 41.3235 24.5687 41.3353C25.0987 41.3472 25.6287 41.3383 26.1616 41.3413C26.2564 41.3413 26.3511 41.3413 26.4903 41.3413C26.437 41.5544 26.3926 41.7439 26.3393 41.966C26.1439 41.966 25.9484 41.966 25.7501 41.966C25.2615 41.966 24.776 41.9749 24.2904 41.963C23.3874 41.9393 22.7597 41.1902 22.9373 40.302C23.0913 39.5441 23.2778 38.792 23.4999 38.0548C23.7752 37.1399 24.545 36.601 25.4954 36.5892C25.7382 36.5862 25.984 36.5862 26.2268 36.5892C27.2038 36.601 27.8167 37.3087 27.6627 38.2739C27.5917 38.6943 27.4644 39.1118 27.3578 39.5589ZM26.4814 38.9252C26.5613 38.5788 26.659 38.2354 26.7123 37.886C26.7508 37.6343 26.6294 37.433 26.3985 37.3087C25.904 37.0422 25.078 37.2139 24.7375 37.658C24.4562 38.0281 24.4266 38.4811 24.32 38.9252C25.0543 38.9252 25.756 38.9252 26.4814 38.9252Z" fill="#71757F"/>
<path d="M75.4941 37.2554C75.05 37.2554 74.6414 37.2554 74.2061 37.2554C74.2417 37.1044 74.2713 36.9682 74.3039 36.829C75.4082 36.829 76.5008 36.829 77.5933 36.829C77.5311 37.2554 77.5311 37.2554 77.1196 37.2554C76.8235 37.2554 76.5274 37.2554 76.2136 37.2554C76.1099 37.6729 76.0063 38.0874 75.9027 38.5019C75.6273 39.6092 75.349 40.7136 75.0766 41.8209C75.047 41.9364 75.0085 41.9838 74.8871 41.9749C74.7065 41.966 74.5259 41.9719 74.3157 41.9719C74.7154 40.3968 75.1033 38.8364 75.4941 37.2554Z" fill="#71757F"/>
<path d="M1.18728 41.3382C2.02518 41.3382 2.82459 41.3382 3.62696 41.3382C3.63289 41.3767 3.64177 41.4034 3.63585 41.4241C3.52334 41.96 3.52333 41.96 2.96671 41.96C1.99261 41.96 1.02147 41.96 0 41.96C0.612883 39.4848 1.21984 37.0303 1.83273 34.561C2.17026 34.561 2.50483 34.561 2.869 34.561C2.31238 36.8141 1.75575 39.0584 1.18728 41.3382Z" fill="#71757F"/>
<path d="M80.5216 41.9719C80.9479 40.2457 81.3713 38.5433 81.7947 36.832C82.0286 36.832 82.2625 36.832 82.5142 36.832C82.1263 38.3982 81.7384 39.9556 81.3447 41.5366C81.919 41.5366 82.4786 41.5366 83.0382 41.5366C83.0412 41.5692 83.0471 41.587 83.0441 41.6018C82.9642 41.9748 82.9642 41.9748 82.5793 41.9748C81.9042 41.9719 81.2292 41.9719 80.5216 41.9719Z" fill="#71757F"/>
<path d="M21.5784 35.1799C21.4659 35.6506 21.3563 36.0948 21.2438 36.5714C21.7916 36.5714 22.3245 36.5714 22.893 36.5714C22.8397 36.7965 22.7953 36.9889 22.742 37.208C22.2712 37.208 21.8034 37.2199 21.3386 37.2021C21.1313 37.1932 21.0602 37.2672 21.0129 37.4626C20.7819 38.4338 20.5332 39.402 20.2964 40.3731C20.1424 41.0067 20.397 41.3324 21.0425 41.3383C21.2497 41.3413 21.4599 41.3383 21.7027 41.3383C21.6761 41.4508 21.6583 41.5485 21.6346 41.6433C21.611 41.7439 21.5813 41.8446 21.5547 41.9542C21.1757 41.9542 20.7997 41.9838 20.4296 41.9482C19.5976 41.8713 19.0913 41.1311 19.2986 40.2576C19.6864 38.6174 20.1039 36.986 20.5155 35.3516C20.5332 35.2835 20.628 35.1917 20.6901 35.1888C20.9685 35.171 21.2557 35.1799 21.5784 35.1799Z" fill="#71757F"/>
<path d="M53.2764 35.1798C53.1609 35.6565 53.0544 36.1006 52.9389 36.5743C53.4896 36.5743 54.0255 36.5743 54.591 36.5743C54.5348 36.7994 54.4903 36.9889 54.437 37.205C53.9544 37.205 53.4778 37.2109 53.0011 37.202C52.8323 37.1991 52.7642 37.2464 52.7228 37.4182C52.4889 38.3982 52.2372 39.3752 51.9974 40.3523C51.8345 41.0185 52.0862 41.3294 52.7701 41.3353C52.9685 41.3353 53.1698 41.3353 53.4008 41.3353C53.3475 41.5544 53.3001 41.7498 53.2527 41.9511C52.8619 41.9511 52.4859 41.9807 52.1158 41.9452C51.2838 41.8653 50.7894 41.1251 50.9936 40.2487C51.3253 38.8364 51.6865 37.43 52.0329 36.0236C52.0891 35.7957 52.1395 35.5677 52.2105 35.3427C52.2313 35.2775 52.3082 35.1887 52.3645 35.1857C52.6576 35.1709 52.9507 35.1798 53.2764 35.1798Z" fill="#71757F"/>
<path d="M94.6089 37.8327C94.4165 37.8327 94.2418 37.8327 94.0582 37.8327C94.0938 37.581 94.1174 37.3619 94.3928 37.2553C94.6178 37.1695 94.828 37.0451 95.0323 36.9178C95.204 36.8112 95.3817 36.8112 95.5801 36.832C95.1537 38.5492 94.7303 40.2576 94.3069 41.966C94.0612 41.966 93.8332 41.966 93.5875 41.966C93.925 40.5892 94.2655 39.2213 94.6089 37.8327Z" fill="#71757F"/>
<path d="M5.63734 41.9512C5.29093 41.9512 4.96228 41.9512 4.60106 41.9512C4.73726 41.4035 4.86753 40.8676 5.00076 40.3317C5.29092 39.1592 5.58701 37.9897 5.86828 36.8143C5.90973 36.6396 5.96598 36.5626 6.15843 36.5774C6.4101 36.5952 6.66177 36.5833 6.96673 36.5833C6.51965 38.3864 6.0785 40.1659 5.63734 41.9512Z" fill="#71757F"/>
<path d="M55.4556 41.9511C55.1121 41.9511 54.7835 41.9511 54.4193 41.9511C54.5555 41.4033 54.6888 40.8674 54.819 40.3315C55.1033 39.1768 55.3964 38.0221 55.6688 36.8644C55.725 36.6305 55.8227 36.5565 56.0537 36.5772C56.2846 36.6009 56.5185 36.5831 56.785 36.5831C56.3379 38.3922 55.8968 40.1687 55.4556 41.9511Z" fill="#71757F"/>
<path d="M17.1786 41.9481C16.8203 41.9481 16.4917 41.9481 16.1423 41.9481C16.3318 41.1901 16.5154 40.45 16.6989 39.7098C16.9417 38.7327 17.1875 37.7556 17.4243 36.7756C17.4599 36.6276 17.5131 36.5743 17.6671 36.5802C17.9365 36.592 18.206 36.5832 18.5109 36.5832C18.0609 38.3863 17.6227 40.1598 17.1786 41.9481Z" fill="#71757F"/>
<path d="M48.8738 41.954C48.5185 41.954 48.1958 41.954 47.8405 41.954C47.9589 41.4714 48.0744 41.0036 48.1899 40.5387C48.5007 39.2922 48.8146 38.0458 49.1136 36.7933C49.1551 36.6187 49.2261 36.5713 49.3919 36.5802C49.6495 36.592 49.9101 36.5831 50.2032 36.5831C49.7591 38.3892 49.3179 40.1657 48.8738 41.954Z" fill="#71757F"/>
<path d="M100.791 40.9563C100.622 41.5159 100.584 42.0933 100.291 42.5937C100.125 42.8749 99.891 43.0674 99.5357 43.1236C99.6038 42.8897 99.5979 42.6647 99.814 42.493C99.9443 42.3894 99.9916 42.1762 100.086 41.9897C99.9709 41.9778 99.9028 41.9689 99.817 41.9601C99.8939 41.6462 99.968 41.3383 100.051 41.0304C100.06 40.9978 100.116 40.9593 100.152 40.9593C100.356 40.9534 100.56 40.9563 100.791 40.9563Z" fill="#71757F"/>
<path d="M6.24144 35.3723C6.30954 35.0792 6.36876 34.8275 6.43094 34.564C6.75958 34.564 7.08823 34.564 7.47017 34.564C7.40503 34.8186 7.34582 35.0703 7.27476 35.319C7.26588 35.3486 7.1889 35.3723 7.14449 35.3723C6.85729 35.3723 6.57305 35.3723 6.24144 35.3723Z" fill="#71757F"/>
<path d="M56.2521 34.5551C56.6104 34.5551 56.939 34.5551 57.2854 34.5551C57.2292 34.7949 57.1818 35.0259 57.1167 35.2479C57.1019 35.3012 57.013 35.3634 56.9568 35.3664C56.6725 35.3782 56.3854 35.3723 56.0626 35.3723C56.1278 35.0851 56.187 34.8275 56.2521 34.5551Z" fill="#71757F"/>
<path d="M49.4806 35.3723C49.5487 35.0822 49.6079 34.8305 49.6701 34.564C50.0076 34.564 50.3422 34.564 50.7034 34.564C50.6472 34.8009 50.5998 35.0348 50.5317 35.2657C50.5169 35.3131 50.4369 35.3664 50.3836 35.3694C50.0994 35.3753 49.8152 35.3723 49.4806 35.3723Z" fill="#71757F"/>
<path d="M17.9749 34.5582C18.3183 34.5582 18.644 34.5582 19.0052 34.5582C18.949 34.798 18.9016 35.0319 18.8365 35.2599C18.8217 35.3072 18.7447 35.3664 18.6944 35.3664C18.4012 35.3753 18.1081 35.3724 17.7824 35.3724C17.8505 35.0793 17.9127 34.8217 17.9749 34.5582Z" fill="#71757F"/>
</svg>
