<svg width="20" height="20" viewBox="0 0 20 20" fill="none" xmlns="http://www.w3.org/2000/svg">
<g clip-path="url(#clip0_86_1111)">
<path d="M7.15625 11.1665C7.15625 11.2908 7.10686 11.41 7.01896 11.4979C6.93105 11.5858 6.81182 11.6352 6.6875 11.6352H4.10938C3.98505 11.6352 3.86583 11.5858 3.77792 11.4979C3.69001 11.41 3.64062 11.2908 3.64062 11.1665C3.64062 11.0421 3.69001 10.9229 3.77792 10.835C3.86583 10.7471 3.98505 10.6977 4.10938 10.6977H6.6875C6.81182 10.6977 6.93105 10.7471 7.01896 10.835C7.10686 10.9229 7.15625 11.0421 7.15625 11.1665ZM11.2891 10.6977H8.71094C8.58662 10.6977 8.46739 10.7471 8.37948 10.835C8.29157 10.9229 8.24219 11.0421 8.24219 11.1665C8.24219 11.2908 8.29157 11.41 8.37948 11.4979C8.46739 11.5858 8.58662 11.6352 8.71094 11.6352H11.2891C11.4134 11.6352 11.5326 11.5858 11.6205 11.4979C11.7084 11.41 11.7578 11.2908 11.7578 11.1665C11.7578 11.0421 11.7084 10.9229 11.6205 10.835C11.5326 10.7471 11.4134 10.6977 11.2891 10.6977ZM15.8906 10.6977H13.3125C13.1882 10.6977 13.069 10.7471 12.981 10.835C12.8931 10.9229 12.8438 11.0421 12.8438 11.1665C12.8438 11.2908 12.8931 11.41 12.981 11.4979C13.069 11.5858 13.1882 11.6352 13.3125 11.6352H15.8906C16.0149 11.6352 16.1342 11.5858 16.2221 11.4979C16.31 11.41 16.3594 11.2908 16.3594 11.1665C16.3594 11.0421 16.31 10.9229 16.2221 10.835C16.1342 10.7471 16.0149 10.6977 15.8906 10.6977ZM6.6875 14.643H4.10938C3.98505 14.643 3.86583 14.6924 3.77792 14.7803C3.69001 14.8682 3.64062 14.9874 3.64062 15.1118C3.64062 15.2361 3.69001 15.3553 3.77792 15.4432C3.86583 15.5311 3.98505 15.5805 4.10938 15.5805H6.6875C6.81182 15.5805 6.93105 15.5311 7.01896 15.4432C7.10686 15.3553 7.15625 15.2361 7.15625 15.1118C7.15625 14.9874 7.10686 14.8682 7.01896 14.7803C6.93105 14.6924 6.81182 14.643 6.6875 14.643ZM11.2891 14.643H8.71094C8.58662 14.643 8.46739 14.6924 8.37948 14.7803C8.29157 14.8682 8.24219 14.9874 8.24219 15.1118C8.24219 15.2361 8.29157 15.3553 8.37948 15.4432C8.46739 15.5311 8.58662 15.5805 8.71094 15.5805H11.2891C11.4134 15.5805 11.5326 15.5311 11.6205 15.4432C11.7084 15.3553 11.7578 15.2361 11.7578 15.1118C11.7578 14.9874 11.7084 14.8682 11.6205 14.7803C11.5326 14.6924 11.4134 14.643 11.2891 14.643ZM15.8906 14.643H13.3125C13.1882 14.643 13.069 14.6924 12.981 14.7803C12.8931 14.8682 12.8438 14.9874 12.8438 15.1118C12.8438 15.2361 12.8931 15.3553 12.981 15.4432C13.069 15.5311 13.1882 15.5805 13.3125 15.5805H15.8906C16.0149 15.5805 16.1342 15.5311 16.2221 15.4432C16.31 15.3553 16.3594 15.2361 16.3594 15.1118C16.3594 14.9874 16.31 14.8682 16.2221 14.7803C16.1342 14.6924 16.0149 14.643 15.8906 14.643ZM20 5.20602V16.8254C19.9992 17.5145 19.7251 18.1751 19.2379 18.6624C18.7506 19.1497 18.0899 19.4238 17.4008 19.4246H2.59918C1.91007 19.4238 1.24942 19.1497 0.762148 18.6624C0.274878 18.1751 0.000785721 17.5145 0 16.8254L0 5.20602C0.000785741 4.51692 0.274879 3.85626 0.76215 3.36899C1.24942 2.88172 1.91008 2.60763 2.59918 2.60684H3.52535V1.55997C3.52565 1.29891 3.62949 1.04864 3.81408 0.864045C3.99867 0.679453 4.24895 0.575617 4.51 0.575317H5.66578C5.92683 0.575617 6.17711 0.679453 6.3617 0.864045C6.54629 1.04864 6.65013 1.29891 6.65043 1.55997V2.60684H13.3496V1.55997C13.3499 1.29891 13.4538 1.04864 13.6384 0.864045C13.823 0.679453 14.0732 0.575617 14.3343 0.575317H15.4901C15.7511 0.575617 16.0014 0.679453 16.186 0.864045C16.3706 1.04864 16.4744 1.29891 16.4747 1.55997V2.60684H17.4009C18.09 2.60765 18.7506 2.88175 19.2379 3.36902C19.7251 3.85629 19.9992 4.51693 20 5.20602ZM14.2871 4.5911C14.2875 4.60346 14.2926 4.61519 14.3014 4.62393C14.3101 4.63268 14.3219 4.63779 14.3342 4.63825H15.49C15.5024 4.63793 15.5142 4.63286 15.523 4.62409C15.5318 4.61531 15.5368 4.6035 15.5371 4.5911V1.56008C15.5367 1.54773 15.5316 1.536 15.5228 1.52726C15.5141 1.51852 15.5024 1.5134 15.49 1.51293H14.3342C14.3219 1.5134 14.3101 1.51852 14.3014 1.52726C14.2927 1.536 14.2875 1.54773 14.2871 1.56008V4.5911ZM4.46285 4.5911C4.46331 4.60346 4.46842 4.61519 4.47717 4.62393C4.48591 4.63268 4.49764 4.63779 4.51 4.63825H5.66578C5.67819 4.63793 5.69 4.63286 5.69877 4.62409C5.70754 4.61531 5.71261 4.6035 5.71293 4.5911V1.56008C5.71247 1.54773 5.70735 1.536 5.69861 1.52726C5.68986 1.51852 5.67814 1.5134 5.66578 1.51293H4.51C4.49764 1.5134 4.48592 1.51852 4.47718 1.52726C4.46843 1.536 4.46332 1.54773 4.46285 1.56008V4.5911ZM0.9375 5.20602V7.78649H19.0625V5.20602C19.062 4.76547 18.8868 4.3431 18.5753 4.03158C18.2637 3.72007 17.8414 3.54484 17.4008 3.54434H16.4746V4.59122C16.4743 4.85227 16.3705 5.10254 16.1859 5.28714C16.0013 5.47173 15.7511 5.57556 15.49 5.57586H14.3342C14.0732 5.57556 13.8229 5.47173 13.6383 5.28714C13.4537 5.10254 13.3499 4.85227 13.3496 4.59122V3.54434H6.65035V4.59122C6.65005 4.85227 6.54622 5.10254 6.36162 5.28714C6.17703 5.47173 5.92676 5.57556 5.6657 5.57586H4.51C4.24895 5.57556 3.99867 5.47173 3.81408 5.28714C3.62949 5.10254 3.52565 4.85227 3.52535 4.59122V3.54434H2.59918C2.15863 3.54484 1.73626 3.72007 1.42474 4.03158C1.11322 4.3431 0.937996 4.76547 0.9375 5.20602ZM19.0625 16.8254V8.72399H0.9375V16.8256C0.937986 17.2661 1.11321 17.6885 1.42473 18C1.73625 18.3115 2.15862 18.4868 2.59918 18.4873H17.4008C17.8414 18.4868 18.2638 18.3115 18.5753 17.9999C18.8869 17.6884 19.0621 17.2659 19.0625 16.8254Z" fill="#71757F"/>
</g>
<defs>
<clipPath id="clip0_86_1111">
<rect width="20" height="20" fill="white"/>
</clipPath>
</defs>
</svg>
