<svg width="40" height="40" viewBox="0 0 40 40" fill="none" xmlns="http://www.w3.org/2000/svg">
<path d="M39.4007 24.8391C36.7275 35.5538 25.878 42.0737 15.1584 39.4007C4.44657 36.7278 -2.07387 25.8754 0.599315 15.1645C3.26868 4.44975 14.1221 -2.07394 24.8339 0.599011C35.5535 3.26814 42.0739 14.1244 39.4007 24.8391Z" fill="#71757F"/>
<path d="M28.8189 17.1491C29.2166 14.4877 27.1897 13.0575 24.4209 12.1015L25.3196 8.4955L23.1245 7.94867L22.2487 11.4591C21.6712 11.3138 21.0785 11.1799 20.4895 11.0461L21.3691 7.51274L19.174 6.96592L18.2752 10.5681C17.7972 10.461 17.3306 10.3501 16.8755 10.2392L16.8794 10.2278L13.8543 9.47061L13.2692 11.8147C13.2692 11.8147 14.8984 12.1894 14.864 12.2124C15.7512 12.4342 15.9118 13.0231 15.8851 13.4896L14.8601 17.5965C14.9213 17.6118 15.0016 17.6348 15.0896 17.6692C15.0169 17.6501 14.9366 17.6309 14.8563 17.6118L13.4222 23.3631C13.3151 23.6346 13.0359 24.0399 12.4164 23.8831C12.4394 23.9137 10.8217 23.4854 10.8217 23.4854L9.73175 25.9978L12.5885 26.709C13.1201 26.8429 13.6402 26.9805 14.1526 27.1144L13.2463 30.7624L15.4376 31.3093L16.3363 27.7033C16.9367 27.8639 17.518 28.0168 18.084 28.1583L17.1891 31.749L19.3843 32.2958L20.2906 28.6554C24.0346 29.3629 26.8455 29.0761 28.031 25.6919C28.9871 22.9654 27.9852 21.3937 26.0156 20.3689C27.4536 20.04 28.532 19.0993 28.8189 17.1491ZM23.8052 24.1814C23.1283 26.9079 18.5391 25.4318 17.0515 25.0647L18.2561 20.2351C19.7438 20.606 24.5165 21.3402 23.8052 24.1814ZM24.4859 17.1109C23.8664 19.5888 20.0497 18.3307 18.8106 18.021L19.9044 13.6387C21.1397 13.9485 25.1284 14.5259 24.4859 17.1109Z" fill="#F0F0F2"/>
</svg>
