<svg width="12" height="12" viewBox="0 0 12 12" fill="none" xmlns="http://www.w3.org/2000/svg">
<path fill-rule="evenodd" clip-rule="evenodd" d="M8.02967 4.39122C8.08117 4.44648 8.14327 4.49081 8.21227 4.52155C8.28126 4.5523 8.35575 4.56883 8.43128 4.57016C8.5068 4.57149 8.58183 4.5576 8.65187 4.52931C8.72191 4.50102 8.78553 4.45891 8.83895 4.4055C8.89236 4.35208 8.93447 4.28846 8.96276 4.21842C8.99105 4.14837 9.00495 4.07335 9.00361 3.99783C9.00228 3.9223 8.98575 3.84781 8.955 3.77881C8.92426 3.70981 8.87993 3.64771 8.82467 3.59622L6.38717 1.15872L5.98967 0.760468L5.59217 1.15797L3.15467 3.59547C3.05215 3.70151 2.99539 3.84357 2.9966 3.99106C2.99781 4.13854 3.0569 4.27965 3.16115 4.384C3.26539 4.48834 3.40645 4.54756 3.55393 4.54891C3.70142 4.55026 3.84353 4.49363 3.94967 4.39122L5.42717 2.91372L5.42717 10.698C5.42717 10.8472 5.48643 10.9902 5.59192 11.0957C5.69741 11.2012 5.84048 11.2605 5.98967 11.2605C6.13885 11.2605 6.28193 11.2012 6.38742 11.0957C6.49291 10.9902 6.55217 10.8472 6.55217 10.698L6.55217 2.91372L8.02967 4.39122Z" fill="#56CCF2"/>
</svg>
