<svg width="100" height="79" viewBox="0 0 100 79" fill="none" xmlns="http://www.w3.org/2000/svg">
<path d="M53.4352 22.7095C52.6127 22.9656 52.405 23.1733 52.1489 23.9958C51.8927 23.1733 51.6851 22.9656 50.8625 22.7095C51.6851 22.4534 51.8927 22.2457 52.1489 21.4232C52.405 22.2457 52.6127 22.4533 53.4352 22.7095Z" fill="url(#paint0_linear_21_3792)"/>
<path d="M17.1658 1.5641C16.1656 1.87555 15.9131 2.12803 15.6017 3.1282C15.2902 2.12803 15.0378 1.87555 14.0376 1.5641C15.0378 1.25265 15.2902 1.00017 15.6017 0C15.9131 1.00017 16.1656 1.25265 17.1658 1.5641Z" fill="url(#paint1_linear_21_3792)"/>
<path d="M4.35488 39.3471C3.64262 39.5688 3.46282 39.7486 3.24104 40.4609C3.01925 39.7486 2.83943 39.5688 2.1272 39.3471C2.83946 39.1253 3.01925 38.9455 3.24104 38.2332C3.46282 38.9455 3.64262 39.1253 4.35488 39.3471Z" fill="url(#paint2_linear_21_3792)"/>
<path d="M58.5566 57.4029C57.2527 57.809 56.9235 58.1382 56.5174 59.4421C56.1114 58.1382 55.7822 57.809 54.4783 57.4029C55.7822 56.9969 56.1114 56.6677 56.5174 55.3638C56.9235 56.6677 57.2527 56.9969 58.5566 57.4029Z" fill="url(#paint3_linear_21_3792)"/>
<path d="M97.8728 35.0715C97.2208 35.2745 97.0562 35.4391 96.8532 36.0911C96.6502 35.4391 96.4856 35.2745 95.8336 35.0715C96.4856 34.8684 96.6502 34.7039 96.8532 34.0519C97.0562 34.7039 97.2208 34.8685 97.8728 35.0715Z" fill="url(#paint4_linear_21_3792)"/>
<path d="M88.8313 6.20117C87.5273 6.60721 87.1982 6.93637 86.7921 8.24034C86.3861 6.93637 86.0569 6.60721 84.7529 6.20117C86.0569 5.79512 86.3861 5.46596 86.7921 4.16199C87.1982 5.46596 87.5273 5.79512 88.8313 6.20117Z" fill="url(#paint5_linear_21_3792)"/>
<path d="M61.8709 23.2653C61.7578 22.7707 62.2928 22.0859 62.9231 21.7992C63.7159 21.4386 64.4525 21.8019 64.547 21.8505C64.5761 21.6476 64.677 21.1418 65.0956 20.7118C65.2102 20.5943 65.8387 19.9489 66.6769 20.1338C67.2695 20.2645 67.742 20.7605 67.8924 21.3978C67.9306 21.2907 68.033 21.0522 68.2807 20.8877C68.3477 20.8432 68.4528 20.7698 68.5927 20.7623C68.912 20.7451 69.1604 21.0589 69.2385 21.1651C69.2796 19.4349 70.6469 18.0527 72.2595 17.9867C73.7033 17.9276 75.0568 18.9353 75.4446 20.4229C75.581 20.3649 75.782 20.2922 76.0327 20.2468C76.3746 20.1848 77.2355 20.0287 77.8155 20.5552C78.3204 21.0135 78.3152 21.7193 78.31 21.8823C78.4759 21.7726 78.8491 21.5612 79.3272 21.5928C80.0571 21.6408 80.5059 22.2202 80.7022 22.4736C80.7951 22.5935 81.2863 23.2276 81.2299 23.6411C80.9562 25.6496 67.478 24.581 65.5494 24.4281C64.1964 24.3208 62.0672 24.1238 61.8709 23.2653Z" fill="#F0EBEB"/>
<path d="M7.3475 41.5372C7.21412 40.9539 7.84513 40.1462 8.58851 39.808C9.52354 39.3827 10.3924 39.8112 10.5038 39.8686C10.5381 39.6293 10.6571 39.0326 11.1509 38.5256C11.286 38.3869 12.0273 37.6257 13.0159 37.8438C13.7148 37.9979 14.2721 38.5829 14.4495 39.3346C14.4946 39.2082 14.6154 38.927 14.9075 38.733C14.9865 38.6804 15.1105 38.5938 15.2754 38.585C15.6521 38.5648 15.945 38.9349 16.0371 39.0601C16.0856 37.0195 17.6983 35.3892 19.6003 35.3113C21.3032 35.2416 22.8995 36.4302 23.3569 38.1847C23.5179 38.1164 23.7549 38.0306 24.0506 37.977C24.4539 37.9038 25.4692 37.7197 26.1533 38.3407C26.7488 38.8813 26.7427 39.7137 26.7365 39.906C26.9323 39.7766 27.3724 39.5274 27.9363 39.5645C28.7971 39.6212 29.3265 40.3045 29.5581 40.6034C29.6676 40.7449 30.247 41.4927 30.1805 41.9804C29.8577 44.3494 13.9608 43.089 11.6861 42.9086C10.0903 42.7821 7.57906 42.5498 7.3475 41.5372Z" fill="#F0EBEB"/>
<path d="M69.832 44.7768C69.6986 44.1934 70.3296 43.3858 71.073 43.0476C72.008 42.6223 72.8769 43.0508 72.9883 43.1082C73.0226 42.8689 73.1416 42.2722 73.6354 41.7652C73.7705 41.6265 74.5118 40.8653 75.5004 41.0834C76.1993 41.2375 76.7566 41.8225 76.934 42.5742C76.9791 42.4478 77.0999 42.1666 77.392 41.9726C77.471 41.92 77.595 41.8334 77.7599 41.8246C78.1366 41.8044 78.4295 42.1745 78.5217 42.2998C78.5702 40.2591 80.1828 38.6288 82.0849 38.5509C83.7877 38.4812 85.384 39.6698 85.8414 41.4243C86.0024 41.356 86.2394 41.2702 86.5352 41.2166C86.9384 41.1435 87.9537 40.9594 88.6378 41.5804C89.2334 42.1209 89.2273 42.9533 89.2211 43.1456C89.4168 43.0162 89.8569 42.767 90.4208 42.8041C91.2816 42.8608 91.811 43.5441 92.0426 43.843C92.1521 43.9845 92.7315 44.7323 92.665 45.22C92.3422 47.589 76.4453 46.3285 74.1706 46.1482C72.5748 46.0217 70.0636 45.7894 69.832 44.7768Z" fill="#F0EBEB"/>
<path d="M20.2205 11.1141C20.0439 10.3419 20.8793 9.27269 21.8634 8.82504C23.1012 8.262 24.2514 8.82929 24.3989 8.90518C24.4443 8.5884 24.6019 7.79852 25.2556 7.12729C25.4344 6.94367 26.4157 5.93597 27.7245 6.2247C28.6497 6.42879 29.3875 7.20321 29.6224 8.19832C29.682 8.03101 29.8419 7.65872 30.2286 7.40183C30.3332 7.33235 30.4974 7.21769 30.7157 7.20595C31.2143 7.17915 31.6021 7.66916 31.7241 7.83499C31.7883 5.13351 33.9232 2.97523 36.4412 2.8722C38.6955 2.77995 40.8087 4.3534 41.4142 6.67602C41.6273 6.58562 41.9411 6.47205 42.3326 6.40106C42.8664 6.30424 44.2105 6.0605 45.1161 6.88261C45.9045 7.59825 45.8965 8.70022 45.8882 8.95472C46.1474 8.78344 46.73 8.45349 47.4765 8.50266C48.6161 8.57774 49.3169 9.48231 49.6234 9.87804C49.7685 10.0653 50.5354 11.0552 50.4474 11.701C50.02 14.837 28.9753 13.1684 25.964 12.9297C23.8515 12.7622 20.527 12.4546 20.2205 11.1141Z" fill="#F0EBEB"/>
<path d="M74.7832 73.6244H79.3089C79.8001 71.7973 80.1586 69.8949 81.0185 68.3782C82.7272 65.3645 86.5841 63.0723 85.9196 59.4072C85.7103 58.2525 85.0479 57.0703 84.886 55.9208C84.5651 53.6423 86.2206 51.881 86.9317 49.8521C88.5319 45.2864 86.3243 39.325 87.45 34.8573C85.241 36.9694 83.0321 39.0815 80.8232 41.1937C79.2147 42.7316 77.5434 44.4354 77.8222 46.6666C77.9738 47.8801 78.697 49.1232 79.1068 50.3548C79.7859 52.3961 79.5782 54.4225 78.5245 56.0344C77.5189 57.5727 75.778 58.7331 75.0496 60.3963C74.0928 62.5809 75.0084 65.2829 75.2508 67.7941C75.4455 69.8114 75.1989 71.74 74.7832 73.6244Z" fill="#417971"/>
<path d="M74.7831 73.6244H79.3088C79.8 71.7973 80.1585 69.8949 81.0184 68.3782C82.7271 65.3645 86.5841 63.0723 85.9196 59.4072C85.7102 58.2525 85.0478 57.0703 84.8859 55.9208C84.565 53.6423 86.2205 51.881 86.9316 49.8521C88.5318 45.2864 86.3242 39.325 87.4499 34.8573C85.241 36.9694 83.032 39.0815 80.8231 41.1937C79.2146 42.7316 77.5433 44.4354 77.8221 46.6666C77.9737 47.8801 78.697 49.1232 79.1067 50.3548C79.7859 52.3961 79.5781 54.4225 78.5245 56.0344C77.5188 57.5727 75.778 58.7331 75.0495 60.3963C74.0927 62.5809 68.0309 67.7919 68.2733 70.3031C68.468 72.3204 75.1988 71.74 74.7831 73.6244Z" fill="#435E57"/>
<path d="M75.0161 72.5731C75.0109 72.5731 75.0056 72.5725 75.0003 72.5711C74.9673 72.5624 74.9477 72.5286 74.9564 72.4957C75.0025 72.3211 75.0477 72.1421 75.0915 71.9691C75.2088 71.5045 75.3302 71.0242 75.4888 70.5483C75.5051 70.4993 75.5135 70.4404 75.5224 70.3781C75.5313 70.3156 75.5405 70.2511 75.5589 70.1933C75.5632 70.1612 75.5834 70.1309 75.6046 70.099C75.6132 70.0862 75.6271 70.0652 75.6307 70.056C75.6309 70.0528 75.6314 70.0496 75.6322 70.0465C75.7376 69.6036 75.8823 69.1774 76.0222 68.7653C76.1243 68.4645 76.2299 68.1535 76.321 67.8344C76.3213 67.8336 76.3215 67.8327 76.3218 67.8319C76.3421 67.7711 76.3715 67.7221 76.3999 67.6747C76.426 67.6311 76.4507 67.59 76.4667 67.5421C77.2056 65.3894 78.1563 63.468 79.1627 61.4339C79.291 61.1745 79.4198 60.9143 79.5485 60.6527C79.5603 60.6292 79.5603 60.6133 79.5603 60.5894C79.5603 60.5587 79.5603 60.5205 79.5849 60.4713C80.7225 58.0623 81.4671 55.379 81.8607 52.2693C81.9499 51.4513 81.9972 50.63 82.0429 49.8358C82.1082 48.6988 82.1759 47.5231 82.3681 46.3273C82.6451 44.7839 82.9797 43.4803 83.4212 42.2238C84.3465 39.5901 85.6854 37.0992 87.4007 34.8203C87.4212 34.793 87.4598 34.7876 87.487 34.8081C87.5143 34.8286 87.5197 34.8672 87.4992 34.8945C85.7916 37.1633 84.4587 39.643 83.5375 42.2647C83.0983 43.5149 82.7654 44.8124 82.4897 46.348C82.2987 47.5365 82.2313 48.709 82.1661 49.8429C82.1203 50.6386 82.0729 51.4615 81.9832 52.2837C81.5878 55.4076 80.8396 58.103 79.6959 60.5252C79.6837 60.5496 79.6837 60.5655 79.6837 60.5894C79.6837 60.6201 79.6837 60.6583 79.6591 60.7075C79.5304 60.9689 79.4017 61.2292 79.2733 61.4886C78.2687 63.5191 77.3198 65.437 76.5836 67.5817C76.5635 67.6419 76.5341 67.6909 76.5057 67.7382C76.4798 67.7814 76.4553 67.8222 76.4393 67.8696C76.3474 68.1911 76.2415 68.5032 76.139 68.805C76.0006 69.2128 75.8574 69.6345 75.7534 70.07C75.75 70.1033 75.7292 70.1345 75.7073 70.1674C75.6988 70.1802 75.6848 70.2012 75.6813 70.2104C75.6809 70.2154 75.6799 70.2203 75.6783 70.2252C75.6619 70.2742 75.6535 70.3331 75.6446 70.3955C75.6353 70.4605 75.6257 70.5277 75.6058 70.5873C75.4487 71.0588 75.3279 71.5369 75.2111 71.9993C75.1673 72.1727 75.122 72.3519 75.0757 72.5272C75.0684 72.5548 75.0434 72.5731 75.0161 72.5731Z" fill="#2B2B2B"/>
<path d="M77.1651 73.6245C77.9864 72.3876 78.7345 71.116 79.3587 69.7878C80.0446 68.3287 80.5954 66.7817 81.8262 65.6101C84.2701 63.2835 89.1284 62.6871 90.8093 59.9329C91.7812 58.3406 91.5101 56.2689 92.2943 54.5923C92.7633 53.5896 93.5945 52.7604 94.2542 51.8476C95.5082 50.1127 96.4381 48.1155 96.7565 46.075C95.6427 47.0005 95.9936 47.3849 94.7046 48.1759C92.8447 49.3173 90.9847 50.4586 89.1248 51.6C84.2065 54.6181 79.1034 57.8566 77.5939 62.7814C77.0512 64.5521 72.5737 68.8938 72.3009 70.7475C72.031 72.5818 75.9662 71.9344 75.2618 73.6245H77.1651Z" fill="#37514A"/>
<path d="M82.3473 73.6244C83.6537 73.2441 84.8302 72.738 85.6369 71.8581C86.8976 70.483 87.031 68.3979 88.1237 66.904C88.7772 66.0106 89.7527 65.3572 90.5761 64.5887C92.141 63.1281 93.4386 61.3478 94.1444 59.4069C92.8731 60.1003 93.1433 60.5451 91.726 61.0727C89.6809 61.8341 87.6357 62.5954 85.5906 63.3567C80.1827 65.3698 74.5509 67.5636 72.1202 72.105C71.859 72.593 71.6387 73.1026 71.4412 73.6245L82.3473 73.6244Z" fill="#435E57"/>
<path d="M67.3409 70.2505C67.3098 70.2505 67.283 70.2271 67.2797 70.1954C67.276 70.1616 67.3005 70.1312 67.3344 70.1275C67.8601 70.0713 69.8324 68.8341 72.8877 66.644C75.3875 64.8521 77.7584 63.0339 78.2295 62.6176C78.8258 62.0908 79.5291 61.6937 80.2093 61.3097C80.7393 61.0104 81.2873 60.701 81.7795 60.3329C82.6674 59.6687 83.396 58.7982 84.1006 57.9562C84.3985 57.6003 84.7065 57.2323 85.023 56.8839C86.685 55.0545 88.7372 53.5961 90.7218 52.1857C92.436 50.9675 94.2085 49.7079 95.723 48.214C95.7473 48.1902 95.7864 48.1904 95.8103 48.2146C95.8342 48.2389 95.8339 48.2779 95.8097 48.3019C94.2881 49.8026 92.5114 51.0652 90.7933 52.2863C88.814 53.6928 86.7673 55.1473 85.1143 56.9668C84.7995 57.3133 84.4923 57.6804 84.1952 58.0354C83.4861 58.8827 82.7528 59.7589 81.8534 60.4317C81.3549 60.8046 80.8034 61.1159 80.27 61.4171C79.5954 61.798 78.8977 62.1918 78.3112 62.71C77.4124 63.5042 68.665 70.1091 67.3476 70.2502C67.3453 70.2504 67.3431 70.2505 67.3409 70.2505Z" fill="#2B2B2B"/>
<path d="M72.3009 72.8497C72.2695 72.8497 72.2427 72.8259 72.2396 72.794C72.2362 72.7601 72.2611 72.7299 72.295 72.7267C75.0193 72.4615 77.7814 71.4076 80.5044 69.5943C81.524 68.9152 82.5081 68.1491 83.4598 67.4082C84.275 66.7736 85.118 66.1173 85.9811 65.5174C87.8375 64.227 89.8456 63.153 91.9494 62.3253C91.9811 62.3129 92.017 62.3285 92.0294 62.3602C92.0419 62.3918 92.0263 62.4277 91.9946 62.4401C89.8996 63.2643 87.9001 64.3337 86.0515 65.6187C85.1912 66.2166 84.3495 66.8719 83.5355 67.5056C82.5821 68.2478 81.5961 69.0154 80.5727 69.6969C79.2773 70.5596 77.9486 71.2616 76.6237 71.7834C75.1784 72.3526 73.7261 72.7113 72.3069 72.8494C72.3049 72.8496 72.3029 72.8497 72.3009 72.8497Z" fill="#2B2B2B"/>
<path d="M27.1834 51.3169C27.9429 53.4838 29.711 55.365 29.3683 57.7984C29.1954 59.026 28.4879 60.2887 28.2643 61.5219C27.5546 65.4363 31.6739 67.8845 33.4989 71.1032C33.6217 71.3197 33.7346 71.5439 33.8399 71.774H39.5884C39.5944 71.346 39.6169 70.9146 39.6589 70.4793C39.9178 67.7973 40.8956 64.9115 39.8738 62.5784C39.0957 60.802 37.2364 59.5627 36.1624 57.9197C35.0371 56.1982 34.8152 54.0339 35.5406 51.8538C35.9782 50.5384 36.7506 49.2108 36.9126 47.9148C37.2103 45.5318 35.4253 43.7121 33.7075 42.0696C31.3483 39.8138 28.9891 37.558 26.6299 35.3022C27.8322 40.0738 25.4744 46.4407 27.1834 51.3169Z" fill="#417971"/>
<path d="M27.1834 51.3169C27.9429 53.4838 29.711 55.365 29.3683 57.7984C29.1954 59.026 28.4879 60.2887 28.2643 61.5219C27.5546 65.4363 31.6739 67.8845 33.4989 71.1032C33.6217 71.3197 33.7346 71.5439 33.8399 71.774H39.5884C39.5944 71.346 39.6169 70.9146 39.6589 70.4793C39.9178 67.7973 40.8956 64.9115 39.8738 62.5784C39.0957 60.802 37.2364 59.5627 36.1624 57.9197C35.0371 56.1982 34.8152 54.0339 35.5406 51.8538C35.9782 50.5384 36.7506 49.2108 36.9126 47.9148C37.2103 45.5318 35.4253 43.7121 33.7075 42.0696C31.3483 39.8138 28.9891 37.558 26.6299 35.3022C27.8322 40.0738 25.4744 46.4407 27.1834 51.3169Z" fill="#435E57"/>
<path d="M38.6786 71.3216C38.6526 71.3216 38.6285 71.305 38.62 71.279C38.5915 71.1917 38.5652 71.0977 38.5397 71.0068C38.5028 70.8751 38.4646 70.7388 38.4178 70.6141C38.4172 70.6126 38.4167 70.611 38.4162 70.6094C38.3796 70.4811 38.315 70.363 38.2525 70.2488C38.2276 70.2033 38.2019 70.1563 38.1787 70.1098C38.1775 70.1075 38.1765 70.1051 38.1757 70.1026C37.434 67.9901 36.4468 65.9695 35.4921 64.0154C35.3071 63.6366 35.1157 63.2449 34.9287 62.858C34.9229 62.8459 34.9212 62.8322 34.9238 62.819C34.9434 62.7211 34.9113 62.6588 34.867 62.5726C34.8609 62.5608 34.8547 62.5488 34.8485 62.5364C33.7653 60.2977 33.0596 57.8655 32.56 54.6495C32.5595 54.6464 32.5592 54.6432 32.5592 54.64C32.5592 54.5763 32.5529 54.5193 32.5462 54.4589C32.5395 54.399 32.5327 54.3372 32.5324 54.2684C32.451 53.698 32.3972 53.156 32.3447 52.6048C32.3294 52.3313 32.3153 52.062 32.3013 51.7939C32.239 50.6071 32.1802 49.4862 32.0494 48.3088C31.917 47.4088 31.7599 46.5904 31.5404 45.6574C31.202 44.3524 30.7989 42.9485 30.1479 41.5332C30.1288 41.4952 30.1288 41.4635 30.1288 41.4403C30.1288 41.4232 30.1288 41.4146 30.1219 41.4007C29.6354 40.3306 29.0851 39.179 28.3521 37.9949C28.3228 37.951 28.3073 37.9122 28.2936 37.8779C28.2804 37.8451 28.2691 37.8168 28.2458 37.7818C28.2179 37.74 28.1918 37.6999 28.1666 37.6613C28.0941 37.5498 28.0314 37.4536 27.9535 37.3564C27.9508 37.353 27.9485 37.3493 27.9465 37.3455C27.9312 37.3147 27.9233 37.2911 27.9163 37.2703C27.9102 37.2519 27.9049 37.2359 27.8946 37.2148C27.4796 36.6045 27.0504 35.9735 26.5802 35.3389C26.56 35.3115 26.5657 35.2729 26.5931 35.2526C26.6205 35.2323 26.6591 35.2381 26.6794 35.2655C27.152 35.9033 27.5826 36.5366 27.999 37.1489C28.0005 37.1512 28.0019 37.1536 28.0031 37.156C28.0185 37.1868 28.0264 37.2104 28.0334 37.2313C28.0393 37.249 28.0445 37.2646 28.0541 37.2847C28.1338 37.3849 28.2 37.4865 28.27 37.594C28.295 37.6323 28.3208 37.6719 28.3485 37.7134C28.3789 37.759 28.3944 37.7979 28.4081 37.8321C28.4212 37.865 28.4326 37.8933 28.4559 37.9283C29.1937 39.12 29.746 40.2758 30.2332 41.3477C30.2522 41.3855 30.2522 41.4172 30.2522 41.4403C30.2522 41.4574 30.2522 41.466 30.2591 41.4799C30.915 42.9057 31.32 44.316 31.6601 45.6278C31.8808 46.5657 32.0385 47.3873 32.1717 48.2931C32.3032 49.4762 32.3621 50.5989 32.4245 51.7875C32.4385 52.0554 32.4526 52.3246 32.4677 52.5956C32.52 53.1442 32.5738 53.686 32.6552 54.2553C32.6556 54.2582 32.6558 54.2611 32.6558 54.2641C32.6558 54.3278 32.6621 54.3849 32.6688 54.4453C32.6754 54.5049 32.6823 54.5666 32.6826 54.6352C33.1802 57.8363 33.8824 60.2565 34.9592 62.482C34.9649 62.4932 34.9708 62.5048 34.9767 62.5162C35.0236 62.6074 35.068 62.6938 35.0485 62.8222C35.2326 63.2031 35.4208 63.5885 35.603 63.9613C36.5587 65.9174 37.5469 67.9402 38.2908 70.0581C38.3125 70.1014 38.3359 70.1443 38.3608 70.1896C38.4261 70.3091 38.4936 70.4326 38.5342 70.5731C38.5824 70.7021 38.6211 70.8401 38.6585 70.9736C38.6848 71.0674 38.7096 71.1559 38.7372 71.2408C38.7478 71.2732 38.7301 71.308 38.6977 71.3185C38.6914 71.3206 38.6849 71.3216 38.6786 71.3216Z" fill="#2B2B2B"/>
<path d="M34.8906 71.7739H38.1983C38.1552 71.5328 38.1157 71.2907 38.0799 71.0476C37.7886 69.0677 37.7358 67.0167 37.1562 65.1256C35.544 59.8658 30.0938 56.407 24.841 53.1836C22.8545 51.9646 20.8681 50.7456 18.8816 49.5266C17.5049 48.6818 17.8798 48.2713 16.6902 47.2828C17.0302 49.4622 18.0234 51.5951 19.3627 53.4481C20.0673 54.423 20.955 55.3086 21.4559 56.3794C22.2934 58.1701 22.0039 60.3827 23.0418 62.0833C24.8372 65.0249 30.0258 65.6618 32.6361 68.1466C33.7176 69.1762 34.3075 70.4771 34.8906 71.7739Z" fill="#37514A"/>
<path d="M39.6847 67.4487C39.6825 67.4487 39.6803 67.4485 39.6781 67.4483C38.6457 67.3378 37.8945 66.5602 37.168 65.8083C36.9173 65.5488 36.6582 65.2806 36.3929 65.0462C35.7662 64.4925 35.0209 64.0717 34.3002 63.6648C33.7307 63.3432 33.1417 63.0107 32.6096 62.6127C31.6494 61.8944 30.8664 60.9588 30.1092 60.054C29.7919 59.6749 29.4637 59.2828 29.1274 58.9126C27.3617 56.969 25.1756 55.4155 23.0615 53.9131C21.2267 52.6092 19.3293 51.2608 17.7044 49.6582C17.6801 49.6342 17.6799 49.5952 17.7038 49.5709C17.7277 49.5467 17.7668 49.5464 17.791 49.5703C19.4088 51.166 21.3021 52.5115 23.133 53.8126C25.2524 55.3187 27.444 56.8762 29.2187 58.8297C29.5567 59.2017 29.8856 59.5948 30.2037 59.9749C30.9564 60.8742 31.7347 61.8043 32.6835 62.5139C33.2093 62.9072 33.7947 63.2377 34.3609 63.5574C35.0872 63.9674 35.8382 64.3915 36.4746 64.9538C36.7435 65.1914 37.0044 65.4614 37.2567 65.7226C37.9679 66.4587 38.7033 67.2199 39.6912 67.3256C39.7251 67.3292 39.7496 67.3597 39.746 67.3935C39.7426 67.4252 39.7158 67.4487 39.6847 67.4487Z" fill="#2B2B2B"/>
<path d="M11.7604 69.2317C8.39004 69.1885 4.78908 69.1793 1.99222 70.1852C-0.804643 71.1911 -1.70649 74.1211 6.43305 75.1469C15.7122 76.3163 24.2957 77.0872 33.7004 77.6936C37.9255 77.9661 42.1548 78.2388 46.3996 78.3486C51.4288 78.4788 56.4605 78.38 61.4854 78.2811C72.7035 78.0605 84.1183 77.8203 94.6668 75.7972C98.7132 75.0211 102.826 72.2481 97.3848 70.5674C93.3692 69.327 84.5634 69.7058 80.1634 69.6493C65.4875 69.4611 51.3368 69.288 36.6609 69.0997C28.4134 68.9939 20.0081 69.3375 11.7604 69.2317Z" fill="#272A35"/>
<path d="M35.4096 14.0823H64.5126C65.3939 14.0823 66.1084 14.7968 66.1084 15.6781V70.6979C66.1084 71.5793 65.3939 72.2937 64.5126 72.2937H35.4096C34.5283 72.2937 33.8138 71.5793 33.8138 70.6979V15.6781C33.8138 14.7968 34.5283 14.0823 35.4096 14.0823Z" fill="#978E8E"/>
<path d="M36.0312 16.7646H63.8911C63.9466 16.7646 63.9915 16.8096 63.9915 16.8651V68.298C63.9915 68.3535 63.9466 68.3985 63.8911 68.3985H36.0312C35.9757 68.3985 35.9308 68.3535 35.9308 68.298V16.8651C35.9308 16.8096 35.9757 16.7646 36.0312 16.7646Z" fill="#F5F3F3"/>
<path d="M53.3139 15.6412H46.6083V15.8248H53.3139V15.6412Z" fill="black"/>
<path d="M66.1861 53.3476H66.0026V16.3236C66.0026 15.7437 65.7804 15.1807 65.3665 14.7746C64.9676 14.3833 64.4411 14.1681 63.8816 14.1681C63.8811 14.1681 63.8807 14.1681 63.8802 14.1681L54.3977 14.1741L54.3976 13.9906L63.8801 13.9845C63.8806 13.9845 63.8811 13.9845 63.8816 13.9845C64.4754 13.9845 65.0348 14.2075 65.4644 14.614C65.932 15.0565 66.1862 15.6795 66.1862 16.3233L66.1861 53.3476Z" fill="black"/>
<path d="M49.8577 54.2002C56.3884 54.2002 61.6826 48.9061 61.6826 42.3754C61.6826 35.8447 56.3884 30.5505 49.8577 30.5505C43.327 30.5505 38.0328 35.8447 38.0328 42.3754C38.0328 48.9061 43.327 54.2002 49.8577 54.2002Z" fill="#FFAE4D"/>
<path d="M46.768 51.9537C44.2096 51.1284 42.1256 49.3562 40.9001 46.9636C39.6745 44.5709 39.4541 41.8442 40.2793 39.2857C41.1046 36.7272 42.8768 34.6433 45.2695 33.4177C47.6621 32.1921 50.3888 31.9717 52.9473 32.797C55.5058 33.6222 57.5898 35.3944 58.8154 37.7871C60.0409 40.1798 60.2613 42.9065 59.4361 45.465C58.6108 48.0234 56.8386 50.1074 54.446 51.333C52.0532 52.5585 49.3265 52.779 46.768 51.9537Z" fill="#FFE199"/>
<path d="M40.9002 47.0253C40.8778 47.0253 40.8561 47.013 40.8452 46.9917C39.6122 44.5844 39.3904 41.841 40.2207 39.2668C41.051 36.6926 42.8341 34.5959 45.2414 33.3628C47.6487 32.1298 50.3921 31.9079 52.9663 32.7383C55.5405 33.5686 57.6372 35.3516 58.8703 37.759C58.8858 37.7893 58.8738 37.8265 58.8435 37.842C58.8132 37.8575 58.7761 37.8456 58.7605 37.8152C57.5424 35.4372 55.4712 33.6759 52.9284 32.8557C50.3857 32.0354 47.6757 32.2545 45.2976 33.4726C42.9197 34.6906 41.1583 36.7618 40.3381 39.3047C39.5179 41.8475 39.7369 44.5575 40.955 46.9354C40.9705 46.9658 40.9586 47.0029 40.9282 47.0185C40.9192 47.0231 40.9096 47.0253 40.9002 47.0253Z" fill="#07242B"/>
<path d="M53.742 40.9184C53.9795 40.1489 53.9264 39.428 53.5827 38.7562C53.2384 38.0839 52.665 37.5658 51.862 37.2009L52.2375 36.0362L51.2601 35.721L50.889 36.8711C50.0077 36.6822 49.2286 36.7538 48.5501 37.0852C47.8717 37.4166 47.4106 37.9766 47.1669 38.7657C46.9501 39.4369 46.9697 40.041 47.2251 40.5781C47.4799 41.1157 47.9544 41.6388 48.6474 42.1479C48.7239 42.2044 48.7988 42.2603 48.8709 42.3156C48.943 42.3703 49.014 42.4201 49.0849 42.4637L47.9672 45.9286C47.5251 45.6593 47.2295 45.3122 47.0803 44.8886C46.9316 44.465 46.9243 44.0263 47.0607 43.5724L45.4501 43.0532C45.169 43.9575 45.2215 44.7785 45.6082 45.5167C45.9938 46.255 46.6399 46.8284 47.5452 47.2369L47.1881 48.344L48.1656 48.6592L48.5182 47.5666C49.214 47.7382 49.8371 47.7594 50.3865 47.6298C50.9364 47.5001 51.3936 47.2637 51.758 46.9211C52.1229 46.5786 52.3822 46.1678 52.537 45.6883C52.7226 45.1132 52.7578 44.6008 52.6437 44.1514C52.5292 43.7015 52.3129 43.2986 51.9944 42.942C51.6752 42.5849 51.293 42.2451 50.847 41.921C50.7794 41.8673 50.7118 41.8165 50.6425 41.7679C50.5737 41.7193 50.5056 41.6678 50.4379 41.6147L51.4305 38.5382C51.7798 38.7673 52.0072 39.0546 52.1123 39.4005C52.2179 39.747 52.2241 40.0795 52.1319 40.3992L53.742 40.9184ZM50.8225 44.0643C51.022 44.3979 51.0454 44.8003 50.894 45.2697C50.7671 45.6626 50.5313 45.9515 50.1859 46.1365C49.8406 46.3215 49.4236 46.3668 48.9358 46.2729L49.9557 43.1097C50.3346 43.4121 50.6235 43.7301 50.8225 44.0643ZM49.5673 40.9687C49.2331 40.6915 48.9894 40.4149 48.8351 40.1371C48.6815 39.8599 48.6664 39.5296 48.7899 39.1463C48.9106 38.7729 49.1235 38.5058 49.4292 38.3449C49.7349 38.1845 50.0808 38.1291 50.467 38.1795L49.5673 40.9687Z" fill="#FFAE4D"/>
<path d="M25.1091 68.8232C25.1091 69.1702 25.2259 69.4918 25.4247 69.7562C25.4841 69.8353 25.5511 69.9092 25.6248 69.9772C25.7268 70.0721 25.8416 70.1554 25.9665 70.2246C26.2303 70.3711 26.5393 70.4554 26.869 70.4554H43.7043C44.0534 70.4554 44.3789 70.3612 44.6523 70.1988C44.8704 70.0695 45.0555 69.8967 45.1938 69.6936C45.3654 69.4416 45.4647 69.1434 45.4647 68.8232C45.4647 68.5031 45.3654 68.2045 45.1938 67.9526C45.1237 67.8498 45.0415 67.7546 44.9491 67.6689C44.8592 67.5856 44.7597 67.5112 44.6523 67.4474C44.3789 67.2849 44.0534 67.1908 43.7043 67.1908H26.8691C26.5393 67.1908 26.2303 67.2751 25.9665 67.4215C25.752 67.5404 25.5672 67.7005 25.4247 67.89C25.2887 68.071 25.1909 68.2791 25.1429 68.504C25.1208 68.6071 25.1091 68.714 25.1091 68.8232Z" fill="#FFAE4D"/>
<path d="M44.6523 67.4474V70.1987C44.8704 70.0695 45.0555 69.8967 45.1939 69.6935V67.9526C45.1238 67.8497 45.0415 67.7546 44.9491 67.6689C44.8593 67.5856 44.7597 67.5112 44.6523 67.4474Z" fill="#E0BC85"/>
<path d="M43.5917 67.1908H43.0502V70.4554H43.5917V67.1908Z" fill="#E0BC85"/>
<path d="M41.9894 67.1908H41.4476V70.4554H41.9894V67.1908Z" fill="#E0BC85"/>
<path d="M40.3871 67.1908H39.8453V70.4554H40.3871V67.1908Z" fill="#E0BC85"/>
<path d="M38.785 67.1908H38.2432V70.4554H38.785V67.1908Z" fill="#E0BC85"/>
<path d="M37.1824 67.1908H36.6409V70.4554H37.1824V67.1908Z" fill="#E0BC85"/>
<path d="M35.5801 67.1908H35.0386V70.4554H35.5801V67.1908Z" fill="#E0BC85"/>
<path d="M33.9778 67.1908H33.4363V70.4554H33.9778V67.1908Z" fill="#E0BC85"/>
<path d="M32.3755 67.1908H31.834V70.4554H32.3755V67.1908Z" fill="#E0BC85"/>
<path d="M30.7733 67.1908H30.2318V70.4554H30.7733V67.1908Z" fill="#E0BC85"/>
<path d="M29.1712 67.1908H28.6296V70.4554H29.1712V67.1908Z" fill="#E0BC85"/>
<path d="M27.5689 67.1908H27.0271V70.4554H27.5689V67.1908Z" fill="#E0BC85"/>
<path d="M25.4248 67.89V69.7562C25.4842 69.8353 25.5512 69.9092 25.6246 69.9772C25.7269 70.0721 25.8417 70.1554 25.9666 70.2246V67.4215C25.7521 67.5404 25.5672 67.7005 25.4248 67.89Z" fill="#E0BC85"/>
<path d="M26.0569 65.6425C26.0569 65.9895 26.1737 66.3111 26.3727 66.5755C26.4321 66.6546 26.4992 66.7285 26.5725 66.7966C26.6748 66.8914 26.7896 66.9748 26.9145 67.044C27.1783 67.1904 27.4873 67.2747 27.817 67.2747H44.6523C45.0014 67.2747 45.3266 67.1805 45.6003 67.0181C45.8184 66.8889 46.0035 66.7161 46.1418 66.5129C46.3135 66.261 46.4127 65.9627 46.4127 65.6425C46.4127 65.3224 46.3135 65.0239 46.1418 64.772C46.0718 64.6691 45.9895 64.574 45.8971 64.4883C45.8072 64.4049 45.7077 64.3305 45.6003 64.2667C45.3266 64.1043 45.0014 64.0101 44.6523 64.0101H27.817C27.4873 64.0101 27.1783 64.0944 26.9145 64.2408C26.7 64.3597 26.5151 64.5198 26.3727 64.7093C26.1737 64.9737 26.0569 65.2955 26.0569 65.6425Z" fill="#FFAE4D"/>
<path d="M45.6002 64.2665V67.0179C45.8183 66.8886 46.0034 66.7158 46.1417 66.5127V64.7717C46.0717 64.6689 45.9894 64.5738 45.897 64.4881C45.8072 64.4047 45.7076 64.3303 45.6002 64.2665Z" fill="#E0BC85"/>
<path d="M44.5396 64.0099H43.998V67.2745H44.5396V64.0099Z" fill="#E0BC85"/>
<path d="M42.9373 64.0099H42.3955V67.2745H42.9373V64.0099Z" fill="#E0BC85"/>
<path d="M41.335 64.0099H40.7932V67.2745H41.335V64.0099Z" fill="#E0BC85"/>
<path d="M39.7327 64.0099H39.1909V67.2745H39.7327V64.0099Z" fill="#E0BC85"/>
<path d="M38.1301 64.0099H37.5886V67.2745H38.1301V64.0099Z" fill="#E0BC85"/>
<path d="M36.528 64.0099H35.9865V67.2745H36.528V64.0099Z" fill="#E0BC85"/>
<path d="M34.9257 64.0099H34.3842V67.2745H34.9257V64.0099Z" fill="#E0BC85"/>
<path d="M33.3235 64.0099H32.782V67.2745H33.3235V64.0099Z" fill="#E0BC85"/>
<path d="M31.7212 64.0099H31.1797V67.2745H31.7212V64.0099Z" fill="#E0BC85"/>
<path d="M30.1189 64.0099H29.5774V67.2745H30.1189V64.0099Z" fill="#E0BC85"/>
<path d="M28.5166 64.0099H27.9749V67.2745H28.5166V64.0099Z" fill="#E0BC85"/>
<path d="M26.3726 64.7092V66.5753C26.432 66.6544 26.499 66.7283 26.5724 66.7964C26.6747 66.8912 26.7894 66.9746 26.9143 67.0438V64.2407C26.6998 64.3596 26.515 64.5196 26.3726 64.7092Z" fill="#E0BC85"/>
<path d="M23.4843 62.3778C23.4843 62.7248 23.6011 63.0464 23.8001 63.3107C23.8595 63.3898 23.9265 63.4638 23.9999 63.5318C24.1022 63.6267 24.217 63.71 24.3419 63.7792C24.6056 63.9256 24.9146 64.0099 25.2444 64.0099H42.0797C42.4288 64.0099 42.754 63.9158 43.0277 63.7533C43.2458 63.6241 43.4308 63.4513 43.5692 63.2481C43.7408 62.9962 43.8401 62.6979 43.8401 62.3778C43.8401 62.0576 43.7408 61.7591 43.5692 61.5072C43.4991 61.4043 43.4169 61.3092 43.3244 61.2235C43.2346 61.1402 43.1351 61.0658 43.0277 61.002C42.754 60.8395 42.4287 60.7454 42.0797 60.7454H25.2444C24.9146 60.7454 24.6056 60.8296 24.3418 60.9761C24.1273 61.095 23.9425 61.2551 23.8001 61.4446C23.601 61.7089 23.4843 62.0308 23.4843 62.3778Z" fill="#FFAE4D"/>
<path d="M43.0277 61.002V63.7534C43.2458 63.6241 43.4309 63.4513 43.5692 63.2481V61.5072C43.4992 61.4043 43.4169 61.3092 43.3245 61.2235C43.2346 61.1402 43.1351 61.0658 43.0277 61.002Z" fill="#E0BC85"/>
<path d="M41.9669 60.7454H41.4254V64.0099H41.9669V60.7454Z" fill="#E0BC85"/>
<path d="M40.3648 60.7454H39.823V64.0099H40.3648V60.7454Z" fill="#E0BC85"/>
<path d="M38.7625 60.7454H38.2207V64.0099H38.7625V60.7454Z" fill="#E0BC85"/>
<path d="M37.1602 60.7454H36.6184V64.0099H37.1602V60.7454Z" fill="#E0BC85"/>
<path d="M35.5576 60.7454H35.0161V64.0099H35.5576V60.7454Z" fill="#E0BC85"/>
<path d="M33.9553 60.7454H33.4138V64.0099H33.9553V60.7454Z" fill="#E0BC85"/>
<path d="M32.3532 60.7454H31.8116V64.0099H32.3532V60.7454Z" fill="#E0BC85"/>
<path d="M30.751 60.7454H30.2095V64.0099H30.751V60.7454Z" fill="#E0BC85"/>
<path d="M29.1486 60.7454H28.6071V64.0099H29.1486V60.7454Z" fill="#E0BC85"/>
<path d="M27.5464 60.7454H27.0049V64.0099H27.5464V60.7454Z" fill="#E0BC85"/>
<path d="M25.9441 60.7454H25.4023V64.0099H25.9441V60.7454Z" fill="#E0BC85"/>
<path d="M23.8 61.4446V63.3108C23.8595 63.3899 23.9265 63.4638 23.9999 63.5318C24.1022 63.6267 24.2169 63.71 24.3418 63.7792V60.9761C24.1273 61.095 23.9425 61.2551 23.8 61.4446Z" fill="#E0BC85"/>
<path d="M25.9216 72.0878C25.9216 72.4348 26.0384 72.7564 26.2372 73.0207C26.2966 73.0998 26.3636 73.1738 26.4373 73.2418C26.5393 73.3366 26.6541 73.42 26.779 73.4892C27.0428 73.6356 27.3518 73.7199 27.6815 73.7199H44.5168C44.8659 73.7199 45.1914 73.6258 45.4648 73.4633C45.6829 73.3341 45.868 73.1613 46.0063 72.9581C46.1779 72.7062 46.2772 72.4079 46.2772 72.0878C46.2772 71.9807 46.266 71.8761 46.245 71.7747C46.2028 71.5731 46.1206 71.3848 46.0063 71.2172C45.9362 71.1143 45.854 71.0192 45.7616 70.9335C45.6717 70.8502 45.5722 70.7758 45.4648 70.712C45.1914 70.5496 44.8659 70.4554 44.5168 70.4554H27.6815C27.3517 70.4554 27.0428 70.5397 26.779 70.6861C26.5645 70.805 26.3796 70.9651 26.2372 71.1546C26.0384 71.419 25.9216 71.7408 25.9216 72.0878Z" fill="#FFAE4D"/>
<path d="M45.4648 70.712V73.4633C45.6829 73.3341 45.868 73.1613 46.0064 72.9581V71.2172C45.9363 71.1143 45.854 71.0192 45.7616 70.9335C45.6718 70.8502 45.5722 70.7758 45.4648 70.712Z" fill="#E0BC85"/>
<path d="M44.4041 70.4554H43.8625V73.7199H44.4041V70.4554Z" fill="#E0BC85"/>
<path d="M42.8019 70.4554H42.2601V73.7199H42.8019V70.4554Z" fill="#E0BC85"/>
<path d="M41.1995 70.4554H40.6577V73.7199H41.1995V70.4554Z" fill="#E0BC85"/>
<path d="M39.5973 70.4554H39.0555V73.7199H39.5973V70.4554Z" fill="#E0BC85"/>
<path d="M37.9949 70.4554H37.4534V73.7199H37.9949V70.4554Z" fill="#E0BC85"/>
<path d="M36.3926 70.4554H35.8511V73.7199H36.3926V70.4554Z" fill="#E0BC85"/>
<path d="M34.7903 70.4554H34.2488V73.7199H34.7903V70.4554Z" fill="#E0BC85"/>
<path d="M33.188 70.4554H32.6465V73.7199H33.188V70.4554Z" fill="#E0BC85"/>
<path d="M31.5857 70.4554H31.0442V73.7199H31.5857V70.4554Z" fill="#E0BC85"/>
<path d="M29.9835 70.4554H29.442V73.7199H29.9835V70.4554Z" fill="#E0BC85"/>
<path d="M28.3813 70.4554H27.8395V73.7199H28.3813V70.4554Z" fill="#E0BC85"/>
<path d="M26.2373 71.1546V73.0208C26.2967 73.0999 26.3637 73.1738 26.4371 73.2418C26.5394 73.3367 26.6542 73.42 26.7791 73.4892V70.6861C26.5645 70.805 26.3797 70.9651 26.2373 71.1546Z" fill="#E0BC85"/>
<path d="M41.064 60.8071H28.1103C28.0762 60.8071 28.0486 60.7795 28.0486 60.7454C28.0486 60.7113 28.0762 60.6837 28.1103 60.6837H41.064C41.0981 60.6837 41.1257 60.7113 41.1257 60.7454C41.1257 60.7795 41.0981 60.8071 41.064 60.8071Z" fill="#07242B"/>
<path d="M28.8778 64.0718C28.8438 64.0718 28.8162 64.0442 28.8162 64.0101C28.8162 63.976 28.8438 63.9484 28.8778 63.9484L43.998 63.9483C44.032 63.9483 44.0596 63.9759 44.0596 64.01C44.0596 64.0441 44.032 64.0717 43.998 64.0717L28.8778 64.0718Z" fill="#07242B"/>
<path d="M41.9895 67.2525H26.8691C26.835 67.2525 26.8074 67.2249 26.8074 67.1908C26.8074 67.1568 26.835 67.1292 26.8691 67.1292H41.9895C42.0235 67.1292 42.0511 67.1568 42.0511 67.1908C42.0511 67.2249 42.0235 67.2525 41.9895 67.2525Z" fill="#07242B"/>
<path d="M44.5168 70.517H31.4505C31.4164 70.517 31.3888 70.4894 31.3888 70.4554C31.3888 70.4213 31.4164 70.3937 31.4505 70.3937H44.5168C44.5508 70.3937 44.5784 70.4213 44.5784 70.4554C44.5784 70.4894 44.5508 70.517 44.5168 70.517Z" fill="#07242B"/>
<path d="M66.2401 57.6922C67.0663 57.6922 67.7361 56.916 67.7361 55.9585C67.7361 55.001 67.0663 54.2249 66.2401 54.2249C65.4139 54.2249 64.7441 55.001 64.7441 55.9585C64.7441 56.916 65.4139 57.6922 66.2401 57.6922Z" fill="#FDD3A4"/>
<path d="M76.8466 56.5337H54.959V72.8861H76.8466V56.5337Z" fill="#D26156"/>
<path d="M63.3949 56.5348H54.9602V72.8872H63.3949V56.5348Z" fill="#BA574D"/>
<path d="M71.6889 56.5348H70.1156V72.8873H71.6889V56.5348Z" fill="#FDD3A4"/>
<path d="M76.8863 63.8231H54.9602V65.2903H76.8863V63.8231Z" fill="#FDD3A4"/>
<path d="M77.7419 55.2089L77.7417 55.2939L77.7418 55.3632L77.7404 56.3664L77.7404 56.436L77.7386 57.9003L75.5533 57.9002L75.4769 57.9001L74.349 57.9001H74.2713L68.7638 57.8996L68.7637 57.8997L68.6738 57.8996L67.9505 57.8996L67.8731 57.8995L67.3222 57.8994L67.2428 57.8994L66.5821 57.8995L66.5057 57.8994L65.7096 57.8994L65.6317 57.8994L64.5378 57.8993H64.4595L58.0267 57.8987C58.0267 57.8987 58.0267 57.8987 58.0266 57.8987L57.9026 57.8987L57.9024 57.8988L56.3664 57.8986L56.3663 57.8986L56.2801 57.8986L55.7897 57.8986L55.7119 57.8986L55.1903 57.8986L55.1902 57.8986L55.0986 57.8984L54.1365 57.8985L54.1364 57.8985L54.0243 57.8984L53.8639 57.8984L53.8652 56.7524L53.8652 56.7523L53.8653 56.674L53.867 55.207L59.228 55.2075L59.3084 55.2075L59.3085 55.2075L60.6787 55.2076L60.6789 55.2075L60.7548 55.2076L62.6786 55.2077L62.7549 55.2079L63.9546 55.2079L64.0411 55.2079L65.7409 55.2079L65.8514 55.2081L67.6455 55.2082H67.741L69.4215 55.2083L69.5168 55.2083L70.6562 55.2085L70.7332 55.2084L72.4514 55.2086L72.5352 55.2085L74.2163 55.2086L74.303 55.2087L77.7419 55.2089Z" fill="#D26156"/>
<path d="M63.0529 57.899L53.8639 57.8982L53.867 55.2068L63.056 55.2075L63.0529 57.899Z" fill="#BA574D"/>
<path d="M76.3475 58.0241C76.3474 58.0241 76.3474 58.0241 76.3473 58.0241L55.0305 57.9573C54.9964 57.9572 54.9689 57.9295 54.969 57.8954C54.9691 57.8614 54.9967 57.8339 55.0307 57.8339C55.0308 57.8339 55.0308 57.8339 55.0309 57.8339L76.3477 57.9008C76.3818 57.9009 76.4093 57.9286 76.4092 57.9626C76.4091 57.9966 76.3815 58.0241 76.3475 58.0241Z" fill="#07242B"/>
<path d="M63.3949 72.7918C63.3609 72.7918 63.3333 72.7642 63.3333 72.7301V59.3147C63.3333 59.2806 63.3609 59.253 63.3949 59.253C63.429 59.253 63.4566 59.2806 63.4566 59.3147V72.7301C63.4566 72.7642 63.429 72.7918 63.3949 72.7918Z" fill="#07242B"/>
<path d="M66.4631 54.2248C66.3081 50.2745 68.3472 46.6682 71.1351 48.5515C74.9931 51.6954 72.2768 53.6855 67.5873 55.3293L66.4631 54.2248Z" fill="#FDD3A4"/>
<path d="M64.9038 55.1555C60.2914 54.1764 56.72 50.7615 59.7147 48.0906C64.4807 44.5524 66.0292 48.4111 66.5545 54.3147L64.9038 55.1555Z" fill="#FDD3A4"/>
<path d="M65.7926 54.7593C71.9183 54.4514 73.8469 55.4467 73.8469 55.4467C73.8469 55.4467 76.9462 56.752 76.9904 58.3774C76.991 58.4 76.968 58.4155 76.9472 58.4065C75.0986 57.6076 73.8867 58.1305 73.2206 59.786C73.1965 59.8458 73.1068 59.8282 73.1076 59.7636C73.1425 57.0318 69.3651 55.9396 65.7926 54.7593Z" fill="#FDD3A4"/>
<path d="M66.2401 55.0287C64.6692 54.743 63.1824 54.6261 61.8145 54.7483C60.6738 54.8502 59.5704 55.2092 58.5926 55.8054C57.4967 56.4735 56.4164 57.3714 56.1503 57.9959C56.1302 58.0429 56.1753 58.0915 56.2238 58.0754C57.6532 57.6014 59.7076 57.2152 60.3173 58.2796C60.3539 58.3435 60.4511 58.3221 60.4582 58.2488C60.6526 56.2483 63.5188 55.6773 66.2401 55.0287Z" fill="#FDD3A4"/>
<path d="M66.489 53.1981C66.4885 53.1981 66.4881 53.1981 66.4877 53.1981C66.4536 53.1974 66.4266 53.1692 66.4273 53.1352C66.4572 51.6353 66.8917 50.2125 67.6509 49.1289C68.1006 48.4869 68.6729 48.0983 69.3059 48.005C70.1907 47.8748 71.1524 48.3115 71.9449 49.2035C71.9675 49.2289 71.9652 49.2679 71.9397 49.2905C71.9143 49.3131 71.8753 49.3109 71.8526 49.2854C71.0883 48.4251 70.1666 48.0028 69.3238 48.1271C68.5676 48.2385 68.0516 48.7719 67.7519 49.1997C67.0067 50.2635 66.5801 51.662 66.5506 53.1376C66.5499 53.1713 66.5224 53.1981 66.489 53.1981Z" fill="#07242B"/>
<path d="M65.8845 50.4198C65.8547 50.4198 65.8285 50.3982 65.8237 50.3678C65.7849 50.1239 65.407 47.9606 64.0873 47.1173C63.5369 46.7657 62.8919 46.691 62.1702 46.8955C62.1374 46.9048 62.1033 46.8858 62.094 46.853C62.0847 46.8202 62.1038 46.7861 62.1365 46.7768C62.8936 46.5623 63.5723 46.6419 64.1537 47.0134C64.6859 47.3534 65.1295 47.9295 65.4722 48.7256C65.7891 49.4621 65.9146 50.1539 65.9455 50.3484C65.9508 50.3821 65.9279 50.4137 65.8943 50.419C65.891 50.4195 65.8877 50.4198 65.8845 50.4198Z" fill="#07242B"/>
<path d="M64.2074 55.0679C64.2016 55.0679 64.1956 55.0671 64.1897 55.0653C62.3767 54.5247 60.7749 53.6074 59.5573 52.4128C59.533 52.3889 59.5326 52.3499 59.5565 52.3256C59.5803 52.3013 59.6194 52.3009 59.6437 52.3248C60.847 53.5054 62.4312 54.4122 64.225 54.9471C64.2576 54.9569 64.2762 54.9912 64.2665 55.0239C64.2585 55.0506 64.234 55.0679 64.2074 55.0679Z" fill="#07242B"/>
<path d="M66.6262 54.4784C66.5993 54.4784 66.5746 54.4607 66.5669 54.4336C66.5129 54.2438 66.4272 53.6732 66.4272 52.9499C66.4272 52.9158 66.4549 52.8882 66.4889 52.8882C66.523 52.8882 66.5506 52.9158 66.5506 52.9499C66.5506 53.6228 66.6295 54.2029 66.6856 54.3998C66.6949 54.4326 66.6759 54.4667 66.6431 54.476C66.6375 54.4776 66.6318 54.4784 66.6262 54.4784Z" fill="#07242B"/>
<path d="M73.7192 55.453C73.7119 55.453 73.7045 55.4517 73.6973 55.449C71.9765 54.7957 69.9411 54.8143 68.1451 54.8306C68.0519 54.8314 67.9592 54.8323 67.8671 54.833C67.867 54.833 67.8668 54.833 67.8666 54.833C67.8328 54.833 67.8052 54.8058 67.8049 54.7719C67.8047 54.7378 67.832 54.71 67.8661 54.7097C67.9581 54.7089 68.0507 54.7081 68.1439 54.7072C69.9507 54.6908 71.9986 54.6721 73.7411 55.3336C73.7729 55.3457 73.789 55.3814 73.7768 55.4132C73.7675 55.4378 73.7441 55.453 73.7192 55.453Z" fill="#07242B"/>
<path d="M73.1077 59.8253C73.0736 59.8253 73.046 59.7978 73.046 59.7637C73.0458 59.047 72.6457 58.199 72.0268 57.6032C71.1101 56.7206 69.4739 56.1142 68.3912 55.713C68.0284 55.5785 67.7419 55.4723 67.5605 55.3849C67.5299 55.37 67.517 55.3332 67.5318 55.3025C67.5466 55.2718 67.5835 55.2589 67.6141 55.2737C67.7902 55.3587 68.0743 55.464 68.4341 55.5973C69.5264 56.0021 71.1771 56.6139 72.1124 57.5143C72.7542 58.1322 73.1691 59.0151 73.1693 59.7636C73.1693 59.7977 73.1417 59.8253 73.1077 59.8253Z" fill="#07242B"/>
<path d="M67.6011 53.927C67.5704 53.927 67.5437 53.904 67.5399 53.8727C67.4517 53.146 67.676 52.3675 68.2456 51.4228C68.7334 50.6138 69.29 49.9445 69.9 49.4335C69.9262 49.4116 69.9651 49.4151 69.9869 49.4412C70.0088 49.4673 70.0054 49.5062 69.9792 49.5281C69.3797 50.0303 68.832 50.6892 68.3512 51.4865C67.7966 52.4064 67.5777 53.1599 67.6624 53.8579C67.6665 53.8917 67.6424 53.9224 67.6086 53.9265C67.6061 53.9268 67.6036 53.927 67.6011 53.927Z" fill="#07242B"/>
<path d="M68.6227 53.8724C68.6186 53.8724 68.6144 53.8719 68.6102 53.871C68.5768 53.8642 68.5553 53.8316 68.5622 53.7982C68.7356 52.9553 69.1874 52.1785 69.8342 51.6109C69.8598 51.5884 69.8988 51.591 69.9213 51.6166C69.9437 51.6422 69.9412 51.6812 69.9156 51.7036C69.2888 52.2536 68.8511 53.0063 68.683 53.8231C68.677 53.8523 68.6513 53.8724 68.6227 53.8724Z" fill="#07242B"/>
<path d="M65.087 52.8646C65.0596 52.8646 65.0346 52.8463 65.0273 52.8186C64.6629 51.4297 63.9852 50.1119 63.0675 49.0075C63.0457 48.9813 63.0493 48.9425 63.0755 48.9207C63.1016 48.8989 63.1406 48.9025 63.1624 48.9287C64.0916 50.0468 64.7777 51.3811 65.1467 52.7873C65.1553 52.8202 65.1356 52.8539 65.1027 52.8626C65.0974 52.864 65.0921 52.8646 65.087 52.8646Z" fill="#07242B"/>
<path d="M63.722 53.1931C63.6933 53.1931 63.6676 53.173 63.6616 53.1438C63.4981 52.3486 63.1442 51.5928 62.6382 50.958C62.617 50.9314 62.6214 50.8926 62.648 50.8713C62.6747 50.85 62.7134 50.8545 62.7347 50.8811C63.2527 51.531 63.615 52.3048 63.7825 53.1189C63.7893 53.1523 63.7678 53.1849 63.7345 53.1918C63.7303 53.1927 63.7261 53.1931 63.722 53.1931Z" fill="#07242B"/>
<path d="M56.1503 58.0576C56.1402 58.0576 56.1299 58.0551 56.1204 58.0499C56.0906 58.0334 56.0799 57.9958 56.0964 57.9661C56.4601 57.31 57.2493 56.5768 58.2617 55.9544C59.3441 55.2889 60.5245 54.8471 61.5852 54.7102C61.6193 54.7061 61.65 54.7297 61.6543 54.7635C61.6587 54.7973 61.6348 54.8282 61.601 54.8325C60.5572 54.9673 59.3942 55.403 58.3263 56.0595C57.3461 56.6621 56.5528 57.3972 56.2043 58.0259C56.193 58.0462 56.172 58.0576 56.1503 58.0576Z" fill="#07242B"/>
<path d="M58.8871 56.9681C58.8759 56.9681 58.8645 56.965 58.8544 56.9587C58.8255 56.9406 58.8168 56.9025 58.8349 56.8737C59.1926 56.3027 59.7683 55.8653 60.4142 55.6738C60.4469 55.6641 60.4812 55.6827 60.4909 55.7154C60.5006 55.7481 60.482 55.7823 60.4493 55.792C59.8317 55.9752 59.2814 56.3933 58.9394 56.9391C58.9277 56.9578 58.9076 56.9681 58.8871 56.9681Z" fill="#07242B"/>
<path d="M60.4582 58.3106C60.4241 58.3106 60.3965 58.283 60.3965 58.2489C60.3965 57.5188 60.9891 56.9701 61.5054 56.5737C61.9816 56.208 62.5124 55.9573 63.2803 55.7356C63.3131 55.7262 63.3473 55.745 63.3567 55.7777C63.3662 55.8105 63.3473 55.8446 63.3145 55.8541C62.5623 56.0713 62.0437 56.3158 61.5805 56.6715C61.0867 57.0507 60.5198 57.5727 60.5199 58.2489C60.5198 58.283 60.4922 58.3106 60.4582 58.3106Z" fill="#07242B"/>
<path d="M75.8418 57.5805C75.8241 57.5805 75.8066 57.573 75.7944 57.5583C75.2931 56.9557 74.6491 56.4698 73.932 56.1532C73.9009 56.1394 73.8868 56.103 73.9005 56.0719C73.9143 56.0407 73.9508 56.0266 73.9819 56.0404C74.7163 56.3646 75.3758 56.8622 75.8893 57.4794C75.911 57.5056 75.9075 57.5445 75.8813 57.5663C75.8697 57.5759 75.8557 57.5805 75.8418 57.5805Z" fill="#07242B"/>
<path d="M73.8191 58.0643C73.8166 58.0643 73.8139 58.0641 73.8113 58.0638C73.7775 58.0595 73.7536 58.0286 73.7579 57.9948C73.8205 57.5017 73.4939 57.05 73.2089 56.758C72.7846 56.3232 72.2572 55.9874 71.6837 55.787C71.6515 55.7758 71.6346 55.7406 71.6458 55.7084C71.657 55.6763 71.6922 55.6594 71.7244 55.6706C72.3158 55.8772 72.8596 56.2234 73.2972 56.6718C73.6012 56.9833 73.9492 57.4684 73.8803 58.0103C73.8763 58.0415 73.8497 58.0643 73.8191 58.0643Z" fill="#07242B"/>
<path d="M81.8029 64.3293C82.3001 64.3293 82.7032 63.8622 82.7032 63.286C82.7032 62.7097 82.3001 62.2426 81.8029 62.2426C81.3057 62.2426 80.9026 62.7097 80.9026 63.286C80.9026 63.8622 81.3057 64.3293 81.8029 64.3293Z" fill="#BA574D"/>
<path d="M87.5499 63.7173H74.2198V73.6764H87.5499V63.7173Z" fill="#FFAE4D"/>
<path d="M79.3574 63.718H74.2205V73.6771H79.3574V63.718Z" fill="#F9A141"/>
<path d="M84.4087 63.718H83.4506V73.6771H84.4087V63.718Z" fill="#F0EBEB"/>
<path d="M87.574 68.1568H74.2205V69.0503H87.574V68.1568Z" fill="#F0EBEB"/>
<path d="M88.0952 62.9105L88.0951 62.9622L88.0951 63.0044L88.0942 63.6154V63.6578L88.0932 64.5496L86.7622 64.5495L86.7157 64.5495L86.0288 64.5494H85.9815L82.6273 64.5492L82.6272 64.5492L82.5725 64.5491H82.1319L82.0848 64.5491L81.7493 64.549L81.7009 64.5491H81.2986L81.252 64.549L80.7672 64.549L80.7197 64.549L80.0535 64.549H80.0058L76.0881 64.5486L76.088 64.5486H76.0125L76.0124 64.5487L75.077 64.5486L75.0769 64.5486L75.0244 64.5486L74.7257 64.5485H74.6783L74.3607 64.5485L74.3606 64.5485L74.3048 64.5484L73.7189 64.5485L73.7188 64.5485L73.6505 64.5484H73.5529L73.5537 63.8505L73.5537 63.8504L73.5537 63.8027L73.5548 62.9093L76.8197 62.9096H76.8687L76.8688 62.9096L77.7033 62.9096L77.7033 62.9096L77.7496 62.9096L78.9212 62.9097L78.9677 62.9098L79.6983 62.9098L79.751 62.9098L80.7863 62.9098L80.8536 62.9099L81.9462 62.91H82.0043L83.0278 62.9101L83.0859 62.9101L83.7798 62.9102L83.8267 62.9101L84.8731 62.9102L84.9241 62.9102L85.948 62.9103L86.0007 62.9103L88.0952 62.9105Z" fill="#FFAE4D"/>
<path d="M79.1492 64.5489L73.5529 64.5484L73.5548 62.9092L79.1511 62.9097L79.1492 64.5489Z" fill="#F9A141"/>
<path d="M87.2461 64.6492C87.246 64.6492 87.246 64.6492 87.2459 64.6492L74.2634 64.6085C74.2293 64.6084 74.2018 64.5807 74.2019 64.5466C74.202 64.5126 74.2296 64.4851 74.2636 64.4851C74.2637 64.4851 74.2637 64.4851 74.2638 64.4851L87.2463 64.5258C87.2803 64.5259 87.3078 64.5536 87.3077 64.5877C87.3077 64.6217 87.2801 64.6492 87.2461 64.6492Z" fill="#07242B"/>
<path d="M79.3575 73.6431C79.3234 73.6431 79.2958 73.6155 79.2958 73.5814V65.411C79.2958 65.377 79.3234 65.3494 79.3575 65.3494C79.3915 65.3494 79.4191 65.377 79.4191 65.411V73.5814C79.4191 73.6155 79.3915 73.6431 79.3575 73.6431Z" fill="#07242B"/>
<path d="M81.9371 62.2426C81.8438 59.8653 83.071 57.6949 84.7488 58.8283C87.0705 60.7204 85.4359 61.9181 82.6137 62.9073L81.9371 62.2426Z" fill="#F0EBEB"/>
<path d="M80.9987 62.8027C78.223 62.2134 76.0736 60.1583 77.8759 58.5509C80.7441 56.4215 81.676 58.7438 81.9921 62.2966L80.9987 62.8027Z" fill="#F0EBEB"/>
<path d="M81.5336 62.5643C85.2201 62.3789 86.3807 62.9779 86.3807 62.9779C86.3807 62.9779 88.246 63.7635 88.2725 64.7416C88.2729 64.7552 88.259 64.7646 88.2466 64.7592C87.134 64.2784 86.4047 64.5931 86.0038 65.5894C85.9893 65.6254 85.9353 65.6148 85.9358 65.5759C85.9569 63.9319 83.6836 63.2746 81.5336 62.5643Z" fill="#F0EBEB"/>
<path d="M81.8029 62.7264C80.8575 62.5545 79.9627 62.4841 79.1395 62.5576C78.4531 62.619 77.789 62.835 77.2005 63.1938C76.5411 63.5959 75.8909 64.1363 75.7307 64.5121C75.7187 64.5404 75.7458 64.5696 75.775 64.5599C76.6352 64.2746 77.8716 64.0423 78.2385 64.6828C78.2605 64.7213 78.319 64.7084 78.3233 64.6643C78.4403 63.4603 80.1652 63.1167 81.8029 62.7264Z" fill="#F0EBEB"/>
<path d="M81.9526 61.6493C81.9521 61.6493 81.9517 61.6493 81.9513 61.6492C81.9172 61.6486 81.8902 61.6204 81.8909 61.5863C81.9089 60.6789 82.1721 59.8179 82.6317 59.1617C82.9063 58.7697 83.2564 58.5323 83.6442 58.4751C84.1848 58.3957 84.7718 58.6613 85.2544 59.2044C85.277 59.2299 85.2747 59.2688 85.2492 59.2915C85.2238 59.3141 85.1848 59.3118 85.1621 59.2863C84.7078 58.7749 84.1612 58.5236 83.6622 58.5972C83.2158 58.663 82.9103 58.979 82.7328 59.2325C82.287 59.8688 82.0318 60.7056 82.0142 61.5888C82.0136 61.6224 81.9861 61.6493 81.9526 61.6493Z" fill="#07242B"/>
<path d="M81.5888 59.9773C81.559 59.9773 81.5328 59.9556 81.528 59.9253C81.5049 59.7796 81.2792 58.4876 80.494 57.9859C80.169 57.7782 79.7875 57.7343 79.3602 57.8554C79.3275 57.8646 79.2934 57.8456 79.2841 57.8128C79.2748 57.7801 79.2939 57.7459 79.3266 57.7367C79.7892 57.6056 80.2044 57.6545 80.5605 57.8819C81.391 58.4126 81.6258 59.7546 81.6498 59.9059C81.6552 59.9395 81.6322 59.9711 81.5986 59.9765C81.5953 59.977 81.592 59.9773 81.5888 59.9773Z" fill="#07242B"/>
<path d="M80.5795 62.7746C80.5737 62.7746 80.5677 62.7737 80.5619 62.772C79.467 62.4455 78.4994 61.8914 77.7638 61.1696C77.7395 61.1458 77.7391 61.1067 77.763 61.0824C77.7869 61.0581 77.826 61.0578 77.8502 61.0816C78.5716 61.7894 79.5214 62.333 80.5971 62.6538C80.6298 62.6635 80.6483 62.6979 80.6386 62.7305C80.6306 62.7572 80.6061 62.7746 80.5795 62.7746Z" fill="#07242B"/>
<path d="M82.0353 62.4198C82.0084 62.4198 81.9837 62.4021 81.976 62.375C81.9431 62.2596 81.891 61.9133 81.891 61.4753C81.891 61.4412 81.9186 61.4136 81.9527 61.4136C81.9867 61.4136 82.0144 61.4412 82.0144 61.4753C82.0144 61.8781 82.0613 62.2241 82.0946 62.3412C82.104 62.374 82.085 62.4081 82.0522 62.4174C82.0466 62.419 82.0409 62.4198 82.0353 62.4198Z" fill="#07242B"/>
<path d="M86.304 63.0063C86.2967 63.0063 86.2893 63.005 86.282 63.0022C85.2507 62.6108 84.0281 62.622 82.9494 62.6317L82.7823 62.6332C82.7821 62.6332 82.782 62.6332 82.7818 62.6332C82.7479 62.6332 82.7204 62.6059 82.7201 62.572C82.7198 62.5379 82.7472 62.5101 82.7813 62.5098L82.9482 62.5083C84.0378 62.4985 85.2727 62.4872 86.3258 62.8869C86.3577 62.899 86.3737 62.9346 86.3616 62.9665C86.3523 62.9911 86.3288 63.0063 86.304 63.0063Z" fill="#07242B"/>
<path d="M85.9358 65.6376C85.9017 65.6376 85.8741 65.61 85.8741 65.5759C85.874 65.0812 85.5606 64.5885 85.2673 64.2924C84.9599 63.982 84.5009 63.7616 84.0959 63.5671L84.0082 63.5249C83.3649 63.2146 82.6895 62.9614 82.0007 62.7724C81.9678 62.7633 81.9485 62.7294 81.9575 62.6965C81.9665 62.6637 82.0004 62.6444 82.0334 62.6534C82.7293 62.8444 83.4118 63.1003 84.0618 63.4138L84.1493 63.4559C84.5633 63.6547 85.0325 63.88 85.3549 64.2056C85.6655 64.5192 85.9973 65.0438 85.9975 65.5759C85.9975 65.61 85.9699 65.6376 85.9358 65.6376Z" fill="#07242B"/>
<path d="M82.6218 62.088C82.5911 62.088 82.5645 62.065 82.5607 62.0337C82.5069 61.5906 82.6429 61.1172 82.9887 60.5436C83.2836 60.0545 83.6204 59.6496 83.9896 59.3403C84.0157 59.3184 84.0546 59.3219 84.0765 59.348C84.0984 59.3741 84.0949 59.413 84.0688 59.4349C83.7101 59.7354 83.3822 60.1298 83.0943 60.6073C82.7635 61.156 82.6328 61.6045 82.6831 62.0189C82.6872 62.0527 82.6631 62.0834 82.6293 62.0875C82.6268 62.0878 82.6243 62.088 82.6218 62.088Z" fill="#07242B"/>
<path d="M83.2367 62.0551C83.2326 62.0551 83.2284 62.0546 83.2242 62.0538C83.1908 62.0469 83.1693 62.0143 83.1762 61.9809C83.2817 61.4684 83.5563 60.9962 83.9496 60.6511C83.9751 60.6286 84.0142 60.6311 84.0366 60.6567C84.0591 60.6823 84.0565 60.7213 84.031 60.7438C83.6577 61.0713 83.3971 61.5194 83.297 62.0058C83.2911 62.035 83.2654 62.0551 83.2367 62.0551Z" fill="#07242B"/>
<path d="M81.1089 61.4486C81.0816 61.4486 81.0566 61.4303 81.0493 61.4026C80.8309 60.5702 80.4248 59.7804 79.8747 59.1185C79.8529 59.0923 79.8565 59.0534 79.8827 59.0316C79.9089 59.0099 79.9478 59.0134 79.9696 59.0397C80.5311 59.7153 80.9457 60.5215 81.1687 61.3713C81.1773 61.4042 81.1576 61.4379 81.1247 61.4466C81.1194 61.4479 81.1141 61.4486 81.1089 61.4486Z" fill="#07242B"/>
<path d="M80.2874 61.6462C80.2587 61.6462 80.233 61.6262 80.227 61.597C80.1294 61.1222 79.9181 60.6709 79.616 60.2919C79.5948 60.2652 79.5991 60.2264 79.6258 60.2052C79.6524 60.1839 79.6912 60.1883 79.7125 60.215C80.0266 60.6091 80.2464 61.0784 80.3479 61.5721C80.3547 61.6055 80.3332 61.6381 80.2999 61.6449C80.2957 61.6458 80.2915 61.6462 80.2874 61.6462Z" fill="#07242B"/>
<path d="M75.7306 64.5738C75.7205 64.5738 75.7102 64.5713 75.7007 64.5661C75.6709 64.5496 75.6602 64.512 75.6767 64.4823C75.8976 64.0839 76.3757 63.6393 76.9884 63.2626C77.6428 62.8604 78.3565 62.5932 78.9983 62.5104C79.0323 62.5061 79.063 62.5299 79.0674 62.5637C79.0717 62.5975 79.0479 62.6284 79.0141 62.6327C77.6758 62.8055 76.2053 63.7832 75.7846 64.5421C75.7733 64.5624 75.7523 64.5738 75.7306 64.5738Z" fill="#07242B"/>
<g opacity="0.15">
<path d="M85.4927 25.7336C85.1137 26.0553 84.9216 26.4575 84.9171 26.9411C84.9125 27.4235 85.0843 27.9178 85.4322 28.4228C85.7437 28.8757 86.0952 29.1921 86.488 29.372C86.8802 29.5525 87.4046 29.5841 88.0625 29.4658L88.6937 30.3815L89.1903 31.1031C88.8991 31.1068 88.6156 30.9627 88.3415 30.6702C88.3371 30.6661 88.3328 30.6621 88.329 30.6574L87.5822 31.2695C87.9282 31.656 88.2918 31.9153 88.6723 32.0481C89.0529 32.181 89.4379 32.1745 89.8273 32.0288L90.1131 32.4431L90.596 32.1719L90.3108 31.757C90.3272 31.7443 90.3435 31.7316 90.3598 31.7189C90.6765 31.4612 90.843 31.122 90.8567 30.7024C90.8721 30.2624 90.7227 29.8129 90.4074 29.3553C90.0954 28.903 89.7296 28.5758 89.3081 28.373C88.8867 28.1703 88.4045 28.1128 87.8617 28.2016L87.6719 27.9254L86.653 26.4461C86.679 26.4469 86.7061 26.4487 86.7328 26.4524C86.8822 26.4697 87.0446 26.5243 87.2217 26.6144C87.4308 26.7213 87.63 26.8767 87.8196 27.0801L87.8302 27.0724L88.6082 26.4741C88.6076 26.4735 88.6076 26.4735 88.607 26.4729C88.1618 25.9605 87.716 25.6222 87.269 25.4548C86.8214 25.2881 86.3853 25.2834 85.9609 25.4408L85.9327 25.3998L85.4367 24.6789L84.9532 24.9507L85.4927 25.7336ZM86.8122 27.65L87.2544 28.2926C87.005 28.3325 86.7897 28.3089 86.6086 28.2232C86.428 28.1368 86.273 28 86.1442 27.8134C86 27.6045 85.9268 27.3927 85.9245 27.179C85.9222 26.9654 85.9902 26.7922 86.1297 26.6594L86.4931 27.1866L86.8122 27.65ZM88.6837 29.3947C88.7096 29.3942 88.7355 29.395 88.7609 29.3963C88.9285 29.4038 89.0813 29.4449 89.2182 29.5211C89.3771 29.6083 89.5072 29.7257 89.6091 29.8738C89.7206 30.0353 89.7837 30.2054 89.7983 30.383C89.813 30.5606 89.7743 30.7145 89.6815 30.8442L89.5982 30.7236L88.6837 29.3947Z" fill="black"/>
</g>
<path d="M92.7053 33.3648C94.8226 31.5244 94.5243 27.7145 92.039 24.8553C89.5536 21.996 85.8224 21.1701 83.7051 23.0105C81.5878 24.8509 81.8861 28.6608 84.3714 31.52C86.8567 34.3793 90.5879 35.2052 92.7053 33.3648Z" fill="#FFE199"/>
<path d="M84.1234 32.7871C87.6804 36.1734 90.8547 35.5834 92.9693 33.2293L92.9854 33.2118C93.2166 32.9529 93.3989 32.6629 93.5357 32.3484C93.5363 32.3478 93.5362 32.3466 93.5368 32.346C94.5284 30.0706 93.1524 26.5132 90.7042 24.2345C88.2384 21.941 84.5713 22.7502 83.7545 22.9697C83.7545 22.9697 83.7539 22.9703 83.7533 22.9698C83.6461 22.9983 83.5879 23.0164 83.5879 23.0164C83.5258 23.0726 83.465 23.1299 83.4066 23.1871C80.0924 26.3817 81.4133 30.2063 84.1234 32.7871ZM85.0728 31.4345C82.9409 29.4515 82.3017 26.44 83.647 24.7199C84.9922 22.9999 88.3621 22.74 90.4934 24.7225C92.6247 26.705 93.7629 30.1604 92.4176 31.8804C91.0723 33.6004 87.2036 33.4176 85.0728 31.4345Z" fill="#F9A141"/>
<path d="M83.4065 23.1871C83.3177 23.2799 83.2333 23.3779 83.1521 23.4813C81.3925 25.7309 82.2289 29.6727 85.0178 32.267C87.6577 34.7242 91.1152 35.1054 92.9692 33.2293C93.0737 33.1232 93.1726 33.0107 93.2663 32.8912C95.0265 30.641 94.1901 26.6992 91.4018 24.1055C88.7407 21.6299 85.2495 21.2615 83.4065 23.1871ZM90.3104 32.8643C88.917 33.1609 87.1889 32.6248 85.7699 31.3049C83.6386 29.3224 82.9993 26.3097 84.3452 24.5902C85.6899 22.8708 88.5179 23.0845 90.6492 25.0669C91.9653 26.2919 92.7126 27.9093 92.7746 29.3725L90.3104 32.8643ZM92.7746 29.3725C92.8129 30.2781 92.5888 31.1246 92.0745 31.7821C91.6251 32.3568 91.0099 32.7155 90.3104 32.8643L92.7746 29.3725Z" fill="#FFAE4D"/>
<path d="M85.9327 25.3998C85.5847 25.7141 85.4082 26.102 85.404 26.5639C85.3995 27.0474 85.5713 27.5417 85.9192 28.0467C86.2307 28.4996 86.5822 28.8161 86.975 28.9959C87.3666 29.1758 87.8916 29.2069 88.5495 29.0897L88.7609 29.3963L89.6773 30.727C89.6508 30.7269 89.6249 30.7261 89.5983 30.7236C89.3296 30.7029 89.0688 30.5555 88.816 30.2813L88.6937 30.3815L88.3416 30.6701L88.0692 30.8934C88.4152 31.2799 88.7787 31.5392 89.1587 31.6714C89.5393 31.8042 89.9249 31.7972 90.3143 31.6527L90.3598 31.7188L90.6001 32.067L91.083 31.7958L90.7972 31.3803C91.1468 31.1183 91.329 30.767 91.3437 30.3263C91.359 29.8862 91.2097 29.4367 90.8937 28.9786C90.5823 28.5269 90.2159 28.199 89.7945 27.9963C89.373 27.7936 88.8915 27.7366 88.348 27.8249L87.8301 27.0724L87.14 26.07C87.3099 26.075 87.4995 26.1315 87.7087 26.2383C87.9178 26.3451 88.1169 26.5006 88.3066 26.704L88.6069 26.4729L89.0952 26.0979C88.6493 25.585 88.2035 25.2454 87.7559 25.0787C87.3083 24.912 86.8723 24.9073 86.4478 25.0647L85.923 24.3022L85.4401 24.5746L85.9797 25.3576C85.9635 25.3715 85.9478 25.3848 85.9327 25.3998ZM90.1686 30.4681L89.1708 29.0186C89.3687 29.0158 89.5474 29.0577 89.7052 29.145C89.8641 29.2323 89.9942 29.3497 90.0961 29.4977C90.2076 29.6592 90.2707 29.8293 90.2854 30.0069C90.3 30.1845 90.2613 30.3384 90.1686 30.4681ZM87.0956 27.8471C86.993 27.7978 86.8982 27.7325 86.8123 27.6501C86.7465 27.5884 86.6869 27.5174 86.6312 27.4373C86.5736 27.3542 86.5279 27.2707 86.4932 27.1866C86.4397 27.06 86.4127 26.9311 86.4109 26.8024C86.4086 26.5888 86.4772 26.4162 86.6168 26.2833L86.7328 26.4525L87.7414 27.9165C87.7181 27.9205 87.6948 27.9233 87.672 27.9254C87.4515 27.9514 87.2596 27.9251 87.0956 27.8471Z" fill="#FFAE4D"/>
<g opacity="0.15">
<path d="M31.048 7.78117L30.6401 7.55188L30.2217 8.16002L30.1979 8.19459C29.8399 8.06182 29.4721 8.06577 29.0945 8.20641C28.7174 8.34759 28.3413 8.633 27.9658 9.06523C27.9653 9.06572 27.9653 9.06572 27.9648 9.06619L28.6211 9.57093L28.63 9.57739C28.79 9.40584 28.958 9.27473 29.1344 9.18459C29.2838 9.10858 29.4208 9.06249 29.5468 9.04795C29.5693 9.04482 29.5922 9.04324 29.6141 9.04265L28.7546 10.2905L28.5946 10.5235C28.1366 10.4485 27.7299 10.4971 27.3744 10.6681C27.0189 10.8391 26.7103 11.1151 26.4471 11.4967C26.1811 11.8827 26.0551 12.2618 26.068 12.6331C26.0797 12.987 26.2201 13.2732 26.4872 13.4905C26.501 13.5012 26.5148 13.512 26.5285 13.5227L26.288 13.8727L26.6953 14.1014L26.9364 13.752C27.2649 13.8749 27.5897 13.8803 27.9107 13.7683C28.2318 13.6563 28.5385 13.4375 28.8303 13.1115L28.2004 12.5951C28.1972 12.5991 28.1935 12.6025 28.1898 12.6059C27.9586 12.8527 27.7194 12.9742 27.4737 12.9711L27.8927 12.3624L28.4251 11.5899C28.9801 11.6898 29.4225 11.6631 29.7533 11.5108C30.0846 11.3591 30.3812 11.0922 30.6439 10.7101C30.9374 10.2841 31.0823 9.8672 31.0785 9.46027C31.0747 9.05235 30.9126 8.71297 30.5929 8.44164L31.048 7.78117ZM29.749 9.66727L30.0555 9.22252C30.1732 9.33458 30.2306 9.4807 30.2286 9.66088C30.2267 9.84107 30.1649 10.0198 30.0433 10.196C29.9347 10.3535 29.8039 10.4689 29.6516 10.5417C29.4987 10.6141 29.3171 10.6339 29.1068 10.6002L29.4798 10.0582L29.749 9.66727ZM27.1296 12.651L27.0593 12.7527C26.9811 12.6433 26.9485 12.5134 26.9608 12.3636C26.9732 12.2138 27.0264 12.0703 27.1204 11.9341C27.2064 11.8092 27.3161 11.7102 27.4502 11.6366C27.5656 11.5723 27.6945 11.5376 27.836 11.5313C27.8574 11.5302 27.8792 11.5296 27.9011 11.53L27.1296 12.651Z" fill="black"/>
</g>
<path d="M31.5334 13.3221C33.6299 10.9101 33.8815 7.69628 32.0954 6.14377C30.3093 4.59126 27.1619 5.28797 25.0654 7.69992C22.9688 10.1119 22.7172 13.3257 24.5033 14.8782C26.2894 16.4307 29.4369 15.734 31.5334 13.3221Z" fill="#FFE199"/>
<path d="M32.3528 6.29343C32.3035 6.24517 32.2522 6.19681 32.1998 6.14941C32.1998 6.14941 32.1507 6.13417 32.0603 6.11009C32.0598 6.11058 32.0593 6.11004 32.0593 6.11004C31.3703 5.92486 28.2768 5.24221 26.1968 7.17697C24.1316 9.09915 22.9709 12.1001 23.8073 14.0195C23.8078 14.02 23.8078 14.021 23.8083 14.0215C23.9236 14.2868 24.0775 14.5314 24.2725 14.7498L24.2861 14.7646C26.0699 16.7504 28.7476 17.2481 31.7481 14.3915C34.0343 12.2146 35.1485 8.98827 32.3528 6.29343ZM24.7515 13.6267C23.6167 12.1758 24.5767 9.26093 26.3746 7.58862C28.1725 5.9163 31.0152 6.1355 32.15 7.58647C33.2848 9.03742 32.7456 11.5778 30.9472 13.2506C29.1498 14.9234 25.8863 15.0777 24.7515 13.6267Z" fill="#F9A141"/>
<path d="M25.6082 7.06809C23.2561 9.25605 22.5505 12.5812 24.0353 14.4794C24.1144 14.5802 24.1978 14.6751 24.286 14.7646C25.85 16.3472 28.7665 16.0256 30.9935 13.9528C33.3461 11.7643 34.0516 8.4392 32.5673 6.54149C32.4988 6.45435 32.4276 6.37165 32.3527 6.29336C30.7981 4.66903 27.853 4.97977 25.6082 7.06809ZM25.0408 13.5438C23.906 12.0929 24.4457 9.552 26.2431 7.87917C28.041 6.20685 30.4266 6.02664 31.5609 7.47707C32.6962 8.92753 32.157 11.469 30.3591 13.1413C28.5612 14.8136 26.1751 14.9943 25.0408 13.5438Z" fill="#FFAE4D"/>
<path d="M30.5112 8.44948C30.2461 8.15587 29.9189 8.00702 29.5293 8.00349C29.1214 7.99969 28.7044 8.14457 28.2784 8.43808C27.8963 8.70083 27.6294 8.99737 27.4777 9.32868C27.3259 9.659 27.2998 10.1019 27.3986 10.6569L27.1399 10.8352L26.0175 11.6082C26.0175 11.5859 26.0181 11.564 26.0203 11.5416C26.0377 11.3149 26.1621 11.0949 26.3934 10.8816L26.3088 10.7785L26.0654 10.4815L25.8771 10.2516C25.551 10.5435 25.3323 10.8502 25.2207 11.1708C25.1087 11.4918 25.1147 11.8171 25.2366 12.1456L25.1808 12.184L24.8871 12.3867L25.1158 12.794L25.4663 12.5529C25.6873 12.8479 25.9837 13.0016 26.3554 13.014C26.7267 13.0269 27.1058 12.9009 27.4923 12.6344C27.8734 12.3717 28.1499 12.0626 28.3209 11.7071C28.4919 11.3516 28.54 10.9454 28.4655 10.4869L29.1003 10.0501L29.9459 9.46786C29.9417 9.61124 29.8941 9.77117 29.8039 9.94758C29.7138 10.124 29.5827 10.292 29.4111 10.452L29.6061 10.7054L29.9223 11.1172C30.355 10.7411 30.6415 10.3651 30.7821 9.9875C30.9228 9.60993 30.9267 9.2421 30.7939 8.88405L31.4371 8.44129L31.2074 8.03396L30.5469 8.48911C30.5351 8.47541 30.5239 8.46216 30.5112 8.44948ZM26.2359 12.0227L27.4586 11.181C27.461 11.3479 27.4256 11.4987 27.3519 11.6318C27.2783 11.7659 27.1793 11.8756 27.0544 11.9616C26.9182 12.0556 26.7747 12.1088 26.6249 12.1212C26.4751 12.1335 26.3452 12.1008 26.2359 12.0227ZM28.4468 9.43043C28.4884 9.34388 28.5434 9.26389 28.613 9.19142C28.665 9.13593 28.7249 9.0857 28.7925 9.0387C28.8626 8.99007 28.9331 8.95158 29.004 8.92222C29.1107 8.87714 29.2195 8.85432 29.3281 8.85281C29.5083 8.85089 29.6539 8.90877 29.766 9.02648L29.6233 9.12436L28.3883 9.97519C28.3849 9.95552 28.3825 9.93584 28.3807 9.91659C28.3588 9.73065 28.381 9.56875 28.4468 9.43043Z" fill="#FFAE4D"/>
<g opacity="0.15">
<path d="M8.45096 60.0155C8.71711 60.1861 8.99749 60.228 9.29238 60.1407C9.58653 60.0537 9.85513 59.8572 10.0974 59.5516C10.3148 59.2779 10.4418 59.0052 10.478 58.7329C10.5147 58.4608 10.4363 58.136 10.2419 57.7581L10.6812 57.2038L11.0275 56.7675C11.0839 56.9438 11.0491 57.1431 10.9223 57.3642C10.9206 57.3676 10.919 57.371 10.9169 57.3742L11.4281 57.7143C11.5987 57.432 11.6887 57.1626 11.6985 56.9065C11.7084 56.6504 11.6328 56.4174 11.4718 56.2078L11.6704 55.9569L11.4156 55.7137L11.2165 55.9644C11.2057 55.9568 11.1949 55.9493 11.1841 55.9417C10.9685 55.7971 10.7313 55.7591 10.4736 55.8288C10.2031 55.9014 9.95764 56.0759 9.7381 56.3528C9.52118 56.6268 9.39029 56.9102 9.34548 57.2042C9.30067 57.4982 9.35547 57.8021 9.51059 58.1156L9.37795 58.2824L8.66818 59.1774C8.66379 59.1615 8.65986 59.1446 8.65718 59.1277C8.63983 59.0337 8.64282 58.9247 8.66463 58.8003C8.69066 58.6532 8.7481 58.5032 8.83645 58.35L8.82984 58.345L8.32115 57.9833C8.32093 57.9838 8.32093 57.9838 8.32068 57.9843C8.09201 58.3504 7.96927 58.6844 7.95074 58.9874C7.9327 59.2906 8.01104 59.5566 8.18575 59.7854L8.16608 59.8102L7.82007 60.246L8.07536 60.4894L8.45096 60.0155ZM9.37057 58.8563L9.67894 58.4679C9.74962 58.612 9.77541 58.7473 9.757 58.8734C9.7381 58.9993 9.68377 59.1191 9.59426 59.2321C9.49408 59.3587 9.37891 59.4427 9.24945 59.4838C9.11999 59.525 9.00201 59.5159 8.89527 59.4558L9.14819 59.1367L9.37057 58.8563ZM10.083 57.3935C10.0778 57.3779 10.0735 57.362 10.0696 57.3463C10.0429 57.243 10.0395 57.1424 10.0603 57.0451C10.0838 56.9322 10.1309 56.8312 10.202 56.7417C10.2794 56.6438 10.3711 56.5738 10.4764 56.5318C10.5816 56.4898 10.6824 56.4847 10.7785 56.517L10.7208 56.59L10.083 57.3935Z" fill="black"/>
</g>
<path d="M12.1799 59.6177C13.4558 57.5739 13.2633 55.1511 11.7499 54.2063C10.2364 53.2614 7.97515 54.1523 6.69921 56.196C5.42327 58.2398 5.61581 60.6626 7.12926 61.6074C8.64271 62.5523 10.904 61.6614 12.1799 59.6177Z" fill="#FFE199"/>
<path d="M12.9947 59.5349C14.3916 56.7416 13.4418 54.9213 11.6166 54.0738L11.603 54.0673C11.4025 53.9749 11.1923 53.918 10.9756 53.8934C10.9751 53.8931 10.9744 53.8934 10.9739 53.8932C9.40572 53.7138 7.49876 55.2129 6.56903 57.1258C5.6335 59.0521 6.80833 61.1313 7.09388 61.5871C7.09388 61.5871 7.09437 61.5873 7.09412 61.5878C7.13143 61.6476 7.15326 61.6797 7.15326 61.6797C7.19898 61.707 7.24515 61.7333 7.29082 61.7582C9.85042 63.1786 11.9301 61.6633 12.9947 59.5349ZM11.9955 59.2094C11.1867 60.875 9.47451 61.8243 8.17816 61.3266C6.88181 60.8288 6.09637 58.8282 6.905 57.1631C7.71364 55.498 9.6028 54.1626 10.8992 54.6604C12.1955 55.1582 12.8047 57.5446 11.9955 59.2094Z" fill="#F9A141"/>
<path d="M7.29094 61.7582C7.3639 61.7949 7.43922 61.828 7.51717 61.8581C9.21267 62.5092 11.4538 61.2667 12.512 59.0879C13.5146 57.0252 13.1027 54.8519 11.6167 54.0738C11.5327 54.03 11.4459 53.9909 11.3558 53.9561C9.65982 53.3048 7.41874 54.5473 6.36074 56.7256C5.3509 58.8047 5.77693 60.9961 7.29094 61.7582ZM11.787 58.8098C10.9784 60.4748 9.26547 61.4244 7.96937 60.9262C6.67352 60.4287 6.2769 58.6693 7.08551 57.0043C7.89464 55.3395 9.60702 54.3896 10.9034 54.8874C12.1992 55.3849 12.5956 57.1447 11.787 58.8098Z" fill="#FFAE4D"/>
<path d="M8.16609 59.8101C8.42203 59.9632 8.69069 59.9983 8.97234 59.9149C9.2672 59.8276 9.53579 59.6311 9.77806 59.3255C9.99548 59.0518 10.1224 58.7792 10.1587 58.5068C10.1952 58.2352 10.1163 57.9102 9.92254 57.532L10.0696 57.3463L10.7081 56.5414C10.713 56.5575 10.7174 56.5734 10.7208 56.59C10.7582 56.7573 10.7172 56.9433 10.5975 57.1481L10.6812 57.2038L10.9222 57.3642L11.1087 57.4883C11.2793 57.2059 11.3693 56.9365 11.3789 56.6809C11.3888 56.4248 11.3127 56.1916 11.1524 55.9817L11.1841 55.9417L11.3511 55.7308L11.0963 55.4877L10.8969 55.7388C10.6724 55.575 10.4249 55.5296 10.1542 55.6027C9.88373 55.6753 9.63826 55.8498 9.4185 56.1272C9.20179 56.4007 9.07068 56.6846 9.02588 56.9786C8.98107 57.2726 9.03609 57.576 9.19099 57.89L8.82982 58.345L8.34882 58.9513C8.32018 58.847 8.31924 58.7212 8.34527 58.5742C8.3713 58.4271 8.42874 58.2771 8.51709 58.1239L8.32067 57.9843L8.0018 57.7572C7.7729 58.1238 7.64944 58.4581 7.63138 58.7613C7.61334 59.0645 7.69168 59.3305 7.86639 59.5593L7.50049 60.0204L7.75603 60.2633L8.13163 59.7894C8.14312 59.7967 8.15413 59.8038 8.16609 59.8101ZM10.4592 56.2909L9.76365 57.1675C9.72506 57.0477 9.71726 56.9312 9.741 56.819C9.76446 56.7061 9.81161 56.6051 9.88267 56.5156C9.96012 56.4177 10.0518 56.3477 10.1571 56.3057C10.2623 56.2638 10.3631 56.2587 10.4592 56.2909ZM9.43767 58.6474C9.42679 58.719 9.40475 58.7888 9.37061 58.8564C9.34537 58.9078 9.31329 58.9573 9.27495 59.0061C9.23518 59.0566 9.19284 59.0999 9.14823 59.1367C9.08119 59.1928 9.00786 59.2332 8.9299 59.2583C8.80044 59.2994 8.6827 59.2898 8.57594 59.2297L8.65719 59.1277L9.3596 58.2418C9.36636 58.2552 9.37241 58.2689 9.37796 58.2824C9.43486 58.4116 9.45459 58.5331 9.43767 58.6474Z" fill="#FFAE4D"/>
<g opacity="0.15">
<path d="M16.4158 19.8561C16.4184 19.5399 16.3045 19.2803 16.0735 19.0773C15.8432 18.8747 15.5339 18.752 15.1462 18.7098C14.7987 18.6716 14.5003 18.7094 14.2506 18.8237C14.0007 18.9376 13.7676 19.1769 13.5513 19.5428L12.8482 19.4663L12.2945 19.4057C12.4137 19.2639 12.6008 19.1873 12.8556 19.1769C12.8593 19.1764 12.8631 19.176 12.8669 19.1761L12.8825 18.5623C12.5526 18.5683 12.2767 18.6356 12.0547 18.7637C11.8326 18.8917 11.6758 19.0798 11.5842 19.3278L11.266 19.2933L11.1959 19.6385L11.5142 19.6735C11.5135 19.6867 11.5128 19.6998 11.5122 19.713C11.5046 19.9725 11.5988 20.1935 11.7951 20.3745C12.0006 20.5647 12.2791 20.6795 12.6304 20.7178C12.9778 20.7555 13.2873 20.7153 13.56 20.5966C13.8327 20.4779 14.0607 20.2697 14.2435 19.9714L14.4553 19.9948L15.5908 20.1188C15.5797 20.1309 15.5675 20.1432 15.5546 20.1545C15.4843 20.2193 15.3905 20.2748 15.2735 20.3227C15.1352 20.379 14.9776 20.4102 14.8009 20.4171L14.8002 20.4253L14.7651 21.0485C14.7656 21.0485 14.7656 21.0485 14.7662 21.0484C15.1978 21.0469 15.5459 20.9729 15.8122 20.8272C16.0784 20.6809 16.2618 20.4729 16.3624 20.2032L16.3938 20.2066L16.947 20.2673L17.017 19.9216L16.4158 19.8561ZM14.9449 19.6952L14.4519 19.6412C14.5363 19.5045 14.637 19.4106 14.7536 19.359C14.8702 19.308 15.0004 19.2902 15.1438 19.3057C15.3043 19.3231 15.4367 19.3758 15.5405 19.4635C15.6443 19.5511 15.6994 19.6558 15.7054 19.7782L15.3006 19.7341L14.9449 19.6952ZM13.3274 19.8715C13.3169 19.8841 13.3058 19.8963 13.2946 19.9079C13.2214 19.9856 13.138 20.042 13.0445 20.0763C12.9365 20.1166 12.8259 20.1305 12.7123 20.118C12.5882 20.1046 12.4801 20.0643 12.3885 19.9976C12.297 19.9309 12.239 19.8483 12.215 19.7498L12.3077 19.7597L13.3274 19.8715Z" fill="black"/>
</g>
<path d="M14.117 23.3767C16.5263 23.368 18.4742 21.9147 18.4678 20.1306C18.4613 18.3465 16.503 16.9072 14.0938 16.9159C11.6845 16.9245 9.73665 18.3779 9.74307 20.162C9.7495 21.9461 11.7078 23.3853 14.117 23.3767Z" fill="#FFE199"/>
<path d="M13.5887 16.2665C10.4806 16.5723 9.44595 18.3457 9.70089 20.3418L9.70265 20.3569C9.73124 20.5757 9.7951 20.784 9.88969 20.9805C9.88977 20.981 9.89036 20.9815 9.89041 20.982C10.574 22.4047 12.8584 23.2201 14.9726 22.988C17.1012 22.7537 18.2351 20.6518 18.4687 20.1674C18.4687 20.1674 18.4686 20.1669 18.4692 20.1668C18.4999 20.1033 18.5154 20.0678 18.5154 20.0678C18.5142 20.0146 18.5118 19.9615 18.5085 19.9096C18.3473 16.9867 15.9571 16.0338 13.5887 16.2665ZM13.8455 17.2855C15.6859 17.0829 17.4014 18.0262 17.6707 19.3885C17.9399 20.7508 16.6651 22.4812 14.8252 22.6838C12.9853 22.8863 10.8488 21.9988 10.5795 20.6365C10.3103 19.2743 12.0055 17.4876 13.8455 17.2855Z" fill="#F9A141"/>
<path d="M18.5085 19.9095C18.5007 19.8282 18.4886 19.7468 18.4726 19.6649C18.1205 17.8831 15.8752 16.6482 13.4675 16.9132C11.1877 17.1635 9.56783 18.6697 9.70087 20.3418C9.70852 20.4362 9.72162 20.5305 9.7402 20.6253C10.0924 22.4076 12.3377 23.6424 14.7448 23.3775C17.0423 23.1247 18.67 21.5968 18.5085 19.9095ZM13.6183 17.675C15.4582 17.4724 17.1742 18.4163 17.443 19.7786C17.7122 21.1403 16.4345 22.4131 14.5946 22.6157C12.7546 22.8177 11.0386 21.8745 10.7693 20.5122C10.5001 19.1504 11.7784 17.8776 13.6183 17.675Z" fill="#FFAE4D"/>
<path d="M16.3936 20.2066C16.3869 19.9084 16.2734 19.6624 16.0528 19.4684C15.8219 19.2654 15.5125 19.1427 15.1248 19.1005C14.7774 19.0623 14.479 19.1001 14.2292 19.2145C13.9799 19.3282 13.7469 19.5681 13.53 19.9335L13.2945 19.908L12.2731 19.7964C12.2842 19.7837 12.2953 19.7715 12.3075 19.7597C12.4292 19.6389 12.6085 19.5746 12.8455 19.5668L12.8481 19.4663L12.8554 19.1769L12.8611 18.9529C12.5313 18.959 12.2554 19.0263 12.0338 19.1543C11.8118 19.2824 11.655 19.4709 11.5628 19.7185L11.512 19.7129L11.2446 19.684L11.1746 20.0291L11.4933 20.0641C11.4742 20.3413 11.5677 20.575 11.7737 20.7651C11.9793 20.9553 12.2577 21.0701 12.6095 21.1084C12.9564 21.1461 13.2665 21.1059 13.5392 20.9872C13.8118 20.8685 14.0393 20.6603 14.2226 20.3619L14.8 20.4253L15.5693 20.5094C15.4964 20.5892 15.3904 20.657 15.2521 20.7133C15.1138 20.7696 14.9562 20.8009 14.7795 20.8077L14.7659 21.0483L14.7436 21.4391C15.1758 21.4376 15.5245 21.364 15.7907 21.2178C16.0569 21.0715 16.2403 20.8635 16.3409 20.5938L16.926 20.6578L16.9955 20.3122L16.3944 20.2467C16.3945 20.2332 16.3946 20.2201 16.3936 20.2066ZM12.1937 20.1404L13.3061 20.2622C13.2252 20.3587 13.1308 20.4273 13.0232 20.467C12.9152 20.5073 12.8046 20.5212 12.691 20.5087C12.5669 20.4953 12.4588 20.455 12.3673 20.3883C12.2757 20.3215 12.2176 20.239 12.1937 20.1404ZM14.7322 19.7498C14.7986 19.7208 14.8694 19.7023 14.9448 19.6952C15.0018 19.6892 15.0607 19.69 15.1225 19.6964C15.1864 19.7032 15.2456 19.7159 15.3005 19.7341C15.3837 19.7609 15.457 19.8014 15.5197 19.8541C15.6235 19.9417 15.6781 20.0465 15.6841 20.1689L15.5545 20.1544L14.4306 20.0318C14.4383 20.019 14.4467 20.0066 14.4551 19.9947C14.5341 19.8778 14.6265 19.7963 14.7322 19.7498Z" fill="#FFAE4D"/>
<g opacity="0.15">
<path d="M75.3791 4.94169C75.4088 4.68697 75.3756 4.44942 75.2789 4.2296C75.2486 4.16148 75.2125 4.09509 75.1707 4.0304C74.9933 3.75736 74.7191 3.52151 74.3481 3.3246L74.0121 4.0298C74.2274 4.14887 74.3773 4.28796 74.4626 4.4471C74.4924 4.50261 74.5141 4.56045 74.5284 4.62055L74.454 4.5925L73.371 4.18265L73.0236 4.051C73.0007 3.69094 72.9371 3.38986 72.8318 3.14888C72.7803 3.02867 72.7179 2.92334 72.6458 2.83232C72.4282 2.55929 72.1117 2.34404 71.6961 2.18663C71.2319 2.01091 70.8106 1.97197 70.4317 2.06871C70.0533 2.16603 69.7745 2.39442 69.5948 2.75448L68.8753 2.48258L68.7556 2.91419L69.2473 3.10022L69.4557 3.17922C69.4408 3.31145 69.4425 3.44081 69.462 3.56733C69.4952 3.78828 69.5816 4.00066 69.7201 4.20387C69.7928 4.3109 69.881 4.41394 69.984 4.51298C70.1889 4.70989 70.4545 4.89193 70.7797 5.0585L71.0287 4.49124L71.1031 4.32238C70.9852 4.25655 70.8805 4.18443 70.7883 4.10599C70.727 4.05448 70.6715 4.0001 70.6217 3.94286C70.4969 3.79918 70.4162 3.66124 70.3796 3.52842L71.9921 4.13804C72.0035 4.28401 72.0264 4.42139 72.0602 4.55018C72.1295 4.81522 72.2445 5.04532 72.4065 5.2411C72.4592 5.3052 72.5158 5.3659 72.5771 5.42255C72.7952 5.62805 73.0665 5.79175 73.3911 5.91482C73.8118 6.07397 74.1936 6.10486 74.5371 6.00754C74.8799 5.91023 75.1209 5.69901 75.2595 5.37389L75.6401 5.51756L75.7603 5.08596L75.3791 4.94169ZM70.8141 2.81401C70.9824 2.77451 71.1627 2.79112 71.355 2.8638C71.5267 2.92906 71.6641 3.02408 71.7666 3.14944C71.8404 3.2399 71.8919 3.34979 71.9217 3.48088C71.9331 3.53183 71.9417 3.58621 71.9463 3.64402L71.185 3.35611L70.4454 3.07619C70.5227 2.94108 70.6458 2.85349 70.8141 2.81401ZM73.2915 4.94912C73.1924 4.8415 73.1249 4.70927 73.0888 4.553L74.4203 5.05672C74.3361 5.1546 74.2234 5.2147 74.0808 5.2376C74.0202 5.24732 73.9589 5.25018 73.8971 5.24446C73.8141 5.23873 73.7294 5.21927 73.6441 5.18722C73.5897 5.16661 73.5382 5.14199 73.4895 5.11223C73.4168 5.06819 73.351 5.01381 73.2915 4.94912Z" fill="black"/>
</g>
<path d="M77.6129 6.93736C78.554 4.87176 77.0557 2.16703 74.2663 0.896172C71.4769 -0.374687 68.4527 0.269576 67.5116 2.33517C66.5705 4.40076 68.0689 7.10549 70.8583 8.37635C73.6476 9.64721 76.6718 9.00295 77.6129 6.93736Z" fill="#FFE199"/>
<path d="M77.8822 5.9125V5.9102C77.8467 3.90273 75.6412 1.74702 73.0739 0.891261C70.4906 0.0303442 68.063 1.85578 67.5335 2.29197C67.4636 2.34922 67.427 2.38243 67.427 2.38243C67.4007 2.44366 67.3755 2.50436 67.352 2.56503C67.3515 2.56617 67.3509 2.56789 67.3503 2.56962C65.9834 6.0333 68.2398 8.40598 71.1002 9.39569C74.8639 10.6979 77.0047 9.1879 77.7672 6.73453C77.7672 6.73396 77.7677 6.7334 77.7677 6.7328C77.8507 6.46431 77.8879 6.19012 77.8822 5.9125ZM68.0418 3.61652C68.4551 1.89928 70.8484 0.576408 73.0825 1.32055C75.3172 2.06525 77.3149 4.22728 76.9017 5.94452C76.4884 7.66177 73.5788 8.82606 71.3446 8.08136C69.1105 7.33724 67.6285 5.33436 68.0418 3.61652Z" fill="#F9A141"/>
<path d="M73.5444 0.561524C70.7574 -0.367516 68.0653 0.531176 67.352 2.56498C67.3515 2.56611 67.3509 2.56784 67.3503 2.56957C67.3165 2.66744 67.2868 2.76761 67.2621 2.87065C66.7218 5.11797 68.66 7.7385 71.5839 8.71274C74.3595 9.63775 77.0402 8.75051 77.7671 6.73445C77.7671 6.73388 77.7677 6.73332 77.7677 6.73272C77.806 6.62626 77.8393 6.51634 77.8662 6.40358C78.4066 4.15631 76.4678 1.53579 73.5444 0.561524ZM76.616 5.98747C76.2033 7.70472 74.0493 8.49638 71.8152 7.75167C69.5805 7.00753 68.0991 5.00465 68.5123 3.28681C68.9251 1.56957 71.0791 0.777906 73.3132 1.52205C75.5479 2.26675 77.0293 4.26964 76.616 5.98747Z" fill="#FFAE4D"/>
<path d="M69.4886 2.74416L69.2566 3.12728L69.6226 3.30611C69.4815 3.62955 69.4931 3.94978 69.6575 4.26602C69.8219 4.58225 70.1059 4.83927 70.5103 5.03624C70.9103 5.23105 71.2985 5.31581 71.6759 5.29049C71.8154 5.28163 71.9523 5.25491 72.0872 5.21109C72.319 5.13653 72.5442 5.01156 72.7632 4.83579L73.0765 4.98879L74.3125 5.59051C74.2993 5.5974 74.2866 5.60391 74.2723 5.60959C74.1577 5.6617 74.0151 5.6915 73.8453 5.69824C73.8392 5.69846 73.8331 5.69868 73.827 5.69893C73.6426 5.70443 73.4467 5.67435 73.2389 5.6083L72.9251 6.34941C73.4428 6.53313 73.8925 6.59456 74.2737 6.53414C74.3624 6.51975 74.4468 6.49996 74.5278 6.47401C74.7947 6.38834 75.019 6.23823 75.2003 6.02328L75.574 6.20517L75.8738 6.35128L76.0611 6.04095L76.1053 5.96774L75.4139 5.63071C75.553 5.25336 75.5276 4.89343 75.3388 4.55136C75.1501 4.20929 74.8324 3.92985 74.3857 3.71218C74.0998 3.57256 73.8265 3.49039 73.5669 3.46614C73.4643 3.45583 73.3635 3.45568 73.2648 3.4637C73.0095 3.48492 72.7363 3.59146 72.4447 3.78292C72.3382 3.85185 72.2293 3.93328 72.1185 4.02518L70.6722 3.32047C70.8675 3.20717 71.1113 3.1921 71.4036 3.27604C71.4209 3.28099 71.4386 3.28637 71.4562 3.29175L71.5035 3.17004L71.7385 2.56308C71.5143 2.48724 71.3019 2.44209 71.1019 2.42689C70.9475 2.41667 70.8007 2.42368 70.6607 2.4487C70.3398 2.50727 70.0712 2.66456 69.855 2.92262L69.4886 2.74416ZM73.1545 4.52987C73.3141 4.40216 73.4753 4.33281 73.6368 4.32138C73.7403 4.3143 73.8444 4.32548 73.9496 4.35612C74.0087 4.37285 74.0675 4.39604 74.127 4.42494C74.3122 4.51544 74.448 4.63525 74.5347 4.78479C74.5389 4.7918 74.5427 4.7992 74.5458 4.80658C74.623 4.94857 74.6399 5.08997 74.5964 5.23243L73.1545 4.52987ZM70.4294 3.69881L71.3113 4.12851L71.7089 4.32244C71.7019 4.32669 71.6945 4.33054 71.6871 4.33436C71.5558 4.40784 71.4206 4.44475 71.2821 4.44633C71.1358 4.4481 70.9971 4.41687 70.8665 4.35351C70.7236 4.28371 70.6114 4.18968 70.5303 4.07026C70.4496 3.95045 70.4156 3.82676 70.4294 3.69881Z" fill="#FFAE4D"/>
<path d="M90.423 32.9001C90.3953 32.9001 90.3701 32.8813 90.3632 32.8532C90.3549 32.8202 90.3751 32.7867 90.4081 32.7785C91.065 32.6153 91.6244 32.2576 92.0259 31.7441C92.4143 31.2476 92.6488 30.6125 92.7041 29.9075C92.7067 29.8736 92.7362 29.8482 92.7704 29.8508C92.8044 29.8535 92.8297 29.8832 92.8271 29.9172C92.7699 30.6464 92.5265 31.3044 92.1231 31.8202C91.7044 32.3555 91.1217 32.7283 90.4379 32.8982C90.4329 32.8995 90.4279 32.9001 90.423 32.9001Z" fill="#302626"/>
<path d="M92.916 25.9852C92.8956 25.9852 92.8756 25.9751 92.8639 25.9566C92.445 25.2969 91.939 24.6893 91.3599 24.1507C89.7914 22.6915 87.8914 21.9197 86.1463 22.033C86.1125 22.0355 86.0829 22.0094 86.0807 21.9754C86.0785 21.9414 86.1043 21.9121 86.1383 21.9099C86.9902 21.8545 87.9156 22.0139 88.8147 22.3709C89.756 22.7446 90.6406 23.313 91.444 24.0603C92.0307 24.6062 92.5435 25.2219 92.968 25.8905C92.9863 25.9192 92.9778 25.9573 92.949 25.9756C92.9387 25.9821 92.9273 25.9852 92.916 25.9852Z" fill="#302626"/>
<path d="M93.0041 33.1783L93.0001 33.1755L92.8589 33.2285L92.8729 33.2381C91.9882 34.0986 90.7211 34.4797 89.2956 34.3119C87.8263 34.1388 86.3221 33.3966 85.06 32.2218C83.2184 30.5087 82.1693 28.1413 82.3038 26.0171L82.3091 26.0208L82.277 25.8508C82.2602 25.8426 82.2407 25.8419 82.2235 25.8501C82.2037 25.8595 82.1904 25.8788 82.1886 25.9007C82.0085 28.0886 83.0766 30.5453 84.9759 32.3121C86.2571 33.5046 87.7861 34.2583 89.2812 34.4344C89.5064 34.4609 89.7276 34.474 89.9444 34.474C91.1642 34.474 92.2371 34.058 93.0132 33.2726C93.0261 33.2596 93.0325 33.2416 93.0308 33.2234C93.029 33.2051 93.0192 33.1886 93.0041 33.1783Z" fill="#302626"/>
<path d="M24.2617 8.77478C24.2508 8.77478 24.2397 8.77184 24.2296 8.76572C24.2005 8.74796 24.1914 8.71001 24.2091 8.68095C24.5806 8.07288 25.0372 7.51507 25.5662 7.02297C26.2519 6.38512 27.0072 5.9018 27.8112 5.58643C28.5796 5.28505 29.369 5.15472 30.0942 5.20955C30.1282 5.21211 30.1537 5.24172 30.1511 5.2757C30.1485 5.30965 30.1191 5.33516 30.0849 5.33254C28.6036 5.22063 26.9872 5.8696 25.6503 7.1133C25.1295 7.59773 24.6801 8.1468 24.3144 8.74525C24.3028 8.76427 24.2825 8.77478 24.2617 8.77478Z" fill="#302626"/>
<path d="M26.5599 14.5248C26.5558 14.5248 26.5517 14.5244 26.5476 14.5236C25.9117 14.3954 25.3739 14.0698 24.9923 13.5819C24.5579 13.0265 24.3496 12.3 24.3899 11.4808C24.3916 11.4468 24.4208 11.4208 24.4546 11.4222C24.4886 11.4239 24.5148 11.4529 24.5131 11.4869C24.4743 12.276 24.6736 12.9742 25.0895 13.5059C25.4527 13.9703 25.9653 14.2804 26.572 14.4027C26.6054 14.4094 26.627 14.4419 26.6203 14.4753C26.6144 14.5046 26.5886 14.5248 26.5599 14.5248Z" fill="#302626"/>
<path d="M26.8365 15.8241C25.8974 15.8241 25.0319 15.532 24.3691 14.9296C24.3439 14.9067 24.342 14.8677 24.3649 14.8425C24.3878 14.8173 24.4268 14.8154 24.452 14.8383C26.0384 16.28 28.8327 15.8799 30.9516 13.9077C32.4832 12.4829 33.3737 10.4939 33.2756 8.71685C33.2737 8.68285 33.2997 8.65373 33.3338 8.65186C33.3684 8.64971 33.3969 8.67604 33.3988 8.71004C33.4989 10.5227 32.5933 12.5489 31.0356 13.998C29.7479 15.1965 28.213 15.8241 26.8365 15.8241Z" fill="#302626"/>
<path d="M8.70153 61.12C8.44155 61.12 8.18744 61.0761 7.94718 60.9837C7.54284 60.8285 7.20595 60.544 6.97299 60.1609C6.95527 60.1318 6.96452 60.0939 6.99364 60.0762C7.02275 60.0585 7.0607 60.0677 7.07839 60.0968C7.29704 60.4563 7.61278 60.7232 7.99142 60.8685C9.25853 61.3556 10.9363 60.4199 11.7314 58.7827C12.0718 58.082 12.2084 57.3272 12.1163 56.6576C12.1116 56.6238 12.1352 56.5927 12.169 56.5881C12.2027 56.5837 12.2338 56.607 12.2385 56.6408C12.3339 57.3343 12.1933 58.1142 11.8424 58.8366C11.1691 60.2231 9.87572 61.12 8.70153 61.12Z" fill="#07242B"/>
<path d="M17.2455 21.1129C17.2357 21.1129 17.2258 21.1106 17.2166 21.1057C17.1865 21.0897 17.1751 21.0524 17.1911 21.0223C17.3985 20.632 17.4647 20.206 17.3826 19.7905C17.1199 18.4586 15.4343 17.5373 13.6251 17.7363C12.7381 17.834 11.9582 18.1834 11.4291 18.7201C11.4052 18.7444 11.3661 18.7447 11.3419 18.7207C11.3176 18.6968 11.3173 18.6578 11.3412 18.6335C11.8902 18.0766 12.6966 17.7144 13.6116 17.6137C15.4829 17.4077 17.2288 18.3735 17.5036 19.7666C17.5913 20.2103 17.5209 20.6645 17.3 21.0802C17.2889 21.1011 17.2676 21.1129 17.2455 21.1129Z" fill="#07242B"/>
<path d="M73.6466 9.93653C72.8674 9.93653 72.0092 9.77551 71.08 9.45397C70.1118 9.11896 69.2436 8.63418 68.5693 8.05202C67.8207 7.40584 67.3131 6.65454 67.0605 5.81899C67.0507 5.78637 67.0691 5.75195 67.1017 5.74208C67.1343 5.73226 67.1687 5.75067 67.1786 5.78326C67.6486 7.33781 69.0853 8.63322 71.1203 9.33737C74.0442 10.3491 76.2572 9.73107 77.3516 7.59727C77.3672 7.56698 77.4043 7.55503 77.4346 7.57055C77.4649 7.5861 77.4769 7.62328 77.4614 7.6536C76.9423 8.66557 76.1388 9.37613 75.1377 9.7085C74.6796 9.86056 74.1817 9.93653 73.6466 9.93653Z" fill="#302626"/>
<path d="M17.3531 73.7758C17.3536 73.7752 17.3541 73.7748 17.3546 73.7743C17.354 73.776 17.3535 73.7763 17.3531 73.7758Z" fill="#F59979"/>
<path d="M15.6981 72.7156C15.9039 71.7415 15.5105 70.6027 15.5105 70.6027L17.5808 71.1501L17.6119 73.1847C17.6119 73.1847 17.5643 73.4104 17.3667 73.4181C17.3566 73.6003 17.3487 73.7691 17.3532 73.7756C16.7837 74.4591 14.4976 73.6367 14.4976 73.6367C15.3934 73.4083 15.6689 72.8534 15.6981 72.7156Z" fill="#F59979"/>
<path d="M17.5965 74.8931C17.5993 74.8915 17.6021 74.8899 17.6048 74.8881C17.644 74.8621 17.6629 74.8185 17.6784 74.7768C17.8202 74.3958 17.831 73.9844 17.8108 73.5814C17.7922 73.2122 17.7299 72.8269 17.6064 72.8267C17.0594 73.1865 16.275 73.0438 15.7113 72.6504C15.5373 72.6163 15.3168 73.3454 14.1192 73.7215C12.7435 74.1536 12.6068 74.3696 12.5933 74.6395C12.5887 74.7306 12.6492 74.8136 12.7419 74.8505C13.1904 75.0287 14.1603 75.0335 14.624 75.0287C14.7621 75.0273 14.8988 75.0092 15.0307 74.9733C15.4707 74.8536 15.9192 74.7539 16.3821 74.7663C16.3766 74.8806 16.4269 74.8821 16.4721 74.8836C16.7955 74.8942 17.1188 74.9049 17.4422 74.9155C17.4952 74.9173 17.5523 74.9179 17.5965 74.8931Z" fill="#302626"/>
<path d="M15.605 73.3734C15.597 73.3734 15.5889 73.3718 15.5811 73.3685L15.1641 73.1931C15.1327 73.1799 15.118 73.1438 15.1312 73.1124C15.1444 73.081 15.1806 73.0662 15.212 73.0794L15.6289 73.2548C15.6604 73.268 15.6751 73.3042 15.6619 73.3356C15.652 73.3592 15.6291 73.3734 15.605 73.3734Z" fill="#302626"/>
<path d="M15.3358 73.7039C15.3276 73.7039 15.3192 73.7023 15.3111 73.6988L14.7611 73.4587C14.7299 73.4451 14.7156 73.4088 14.7293 73.3775C14.7429 73.3464 14.7793 73.332 14.8105 73.3457L15.3605 73.5857C15.3917 73.5993 15.406 73.6357 15.3924 73.6669C15.3822 73.6901 15.3596 73.7039 15.3358 73.7039Z" fill="#302626"/>
<path d="M26.4569 73.67C26.4566 73.6695 26.4561 73.669 26.4557 73.6684C26.456 73.6702 26.4565 73.6705 26.4569 73.67Z" fill="#F59979"/>
<path d="M28.2315 72.8252C27.5657 72.0628 27.3468 70.8542 27.3468 70.8542L25.4561 70.9985L26.3242 72.6968C26.3242 72.6968 26.2929 73.2811 26.4881 73.3135C26.4752 73.4955 26.462 73.664 26.4567 73.6699C26.9363 74.4192 29.3073 73.8893 29.3073 73.8893C28.4471 73.5506 28.3241 72.9313 28.2315 72.8252Z" fill="#F59979"/>
<path d="M26.0756 74.7482C26.073 74.7463 26.0705 74.7443 26.068 74.7422C26.0324 74.7116 26.019 74.6659 26.0088 74.6226C25.9158 74.2268 25.9566 73.8173 26.0271 73.42C26.0916 73.056 26.2017 72.6815 26.3243 72.6968C26.8219 73.1222 27.618 73.0787 28.2265 72.7589C28.4034 72.7469 28.531 73.4978 29.6721 74.0208C30.9829 74.6215 31.0916 74.8529 31.0712 75.1224C31.0644 75.2134 30.9939 75.2881 30.8974 75.3131C30.4301 75.4338 29.4672 75.3173 29.0077 75.2545C28.8709 75.2358 28.7375 75.2007 28.6111 75.1486C28.1896 74.9749 27.7571 74.8199 27.2963 74.7742C27.2874 74.8883 27.2374 74.8836 27.1923 74.8794C26.8702 74.8495 26.548 74.8196 26.2259 74.7897C26.1731 74.7849 26.1164 74.7784 26.0756 74.7482Z" fill="#302626"/>
<path d="M28.2492 73.49C28.2222 73.49 28.1974 73.4721 28.1898 73.4449C28.1806 73.4121 28.1998 73.378 28.2326 73.3689L28.6682 73.247C28.701 73.2378 28.735 73.257 28.7442 73.2898C28.7534 73.3226 28.7342 73.3566 28.7014 73.3658L28.2658 73.4876C28.2603 73.4892 28.2547 73.49 28.2492 73.49Z" fill="#302626"/>
<path d="M28.475 73.8516C28.4483 73.8516 28.4238 73.8342 28.4159 73.8073C28.4062 73.7746 28.425 73.7403 28.4576 73.7307L29.0333 73.5614C29.0661 73.5517 29.1003 73.5705 29.1099 73.6032C29.1195 73.6358 29.1008 73.6701 29.0681 73.6797L28.4924 73.8491C28.4866 73.8508 28.4808 73.8516 28.475 73.8516Z" fill="#302626"/>
<path d="M24.0134 45.3661C24.0134 45.3661 25.6691 49.9457 27.7897 71.8148C26.3408 72.6338 25.5179 72.0651 23.9112 72.1271C23.5943 71.274 20.4984 53.3381 20.4984 53.3381L18.791 72.1647C18.791 72.1647 16.9973 72.3688 14.9418 71.9896C14.8567 71.7653 15.2121 52.4459 15.6778 47.6662C16.2839 47.418 24.0134 45.3661 24.0134 45.3661Z" fill="#D26156"/>
<path d="M20.4984 53.3998C20.4719 53.3998 20.4475 53.3827 20.4394 53.3561L19.9979 51.9084L19.2141 51.107C19.1903 51.0827 19.1907 51.0436 19.2151 51.0198C19.2394 50.996 19.2785 50.9964 19.3023 51.0208L20.0966 51.8329C20.1035 51.8399 20.1086 51.8486 20.1115 51.858L20.5574 53.3201C20.5673 53.3527 20.549 53.3872 20.5164 53.3971C20.5104 53.3989 20.5043 53.3998 20.4984 53.3998Z" fill="#302626"/>
<path d="M25.5919 71.34C25.0237 71.34 24.3496 71.2562 23.6253 70.9961C23.5933 70.9846 23.5766 70.9493 23.5881 70.9172C23.5996 70.8852 23.635 70.8684 23.667 70.88C24.8237 71.2953 25.8494 71.2514 26.5061 71.1415C27.2189 71.0221 27.6635 70.8014 27.668 70.7992C27.6984 70.7839 27.7355 70.7962 27.7508 70.8265C27.7661 70.8569 27.7538 70.894 27.7235 70.9093C27.7049 70.9187 27.2612 71.1394 26.5315 71.2623C26.2705 71.3062 25.9525 71.34 25.5919 71.34Z" fill="#302626"/>
<path d="M17.4554 71.3016C16.8274 71.3016 15.9544 71.2211 14.9136 70.9134C14.8809 70.9037 14.8623 70.8694 14.8719 70.8368C14.8816 70.8041 14.9159 70.7854 14.9486 70.7951C17.3349 71.5007 18.856 71.0133 18.871 71.0083C18.9034 70.9976 18.9383 71.015 18.949 71.0474C18.9597 71.0798 18.9422 71.1147 18.9099 71.1254C18.894 71.1307 18.5124 71.2551 17.8263 71.2919C17.7145 71.2978 17.5907 71.3016 17.4554 71.3016Z" fill="#302626"/>
<path d="M18.6884 34.4954L18.3723 31.1508L20.6947 31.9589L20.9232 34.4703C20.9387 34.6416 21.049 34.7896 21.2087 34.8535L22.3465 35.309C22.3465 35.309 20.5846 37.8574 17.2312 35.458C17.6153 35.3055 18.1063 35.0933 18.4169 34.9572C18.5976 34.878 18.7069 34.6918 18.6884 34.4954Z" fill="#F59979"/>
<path d="M18.5199 32.7115L18.4165 31.6171C18.541 31.5137 18.7092 31.4701 18.768 31.2885L20.6948 31.9589L20.8594 33.7682C20.2361 33.7912 19.0563 33.5526 18.5199 32.7115Z" fill="#DD7A5C"/>
<path d="M21.8555 29.8291C21.84 29.8291 21.8245 29.8233 21.8125 29.8117C21.7881 29.788 21.7875 29.7489 21.8112 29.7245C22.1077 29.4192 22.2361 28.9392 22.1383 28.5016C22.0449 28.0842 21.7531 27.6998 21.3575 27.4733C20.9836 27.2593 20.5237 27.1801 20.0627 27.2504C20.029 27.2554 19.9975 27.2324 19.9924 27.1987C19.9873 27.165 20.0104 27.1336 20.0441 27.1284C20.5325 27.0541 21.0208 27.1385 21.4188 27.3663C21.8439 27.6096 22.1579 28.024 22.2587 28.4747C22.367 28.9592 22.2294 29.471 21.8997 29.8104C21.8876 29.8229 21.8716 29.8291 21.8555 29.8291Z" fill="#302626"/>
<path d="M21.3142 30.7384C21.3142 30.7384 21.6704 29.9843 22.1543 30.3143C22.2879 30.4053 22.3803 30.5477 22.4141 30.7058C22.4859 31.0411 22.4363 31.6186 21.6041 31.8125C21.6192 31.8477 21.3142 30.7384 21.3142 30.7384Z" fill="#DD7A5C"/>
<path d="M18.0829 30.6511C18.1415 32.1967 19.056 33.3229 20.1243 33.3764C21.7308 33.4569 22.0122 32.0501 21.9536 30.5045C21.895 28.9588 20.9811 27.7387 19.9122 27.7792C18.8434 27.8197 18.0243 29.1055 18.0829 30.6511Z" fill="#F59979"/>
<path d="M19.5679 30.9783C19.6213 30.9728 19.6561 30.8844 19.6456 30.7808C19.6351 30.6772 19.5832 30.5976 19.5298 30.603C19.4764 30.6084 19.4416 30.6968 19.4521 30.8004C19.4626 30.9041 19.5145 30.9837 19.5679 30.9783Z" fill="#302626"/>
<path d="M21.4099 30.7148C21.4204 30.8184 21.3857 30.9068 21.3322 30.9122C21.2788 30.9176 21.227 30.838 21.2165 30.7344C21.206 30.6308 21.2408 30.5423 21.2942 30.5369C21.3476 30.5315 21.3994 30.6111 21.4099 30.7148Z" fill="#302626"/>
<path d="M21.9294 30.1894C21.8277 29.8152 21.5748 29.0919 20.7978 29.2018C20.5619 29.2352 18.8304 29.3302 18.7556 28.7172C18.7228 28.4487 18.6219 28.2281 18.5366 27.9714C18.6292 27.5745 18.9418 27.2496 19.4083 27.1594C22.1297 26.633 22.3407 29.3906 21.9294 30.1894Z" fill="#302626"/>
<path d="M18.0733 30.9716C18.1925 30.6424 18.1274 30.2423 18.335 29.948C18.408 29.8445 18.494 29.7506 18.5656 29.6461C18.7546 29.3701 18.9446 28.9896 18.8949 28.6587C18.8608 28.4317 18.8871 28.2552 18.7832 28.0505C18.7983 27.9213 18.5671 27.7314 18.4461 27.6836C18.3252 27.6357 18.1863 27.6456 18.0633 27.6879C16.5728 28.2001 17.2831 30.2184 17.5016 30.5072C17.6621 30.7193 17.811 31.112 18.0733 30.9716Z" fill="#302626"/>
<path d="M18.2842 30.7202C18.2842 30.7202 17.6496 30.1791 17.344 30.6788C17.2596 30.8168 17.2339 30.9844 17.268 31.1425C17.3404 31.4778 17.6228 31.9839 18.4612 31.8187C18.462 31.8569 18.2842 30.7202 18.2842 30.7202Z" fill="#F59979"/>
<path d="M18.1989 31.4867C18.1775 31.4867 18.1568 31.4755 18.1454 31.4557C17.9146 31.0534 17.5183 31.0164 17.5015 31.015C17.4676 31.0122 17.4423 30.9825 17.445 30.9486C17.4477 30.9148 17.4773 30.8895 17.5111 30.892C17.5305 30.8935 17.9882 30.9337 18.2524 31.3943C18.2693 31.4239 18.2591 31.4616 18.2296 31.4785C18.2199 31.484 18.2093 31.4867 18.1989 31.4867Z" fill="#302626"/>
<path d="M17.7371 31.3808C17.7218 31.3808 17.7065 31.3751 17.6946 31.3638C17.6699 31.3403 17.6689 31.3012 17.6924 31.2766L17.8679 31.0923C17.8914 31.0677 17.9304 31.0667 17.9551 31.0902C17.9798 31.1137 17.9807 31.1528 17.9572 31.1774L17.7818 31.3616C17.7696 31.3744 17.7534 31.3808 17.7371 31.3808Z" fill="#302626"/>
<path d="M19.1835 30.3551C19.1555 30.3551 19.1302 30.336 19.1235 30.3076C19.1157 30.2745 19.1362 30.2413 19.1693 30.2334C19.5534 30.1425 19.8409 30.2058 19.853 30.2085C19.8862 30.2161 19.907 30.2491 19.8994 30.2823C19.8919 30.3155 19.8589 30.3363 19.8257 30.3289C19.823 30.3282 19.5523 30.2696 19.1977 30.3535C19.193 30.3546 19.1882 30.3551 19.1835 30.3551Z" fill="#302626"/>
<path d="M21.6493 30.2618C21.6433 30.2618 21.6372 30.2609 21.6312 30.2591C21.6283 30.2582 21.3401 30.172 21.0645 30.2446C21.0316 30.2533 20.9978 30.2337 20.9891 30.2007C20.9804 30.1678 21.0001 30.134 21.033 30.1253C21.3435 30.0435 21.6543 30.1371 21.6674 30.1412C21.6999 30.1512 21.7182 30.1857 21.7082 30.2183C21.7 30.2447 21.6756 30.2618 21.6493 30.2618Z" fill="#302626"/>
<path d="M20.5632 31.7349C20.5011 31.7349 20.4314 31.7275 20.3542 31.7128C20.3207 31.7064 20.2988 31.6741 20.3052 31.6406C20.3116 31.6072 20.3439 31.5852 20.3774 31.5916C20.5631 31.6271 20.6986 31.6146 20.7589 31.5564C20.8005 31.5162 20.7972 31.4626 20.796 31.4511C20.6367 30.8626 20.6208 30.4467 20.6202 30.4292C20.6191 30.3952 20.6457 30.3667 20.6797 30.3655C20.7137 30.3645 20.7423 30.391 20.7435 30.425C20.7437 30.4292 20.7599 30.847 20.916 31.4226C20.9165 31.4243 20.9169 31.4261 20.9172 31.4279C20.9181 31.4329 20.9383 31.5526 20.8467 31.6431C20.7849 31.7042 20.6899 31.7349 20.5632 31.7349Z" fill="#302626"/>
<path d="M20.8369 32.3072L19.7476 32.0848C19.7476 32.0848 20.0049 33.1124 20.8369 32.3072Z" fill="white"/>
<path d="M21.1551 34.821C21.1551 34.821 19.7604 36.3278 18.2244 35.0847C18.1962 35.0947 16.7009 35.4413 15.1832 35.1078C15.2647 35.3993 15.7967 44.6369 15.6585 47.9575C16.2769 48.252 20.1046 49.1452 24.3558 47.3978C24.0477 43.6848 23.6952 38.4029 24.6567 36.0847C24.4155 35.9299 23.1121 34.987 21.1551 34.821Z" fill="#FDD3A4"/>
<path d="M19.481 35.5858C19.0325 35.5858 18.6172 35.4204 18.2552 35.0929C18.2299 35.07 18.228 35.031 18.2508 35.0058C18.2736 34.9805 18.3126 34.9785 18.3379 35.0014C18.8685 35.4814 19.4946 35.5892 20.1988 35.3218C20.7313 35.1196 21.111 34.7677 21.1148 34.7642C21.1396 34.7409 21.1787 34.7422 21.2019 34.7671C21.2252 34.7919 21.224 34.8309 21.1991 34.8542C21.1831 34.8692 20.8004 35.2244 20.2461 35.4358C19.9833 35.536 19.7272 35.5858 19.481 35.5858Z" fill="#302626"/>
<path d="M12.1803 34.4374C12.3433 34.2328 12.5069 33.7991 12.3022 33.3616C11.7446 32.1694 10.4314 28.3892 9.80094 27.2723C9.75653 27.1711 9.7514 27.2454 9.71555 27.1702C9.36186 27.4894 8.46389 27.6623 8.3645 27.7018C8.52569 28.425 9.05103 33.9024 10.1863 35.13C10.7195 35.7066 11.7888 34.9288 12.1803 34.4374Z" fill="#F59979"/>
<path d="M9.8173 27.4548C9.7927 27.1452 9.7621 26.9548 9.7621 26.9548C9.7621 26.9548 9.35507 25.8485 9.06719 25.262C9.06696 25.2621 9.06674 25.2622 9.06652 25.2623C8.86408 24.8204 8.18357 23.3821 7.94264 23.4705C7.81226 23.5437 7.90383 24.0226 8.38868 25.1164C8.39531 25.1314 8.39277 25.1491 8.38236 25.1619C8.38216 25.1621 8.38199 25.1624 8.38179 25.1626C8.36275 25.1858 8.32616 25.1816 8.31214 25.1552C8.08436 24.7255 7.45374 23.5847 7.22253 23.6696C7.15976 23.7048 7.1284 23.7922 7.18717 24.0107C7.09499 23.8894 7.01219 23.8193 6.9508 23.8379C6.81557 23.9038 6.80348 24.2039 7.41355 25.499C7.41513 25.4985 7.41982 25.5082 7.42655 25.5248C7.39961 25.5372 7.36719 25.5372 7.33867 25.5177C7.33775 25.5171 7.33682 25.5164 7.33588 25.5158C7.16151 25.2413 6.96028 24.9471 6.7905 24.7589C6.75591 24.7293 6.72416 24.6969 6.69569 24.6622C6.6101 24.5838 6.53748 24.545 6.48767 24.567C6.37197 24.642 6.38288 24.8988 6.96798 25.8643L6.96793 25.8644L6.9682 25.8649C7.07331 26.193 7.34844 26.7245 7.34844 26.7245L7.3567 26.7182C7.53156 27.016 7.82433 27.3629 8.42611 27.7412C8.33928 28.0191 9.87365 28.1644 9.8173 27.4548Z" fill="#F59979"/>
<path d="M9.46093 24.2755C9.4971 24.4408 9.6158 24.9723 9.74099 25.4093C9.78725 25.5708 9.82429 25.7345 9.85394 25.8998C9.93194 26.3347 10.0658 27.2141 9.62821 27.4276C9.59283 27.4448 8.62113 27.0162 8.90763 25.6758C8.90504 25.6716 9.17581 25.8125 9.14176 24.9892C9.11563 24.8403 9.11469 24.206 9.36122 24.2019C9.41094 24.2011 9.45165 24.2331 9.46093 24.2755Z" fill="#F59979"/>
<path d="M8.85195 27.1289C8.83048 27.1289 8.80963 27.1177 8.79826 27.0976C8.28442 26.1933 9.07156 25.3551 9.07958 25.3468C9.10317 25.3222 9.1422 25.3213 9.1668 25.3449C9.1914 25.3685 9.19224 25.4075 9.16867 25.4321C9.16596 25.435 8.98049 25.6315 8.85695 25.9277C8.69362 26.3194 8.70995 26.6925 8.90554 27.0367C8.92236 27.0663 8.912 27.104 8.88237 27.1208C8.87275 27.1263 8.86228 27.1289 8.85195 27.1289Z" fill="#302626"/>
<path d="M10.0739 35.0042C10.0739 35.0042 11.2296 36.427 12.6379 37.2017C12.8751 36.9313 14.4484 35.0201 14.4484 35.0201C14.4484 35.0201 13.3333 34.4312 12.1791 33.0856C12.1947 33.1217 10.6151 33.5951 10.0739 35.0042Z" fill="#F59979"/>
<path d="M17.851 35.1542C16.1002 35.6519 14.7383 34.9156 13.1539 33.73C12.8626 33.7274 11.0034 34.9894 10.9513 36.9757C12.401 38.2274 15.1789 39.9631 15.417 41.1639C15.6518 42.3482 17.8478 38.0355 17.851 35.1542Z" fill="#FDD3A4"/>
<path d="M11.7192 33.6743C11.7032 33.6743 11.6872 33.6681 11.6751 33.6558C11.6513 33.6314 11.6516 33.5924 11.676 33.5685L12.1592 33.0953C12.1835 33.0714 12.2226 33.0718 12.2464 33.0962C12.2703 33.1205 12.2699 33.1596 12.2455 33.1834L11.7623 33.6567C11.7503 33.6684 11.7347 33.6743 11.7192 33.6743Z" fill="#302626"/>
<path d="M26.2058 35.4894C26.1402 35.2361 26.1673 34.7734 26.5324 34.4571C27.5271 33.5952 30.2656 30.6772 31.2962 29.9137C31.378 29.8393 31.3524 29.9093 31.4158 29.8552C31.6088 30.2908 32.3586 30.8143 32.4333 30.8908C31.9916 31.4857 29.2817 36.2747 27.745 36.9338C27.0233 37.2433 26.3633 36.0975 26.2058 35.4894Z" fill="#F59979"/>
<path d="M31.4609 29.6396C31.4609 29.6396 32.2831 28.7948 32.7849 28.3763C33.1349 28.7774 33.9539 29.5448 33.9912 30.2112C33.7057 30.4665 33.2908 30.7689 32.361 30.9017C32.3271 31.1909 30.8665 30.699 31.2069 30.0738C31.3555 29.801 31.4609 29.6396 31.4609 29.6396Z" fill="#F59979"/>
<path d="M35.2976 27.9372C35.2491 27.8952 35.145 27.9256 35.0114 27.9988C35.154 27.8232 35.1609 27.7306 35.1179 27.6729C34.9413 27.5012 33.9009 28.2865 33.5179 28.5862C33.4943 28.6046 33.4592 28.5936 33.4512 28.5646C33.4512 28.5643 33.4511 28.564 33.451 28.5637C33.4467 28.5478 33.4516 28.5305 33.4638 28.5196C34.352 27.7179 34.6306 27.3178 34.5413 27.1979C34.3241 26.9867 32.6809 28.4696 32.6809 28.4696L33.7592 30.4118C33.7592 30.4118 34.2269 30.0384 34.4565 29.7816L34.4569 29.7812L34.4569 29.7811C35.3844 29.1375 35.4989 28.9073 35.4238 28.7918C35.3872 28.7514 35.3051 28.7573 35.195 28.794C35.1549 28.8142 35.1127 28.8308 35.0691 28.8437C34.8374 28.9465 34.5338 29.1332 34.2628 29.313C34.2617 29.3132 34.2605 29.3134 34.2594 29.3136C34.2255 29.3198 34.1959 29.3066 34.1763 29.2844C34.1891 29.2721 34.1974 29.265 34.1987 29.2661C35.2832 28.3315 35.3943 28.0525 35.2976 27.9372Z" fill="#F59979"/>
<path d="M32.8269 27.3149C32.7265 27.4512 32.4018 27.8883 32.1095 28.2365C32.0015 28.3652 31.901 28.4996 31.8066 28.6385C31.5583 29.004 31.078 29.7527 31.3908 30.1258C31.4161 30.156 32.4781 30.1601 32.7622 28.8192C32.7662 28.8164 32.4616 28.8348 32.8278 28.0968C32.9123 27.9714 33.1714 27.3925 32.9479 27.2883C32.9028 27.2673 32.8526 27.28 32.8269 27.3149Z" fill="#F59979"/>
<path d="M32.2465 30.1744C32.2276 30.1744 32.2089 30.1658 32.1968 30.1493C32.1766 30.1219 32.1825 30.0833 32.2099 30.0631C32.5287 29.8283 32.6955 29.4942 32.7058 29.0699C32.7136 28.7483 32.6238 28.4928 32.6229 28.4903C32.6114 28.4583 32.6281 28.4229 32.6602 28.4115C32.6922 28.4 32.7275 28.4166 32.739 28.4487C32.7429 28.4596 33.1206 29.5456 32.2831 30.1624C32.2721 30.1705 32.2592 30.1744 32.2465 30.1744Z" fill="#302626"/>
<path d="M27.8989 36.8646C27.8989 36.8646 26.264 37.6936 24.6623 37.8279C24.5557 37.4843 23.8969 35.0981 23.8969 35.0981C23.8969 35.0981 25.1551 35.0142 26.7572 34.2551C26.7282 34.2818 27.9782 35.3573 27.8989 36.8646Z" fill="#F59979"/>
<path d="M21.2568 34.804C22.4412 35.0514 23.6767 34.8826 25.6063 34.4437C25.8735 34.5598 27.0589 36.4687 26.2989 38.3046C24.4654 38.8586 22.256 40.634 21.5502 41.6342C20.8541 42.6207 20.088 37.4375 21.2568 34.804Z" fill="#FDD3A4"/>
<path d="M26.9627 34.9854C26.9381 34.9854 26.9149 34.9706 26.9053 34.9464L26.6567 34.3174C26.6441 34.2857 26.6597 34.2499 26.6914 34.2373C26.723 34.2248 26.7589 34.2403 26.7714 34.272L27.0201 34.901C27.0326 34.9327 27.0171 34.9685 26.9854 34.9811C26.978 34.984 26.9703 34.9854 26.9627 34.9854Z" fill="#302626"/>
<path d="M24.0063 40.8302C24.0056 40.8302 24.0048 40.8301 24.004 40.8301C23.97 40.8289 23.9434 40.8003 23.9446 40.7662C23.989 39.5418 24.1077 38.6958 24.2975 38.2517C24.3108 38.2204 24.3472 38.2059 24.3784 38.2193C24.4098 38.2326 24.4243 38.2689 24.4109 38.3002C24.2271 38.7303 24.1117 39.5614 24.0679 40.7707C24.0667 40.804 24.0393 40.8302 24.0063 40.8302Z" fill="#302626"/>
<path d="M15.5777 42.6713C15.5775 42.6713 15.5772 42.6713 15.577 42.6713C15.543 42.6709 15.5157 42.6429 15.5161 42.6089C15.5164 42.5799 15.5463 39.6968 15.1959 38.3833C15.1872 38.3503 15.2067 38.3165 15.2397 38.3077C15.2726 38.299 15.3064 38.3185 15.3152 38.3514C15.6698 39.6812 15.6398 42.5812 15.6394 42.6103C15.639 42.6441 15.6115 42.6713 15.5777 42.6713Z" fill="#302626"/>
<defs>
<linearGradient id="paint0_linear_21_3792" x1="50.8626" y1="22.7095" x2="53.4352" y2="22.7095" gradientUnits="userSpaceOnUse">
<stop stop-color="#F4C467"/>
<stop offset="1" stop-color="#F4B267"/>
</linearGradient>
<linearGradient id="paint1_linear_21_3792" x1="14.0376" y1="1.5641" x2="17.1658" y2="1.5641" gradientUnits="userSpaceOnUse">
<stop stop-color="#F4C467"/>
<stop offset="1" stop-color="#F4B267"/>
</linearGradient>
<linearGradient id="paint2_linear_21_3792" x1="2.12718" y1="39.3471" x2="4.35488" y2="39.3471" gradientUnits="userSpaceOnUse">
<stop stop-color="#F4C467"/>
<stop offset="1" stop-color="#F4B267"/>
</linearGradient>
<linearGradient id="paint3_linear_21_3792" x1="54.4783" y1="57.403" x2="58.5566" y2="57.403" gradientUnits="userSpaceOnUse">
<stop stop-color="#F4C467"/>
<stop offset="1" stop-color="#F4B267"/>
</linearGradient>
<linearGradient id="paint4_linear_21_3792" x1="95.8336" y1="35.0715" x2="97.8728" y2="35.0715" gradientUnits="userSpaceOnUse">
<stop stop-color="#F4C467"/>
<stop offset="1" stop-color="#F4B267"/>
</linearGradient>
<linearGradient id="paint5_linear_21_3792" x1="84.7529" y1="6.20117" x2="88.8313" y2="6.20117" gradientUnits="userSpaceOnUse">
<stop stop-color="#F4C467"/>
<stop offset="1" stop-color="#F4B267"/>
</linearGradient>
</defs>
</svg>
