<svg width="20" height="20" viewBox="0 0 20 20" fill="none" xmlns="http://www.w3.org/2000/svg">
<g clip-path="url(#clip0_42_855)">
<path d="M18.4375 8.75C18.1604 8.75034 17.8913 8.84255 17.6723 9.01219C17.4532 9.18184 17.2966 9.41934 17.227 9.6875H14.9898C14.9213 8.57909 14.484 7.52543 13.7477 6.69415L15.3313 5.11094C15.593 5.26509 15.902 5.3185 16.2003 5.26116C16.4986 5.20383 16.7658 5.03968 16.9517 4.79949C17.1377 4.55929 17.2297 4.25952 17.2105 3.95636C17.1913 3.6532 17.0622 3.36745 16.8474 3.15265C16.6326 2.93785 16.3468 2.80875 16.0436 2.78954C15.7405 2.77032 15.4407 2.86231 15.2005 3.04828C14.9603 3.23424 14.7962 3.5014 14.7388 3.79971C14.6815 4.09802 14.7349 4.407 14.8891 4.66875L13.3059 6.25235C12.4746 5.51597 11.4209 5.07872 10.3125 5.01016V2.77305C10.6071 2.69699 10.8638 2.5161 11.0346 2.2643C11.2053 2.01249 11.2784 1.70706 11.24 1.40524C11.2017 1.10342 11.0546 0.825947 10.8263 0.624826C10.598 0.423704 10.3042 0.312744 10 0.312744C9.69576 0.312744 9.40197 0.423704 9.17368 0.624826C8.9454 0.825947 8.7983 1.10342 8.75997 1.40524C8.72163 1.70706 8.79469 2.01249 8.96544 2.2643C9.1362 2.5161 9.39292 2.69699 9.68751 2.77305V5.01016C8.57909 5.07872 7.52543 5.51597 6.69415 6.25235L5.11094 4.66875C5.26509 4.407 5.3185 4.09802 5.26116 3.79971C5.20383 3.5014 5.03968 3.23424 4.79949 3.04828C4.55929 2.86231 4.25952 2.77032 3.95636 2.78954C3.6532 2.80875 3.36745 2.93785 3.15265 3.15265C2.93785 3.36745 2.80875 3.6532 2.78954 3.95636C2.77032 4.25952 2.86232 4.55929 3.04828 4.79949C3.23424 5.03968 3.5014 5.20383 3.79971 5.26116C4.09802 5.3185 4.407 5.26509 4.66875 5.11094L6.25235 6.69415C5.51597 7.52543 5.07872 8.57909 5.01016 9.6875H2.77305C2.69699 9.39292 2.5161 9.1362 2.2643 8.96544C2.01249 8.79469 1.70706 8.72163 1.40524 8.75997C1.10342 8.7983 0.825947 8.9454 0.624826 9.17368C0.423704 9.40197 0.312744 9.69576 0.312744 10C0.312744 10.3042 0.423704 10.598 0.624826 10.8263C0.825947 11.0546 1.10342 11.2017 1.40524 11.24C1.70706 11.2784 2.01249 11.2053 2.2643 11.0346C2.5161 10.8638 2.69699 10.6071 2.77305 10.3125H5.01016C5.07872 11.4209 5.51597 12.4746 6.25235 13.3059L4.66875 14.8891C4.407 14.7349 4.09802 14.6815 3.79971 14.7388C3.5014 14.7962 3.23424 14.9603 3.04828 15.2005C2.86232 15.4407 2.77032 15.7405 2.78954 16.0436C2.80875 16.3468 2.93785 16.6326 3.15265 16.8474C3.36745 17.0622 3.6532 17.1913 3.95636 17.2105C4.25952 17.2297 4.55929 17.1377 4.79949 16.9517C5.03968 16.7658 5.20383 16.4986 5.26116 16.2003C5.3185 15.902 5.26509 15.593 5.11094 15.3313L6.69415 13.7477C7.52543 14.484 8.57909 14.9213 9.68751 14.9898V17.227C9.39292 17.303 9.1362 17.4839 8.96544 17.7357C8.79469 17.9875 8.72163 18.293 8.75997 18.5948C8.7983 18.8966 8.9454 19.1741 9.17368 19.3752C9.40197 19.5763 9.69576 19.6873 10 19.6873C10.3042 19.6873 10.598 19.5763 10.8263 19.3752C11.0546 19.1741 11.2017 18.8966 11.24 18.5948C11.2784 18.293 11.2053 17.9875 11.0346 17.7357C10.8638 17.4839 10.6071 17.303 10.3125 17.227V14.9898C11.4209 14.9213 12.4746 14.484 13.3059 13.7477L14.8891 15.3313C14.7349 15.593 14.6815 15.902 14.7388 16.2003C14.7962 16.4986 14.9603 16.7658 15.2005 16.9517C15.4407 17.1377 15.7405 17.2297 16.0436 17.2105C16.3468 17.1913 16.6326 17.0622 16.8474 16.8474C17.0622 16.6326 17.1913 16.3468 17.2105 16.0436C17.2297 15.7405 17.1377 15.4407 16.9517 15.2005C16.7658 14.9603 16.4986 14.7962 16.2003 14.7388C15.902 14.6815 15.593 14.7349 15.3313 14.8891L13.7477 13.3059C14.484 12.4746 14.9213 11.4209 14.9898 10.3125H17.227C17.2854 10.5389 17.4062 10.7443 17.5755 10.9055C17.7448 11.0666 17.956 11.1771 18.185 11.2243C18.4139 11.2715 18.6516 11.2535 18.8708 11.1724C19.0901 11.0913 19.2822 10.9504 19.4254 10.7656C19.5686 10.5808 19.6571 10.3595 19.6808 10.1269C19.7045 9.89435 19.6626 9.65978 19.5597 9.44986C19.4568 9.23994 19.2971 9.06308 19.0987 8.93937C18.9004 8.81565 18.6713 8.75005 18.4375 8.75ZM15.5242 3.5918C15.6116 3.50437 15.7229 3.44481 15.8442 3.42065C15.9654 3.39649 16.0911 3.40882 16.2053 3.45608C16.3195 3.50334 16.4171 3.5834 16.4858 3.68615C16.5546 3.7889 16.5913 3.90971 16.5913 4.03332C16.5914 4.15693 16.5548 4.27778 16.4861 4.38059C16.4175 4.48339 16.32 4.56354 16.2058 4.6109C16.0916 4.65826 15.9659 4.6707 15.8447 4.64665C15.7235 4.6226 15.6121 4.56314 15.5246 4.47579H15.5242V4.4754C15.4072 4.35817 15.3414 4.19927 15.3414 4.0336C15.3414 3.86793 15.4072 3.70903 15.5242 3.5918ZM4.47579 4.4754V4.47579H4.4754C4.35815 4.59293 4.19918 4.6587 4.03344 4.65865C3.86771 4.65859 3.70878 4.59271 3.59161 4.47549C3.47444 4.35827 3.40863 4.19932 3.40865 4.03358C3.40867 3.86784 3.47451 3.7089 3.59171 3.59171C3.7089 3.47451 3.86784 3.40867 4.03358 3.40865C4.19932 3.40863 4.35827 3.47444 4.47549 3.59161C4.59271 3.70878 4.65859 3.86771 4.65865 4.03344C4.6587 4.19918 4.59293 4.35815 4.47579 4.4754ZM1.5625 10.625C1.43889 10.625 1.31805 10.5883 1.21527 10.5197C1.11249 10.451 1.03238 10.3534 0.98508 10.2392C0.937775 10.125 0.925398 9.99931 0.949514 9.87807C0.97363 9.75683 1.03316 9.64547 1.12056 9.55806C1.20797 9.47066 1.31934 9.41113 1.44057 9.38701C1.56181 9.3629 1.68748 9.37527 1.80168 9.42258C1.91589 9.46988 2.0135 9.54999 2.08217 9.65277C2.15085 9.75555 2.1875 9.87639 2.1875 10C2.18729 10.1657 2.12137 10.3245 2.00421 10.4417C1.88704 10.5589 1.7282 10.6248 1.5625 10.625ZM4.47579 16.4082C4.38841 16.4956 4.27707 16.5552 4.15585 16.5794C4.03463 16.6035 3.90896 16.5912 3.79474 16.5439C3.68053 16.4967 3.58289 16.4166 3.51417 16.3139C3.44546 16.2111 3.40875 16.0903 3.4087 15.9667C3.40865 15.8431 3.44524 15.7222 3.51387 15.6194C3.58249 15.5166 3.68006 15.4365 3.79423 15.3891C3.90841 15.3417 4.03406 15.3293 4.15531 15.3534C4.27655 15.3774 4.38794 15.4369 4.4754 15.5242H4.47579V15.5246C4.59285 15.6418 4.6586 15.8007 4.6586 15.9664C4.6586 16.1321 4.59285 16.291 4.47579 16.4082ZM15.5242 15.5246V15.5242H15.5246C15.6419 15.4071 15.8008 15.3413 15.9666 15.3414C16.1323 15.3414 16.2912 15.4073 16.4084 15.5245C16.5256 15.6417 16.5914 15.8007 16.5914 15.9664C16.5913 16.1322 16.5255 16.2911 16.4083 16.4083C16.2911 16.5255 16.1322 16.5913 15.9664 16.5914C15.8007 16.5914 15.6417 16.5256 15.5245 16.4084C15.4073 16.2912 15.3414 16.1323 15.3414 15.9666C15.3413 15.8008 15.4071 15.6419 15.5242 15.5246ZM9.37501 1.5625C9.37501 1.43889 9.41166 1.31805 9.48034 1.21527C9.54901 1.11249 9.64662 1.03238 9.76083 0.98508C9.87503 0.937775 10.0007 0.925398 10.1219 0.949514C10.2432 0.97363 10.3545 1.03315 10.4419 1.12056C10.5294 1.20797 10.5889 1.31933 10.613 1.44057C10.6371 1.56181 10.6247 1.68748 10.5774 1.80168C10.5301 1.91589 10.45 2.0135 10.3472 2.08217C10.2445 2.15085 10.1236 2.1875 10 2.1875C9.83431 2.18729 9.67547 2.12137 9.5583 2.00421C9.44114 1.88704 9.37522 1.7282 9.37501 1.5625ZM10.625 18.4375C10.625 18.5611 10.5884 18.682 10.5197 18.7847C10.451 18.8875 10.3534 18.9676 10.2392 19.0149C10.125 19.0622 9.99931 19.0746 9.87807 19.0505C9.75684 19.0264 9.64547 18.9669 9.55806 18.8794C9.47066 18.792 9.41113 18.6807 9.38701 18.5594C9.3629 18.4382 9.37528 18.3125 9.42258 18.1983C9.46989 18.0841 9.54999 17.9865 9.65277 17.9178C9.75555 17.8492 9.87639 17.8125 10 17.8125C10.1657 17.8127 10.3245 17.8786 10.4417 17.9958C10.5589 18.113 10.6248 18.2718 10.625 18.4375ZM10 14.375C9.13471 14.375 8.28885 14.1184 7.56939 13.6377C6.84992 13.157 6.28917 12.4737 5.95803 11.6742C5.6269 10.8748 5.54026 9.99515 5.70907 9.14648C5.87788 8.29782 6.29456 7.51827 6.90641 6.90641C7.51827 6.29456 8.29782 5.87788 9.14649 5.70907C9.99515 5.54026 10.8748 5.6269 11.6742 5.95803C12.4737 6.28917 13.157 6.84992 13.6377 7.56939C14.1184 8.28885 14.375 9.13471 14.375 10C14.3737 11.1599 13.9124 12.272 13.0922 13.0922C12.272 13.9124 11.1599 14.3737 10 14.375ZM18.4375 10.625C18.3139 10.625 18.1931 10.5883 18.0903 10.5197C17.9875 10.451 17.9074 10.3534 17.8601 10.2392C17.8128 10.125 17.8004 9.99931 17.8245 9.87807C17.8486 9.75683 17.9082 9.64547 17.9956 9.55806C18.083 9.47066 18.1943 9.41113 18.3156 9.38701C18.4368 9.3629 18.5625 9.37527 18.6767 9.42258C18.7909 9.46988 18.8885 9.54999 18.9572 9.65277C19.0259 9.75555 19.0625 9.87639 19.0625 10C19.0623 10.1657 18.9964 10.3245 18.8792 10.4417C18.762 10.5589 18.6032 10.6248 18.4375 10.625Z" fill="#F0F0F2"/>
<path d="M12.5 9.80625V9.0625C12.5 8.39946 12.2366 7.76357 11.7678 7.29473C11.2989 6.82589 10.663 6.5625 10 6.5625C9.33696 6.5625 8.70107 6.82589 8.23223 7.29473C7.76339 7.76357 7.5 8.39946 7.5 9.0625V9.80625C7.40391 9.87048 7.32512 9.9574 7.27062 10.0593C7.21611 10.1613 7.18756 10.275 7.1875 10.3906V11.1719C7.18778 11.3583 7.26195 11.537 7.39375 11.6688C7.52555 11.8006 7.70423 11.8747 7.89062 11.875H8.4375C8.52038 11.875 8.59987 11.8421 8.65847 11.7835C8.71708 11.7249 8.75 11.6454 8.75 11.5625V10C8.75 9.91712 8.71708 9.83763 8.65847 9.77903C8.59987 9.72042 8.52038 9.6875 8.4375 9.6875H8.125V9.0625C8.125 8.56522 8.32254 8.08831 8.67417 7.73667C9.02581 7.38504 9.50272 7.1875 10 7.1875C10.4973 7.1875 10.9742 7.38504 11.3258 7.73667C11.6775 8.08831 11.875 8.56522 11.875 9.0625V9.6875H11.5625C11.4796 9.6875 11.4001 9.72042 11.3415 9.77903C11.2829 9.83763 11.25 9.91712 11.25 10V11.5625C11.25 11.6454 11.2829 11.7249 11.3415 11.7835C11.4001 11.8421 11.4796 11.875 11.5625 11.875H11.875V12.5H10.3125C10.2296 12.5 10.1501 12.5329 10.0915 12.5915C10.0329 12.6501 10 12.7296 10 12.8125C10 12.8954 10.0329 12.9749 10.0915 13.0335C10.1501 13.0921 10.2296 13.125 10.3125 13.125H11.875C12.0407 13.1248 12.1995 13.0589 12.3167 12.9417C12.4339 12.8245 12.4998 12.6657 12.5 12.5V11.7562C12.5961 11.692 12.6749 11.6051 12.7294 11.5032C12.7839 11.4012 12.8124 11.2875 12.8125 11.1719V10.3906C12.8124 10.275 12.7839 10.1613 12.7294 10.0593C12.6749 9.9574 12.5961 9.87048 12.5 9.80625ZM8.125 11.25H7.89062C7.86992 11.2499 7.85009 11.2417 7.83545 11.227C7.82081 11.2124 7.81256 11.1926 7.8125 11.1719V10.3906C7.81256 10.3699 7.82081 10.3501 7.83545 10.3355C7.85009 10.3208 7.86992 10.3126 7.89062 10.3125H8.125V11.25ZM12.1875 11.1719C12.1874 11.1926 12.1792 11.2124 12.1645 11.227C12.1499 11.2417 12.1301 11.2499 12.1094 11.25H11.875V10.3125H12.1094C12.1301 10.3126 12.1499 10.3208 12.1645 10.3355C12.1792 10.3501 12.1874 10.3699 12.1875 10.3906V11.1719Z" fill="#F0F0F2"/>
</g>
<defs>
<clipPath id="clip0_42_855">
<rect width="20" height="20" fill="white"/>
</clipPath>
</defs>
</svg>
