<svg width="20" height="20" viewBox="0 0 20 20" fill="none" xmlns="http://www.w3.org/2000/svg">
<path d="M19.8438 10C19.8438 13.25 17.2187 15.9063 13.9375 15.9063C10.6875 15.9063 8.03125 13.25 8.03125 10C8.03125 6.75 10.6562 4.09375 13.9062 4.09375C17.2188 4.09375 19.8438 6.75 19.8438 10Z" fill="#1B1E28"/>
<path d="M13.9375 4.09375C17.1875 4.09375 19.8438 6.75 19.8438 10C19.8438 13.25 17.2187 15.9063 13.9375 15.9063C10.6875 15.9063 8.03125 13.25 8.03125 10" fill="#1B1E28"/>
<path d="M13.9375 4.09375C17.1875 4.09375 19.8438 6.75 19.8438 10C19.8438 13.25 17.2188 15.9063 13.9375 15.9063" fill="#1B1E28"/>
<path d="M6 4.09375C2.78125 4.125 0.15625 6.75 0.15625 10C0.15625 13.25 2.78125 15.9063 6.0625 15.9063C7.59375 15.9063 8.96875 15.3125 10.0312 14.375C10.25 14.1875 10.4375 13.9688 10.625 13.75H9.40625C9.25 13.5625 9.09375 13.3437 8.96875 13.1562H11.0625C11.1875 12.9687 11.3125 12.75 11.4062 12.5312H8.625C8.53125 12.3437 8.4375 12.125 8.375 11.9062H11.625C11.8125 11.3125 11.9375 10.6875 11.9375 10.0312C11.9375 9.59375 11.875 9.1875 11.8125 8.78125H8.1875C8.21875 8.5625 8.28125 8.375 8.34375 8.15625H11.5938C11.5312 7.9375 11.4375 7.71875 11.3438 7.53125H8.59375C8.6875 7.3125 8.8125 7.125 8.9375 6.90625H11.0312C10.9062 6.6875 10.75 6.46875 10.5625 6.28125H9.40625C9.59375 6.0625 9.78125 5.875 10 5.6875C8.96875 4.71875 7.5625 4.15625 6.03125 4.15625C6.03125 4.09375 6.03125 4.09375 6 4.09375Z" fill="url(#paint0_linear_29_1706)"/>
<path d="M0.15625 10C0.15625 13.25 2.78125 15.9063 6.0625 15.9063C7.59375 15.9063 8.96875 15.3125 10.0312 14.375C10.25 14.1875 10.4375 13.9688 10.625 13.75H9.40625C9.25 13.5625 9.09375 13.3438 8.96875 13.1562H11.0625C11.1875 12.9688 11.3125 12.75 11.4062 12.5312H8.625C8.53125 12.3438 8.4375 12.125 8.375 11.9062H11.625C11.8125 11.3125 11.9375 10.6875 11.9375 10.0312C11.9375 9.59375 11.875 9.1875 11.8125 8.78125H8.1875C8.21875 8.5625 8.28125 8.375 8.34375 8.15625H11.5938C11.5312 7.9375 11.4375 7.71875 11.3438 7.53125H8.59375C8.6875 7.3125 8.8125 7.125 8.9375 6.90625H11.0312C10.9062 6.6875 10.75 6.46875 10.5625 6.28125H9.40625C9.59375 6.0625 9.78125 5.875 10 5.6875C8.96875 4.71875 7.5625 4.15625 6.03125 4.15625H6" fill="url(#paint1_linear_29_1706)"/>
<path d="M6.0625 15.9063C7.59375 15.9063 8.96875 15.3125 10.0312 14.375C10.25 14.1875 10.4375 13.9688 10.625 13.75H9.40625C9.25 13.5625 9.09375 13.3438 8.96875 13.1562H11.0625C11.1875 12.9688 11.3125 12.75 11.4062 12.5312H8.625C8.53125 12.3438 8.4375 12.125 8.375 11.9062H11.625C11.8125 11.3125 11.9375 10.6875 11.9375 10.0312C11.9375 9.59375 11.875 9.1875 11.8125 8.78125H8.1875C8.21875 8.5625 8.28125 8.375 8.34375 8.15625H11.5937C11.5312 7.9375 11.4375 7.71875 11.3437 7.53125H8.59375C8.6875 7.3125 8.8125 7.125 8.9375 6.90625H11.0312C10.9062 6.6875 10.75 6.46875 10.5625 6.28125H9.40625C9.59375 6.0625 9.78125 5.875 10 5.6875C8.96875 4.71875 7.5625 4.15625 6.03125 4.15625H6" fill="url(#paint2_linear_29_1706)"/>
<path d="M8.15625 11.5L8.25 10.9687C8.21875 10.9687 8.15625 11 8.09375 11C7.875 11 7.84375 10.875 7.875 10.8125L8.0625 9.71875H8.40625L8.5 9.125H8.1875L8.25 8.75H7.625C7.625 8.75 7.25 10.8125 7.25 11.0625C7.25 11.4375 7.46875 11.5937 7.75 11.5937C7.9375 11.5937 8.09375 11.5312 8.15625 11.5Z" fill="#F0F0F2"/>
<path d="M8.375 10.5C8.375 11.375 8.96875 11.5938 9.46875 11.5938C9.9375 11.5938 10.125 11.5 10.125 11.5L10.25 10.9063C10.25 10.9063 9.90625 11.0625 9.59375 11.0625C8.90625 11.0625 9.03125 10.5625 9.03125 10.5625H10.3125C10.3125 10.5625 10.4062 10.1563 10.4062 10C10.4062 9.5938 10.1875 9.0938 9.5 9.0938C8.84375 9.0313 8.375 9.7188 8.375 10.5ZM9.46875 9.5938C9.8125 9.5938 9.75 10 9.75 10.0313H9.0625C9.0625 10 9.125 9.5938 9.46875 9.5938Z" fill="#F0F0F2"/>
<path d="M13.4375 11.5L13.5625 10.8125C13.5625 10.8125 13.25 10.9687 13.0313 10.9687C12.5938 10.9687 12.4063 10.625 12.4063 10.25C12.4063 9.5 12.7812 9.09375 13.2187 9.09375C13.5312 9.09375 13.7812 9.28125 13.7812 9.28125L13.875 8.625C13.875 8.625 13.5 8.46875 13.1562 8.46875C12.4375 8.46875 11.7188 9.09375 11.7188 10.2813C11.7188 11.0625 12.0937 11.5937 12.8437 11.5937C13.0937 11.5937 13.4375 11.5 13.4375 11.5Z" fill="#F0F0F2"/>
<path d="M4.71875 9.03125C4.28125 9.03125 3.96875 9.15625 3.96875 9.15625L3.875 9.6875C3.875 9.6875 4.15625 9.5625 4.5625 9.5625C4.78125 9.5625 4.96875 9.59375 4.96875 9.78125C4.96875 9.90625 4.9375 9.9375 4.9375 9.9375C4.9375 9.9375 4.75 9.9375 4.65625 9.9375C4.125 9.9375 3.53125 10.1562 3.53125 10.875C3.53125 11.4375 3.90625 11.5625 4.125 11.5625C4.5625 11.5625 4.75 11.2812 4.78125 11.2812L4.75 11.5313H5.3125L5.5625 9.8125C5.5625 9.0625 4.9375 9.03125 4.71875 9.03125ZM4.84375 10.4375C4.84375 10.5313 4.78125 11.0312 4.40625 11.0312C4.21875 11.0312 4.15625 10.875 4.15625 10.7813C4.15625 10.625 4.25 10.4062 4.71875 10.4062C4.8125 10.4375 4.84375 10.4375 4.84375 10.4375Z" fill="#F0F0F2"/>
<path d="M6.15625 11.5625C6.3125 11.5625 7.09375 11.5938 7.09375 10.75C7.09375 9.96875 6.34375 10.125 6.34375 9.8125C6.34375 9.65625 6.46875 9.59375 6.6875 9.59375C6.78125 9.59375 7.125 9.625 7.125 9.625L7.21875 9.0625C7.21875 9.0625 7 9 6.625 9C6.15625 9 5.6875 9.1875 5.6875 9.8125C5.6875 10.5313 6.46875 10.4688 6.46875 10.75C6.46875 10.9375 6.25 10.9687 6.09375 10.9687C5.8125 10.9687 5.53125 10.875 5.53125 10.875L5.4375 11.4375C5.46875 11.5 5.625 11.5625 6.15625 11.5625Z" fill="#F0F0F2"/>
<path d="M18.625 8.53125L18.5 9.375C18.5 9.375 18.25 9.0625 17.9062 9.0625C17.3437 9.0625 16.8438 9.75 16.8438 10.5625C16.8438 11.0625 17.0937 11.5937 17.625 11.5937C18 11.5937 18.2187 11.3438 18.2187 11.3438L18.1875 11.5625H18.8125L19.2812 8.5625L18.625 8.53125ZM18.3437 10.1875C18.3437 10.5312 18.1875 10.9687 17.8437 10.9687C17.625 10.9687 17.5 10.7813 17.5 10.4688C17.5 9.96875 17.7187 9.65625 18 9.65625C18.2187 9.65625 18.3437 9.8125 18.3437 10.1875Z" fill="#F0F0F2"/>
<path d="M1.3125 11.5313L1.6875 9.28125L1.75 11.5313H2.1875L3 9.28125L2.65625 11.5313H3.3125L3.8125 8.53125H2.78125L2.15625 10.375L2.125 8.53125H1.21875L0.71875 11.5313H1.3125Z" fill="#F0F0F2"/>
<path d="M11 11.5313C11.1875 10.5 11.2187 9.65625 11.6562 9.8125C11.7187 9.40625 11.8125 9.25 11.875 9.09375C11.875 9.09375 11.8437 9.09375 11.75 9.09375C11.4687 9.09375 11.25 9.46875 11.25 9.46875L11.3125 9.125H10.7187L10.3125 11.5625H11V11.5313Z" fill="#F0F0F2"/>
<path d="M14.875 9.03125C14.4375 9.03125 14.125 9.15625 14.125 9.15625L14.0313 9.6875C14.0313 9.6875 14.3125 9.5625 14.7187 9.5625C14.9375 9.5625 15.125 9.59375 15.125 9.78125C15.125 9.90625 15.0938 9.9375 15.0938 9.9375C15.0938 9.9375 14.9063 9.9375 14.8125 9.9375C14.2813 9.9375 13.6875 10.1562 13.6875 10.875C13.6875 11.4375 14.0625 11.5625 14.2813 11.5625C14.7188 11.5625 14.9062 11.2812 14.9375 11.2812L14.9063 11.5313H15.4688L15.7188 9.8125C15.75 9.0625 15.0937 9.03125 14.875 9.03125ZM15.0312 10.4375C15.0312 10.5313 14.9688 11.0312 14.5938 11.0312C14.4063 11.0312 14.3438 10.875 14.3438 10.7813C14.3438 10.625 14.4375 10.4062 14.9063 10.4062C15 10.4375 15 10.4375 15.0312 10.4375Z" fill="#F0F0F2"/>
<path d="M16.25 11.5313C16.4375 10.5 16.4687 9.65625 16.9062 9.8125C16.9687 9.40625 17.0625 9.25 17.125 9.09375C17.125 9.09375 17.0938 9.09375 17 9.09375C16.7188 9.09375 16.5 9.46875 16.5 9.46875L16.5625 9.125H15.9687L15.5625 11.5625H16.25V11.5313Z" fill="#F0F0F2"/>
<path d="M7.1875 11.0625C7.1875 11.4375 7.40625 11.5937 7.6875 11.5937C7.90625 11.5937 8.09375 11.5312 8.15625 11.5L8.25 10.9687C8.21875 10.9687 8.15625 11 8.09375 11C7.875 11 7.84375 10.875 7.875 10.8125L8.0625 9.71875H8.40625L8.5 9.125H8.1875L8.25 8.75" fill="#B6BDC7"/>
<path d="M8.6875 10.5C8.6875 11.375 8.96875 11.5938 9.46875 11.5938C9.9375 11.5938 10.125 11.5 10.125 11.5L10.25 10.9063C10.25 10.9063 9.90625 11.0625 9.59375 11.0625C8.90625 11.0625 9.03125 10.5625 9.03125 10.5625H10.3125C10.3125 10.5625 10.4062 10.1563 10.4062 10C10.4062 9.5938 10.1875 9.0938 9.5 9.0938C8.84375 9.0313 8.6875 9.7188 8.6875 10.5ZM9.46875 9.5938C9.8125 9.5938 9.875 10 9.875 10.0313H9.0625C9.0625 10 9.125 9.5938 9.46875 9.5938Z" fill="#B6BDC7"/>
<path d="M13.4375 11.5L13.5625 10.8125C13.5625 10.8125 13.25 10.9687 13.0313 10.9687C12.5938 10.9687 12.4063 10.625 12.4063 10.25C12.4063 9.5 12.7812 9.09375 13.2187 9.09375C13.5312 9.09375 13.7812 9.28125 13.7812 9.28125L13.875 8.625C13.875 8.625 13.5 8.46875 13.1562 8.46875C12.4375 8.46875 12.0312 9.09375 12.0312 10.2813C12.0312 11.0625 12.0937 11.5937 12.8437 11.5937C13.0937 11.5937 13.4375 11.5 13.4375 11.5Z" fill="#B6BDC7"/>
<path d="M3.875 9.71875C3.875 9.71875 4.15625 9.59375 4.5625 9.59375C4.78125 9.59375 4.96875 9.625 4.96875 9.8125C4.96875 9.9375 4.9375 9.96875 4.9375 9.96875C4.9375 9.96875 4.75 9.96875 4.65625 9.96875C4.125 9.96875 3.53125 10.1875 3.53125 10.9063C3.53125 11.4688 3.90625 11.5937 4.125 11.5937C4.5625 11.5937 4.75 11.3125 4.78125 11.3125L4.75 11.5625H5.3125L5.5625 9.84375C5.5625 9.125 4.9375 9.09375 4.6875 9.09375M5.15625 10.4375C5.15625 10.5313 4.78125 11.0312 4.40625 11.0312C4.21875 11.0312 4.15625 10.875 4.15625 10.7812C4.15625 10.625 4.25 10.4062 4.71875 10.4062C4.8125 10.4375 5.15625 10.4375 5.15625 10.4375Z" fill="#B6BDC7"/>
<path d="M5.46875 11.5C5.46875 11.5 5.65625 11.5625 6.1875 11.5625C6.34375 11.5625 7.125 11.5938 7.125 10.75C7.125 9.96875 6.375 10.125 6.375 9.8125C6.375 9.65625 6.5 9.59375 6.71875 9.59375C6.8125 9.59375 7.15625 9.625 7.15625 9.625L7.25 9.0625C7.25 9.0625 7.03125 9 6.65625 9C6.1875 9 6.03125 9.1875 6.03125 9.8125C6.03125 10.5313 6.5 10.4688 6.5 10.75C6.5 10.9375 6.28125 10.9687 6.125 10.9687" fill="#B6BDC7"/>
<path d="M18.5 9.375C18.5 9.375 18.25 9.0625 17.9063 9.0625C17.3438 9.0625 17.1563 9.75 17.1563 10.5625C17.1563 11.0625 17.0938 11.5937 17.625 11.5937C18 11.5937 18.2188 11.3438 18.2188 11.3438L18.1875 11.5625H18.8125L19.2813 8.5625M18.4688 10.1875C18.4688 10.5312 18.1875 10.9687 17.8438 10.9687C17.625 10.9687 17.5 10.7812 17.5 10.4688C17.5 9.96875 17.7188 9.65625 18 9.65625C18.2188 9.65625 18.4688 9.8125 18.4688 10.1875Z" fill="#B6BDC7"/>
<path d="M1.3125 11.5313L1.6875 9.28125L1.75 11.5313H2.1875L3 9.28125L2.65625 11.5313H3.3125L3.8125 8.53125H3.03125L2.15625 10.375L2.125 8.53125H1.78125L0.71875 11.5313H1.3125Z" fill="#B6BDC7"/>
<path d="M10.3438 11.5313H11C11.1875 10.5 11.2188 9.65625 11.6563 9.8125C11.7188 9.40625 11.8125 9.25 11.875 9.09375C11.875 9.09375 11.8438 9.09375 11.75 9.09375C11.4688 9.09375 11.25 9.46875 11.25 9.46875L11.3125 9.125" fill="#B6BDC7"/>
<path d="M14.0313 9.71875C14.0313 9.71875 14.3125 9.59375 14.7187 9.59375C14.9375 9.59375 15.125 9.625 15.125 9.8125C15.125 9.9375 15.0938 9.96875 15.0938 9.96875C15.0938 9.96875 14.9063 9.96875 14.8125 9.96875C14.2813 9.96875 13.6875 10.1875 13.6875 10.9063C13.6875 11.4688 14.0625 11.5937 14.2813 11.5937C14.7188 11.5937 14.9062 11.3125 14.9375 11.3125L14.9063 11.5625H15.4688L15.7188 9.84375C15.7188 9.125 15.0938 9.09375 14.8438 9.09375M15.3125 10.4375C15.3125 10.5313 14.9375 11.0312 14.5625 11.0312C14.375 11.0312 14.3125 10.875 14.3125 10.7812C14.3125 10.625 14.4062 10.4062 14.875 10.4062C15 10.4375 15.3125 10.4375 15.3125 10.4375Z" fill="#B6BDC7"/>
<path d="M15.5938 11.5313H16.25C16.4375 10.5 16.4687 9.65625 16.9062 9.8125C16.9687 9.40625 17.0625 9.25 17.125 9.09375C17.125 9.09375 17.0938 9.09375 17 9.09375C16.7188 9.09375 16.5 9.46875 16.5 9.46875L16.5625 9.125" fill="#B6BDC7"/>
<defs>
<linearGradient id="paint0_linear_29_1706" x1="-1.19239" y1="-14.1172" x2="15.5668" y2="-13.1736" gradientUnits="userSpaceOnUse">
<stop stop-color="#13161F"/>
<stop offset="0.265" stop-color="#525661"/>
<stop offset="0.615" stop-color="#1E212A"/>
<stop offset="1" stop-color="#494F5C"/>
</linearGradient>
<linearGradient id="paint1_linear_29_1706" x1="-1.19239" y1="-13.9583" x2="15.5662" y2="-13.0098" gradientUnits="userSpaceOnUse">
<stop stop-color="#13161F"/>
<stop offset="0.265" stop-color="#525661"/>
<stop offset="0.615" stop-color="#1E212A"/>
<stop offset="1" stop-color="#494F5C"/>
</linearGradient>
<linearGradient id="paint2_linear_29_1706" x1="5.32031" y1="-13.9583" x2="13.7865" y2="-13.7168" gradientUnits="userSpaceOnUse">
<stop stop-color="#13161F"/>
<stop offset="0.265" stop-color="#525661"/>
<stop offset="0.615" stop-color="#1E212A"/>
<stop offset="1" stop-color="#494F5C"/>
</linearGradient>
</defs>
</svg>
