<svg width="8" height="8" viewBox="0 0 8 8" fill="none" xmlns="http://www.w3.org/2000/svg">
<path d="M3.80262 0.128474C3.87846 -0.0428226 4.12154 -0.0428231 4.19738 0.128473L5.29117 2.59884C5.31289 2.6479 5.3521 2.68711 5.40116 2.70883L7.87153 3.80262C8.04282 3.87846 8.04282 4.12154 7.87153 4.19738L5.40116 5.29117C5.3521 5.31289 5.31289 5.3521 5.29117 5.40116L4.19738 7.87153C4.12154 8.04282 3.87846 8.04282 3.80262 7.87153L2.70883 5.40116C2.68711 5.3521 2.6479 5.31289 2.59884 5.29117L0.128474 4.19738C-0.0428226 4.12154 -0.0428231 3.87846 0.128473 3.80262L2.59884 2.70883C2.6479 2.68711 2.68711 2.6479 2.70883 2.59884L3.80262 0.128474Z" fill="#F0F0F2"/>
</svg>
