<svg width="7" height="8" viewBox="0 0 7 8" fill="none" xmlns="http://www.w3.org/2000/svg">
<path d="M3.29959 0.137271C3.37051 -0.0457688 3.62949 -0.0457691 3.70041 0.137271L4.62444 2.52238C4.64361 2.57188 4.68044 2.61254 4.7278 2.63651L6.88213 3.72662C7.03931 3.80616 7.03931 4.03062 6.88213 4.11016L4.72781 5.20027C4.68044 5.22424 4.64361 5.26489 4.62444 5.3144L3.70041 7.69951C3.62949 7.88255 3.37051 7.88255 3.29959 7.69951L2.37557 5.3144C2.35639 5.26489 2.31956 5.22424 2.2722 5.20027L0.11787 4.11016C-0.0393084 4.03062 -0.0393087 3.80616 0.11787 3.72662L2.2722 2.63651C2.31956 2.61254 2.35639 2.57188 2.37557 2.52238L3.29959 0.137271Z" fill="#F0F0F2"/>
</svg>
