<svg width="32" height="32" viewBox="0 0 32 32" fill="none" xmlns="http://www.w3.org/2000/svg">
<g clip-path="url(#clip0_33_4309)">
<path d="M29.8868 18.4948L25.8636 20.7944L17.5594 16L25.8637 11.2056L29.8868 13.5052C29.9758 13.557 30.0741 13.5908 30.1762 13.6044C30.2782 13.6181 30.382 13.6114 30.4814 13.5848C30.5809 13.5581 30.6741 13.512 30.7556 13.4492C30.8372 13.3863 30.9054 13.3079 30.9565 13.2185C31.0076 13.1291 31.0405 13.0305 31.0533 12.9284C31.0661 12.8262 31.0585 12.7225 31.031 12.6233C31.0035 12.5241 30.9566 12.4313 30.893 12.3503C30.8295 12.2693 30.7505 12.2016 30.6607 12.1513L27.4271 10.3029L29.5708 9.06513C29.7494 8.96149 29.8797 8.79122 29.9329 8.59169C29.9861 8.39215 29.958 8.17965 29.8548 8.0008C29.7515 7.82196 29.5815 7.69138 29.3821 7.63771C29.1827 7.58405 28.9701 7.61169 28.7911 7.71456L26.6473 8.95206L26.6634 5.2275C26.6643 5.0207 26.583 4.82202 26.4374 4.67516C26.2918 4.5283 26.0939 4.44528 25.8871 4.44438H25.8836C25.6774 4.44439 25.4796 4.52609 25.3335 4.67159C25.1874 4.81709 25.1049 5.01455 25.104 5.22075L25.0839 9.85475L16.7798 14.6491V5.06063L20.7828 2.72625C20.8722 2.67516 20.9506 2.60686 21.0135 2.52531C21.0764 2.44376 21.1224 2.35056 21.1491 2.2511C21.1758 2.15164 21.1824 2.04788 21.1688 1.94582C21.1551 1.84375 21.1214 1.74541 21.0695 1.65646C21.0176 1.5675 20.9487 1.48971 20.8666 1.42755C20.7845 1.3654 20.6909 1.32013 20.5912 1.29434C20.4915 1.26856 20.3877 1.26278 20.2857 1.27733C20.1838 1.29188 20.0857 1.32648 19.9973 1.37912L16.7798 3.25537V0.77975C16.7798 0.572947 16.6976 0.374615 16.5514 0.228383C16.4051 0.082152 16.2068 0 16 0C15.7932 0 15.5949 0.082152 15.4486 0.228383C15.3024 0.374615 15.2203 0.572947 15.2203 0.77975V3.25537L12.0028 1.37912C11.9143 1.32648 11.8162 1.29188 11.7143 1.27733C11.6123 1.26278 11.5085 1.26856 11.4088 1.29434C11.3091 1.32013 11.2155 1.3654 11.1334 1.42755C11.0513 1.48971 10.9824 1.5675 10.9305 1.65646C10.8786 1.74541 10.8449 1.84375 10.8312 1.94582C10.8176 2.04788 10.8243 2.15164 10.8509 2.2511C10.8776 2.35056 10.9237 2.44376 10.9865 2.52531C11.0494 2.60686 11.1278 2.67516 11.2172 2.72625L15.2203 5.06063V14.6494L6.91606 9.85506L6.896 5.22106C6.89513 5.01486 6.8126 4.8174 6.66649 4.6719C6.52038 4.5264 6.32258 4.4447 6.11638 4.44469H6.11294C5.90614 4.4456 5.70817 4.52861 5.56258 4.67547C5.41698 4.82233 5.33568 5.02101 5.33656 5.22781L5.35269 8.95238L3.20894 7.71488C3.02987 7.612 2.81731 7.58436 2.61789 7.63803C2.41847 7.69169 2.24848 7.82227 2.14522 8.00111C2.04197 8.17996 2.01388 8.39246 2.06711 8.592C2.12035 8.79153 2.25056 8.9618 2.42919 9.06544L4.57294 10.3033L1.33931 12.1513C1.24949 12.2016 1.17052 12.2693 1.10696 12.3503C1.0434 12.4313 0.996518 12.5241 0.969012 12.6233C0.941507 12.7225 0.933924 12.8262 0.946702 12.9284C0.95948 13.0305 0.992366 13.1291 1.04346 13.2185C1.09456 13.3079 1.16285 13.3863 1.2444 13.4492C1.32595 13.512 1.41914 13.5581 1.5186 13.5848C1.61805 13.6114 1.7218 13.6181 1.82385 13.6044C1.9259 13.5908 2.02424 13.557 2.11319 13.5052L6.13631 11.2056L14.4406 16L6.13638 20.7944L2.11319 18.4948C1.93378 18.3943 1.72194 18.3687 1.52377 18.4237C1.32561 18.4786 1.15717 18.6096 1.05512 18.7881C0.953067 18.9667 0.925675 19.1783 0.978902 19.3769C1.03213 19.5755 1.16167 19.7451 1.33931 19.8487L4.573 21.6971L2.42925 22.9349C2.33918 22.9853 2.26002 23.0532 2.19638 23.1345C2.13273 23.2157 2.08586 23.3089 2.05849 23.4084C2.03112 23.508 2.02378 23.6119 2.03691 23.7143C2.05005 23.8168 2.08339 23.9155 2.13499 24.0049C2.1866 24.0944 2.25545 24.1726 2.33755 24.2352C2.41965 24.2978 2.51336 24.3435 2.61325 24.3696C2.71314 24.3957 2.81722 24.4017 2.91944 24.3872C3.02167 24.3728 3.12001 24.3382 3.20875 24.2854L5.3525 23.0476L5.33638 26.7722C5.3355 26.979 5.41679 27.1777 5.56239 27.3245C5.70799 27.4714 5.90595 27.5544 6.11275 27.5553H6.11619C6.32239 27.5553 6.52019 27.4736 6.6663 27.3281C6.81241 27.1826 6.89494 26.9851 6.89581 26.7789L6.91588 22.1449L15.2201 17.3506V26.9394L11.217 29.2738C11.1276 29.3248 11.0492 29.3931 10.9863 29.4747C10.9235 29.5562 10.8774 29.6494 10.8507 29.7489C10.8241 29.8484 10.8174 29.9521 10.831 30.0542C10.8447 30.1562 10.8784 30.2546 10.9303 30.3435C10.9822 30.4325 11.0512 30.5103 11.1333 30.5724C11.2154 30.6346 11.3089 30.6799 11.4086 30.7057C11.5083 30.7314 11.6121 30.7372 11.7141 30.7227C11.816 30.7081 11.9141 30.6735 12.0026 30.6209L15.2201 28.7446V31.2202C15.2201 31.4271 15.3022 31.6254 15.4484 31.7716C15.5947 31.9178 15.793 32 15.9998 32C16.2066 32 16.4049 31.9178 16.5512 31.7716C16.6974 31.6254 16.7796 31.4271 16.7796 31.2202V28.7446L19.9971 30.6209C20.0856 30.6735 20.1836 30.7081 20.2855 30.7227C20.3875 30.7372 20.4913 30.7314 20.591 30.7057C20.6907 30.6799 20.7843 30.6346 20.8664 30.5724C20.9485 30.5103 21.0175 30.4325 21.0693 30.3435C21.1212 30.2546 21.1549 30.1562 21.1686 30.0542C21.1823 29.9521 21.1756 29.8484 21.1489 29.7489C21.1223 29.6494 21.0762 29.5562 21.0133 29.4747C20.9504 29.3931 20.872 29.3248 20.7826 29.2738L16.7796 26.9394V17.3506L25.0838 22.1449L25.1038 26.7789C25.1047 26.9851 25.1872 27.1826 25.3333 27.3281C25.4794 27.4736 25.6772 27.5553 25.8834 27.5553H25.8869C26.0937 27.5544 26.2916 27.4714 26.4372 27.3245C26.5828 27.1777 26.6641 26.979 26.6633 26.7722L26.6471 23.0476L28.7909 24.2854C28.9699 24.3883 29.1825 24.416 29.3819 24.3623C29.5813 24.3086 29.7513 24.178 29.8546 23.9992C29.9578 23.8204 29.9859 23.6078 29.9327 23.4083C29.8795 23.2088 29.7493 23.0385 29.5706 22.9349L27.4269 21.6971L30.6606 19.8487C30.8382 19.7451 30.9678 19.5755 31.021 19.3769C31.0742 19.1783 31.0468 18.9667 30.9448 18.7881C30.8427 18.6096 30.6743 18.4786 30.4761 18.4237C30.2779 18.3687 30.0661 18.3943 29.8867 18.4948H29.8868Z" fill="#71757F"/>
</g>
<defs>
<clipPath id="clip0_33_4309">
<rect width="32" height="32" fill="white"/>
</clipPath>
</defs>
</svg>
