<svg width="177" height="158" viewBox="0 0 177 158" fill="none" xmlns="http://www.w3.org/2000/svg">
<path fill-rule="evenodd" clip-rule="evenodd" d="M88.4251 148.524C39.5892 148.524 0 150.645 0 153.262C0 155.878 39.5892 158 88.4251 158C137.261 158 176.85 155.879 176.85 153.262C176.85 150.645 137.261 148.524 88.4251 148.524Z" fill="#272A35"/>
<mask id="mask0_70_884" style="mask-type:luminance" maskUnits="userSpaceOnUse" x="52" y="58" width="110" height="88">
<path d="M107.166 58.8452C77.1024 58.8452 52.7309 78.2795 52.7309 102.253C52.7309 126.227 77.1024 145.661 107.166 145.661C137.23 145.661 161.602 126.227 161.602 102.253C161.602 78.2795 137.23 58.8452 107.166 58.8452Z" fill="white"/>
</mask>
<g mask="url(#mask0_70_884)">
<path d="M161.602 58.8452H52.7309V145.661H161.602V58.8452Z" fill="url(#paint0_linear_70_884)"/>
</g>
<path fill-rule="evenodd" clip-rule="evenodd" d="M85.6161 64.7847C103.127 59.7756 110.36 59.667 127.865 64.4766L126.199 68.8489C125.654 68.6937 122.758 67.7924 122.206 67.6527C117.452 66.4494 112.427 65.8041 107.229 65.8041C100.61 65.8041 93.4837 67.2554 87.0539 69.163L85.6161 64.7847Z" fill="#C15508"/>
<path fill-rule="evenodd" clip-rule="evenodd" d="M147.732 63.2608V63.2618L147.73 63.2628C147.389 63.5957 147.008 63.9734 146.597 64.3886L146.597 64.3891C146.01 64.6383 139.874 71.9265 139.96 72.1285C139.93 72.1411 138.417 74.3837 138.451 74.4638C138.427 74.474 138.286 74.7382 138.263 74.7808L138.264 74.7849L138.259 74.787C138.085 75.0981 137.923 75.4075 137.771 75.7142L137.774 75.7192L137.768 75.7218L137.728 75.8024L137.734 75.8168L137.718 75.8234C137.604 76.0589 137.497 76.2924 137.399 76.5238C137.352 76.6332 137.307 76.7438 137.264 76.8522C137.264 76.8522 138.645 77.8072 140.922 78.5776L140.923 78.5773L140.924 78.5781C141.133 78.6488 141.35 78.7181 141.574 78.7848L141.576 78.784L141.576 78.7856C141.724 78.8296 141.875 78.8728 142.029 78.9142L142.034 78.9124L142.035 78.916C142.266 78.9783 142.504 79.0376 142.748 79.0929L142.755 79.0904L142.757 79.0949C143.305 79.2194 143.885 79.3248 144.493 79.401L144.499 79.3987L144.5 79.4016C144.748 79.4325 145.001 79.4589 145.258 79.4795L145.259 79.479L145.259 79.4796L145.42 79.4914L145.425 79.4893L145.426 79.4918L145.585 79.5024L145.591 79.4999L145.592 79.5026L145.751 79.512L145.756 79.5099L145.757 79.5123C146.05 79.5274 146.348 79.5344 146.65 79.5337L146.654 79.5324L146.654 79.5337C146.786 79.5332 146.918 79.532 147.052 79.5287V79.5279C148.495 79.4918 150.04 79.2645 151.647 78.7522L149.402 61.6797L149.402 61.678L149.4 61.6792L149.398 61.6841C149.336 61.7409 148.695 62.3209 147.732 63.2608Z" fill="#FFC045"/>
<path fill-rule="evenodd" clip-rule="evenodd" d="M140.883 151.213V149.849V132.748L139.907 134.353C136.624 136.698 132.241 139.353 127.351 141.093L128.458 149.068L128.85 151.213L140.883 151.213Z" fill="#EB6603"/>
<path fill-rule="evenodd" clip-rule="evenodd" d="M140.883 139.79V133.858C140.578 133.995 140.271 134.13 139.962 134.262L139.907 134.353C136.624 136.698 132.241 139.353 127.351 141.093L127.992 145.708C132.643 144.205 136.975 142.205 140.883 139.79Z" fill="#EB6603"/>
<path fill-rule="evenodd" clip-rule="evenodd" d="M143.486 58.2481V58.2491L143.483 58.2502C143.142 58.5831 142.761 58.9606 142.35 59.376L142.351 59.3765C141.764 59.6257 135.627 66.9138 135.713 67.1159C135.683 67.1286 134.17 69.3711 134.204 69.4512C134.18 69.4614 134.04 69.7255 134.016 69.7682L134.018 69.7722L134.013 69.7742C133.838 70.0854 133.676 70.3948 133.525 70.7016L133.527 70.7066L133.521 70.7092L133.481 70.7898L133.487 70.804L133.471 70.8108C133.357 71.0461 133.251 71.2798 133.152 71.5112C133.105 71.6206 133.06 71.7311 133.017 71.8394C133.017 71.8394 134.398 72.7946 136.675 73.565L136.676 73.5646L136.677 73.5654C136.886 73.6362 137.103 73.7055 137.327 73.7721L137.329 73.7713L137.33 73.773C137.478 73.817 137.628 73.8602 137.782 73.9016L137.787 73.8998L137.788 73.9034C138.02 73.9657 138.258 74.025 138.502 74.0804L138.508 74.0779L138.51 74.0823C139.058 74.2067 139.638 74.3122 140.247 74.3884L140.252 74.3862L140.254 74.3891C140.502 74.42 140.755 74.4464 141.012 74.4669L141.013 74.4665L141.013 74.4672L141.174 74.4789L141.178 74.4768L141.18 74.4794L141.338 74.4899L141.344 74.4873L141.345 74.4901L141.505 74.4996L141.51 74.4975L141.511 74.4998C141.803 74.515 142.101 74.5219 142.404 74.5213L142.407 74.52L142.407 74.5213C142.539 74.5208 142.672 74.5195 142.805 74.5161V74.5156C144.248 74.4794 145.794 74.252 147.4 73.7399L145.156 56.6673L145.155 56.6656L145.153 56.6668L145.151 56.6717C145.089 56.7282 144.449 57.3081 143.486 58.2481Z" fill="#FFC045"/>
<mask id="mask1_70_884" style="mask-type:luminance" maskUnits="userSpaceOnUse" x="155" y="87" width="17" height="32">
<path d="M171.737 101.654C171.744 101.994 171.748 102.335 171.748 102.676C171.748 102.335 171.744 101.994 171.737 101.654ZM171.617 98.9652C171.657 99.5433 171.689 100.122 171.711 100.7C171.689 100.122 171.657 99.5433 171.617 98.9652ZM171.528 97.8699C171.559 98.2078 171.587 98.5457 171.611 98.8838C171.587 98.5457 171.559 98.2078 171.528 97.8699ZM171.438 96.9737C171.464 97.213 171.489 97.4521 171.511 97.6916C171.489 97.4521 171.464 97.213 171.438 96.9737ZM171.333 96.0775C171.361 96.2979 171.387 96.5187 171.412 96.7394C171.387 96.5187 171.361 96.2979 171.333 96.0775ZM171.122 94.5837C171.191 95.0282 171.255 95.4732 171.312 95.9181C171.255 95.4732 171.191 95.0282 171.122 94.5837ZM171.026 93.9861C171.056 94.1653 171.085 94.3447 171.113 94.5239C171.085 94.3447 171.056 94.1653 171.026 93.9861ZM170.941 93.4881L171.014 93.911L170.941 93.4881ZM170.85 92.9905L170.914 93.3397L170.85 92.9905ZM170.736 92.393L170.814 92.7991L170.736 92.393ZM170.634 91.895L170.715 92.2888L170.634 91.895ZM170.418 90.8993C170.486 91.2004 170.552 91.5013 170.615 91.8024C170.552 91.5013 170.486 91.2003 170.418 90.8993ZM170.326 90.5009L170.416 90.8927L170.326 90.5009ZM170.23 90.1027L170.317 90.4633L170.23 90.1027ZM170.132 89.7043L170.217 90.0482L170.132 89.7043ZM170.03 89.306L170.118 89.6485L170.03 89.306ZM169.952 89.0071L170.018 89.2589L169.952 89.0071ZM169.845 88.6089L169.918 88.8804L169.845 88.6089ZM169.735 88.2106L169.819 88.5137L169.735 88.2106ZM169.621 87.8122L169.719 88.1555L169.621 87.8122ZM155.832 118.45H169.43C164.535 102.597 169.43 87.163 169.43 87.163C169.494 87.3781 169.558 87.5929 169.62 87.808C169.558 87.5929 169.494 87.3781 169.43 87.163H155.964H155.832V118.447V118.45Z" fill="white"/>
</mask>
<g mask="url(#mask1_70_884)">
<path d="M171.748 87.163H155.832V118.45H171.748V87.163Z" fill="url(#paint1_linear_70_884)"/>
</g>
<path fill-rule="evenodd" clip-rule="evenodd" d="M63.4218 76.4161C56.7052 83.6352 52.7309 92.5734 52.7309 102.253C52.7309 126.226 77.1024 145.661 107.166 145.661C129.967 145.661 149.49 134.481 157.594 118.621C147.676 129.282 131.775 136.192 113.85 136.192C83.7859 136.192 59.4144 116.758 59.4144 92.7846C59.4144 86.993 60.8404 81.4682 63.4218 76.4161Z" fill="#EB6603"/>
<path d="M148.65 85.94C148.99 86.378 149.683 86.4979 150.197 86.2081C150.71 85.9184 150.851 85.3281 150.511 84.89C149.528 83.6328 148.198 82.7638 146.777 82.29C145.763 81.9516 144.7 81.8133 143.683 81.8777C142.637 81.9438 141.636 82.2211 140.773 82.711L140.72 82.743C139.798 83.2792 139.045 84.054 138.579 85.0688C138.355 85.5582 138.638 86.11 139.212 86.3013C139.786 86.4924 140.434 86.2506 140.658 85.7613C140.951 85.1238 141.413 84.6416 141.974 84.3141L142.005 84.2973C142.542 83.9924 143.175 83.8187 143.84 83.7767C144.534 83.733 145.264 83.8288 145.965 84.0624C146.981 84.4012 147.938 85.0286 148.65 85.94Z" fill="#C15508"/>
<path fill-rule="evenodd" clip-rule="evenodd" d="M167.689 111.373C165.773 98.4524 169.204 87.4128 169.284 87.163L169.474 87.808C169.476 87.8089 169.477 87.8103 169.475 87.8123L169.573 88.1553C169.58 88.1733 169.585 88.1917 169.589 88.2106L169.673 88.5136C169.683 88.545 169.692 88.5767 169.699 88.6088L169.773 88.8803C169.785 88.9221 169.796 88.9646 169.806 89.007L169.872 89.2588C169.878 89.2741 169.882 89.2899 169.884 89.3059L169.972 89.6484C169.978 89.6667 169.983 89.6852 169.986 89.7043L170.071 90.048C170.077 90.0658 170.081 90.0839 170.085 90.1025L170.171 90.4633C170.175 90.4756 170.178 90.488 170.18 90.5009L170.271 90.8926C170.272 90.8944 170.273 90.8965 170.272 90.8991L170.47 91.8024C170.512 91.9989 170.552 92.1961 170.59 92.393L170.669 92.7991C170.682 92.8627 170.694 92.9265 170.705 92.9905L170.769 93.3397C170.778 93.389 170.787 93.4384 170.795 93.4881L170.868 93.9109C170.873 93.9358 170.877 93.9608 170.881 93.9861L170.968 94.5236C171.049 95.0414 171.122 95.5591 171.187 96.0774L171.267 96.7392C171.276 96.8174 171.285 96.8955 171.292 96.9737L171.366 97.6915C171.372 97.7509 171.378 97.8104 171.383 97.87L171.465 98.8838C171.533 99.8063 171.575 100.73 171.592 101.654L171.603 102.677C171.6 107.909 170.822 113.169 169.284 118.45C168.547 116.064 168.032 113.688 167.689 111.373Z" fill="#EC6D08"/>
<path fill-rule="evenodd" clip-rule="evenodd" d="M77.5861 150.449V149.085V131.984L78.5624 133.589C81.8449 135.934 86.2281 138.589 91.118 140.329L90.0116 148.305L89.6197 150.449L77.5861 150.449Z" fill="#EB6603"/>
<path fill-rule="evenodd" clip-rule="evenodd" d="M77.5861 140.853V133.094C77.8915 133.231 78.1985 133.366 78.5074 133.498L78.5624 133.589C81.8449 135.934 86.2281 138.589 91.118 140.328L90.3785 145.658C85.7272 144.156 81.5629 142.821 77.5861 140.853Z" fill="#EB6603"/>
<path d="M69.2179 35.5467C69.943 34.9959 70.1342 34.4908 70.9979 34.2301C71.6287 34.0402 72.3058 33.3195 72.8534 32.941C73.2804 32.6457 75.1988 31.6524 74.7135 30.8937C74.6597 30.8087 74.5922 30.7622 74.4883 30.7398C74.7463 30.3963 74.123 30.0524 73.8995 29.9334C74.1179 29.5646 73.5409 29.1147 73.2438 29.0705C73.6591 28.5354 71.8658 27.2416 71.5189 27.9313C70.8736 27.7417 70.9548 27.9815 70.5656 28.3396C70.4674 28.2981 67.7085 31.217 67.5265 31.5091C67.2515 31.95 67.1071 32.4693 66.6322 32.7193L69.2179 35.5467Z" fill="#F7AAAC"/>
<mask id="mask2_70_884" style="mask-type:luminance" maskUnits="userSpaceOnUse" x="25" y="31" width="45" height="20">
<path d="M31.6292 38.6304C28.9402 38.8559 25.2749 42.2408 25.5943 45.101C25.6789 45.8574 25.274 46.6992 26.4641 47.4488C30.6634 50.0956 45.2199 51.8713 50.367 49.4974C54.59 47.5496 67.1773 38.4541 69.2833 34.3657C69.9313 33.1076 68.2212 31.7142 67.6255 31.3699C66.4569 30.2999 57.1958 38.5379 47.306 41.0922C39.1516 43.1987 34.0443 38.4276 31.6292 38.6304Z" fill="white"/>
</mask>
<g mask="url(#mask2_70_884)">
<path d="M69.9313 30.3001H25.2741V51.8715H69.9313V30.3001Z" fill="#272A35"/>
</g>
<mask id="mask3_70_884" style="mask-type:luminance" maskUnits="userSpaceOnUse" x="12" y="46" width="45" height="107">
<path d="M54.0589 76.9281C59.4902 107.991 50.2005 135.929 46.8136 146.403C48.3282 147.231 54.9182 148.964 55.8139 149.821C56.4597 150.439 57.5351 152.926 48.6856 152.693C42.3991 152.527 39.3643 153.067 38.6912 152.047C38.1117 151.173 38.4629 145.668 38.4287 145.667C41.1934 117.786 41.4695 116.047 39.9662 98.1853C38.7161 103.771 33.809 126.012 20.4295 144.005C20.1664 144.359 19.4776 146.996 19.9132 148.146C20.0819 148.592 21.2331 149.111 21.6536 149.655C22.29 150.477 21.7633 151.083 21.1981 151.472C19.4359 152.688 15.4343 151.793 14.8141 151.788C11.634 151.367 13.474 146.095 12.6047 143.615C12.2414 142.578 14.6797 140.901 14.4873 140.61C27.2306 97.3866 21.8748 96.8884 26.0343 75.8433L26.0382 75.8457C27.1247 32.3073 50.2602 43.5272 48.1771 69.8856C47.9421 72.864 53.0122 72.8214 54.0589 76.9281Z" fill="white"/>
</mask>
<g mask="url(#mask3_70_884)">
<path d="M59.4902 32.3073H11.634V153.067H59.4902V32.3073Z" fill="url(#paint2_linear_70_884)"/>
</g>
<path fill-rule="evenodd" clip-rule="evenodd" d="M39.9662 98.1853C39.0695 102.192 36.0266 114.854 29.8074 128.296C33.525 115.978 36.3537 104.313 39.1348 91.7282L39.9662 98.1853Z" fill="#272A35"/>
<path d="M36.4431 16.9928C36.4431 16.9928 42.4584 14.7464 45.2329 19.3248C45.9272 20.4706 47.0089 20.6494 46.9877 22.2041C46.9804 22.7216 46.9893 23.884 47.1593 24.8751C47.3015 25.7039 47.9406 26.9305 48.0766 27.6001C48.246 28.4343 47.0023 28.8805 46.976 29.2469C46.7659 32.1563 47.1867 33.8375 45.8482 34.3346C42.4668 34.8088 37.1194 34.7328 35.567 31.8681C34.0148 29.0038 32.6128 24.8622 32.6803 22.0944C32.7473 19.3267 34.8635 17.7918 36.4431 16.9928Z" fill="#F7AAAC"/>
<path d="M43.6971 33.9136C43.6971 33.9136 43.4543 35.4902 43.8555 36.2664C44.2573 37.0435 36.2892 37.0638 36.2892 37.0638C36.2892 37.0638 35.6425 32.8397 34.4161 29.2708C33.1894 25.7018 43.6971 33.9136 43.6971 33.9136Z" fill="#F7AAAC"/>
<mask id="mask4_70_884" style="mask-type:luminance" maskUnits="userSpaceOnUse" x="30" y="15" width="20" height="19">
<path d="M37.6055 33.1543C39.0934 32.7178 40.4999 32.2666 41.7395 30.9014C42.1798 30.4163 42.8861 26.2458 43.1317 26.16C44.0691 25.8319 44.5168 29.0564 44.5168 29.0564C44.6559 28.8878 45.152 28.7491 45.2646 28.2149C45.3143 27.978 44.9988 26.6469 45.2037 26.3097C45.3541 26.0623 46.375 25.1823 46.5972 24.8523C48.4044 22.168 50.4718 19.2644 48.029 17.1906C47.9299 17.1064 47.255 16.6288 46.479 16.6186C45.4048 16.6048 44.5553 16.2188 44.1252 16.0156C38.2006 13.2143 26.5914 17.4929 32.7147 29.4614C33.5721 31.1376 36.1996 33.0098 37.6055 33.1543Z" fill="white"/>
</mask>
<g mask="url(#mask4_70_884)">
<path d="M50.4717 13.2145H26.5914V33.1544H50.4717V13.2145Z" fill="url(#paint3_linear_70_884)"/>
</g>
<path d="M44.3288 36.1737C44.3288 36.1737 44.3035 34.69 43.6311 34.5474C42.958 34.4053 35.7733 33.9381 34.9471 34.2624L34.8563 36.1504C34.8563 36.1504 36.9708 36.7878 44.3288 36.1737Z" fill="#D0D2D3"/>
<path d="M44.0425 27.0866C43.9168 26.5595 42.6217 24.4023 42.1082 26.0162C41.5939 27.6295 42.8835 29.7996 43.6032 29.6141C44.3225 29.4285 44.3615 28.4236 44.0425 27.0866Z" fill="#F7AAAC"/>
<mask id="mask5_70_884" style="mask-type:luminance" maskUnits="userSpaceOnUse" x="61" y="10" width="35" height="36">
<path d="M94.8207 34.1966C98.1861 25.2012 93.6221 15.181 84.6269 11.8155C75.6315 8.45016 65.6113 13.0142 62.2459 22.0095C58.8805 31.0049 63.4445 41.0251 72.4398 44.3904C81.4352 47.7558 91.4554 43.1919 94.8207 34.1966Z" fill="white"/>
</mask>
<g mask="url(#mask5_70_884)">
<path d="M98.1861 8.45022H58.8805V47.7558H98.1861V8.45022Z" fill="url(#paint4_linear_70_884)"/>
</g>
<path d="M93.0095 33.8463C96.3749 24.8509 91.8109 14.8307 82.8155 11.4652C73.8202 8.10001 63.7999 12.6638 60.4346 21.6592C57.0693 30.6546 61.6332 40.6748 70.6285 44.0402C79.6239 47.4055 89.6441 42.8416 93.0095 33.8463Z" fill="#FBCA0D"/>
<path d="M93.0095 33.8463C93.0271 33.799 93.0433 33.7517 93.0605 33.7043L60.4892 21.5187C60.4711 21.5656 60.4522 21.612 60.4346 21.6592C57.0693 30.6546 61.6332 40.6748 70.6285 44.0402C79.6239 47.4055 89.6441 42.8416 93.0095 33.8463Z" fill="#FFDD26"/>
<path d="M89.917 32.6895C92.6434 25.4022 88.9459 17.2843 81.6586 14.558C74.3712 11.8316 66.2535 15.5291 63.5272 22.8164C60.8008 30.1037 64.4983 38.2214 71.7856 40.9478C79.0728 43.6741 87.1907 39.9767 89.917 32.6895Z" fill="#FFC801"/>
<mask id="mask6_70_884" style="mask-type:luminance" maskUnits="userSpaceOnUse" x="68" y="16" width="19" height="23">
<path d="M78.6889 32.9682C80.1683 33.2542 81.0501 32.6627 81.2454 31.6525C81.4406 30.6425 80.8421 29.7649 79.3633 29.479L75.8212 28.7942L75.1467 32.2834L78.6889 32.9682ZM77.0142 22.6229L76.3864 25.871L79.2884 26.432C80.711 26.707 81.5423 26.223 81.7293 25.2556C81.9136 24.3026 81.3383 23.4587 79.9162 23.1839L77.0142 22.6229ZM83.4489 28.498C84.2448 28.9618 84.8232 29.5569 85.1845 30.2833C85.5458 31.01 85.6398 31.8213 85.4666 32.7175C85.2136 34.0261 84.492 34.9345 83.3019 35.4422C82.2333 35.8981 80.8418 35.9941 79.1276 35.7306L78.5711 38.6094L75.9808 38.1087L76.5352 35.241L74.9157 34.9279L74.3614 37.7957L71.5874 37.2595L72.1419 34.3917L70.5091 34.076L70.4632 34.0671L68.3023 33.6493L68.8034 31.0571L70.9643 31.4748L72.8319 21.8144L70.6708 21.3966L71.1896 18.7126L73.3506 19.1303L73.3965 19.1392L75.0292 19.4548L75.5202 16.9153L78.2941 17.4516L77.8031 19.991L79.4226 20.304L79.9134 17.7646L82.5037 18.2654L82.0056 20.8419C83.3956 21.2217 84.4399 21.776 85.1385 22.5047C85.9982 23.4014 86.3125 24.4473 86.0815 25.6422C85.9441 26.3534 85.6467 26.9564 85.1895 27.4509C84.7326 27.9455 84.1523 28.2944 83.4489 28.498Z" fill="white"/>
</mask>
<g mask="url(#mask6_70_884)">
<path d="M86.3127 16.9153H68.3023V38.6093H86.3127V16.9153Z" fill="url(#paint5_linear_70_884)"/>
</g>
<mask id="mask7_70_884" style="mask-type:luminance" maskUnits="userSpaceOnUse" x="61" y="12" width="31" height="31">
<path d="M90.5715 21.4446C92.186 24.9894 92.4487 29.1495 90.9766 33.0843C89.5039 37.0208 86.575 39.9878 83.0303 41.6022C79.4854 43.2167 75.3253 43.4793 71.3906 42.0072C67.4542 40.5346 64.4871 37.6056 62.8727 34.0608C61.2582 30.5161 60.9957 26.3559 62.4677 22.4213C63.9405 18.4849 66.8693 15.5179 70.4142 13.9033C73.9589 12.2888 78.119 12.0263 82.0536 13.4983C85.99 14.9709 88.9571 17.9 90.5715 21.4446ZM89.6536 32.5923C90.99 29.02 90.7525 25.2448 89.2879 22.0294C87.8235 18.8139 85.1322 16.157 81.5615 14.8213C77.9891 13.4849 74.2141 13.7224 70.9987 15.1869C67.7833 16.6514 65.1264 19.3427 63.7906 22.9133C62.4542 26.4855 62.6917 30.2608 64.1563 33.4761C65.6207 36.6915 68.312 39.3484 71.8826 40.6841C75.4548 42.0205 79.2301 41.7831 82.4455 40.3186C85.661 38.8541 88.3178 36.1628 89.6536 32.5923Z" fill="white"/>
</mask>
<g mask="url(#mask7_70_884)">
<path d="M92.4487 12.0262H60.9956V43.4792H92.4487V12.0262Z" fill="url(#paint6_linear_70_884)"/>
</g>
<mask id="mask8_70_884" style="mask-type:luminance" maskUnits="userSpaceOnUse" x="67" y="16" width="19" height="23">
<path d="M78.0887 32.8521C79.5682 33.1383 80.45 32.5466 80.6452 31.5366C80.8404 30.5266 80.2419 29.6488 78.7631 29.3629L75.2211 28.6782L74.5465 32.1674L78.0887 32.8521ZM76.414 22.5069L75.7862 25.7548L78.6882 26.3158C80.1109 26.5908 80.9422 26.1069 81.1292 25.1396C81.3135 24.1864 80.7381 23.3428 79.3162 23.0679L76.414 22.5069ZM82.8487 28.3819C83.6445 28.8455 84.223 29.4407 84.5843 30.1672C84.9455 30.8938 85.0396 31.7051 84.8664 32.6013C84.6134 33.9101 83.8919 34.8184 82.7017 35.3262C81.6332 35.7819 80.2417 35.878 78.5275 35.6143L77.971 38.4932L75.3806 37.9925L75.935 35.1248L74.3156 34.8116L73.7613 37.6794L70.9873 37.1431L71.5417 34.2754L69.909 33.9598L69.8631 33.9509L67.7022 33.5332L68.2033 30.9409L70.3642 31.3588L72.2317 21.6982L70.0708 21.2805L70.5896 18.5964L72.7505 19.0142L72.7964 19.0231L74.4292 19.3387L74.92 16.7991L77.694 17.3353L77.2031 19.8749L78.8225 20.188L79.3134 17.6486L81.9037 18.1492L81.4057 20.7257C82.7956 21.1057 83.8398 21.66 84.5385 22.3888C85.3982 23.2854 85.7125 24.3312 85.4815 25.526C85.344 26.2373 85.0468 26.8402 84.5897 27.3349C84.1324 27.8295 83.5521 28.1784 82.8487 28.3819Z" fill="white"/>
</mask>
<g mask="url(#mask8_70_884)">
<path d="M85.7125 16.7993H67.7022V38.4934H85.7125V16.7993Z" fill="url(#paint7_linear_70_884)"/>
</g>
<path d="M85.7254 35.2043C85.7254 35.2043 83.733 38.2355 83.325 38.1879C82.8545 38.1358 82.9538 39.3373 81.6393 38.9917C80.8975 38.797 77.6432 37.743 77.6432 37.743L78.8462 35.8914C78.9644 35.3148 79.6485 34.7934 80.0641 33.6392C80.3052 32.9699 80.2848 31.7989 80.4563 31.0293C80.534 30.6801 80.9915 30.6808 81.2975 31.0095C81.6212 31.3575 81.6001 32.2967 81.892 32.3882C82.3383 32.5279 84.2647 29.6049 84.8307 29.6852C87.8076 31.5519 87.0142 32.8583 85.7254 35.2043Z" fill="#F7AAAC"/>
<mask id="mask9_70_884" style="mask-type:luminance" maskUnits="userSpaceOnUse" x="46" y="35" width="38" height="19">
<path d="M48.6967 47.1911C52.2012 51.1432 63.7844 56.5687 69.9757 52.6196C73.21 49.8881 85.3464 39.5453 82.759 37.3961C80.1716 35.2468 78.3758 35.8666 78.3758 35.8666C78.3758 35.8666 65.2075 43.5928 64.1824 44.7337C63.4094 45.5949 51.0133 34.8835 46.9564 36.6964C46.0944 37.0818 46.2376 47.2233 48.6967 47.1911Z" fill="white"/>
</mask>
<g mask="url(#mask9_70_884)">
<path d="M85.3464 34.8834H46.0944V56.5687H85.3464V34.8834Z" fill="#272A35"/>
</g>
<mask id="mask10_70_884" style="mask-type:luminance" maskUnits="userSpaceOnUse" x="23" y="35" width="33" height="50">
<path d="M46.2351 35.7736H34.7799C31.6972 35.7736 27.7775 36.6325 26.1308 39.7394C22.2799 47.0045 24.5441 63.1718 24.6763 81.0442C28.9426 85.8358 48.1773 85.3481 55.0324 81.4719L55.1171 41.6023C54.6301 40.8591 50.3418 35.7736 46.2351 35.7736Z" fill="white"/>
</mask>
<g mask="url(#mask10_70_884)">
<path d="M55.1172 35.7736H22.28V85.8358H55.1172V35.7736Z" fill="#272A35"/>
</g>
<path d="M87.8386 151.486H59.4073V155.132H87.8386V151.486Z" fill="#FDA600"/>
<path d="M87.8386 151.486H84.2359V155.132H87.8386V151.486Z" fill="#FDA600"/>
<path d="M84.2358 151.486H80.5897V155.132H84.2358V151.486Z" fill="#FFD115"/>
<path d="M80.5897 151.486H67.4809V155.132H80.5897V151.486Z" fill="#FCA700"/>
<path d="M67.481 151.486H61.9683V155.132H67.481V151.486Z" fill="#EC830E"/>
<path d="M86.4503 155.132H60.7535V155.48H86.4503V155.132Z" fill="#DF641E"/>
<path d="M87.8386 147.84H59.4073V151.486H87.8386V147.84Z" fill="#FDA600"/>
<path d="M87.8386 147.84H84.2359V151.486H87.8386V147.84Z" fill="#FDA600"/>
<path d="M84.2358 147.84H80.5897V151.486H84.2358V147.84Z" fill="#FFD115"/>
<path d="M80.5897 147.84H67.4809V151.486H80.5897V147.84Z" fill="#FCA700"/>
<path d="M67.481 147.84H61.9683V151.486H67.481V147.84Z" fill="#EC830E"/>
<path d="M86.4503 151.486H60.7535V151.833H86.4503V151.486Z" fill="#DF641E"/>
<path d="M87.8386 143.846H59.4073V147.492H87.8386V143.846Z" fill="#FDA600"/>
<path d="M87.8386 143.846H84.2359V147.492H87.8386V143.846Z" fill="#FDA600"/>
<path d="M84.2358 143.846H80.5897V147.492H84.2358V143.846Z" fill="#FFD115"/>
<path d="M80.5897 143.846H67.4809V147.492H80.5897V143.846Z" fill="#FCA700"/>
<path d="M67.481 143.846H61.9683V147.492H67.481V143.846Z" fill="#EC830E"/>
<path d="M86.4503 147.492H60.7535V147.84H86.4503V147.492Z" fill="#DF641E"/>
<path d="M87.8386 139.853H59.4073V143.499H87.8386V139.853Z" fill="#FDA600"/>
<path d="M87.8386 139.853H84.2359V143.499H87.8386V139.853Z" fill="#FDA600"/>
<path d="M84.2358 139.853H80.5897V143.499H84.2358V139.853Z" fill="#FFD115"/>
<path d="M80.5897 139.853H67.4809V143.499H80.5897V139.853Z" fill="#FCA700"/>
<path d="M67.481 139.853H61.9683V143.499H67.481V139.853Z" fill="#EC830E"/>
<path d="M86.4503 143.499H60.7535V143.846H86.4503V143.499Z" fill="#DF641E"/>
<path d="M87.8386 135.859H59.4073V139.505H87.8386V135.859Z" fill="#FDA600"/>
<path d="M87.8386 135.859H84.2359V139.505H87.8386V135.859Z" fill="#FDA600"/>
<path d="M84.2358 135.859H80.5897V139.505H84.2358V135.859Z" fill="#FFD115"/>
<path d="M80.5897 135.859H67.4809V139.505H80.5897V135.859Z" fill="#FCA700"/>
<path d="M67.481 135.859H61.9683V139.505H67.481V135.859Z" fill="#EC830E"/>
<path d="M86.4503 139.505H60.7535V139.853H86.4503V139.505Z" fill="#DF641E"/>
<path d="M87.8386 131.866H59.4073V135.512H87.8386V131.866Z" fill="#FDA600"/>
<path d="M87.8386 131.866H84.2359V135.512H87.8386V131.866Z" fill="#FDA600"/>
<path d="M84.2358 131.866H80.5897V135.512H84.2358V131.866Z" fill="#FFD115"/>
<path d="M80.5897 131.866H67.4809V135.512H80.5897V131.866Z" fill="#FCA700"/>
<path d="M67.481 131.866H61.9683V135.512H67.481V131.866Z" fill="#EC830E"/>
<path d="M86.4503 135.512H60.7535V135.859H86.4503V135.512Z" fill="#DF641E"/>
<path d="M85.4508 127.872H57.0196V131.518H85.4508V127.872Z" fill="#FDA600"/>
<path d="M85.4508 127.872H81.8481V131.518H85.4508V127.872Z" fill="#FDA600"/>
<path d="M81.8481 127.872H78.2019V131.518H81.8481V127.872Z" fill="#FFD115"/>
<path d="M78.2019 127.872H65.0932V131.518H78.2019V127.872Z" fill="#FCA700"/>
<path d="M65.0933 127.872H59.5805V131.518H65.0933V127.872Z" fill="#EC830E"/>
<path d="M84.0626 131.518H58.3658V131.866H84.0626V131.518Z" fill="#DF641E"/>
<path d="M87.8386 123.878H59.4073V127.524H87.8386V123.878Z" fill="#FDA600"/>
<path d="M87.8386 123.878H84.2359V127.524H87.8386V123.878Z" fill="#FDA600"/>
<path d="M84.2358 123.878H80.5897V127.524H84.2358V123.878Z" fill="#FFD115"/>
<path d="M80.5897 123.878H67.4809V127.524H80.5897V123.878Z" fill="#FCA700"/>
<path d="M67.481 123.878H61.9683V127.524H67.481V123.878Z" fill="#EC830E"/>
<path d="M86.4503 127.525H60.7535V127.872H86.4503V127.525Z" fill="#DF641E"/>
<path d="M107.881 151.486H79.4497V155.132H107.881V151.486Z" fill="#FDA600"/>
<path d="M107.881 151.486H104.278V155.132H107.881V151.486Z" fill="#FDA600"/>
<path d="M104.278 151.486H100.632V155.132H104.278V151.486Z" fill="#FFD115"/>
<path d="M100.632 151.486H87.5234V155.132H100.632V151.486Z" fill="#FCA700"/>
<path d="M87.5234 151.486H82.0107V155.132H87.5234V151.486Z" fill="#EC830E"/>
<path d="M106.493 155.132H80.796V155.48H106.493V155.132Z" fill="#DF641E"/>
<path d="M107.881 147.84H79.4497V151.486H107.881V147.84Z" fill="#FDA600"/>
<path d="M107.881 147.84H104.278V151.486H107.881V147.84Z" fill="#FDA600"/>
<path d="M104.278 147.84H100.632V151.486H104.278V147.84Z" fill="#FFD115"/>
<path d="M100.632 147.84H87.5234V151.486H100.632V147.84Z" fill="#FCA700"/>
<path d="M87.5234 147.84H82.0107V151.486H87.5234V147.84Z" fill="#EC830E"/>
<path d="M106.493 151.486H80.796V151.833H106.493V151.486Z" fill="#DF641E"/>
<path d="M107.881 143.846H79.4497V147.492H107.881V143.846Z" fill="#FDA600"/>
<path d="M107.881 143.846H104.278V147.492H107.881V143.846Z" fill="#FDA600"/>
<path d="M104.278 143.846H100.632V147.492H104.278V143.846Z" fill="#FFD115"/>
<path d="M100.632 143.846H87.5234V147.492H100.632V143.846Z" fill="#FCA700"/>
<path d="M87.5234 143.846H82.0107V147.492H87.5234V143.846Z" fill="#EC830E"/>
<path d="M106.493 147.492H80.796V147.84H106.493V147.492Z" fill="#DF641E"/>
<path d="M107.881 139.853H79.4497V143.499H107.881V139.853Z" fill="#FDA600"/>
<path d="M107.881 139.853H104.278V143.499H107.881V139.853Z" fill="#FDA600"/>
<path d="M104.278 139.853H100.632V143.499H104.278V139.853Z" fill="#FFD115"/>
<path d="M100.632 139.853H87.5234V143.499H100.632V139.853Z" fill="#FCA700"/>
<path d="M87.5234 139.853H82.0107V143.499H87.5234V139.853Z" fill="#EC830E"/>
<path d="M106.493 143.499H80.796V143.846H106.493V143.499Z" fill="#DF641E"/>
<path d="M107.881 135.859H79.4497V139.505H107.881V135.859Z" fill="#FDA600"/>
<path d="M107.881 135.859H104.278V139.505H107.881V135.859Z" fill="#FDA600"/>
<path d="M104.278 135.859H100.632V139.505H104.278V135.859Z" fill="#FFD115"/>
<path d="M100.632 135.859H87.5234V139.505H100.632V135.859Z" fill="#FCA700"/>
<path d="M87.5234 135.859H82.0107V139.505H87.5234V135.859Z" fill="#EC830E"/>
<path d="M106.493 139.505H80.796V139.853H106.493V139.505Z" fill="#DF641E"/>
<path d="M107.881 131.866H79.4497V135.512H107.881V131.866Z" fill="#FDA600"/>
<path d="M107.881 131.866H104.278V135.512H107.881V131.866Z" fill="#FDA600"/>
<path d="M104.278 131.866H100.632V135.512H104.278V131.866Z" fill="#FFD115"/>
<path d="M100.632 131.866H87.5234V135.512H100.632V131.866Z" fill="#FCA700"/>
<path d="M87.5234 131.866H82.0107V135.512H87.5234V131.866Z" fill="#EC830E"/>
<path d="M106.493 135.512H80.796V135.859H106.493V135.512Z" fill="#DF641E"/>
<mask id="mask11_70_884" style="mask-type:luminance" maskUnits="userSpaceOnUse" x="91" y="44" width="34" height="24">
<path d="M123.893 62.6955C124.913 53.8259 118.55 45.809 109.681 44.789C100.811 43.7686 92.7948 50.1316 91.7743 59.0008C91.4423 61.8866 91.8928 64.682 92.9561 67.1757C103.238 64.6714 113.545 65.0566 122.566 67.5088C123.239 66.0207 123.696 64.4048 123.893 62.6955Z" fill="white"/>
</mask>
<g mask="url(#mask11_70_884)">
<path d="M124.913 43.7686H91.4422V67.5088H124.913V43.7686Z" fill="url(#paint8_linear_70_884)"/>
</g>
<path d="M122.18 62.7855C123.2 53.916 116.837 45.899 107.968 44.8791C99.0991 43.8588 91.0819 50.2217 90.0617 59.0907C89.7158 62.099 90.22 65.0086 91.3821 67.5809C101.616 64.7912 111.94 64.9097 121.061 67.1223C121.621 65.7677 122.005 64.3138 122.18 62.7855Z" fill="#FBCA0D"/>
<path d="M122.18 62.7857C122.186 62.7389 122.189 62.6927 122.195 62.6462L90.0794 58.9527C90.0744 58.9983 90.0668 59.0445 90.0617 59.0909C89.7158 62.0992 90.22 65.0088 91.3821 67.5812C101.615 64.7914 111.94 64.9098 121.061 67.1224C121.621 65.7678 122.005 64.3141 122.18 62.7857Z" fill="#FFDD26"/>
<path d="M119.131 62.4343C119.958 55.2494 114.803 48.7547 107.617 47.9285C100.432 47.1017 93.937 52.2563 93.1111 59.4416C92.8072 62.0825 93.3122 64.6297 94.4282 66.8369C102.521 65.0815 110.589 65.0919 117.996 66.4668C118.574 65.2247 118.966 63.8701 119.131 62.4343Z" fill="#FFC801"/>
<mask id="mask12_70_884" style="mask-type:luminance" maskUnits="userSpaceOnUse" x="99" y="51" width="17" height="15">
<path d="M109.064 65.2027C110.463 65.129 111.126 64.3976 111.076 63.4428C111.026 62.4878 110.289 61.8301 108.89 61.9032L105.541 62.0796L105.715 65.3789L109.064 65.2027ZM105.235 56.2443L105.396 59.3154L108.14 59.1714C109.485 59.1007 110.127 58.4776 110.079 57.5632C110.031 56.6621 109.323 56.0296 107.979 56.1004L105.235 56.2443ZM112.357 60.1027C113.178 60.3429 113.834 60.7501 114.323 61.3247C114.811 61.8994 115.078 62.6102 115.123 63.4573C115.174 64.4324 114.907 65.2481 114.322 65.9049C109.621 65.3365 104.707 65.3151 99.7303 65.9341L99.7177 65.6942L101.761 65.5867L101.281 56.4525L99.2375 56.5602L99.1041 54.0227L101.147 53.915L101.19 53.9129L102.734 53.8318L102.608 51.4309L105.231 51.2928L105.357 53.694L106.888 53.6137L106.762 51.2122L109.211 51.0835L109.339 53.5197C110.678 53.5509 111.744 53.8169 112.538 54.3178C113.514 54.934 114.032 55.8069 114.092 56.9367C114.127 57.6089 113.994 58.2198 113.693 58.7682C113.391 59.3164 112.945 59.7619 112.357 60.1027Z" fill="white"/>
</mask>
<g mask="url(#mask12_70_884)">
<path d="M115.174 51.0835H99.1041V65.934H115.174V51.0835Z" fill="url(#paint9_linear_70_884)"/>
</g>
<mask id="mask13_70_884" style="mask-type:luminance" maskUnits="userSpaceOnUse" x="91" y="46" width="30" height="22">
<path d="M118.872 62.4063C119.277 58.884 118.217 55.5313 116.175 52.9589C114.133 50.3863 111.109 48.592 107.589 48.1876C104.066 47.7825 100.714 48.8426 98.1418 50.8846C95.569 52.9262 93.7753 55.9496 93.3706 59.4703C93.07 62.0831 93.5758 64.6028 94.6908 66.7798C94.2515 66.873 93.8124 66.9712 93.373 67.0749C92.2489 64.7457 91.7491 62.0813 92.0662 59.323C92.513 55.4419 94.4907 52.1087 97.3266 49.8579C100.162 47.607 103.857 46.4381 107.736 46.8839C111.618 47.3301 114.951 49.3076 117.201 52.1434C119.453 54.9798 120.622 58.6739 120.175 62.5536C120.007 64.014 119.622 65.3969 119.057 66.6737C118.618 66.5835 118.176 66.4983 117.732 66.418C118.314 65.1845 118.707 63.8364 118.872 62.4063Z" fill="white"/>
</mask>
<g mask="url(#mask13_70_884)">
<path d="M120.622 46.438H91.7491V67.0747H120.622V46.438Z" fill="url(#paint10_linear_70_884)"/>
</g>
<mask id="mask14_70_884" style="mask-type:luminance" maskUnits="userSpaceOnUse" x="98" y="51" width="17" height="16">
<path d="M108.496 65.2322C109.896 65.1587 110.558 64.4275 110.508 63.4724C110.458 62.5177 109.722 61.8595 108.323 61.9333L104.974 62.1089L105.148 65.4084L108.496 65.2322ZM104.668 56.2743L104.829 59.3454L107.573 59.2009C108.918 59.1305 109.56 58.5076 109.511 57.5928C109.464 56.6919 108.756 56.0593 107.411 56.1299L104.668 56.2743ZM111.789 60.1325C112.611 60.3727 113.266 60.7799 113.755 61.3542C114.244 61.9293 114.51 62.6399 114.555 63.487C114.604 64.4194 114.362 65.2059 113.83 65.847C109.1 65.3155 104.161 65.3372 99.1653 66.0069L99.1506 65.7235L101.194 65.6164L100.713 56.4821L98.6696 56.5896L98.5365 54.0525L100.58 53.9451L100.624 53.943L102.167 53.8617L102.041 51.4602L104.663 51.3225L104.789 53.7238L106.32 53.6435L106.194 51.2423L108.643 51.1133L108.771 53.5494C110.11 53.5805 111.177 53.8466 111.97 54.3479C112.947 54.9639 113.465 55.8368 113.524 56.9667C113.56 57.6392 113.426 58.2496 113.125 58.7983C112.823 59.3466 112.378 59.7918 111.789 60.1325Z" fill="white"/>
</mask>
<g mask="url(#mask14_70_884)">
<path d="M114.604 51.1133H98.5365V66.0069H114.604V51.1133Z" fill="url(#paint11_linear_70_884)"/>
</g>
<mask id="mask15_70_884" style="mask-type:luminance" maskUnits="userSpaceOnUse" x="115" y="0" width="39" height="45">
<path d="M134.158 44.6482C133.701 44.3556 131.172 42.846 130.729 42.5292C120.631 35.3181 114.251 21.9901 115.245 9.64316L115.49 6.59992L118.506 6.12515C123.798 5.29239 127.686 3.69513 132.335 1.07367L134.239 0L136.143 1.07367C140.817 3.70938 144.694 5.24509 150.007 6.13091L152.99 6.62841L153.233 9.64316C154.271 22.5325 147.272 36.4909 136.398 43.4437L134.158 44.6482Z" fill="white"/>
</mask>
<g mask="url(#mask15_70_884)">
<path d="M154.271 0H114.251V44.6482H154.271V0Z" fill="url(#paint12_linear_70_884)"/>
</g>
<path fill-rule="evenodd" clip-rule="evenodd" d="M120.555 11.2175C120.334 15.5376 121.188 19.8997 122.796 23.903C125.088 29.6108 129.09 34.9891 134.239 38.4394C139.389 34.9892 143.39 29.611 145.683 23.9031C147.291 19.8981 148.145 15.5335 147.923 11.2111C145.563 10.7822 143.265 10.1952 141.004 9.36214C138.654 8.49656 136.424 7.39792 134.239 6.18556C131.945 7.45907 129.6 8.61046 127.126 9.5014C124.978 10.2749 122.795 10.8267 120.555 11.2175Z" fill="#0E111A"/>
<path fill-rule="evenodd" clip-rule="evenodd" d="M120.555 11.2176C120.334 15.5377 121.188 19.8998 122.796 23.903C125.088 29.611 129.09 34.9892 134.239 38.4396L134.239 38.4395V6.18556C131.945 7.45907 129.6 8.61045 127.126 9.5014C124.978 10.2749 122.795 10.8268 120.555 11.2176Z" fill="#1B1E28"/>
<mask id="mask16_70_884" style="mask-type:luminance" maskUnits="userSpaceOnUse" x="134" y="7" width="13" height="30">
<path d="M134.239 7.63761L134.239 36.8891C138.829 33.5766 142.408 28.6412 144.501 23.4289C145.918 19.9007 146.728 16.0804 146.683 12.2691C144.603 11.8473 142.559 11.2918 140.564 10.5568C138.38 9.75205 136.283 8.74641 134.239 7.63761Z" fill="white"/>
</mask>
<g mask="url(#mask16_70_884)">
<path d="M146.728 7.63761H134.239V36.8891H146.728V7.63761Z" fill="#848788"/>
</g>
<path fill-rule="evenodd" clip-rule="evenodd" d="M139.982 19.2439L139.982 25.652C139.982 26.7714 139.648 27.8436 138.529 27.8436H129.471C128.352 27.8436 128.015 26.9279 128.015 25.8082L128.015 19.4C128.015 16.7772 139.981 17.4229 139.982 19.2439Z" fill="#092978"/>
<path fill-rule="evenodd" clip-rule="evenodd" d="M137.002 17.4286V16.0517C137.004 16.0065 137.006 15.9612 137.006 15.9155C137.006 15.8699 137.004 15.8247 137.002 15.7796V15.7746H137.002C136.927 14.1889 135.59 12.9259 133.951 12.9259C132.347 12.9259 130.973 14.1546 130.896 15.7746V15.9155V17.4286H129.142V15.733L129.144 15.6915C129.265 13.1366 131.411 11.1719 133.951 11.1719C136.493 11.1719 138.633 13.1396 138.754 15.6915L138.754 15.6988C138.758 15.7711 138.76 15.8433 138.76 15.9156C138.76 15.973 138.759 16.0304 138.756 16.0879V17.4287H137.002V17.4286Z" fill="url(#paint13_linear_70_884)"/>
<mask id="mask17_70_884" style="mask-type:luminance" maskUnits="userSpaceOnUse" x="127" y="17" width="14" height="12">
<path d="M134 19.5465C135.13 19.5465 136.046 20.4625 136.046 21.5927C136.046 22.3785 135.603 23.0607 134.953 23.4036V26.7858H133.047V23.4037C132.397 23.0607 131.954 22.3784 131.954 21.5927C131.954 20.4626 132.87 19.5465 134 19.5465ZM130.896 17.3648H137.002H138.756V17.3777C139.77 17.4918 140.565 18.3577 140.565 19.4003V26.7281C140.565 27.8477 139.649 28.7636 138.529 28.7636H129.471C128.351 28.7636 127.435 27.8477 127.435 26.7281V19.4003C127.435 18.3928 128.177 17.5504 129.142 17.3916V17.3647H130.896V17.3648Z" fill="white"/>
</mask>
<g mask="url(#mask17_70_884)">
<path d="M140.565 17.3647H127.436V28.7636H140.565V17.3647Z" fill="url(#paint14_linear_70_884)"/>
</g>
<path d="M110.354 113.773C113.043 113.773 114.387 112.438 114.387 110.602C114.387 108.766 113.041 107.431 110.354 107.431H103.916V113.773H110.354V113.773ZM103.916 96.2143V102.118H109.19C111.776 102.118 113.069 100.988 113.069 99.23C113.069 97.4977 111.775 96.2143 109.19 96.2143H103.916ZM117.18 104.329C118.731 104.872 119.946 105.718 120.825 106.869C121.704 108.02 122.144 109.409 122.144 111.038C122.144 113.417 121.187 115.253 119.274 116.546C117.556 117.706 115.151 118.346 112.058 118.464V123.697H107.35V118.485H104.407V123.697H99.3647V118.485H96.3973H96.3138H92.386V113.773H96.3138V96.2143H92.386V91.3357H96.3138H96.3973H99.3647V86.7199H104.407V91.3357H107.35V86.7199H112.058V91.4031C114.622 91.598 116.64 92.2154 118.111 93.2556C119.921 94.5355 120.825 96.2614 120.825 98.4333C120.825 99.7261 120.509 100.883 119.875 101.904C119.242 102.926 118.343 103.734 117.18 104.329Z" fill="#EB6603"/>
<mask id="mask18_70_884" style="mask-type:luminance" maskUnits="userSpaceOnUse" x="92" y="85" width="31" height="38">
<path d="M110.354 112.731C113.043 112.731 114.387 111.396 114.387 109.56C114.387 107.725 113.041 106.389 110.354 106.389H103.916V112.731H110.354ZM103.916 95.1724V101.076H109.19C111.776 101.076 113.069 99.9464 113.069 98.188C113.069 96.4558 111.775 95.1723 109.19 95.1723H103.916V95.1724ZM117.18 103.287C118.731 103.83 119.946 104.676 120.825 105.827C121.704 106.978 122.144 108.367 122.144 109.996C122.144 112.375 121.187 114.211 119.274 115.504C117.556 116.664 115.151 117.304 112.058 117.422V122.655H107.35V117.443H104.407V122.655H99.3647V117.443H96.3973H96.3138H92.386V112.731H96.3138V95.1723H92.386V90.2938H96.3138H96.3973H99.3647V85.678H104.407V90.2938H107.35V85.678H112.058V90.3611C114.622 90.556 116.64 91.1734 118.111 92.2137C119.921 93.4935 120.825 95.2195 120.825 97.3913C120.825 98.6842 120.509 99.8412 119.875 100.863C119.242 101.884 118.343 102.692 117.18 103.287Z" fill="white"/>
</mask>
<g mask="url(#mask18_70_884)">
<path d="M122.144 85.678H92.386V122.655H122.144V85.678Z" fill="url(#paint15_linear_70_884)"/>
</g>
<path d="M163.288 147.652H134.856V151.299H163.288V147.652Z" fill="#FDA600"/>
<path d="M163.288 147.652H159.685V151.299H163.288V147.652Z" fill="#FDA600"/>
<path d="M159.685 147.652H156.039V151.299H159.685V147.652Z" fill="#FFD115"/>
<path d="M156.039 147.652H142.93V151.299H156.039V147.652Z" fill="#FCA700"/>
<path d="M142.93 147.652H137.417V151.299H142.93V147.652Z" fill="#EC830E"/>
<path d="M161.899 151.299H136.203V151.646H161.899V151.299Z" fill="#DF641E"/>
<path d="M163.288 143.659H134.856V147.305H163.288V143.659Z" fill="#FDA600"/>
<path d="M163.288 143.659H159.685V147.305H163.288V143.659Z" fill="#FDA600"/>
<path d="M159.685 143.659H156.039V147.305H159.685V143.659Z" fill="#FFD115"/>
<path d="M156.039 143.659H142.93V147.305H156.039V143.659Z" fill="#FCA700"/>
<path d="M142.93 143.659H137.417V147.305H142.93V143.659Z" fill="#EC830E"/>
<path d="M161.899 147.305H136.203V147.653H161.899V147.305Z" fill="#DF641E"/>
<defs>
<linearGradient id="paint0_linear_70_884" x1="107.4" y1="135.256" x2="106.984" y2="76.4584" gradientUnits="userSpaceOnUse">
<stop stop-color="#EA6200"/>
<stop offset="1" stop-color="#FFC045"/>
</linearGradient>
<linearGradient id="paint1_linear_70_884" x1="163.995" y1="114.722" x2="163.629" y2="93.4827" gradientUnits="userSpaceOnUse">
<stop stop-color="#EA6200"/>
<stop offset="1" stop-color="#FFC045"/>
</linearGradient>
<linearGradient id="paint2_linear_70_884" x1="6.1557" y1="-153.865" x2="74.4142" y2="-152.338" gradientUnits="userSpaceOnUse">
<stop stop-color="#13161F"/>
<stop offset="0.265" stop-color="#525661"/>
<stop offset="0.615" stop-color="#1E212A"/>
<stop offset="1" stop-color="#494F5C"/>
</linearGradient>
<linearGradient id="paint3_linear_70_884" x1="23.8577" y1="-17.5262" x2="57.7808" y2="-15.2328" gradientUnits="userSpaceOnUse">
<stop stop-color="#13161F"/>
<stop offset="0.265" stop-color="#525661"/>
<stop offset="0.615" stop-color="#1E212A"/>
<stop offset="1" stop-color="#494F5C"/>
</linearGradient>
<linearGradient id="paint4_linear_70_884" x1="77.1019" y1="33.1347" x2="88.3841" y2="-6.52762" gradientUnits="userSpaceOnUse">
<stop stop-color="#EA6200"/>
<stop offset="1" stop-color="#FFC045"/>
</linearGradient>
<linearGradient id="paint5_linear_70_884" x1="76.43" y1="30.7294" x2="85.0243" y2="1.67013" gradientUnits="userSpaceOnUse">
<stop stop-color="#DA3A00"/>
<stop offset="1" stop-color="#FFC045"/>
</linearGradient>
<linearGradient id="paint6_linear_70_884" x1="76.6581" y1="28.071" x2="84.6061" y2="-11.4143" gradientUnits="userSpaceOnUse">
<stop stop-color="#EA6200"/>
<stop offset="1" stop-color="#FFC045"/>
</linearGradient>
<linearGradient id="paint7_linear_70_884" x1="75.9095" y1="30.5929" x2="84.1251" y2="0.249388" gradientUnits="userSpaceOnUse">
<stop stop-color="#EA6200"/>
<stop offset="1" stop-color="#FFC045"/>
</linearGradient>
<linearGradient id="paint8_linear_70_884" x1="107.839" y1="65.7163" x2="109.127" y2="27.4039" gradientUnits="userSpaceOnUse">
<stop stop-color="#EA6200"/>
<stop offset="1" stop-color="#FFC045"/>
</linearGradient>
<linearGradient id="paint9_linear_70_884" x1="106.91" y1="63.7045" x2="108.149" y2="35.563" gradientUnits="userSpaceOnUse">
<stop stop-color="#DA3A00"/>
<stop offset="1" stop-color="#FFC045"/>
</linearGradient>
<linearGradient id="paint10_linear_70_884" x1="106.386" y1="61.2283" x2="104.707" y2="23.8257" gradientUnits="userSpaceOnUse">
<stop stop-color="#EA6200"/>
<stop offset="1" stop-color="#FFC045"/>
</linearGradient>
<linearGradient id="paint11_linear_70_884" x1="106.463" y1="63.6919" x2="107.072" y2="34.4761" gradientUnits="userSpaceOnUse">
<stop stop-color="#EA6200"/>
<stop offset="1" stop-color="#FFC045"/>
</linearGradient>
<linearGradient id="paint12_linear_70_884" x1="109.67" y1="-68.8326" x2="166.634" y2="-65.9503" gradientUnits="userSpaceOnUse">
<stop stop-color="#13161F"/>
<stop offset="0.265" stop-color="#525661"/>
<stop offset="0.615" stop-color="#1E212A"/>
<stop offset="1" stop-color="#494F5C"/>
</linearGradient>
<linearGradient id="paint13_linear_70_884" x1="128.041" y1="1.52595" x2="141.663" y2="2.70811" gradientUnits="userSpaceOnUse">
<stop stop-color="#13161F"/>
<stop offset="0.265" stop-color="#525661"/>
<stop offset="0.615" stop-color="#1E212A"/>
<stop offset="1" stop-color="#494F5C"/>
</linearGradient>
<linearGradient id="paint14_linear_70_884" x1="125.933" y1="-0.208538" x2="144.59" y2="1.00453" gradientUnits="userSpaceOnUse">
<stop stop-color="#13161F"/>
<stop offset="0.265" stop-color="#525661"/>
<stop offset="0.615" stop-color="#1E212A"/>
<stop offset="1" stop-color="#494F5C"/>
</linearGradient>
<linearGradient id="paint15_linear_70_884" x1="106.79" y1="147.204" x2="107.386" y2="93.1805" gradientUnits="userSpaceOnUse">
<stop stop-color="#EA6200"/>
<stop offset="1" stop-color="#FFDFA0"/>
</linearGradient>
</defs>
</svg>
