<svg width="20" height="20" viewBox="0 0 20 20" fill="none" xmlns="http://www.w3.org/2000/svg">
<path d="M17.5889 14.9633L16.4301 14.578C16.6791 14.3968 16.8818 14.1593 17.0216 13.8849C17.1614 13.6105 17.2345 13.307 17.2348 12.999C17.1416 10.4064 13.4094 10.4069 13.3169 12.999C13.3172 13.307 13.3902 13.6105 13.53 13.8849C13.6699 14.1593 13.8725 14.3967 14.1215 14.578C13.8921 14.6651 12.87 14.9651 12.6832 15.0904L11.2605 14.6157C13.2139 13.3845 12.3371 10.2846 9.99537 10.2865C7.65354 10.2861 6.77677 13.3833 8.73077 14.6159L7.31249 15.0886C7.12275 14.9683 6.10155 14.6587 5.8783 14.578C6.21176 14.3345 6.45966 13.9917 6.58653 13.5988C6.71341 13.2059 6.71277 12.7829 6.58469 12.3903C6.45662 11.9978 6.20768 11.6558 5.87349 11.4133C5.5393 11.1708 5.13697 11.0402 4.72406 11.0402C4.31116 11.0402 3.90883 11.1708 3.57463 11.4133C3.24043 11.6558 2.99148 11.9977 2.86339 12.3903C2.73531 12.7828 2.73465 13.2058 2.86151 13.5987C2.98838 13.9917 3.23626 14.3344 3.56971 14.578L2.4105 14.9636C2.0726 15.0764 1.77874 15.2926 1.57057 15.5817C1.3624 15.8707 1.25046 16.218 1.25061 16.5742V17.2889C1.25084 17.4764 1.32544 17.6562 1.45804 17.7888C1.59064 17.9214 1.77043 17.996 1.95796 17.9962H5.77419C5.78605 18.1997 5.8751 18.391 6.02317 18.531C6.17124 18.6711 6.36717 18.7494 6.57099 18.75H13.42C13.6239 18.7494 13.8198 18.6711 13.9679 18.531C14.1159 18.391 14.205 18.1997 14.2168 17.9962H18.0421C18.2296 17.996 18.4094 17.9214 18.542 17.7888C18.6746 17.6562 18.7492 17.4764 18.7494 17.2889V16.5742C18.7495 16.2179 18.6375 15.8705 18.4292 15.5814C18.2209 15.2923 17.9269 15.076 17.5889 14.9633ZM15.2758 11.6652C15.6275 11.6683 15.9637 11.8102 16.2113 12.06C16.4589 12.3098 16.5978 12.6473 16.5978 12.999C16.5978 13.3507 16.4589 13.6882 16.2113 13.938C15.9637 14.1878 15.6275 14.3297 15.2758 14.3328C14.9242 14.3295 14.5882 14.1875 14.3407 13.9377C14.0933 13.6879 13.9545 13.3506 13.9545 12.999C13.9545 12.6474 14.0933 12.31 14.3408 12.0603C14.5882 11.8105 14.9243 11.6685 15.2758 11.6652ZM8.26963 12.6374C8.34207 10.3564 11.6492 10.357 11.7214 12.6374C11.6489 14.9183 8.34174 14.9179 8.26963 12.6374ZM4.72404 11.6652C5.07573 11.6683 5.41195 11.8102 5.65952 12.06C5.9071 12.3098 6.046 12.6473 6.046 12.999C6.04599 13.3507 5.90708 13.6882 5.6595 13.938C5.41191 14.1878 5.07569 14.3297 4.724 14.3328C4.37231 14.3297 4.03609 14.1878 3.78851 13.938C3.54093 13.6882 3.40203 13.3507 3.40204 12.999C3.40204 12.6473 3.54095 12.3098 3.78854 12.06C4.03612 11.8102 4.37234 11.6683 4.72404 11.6652ZM5.76939 17.3713H1.95796C1.9362 17.371 1.91542 17.3622 1.90003 17.3468C1.88464 17.3314 1.87587 17.3106 1.87557 17.2889V16.5742C1.87545 16.3491 1.94615 16.1298 2.07765 15.9471C2.20915 15.7645 2.39477 15.6278 2.60824 15.5565L4.10518 15.0585C4.82933 14.7457 5.86043 15.25 6.55706 15.4623C6.27518 15.688 6.0551 15.9815 5.91736 16.3153C5.77962 16.6492 5.72871 17.0124 5.76939 17.3713ZM13.42 18.125H6.57097C6.34232 18.123 6.3998 17.8346 6.39429 17.686C6.39431 17.6822 6.39427 17.067 6.39429 17.0624C6.39399 16.7686 6.4863 16.4821 6.65812 16.2437C6.82994 16.0053 7.07253 15.8271 7.35141 15.7344L9.20522 15.1165C9.71829 14.9465 10.2725 14.9464 10.7856 15.1162L12.6397 15.7347C12.9186 15.8273 13.1612 16.0055 13.333 16.2438C13.5048 16.4822 13.5971 16.7686 13.5967 17.0625V17.6815C13.5883 17.8297 13.6535 18.1221 13.42 18.125ZM18.1245 17.2889C18.1242 17.3107 18.1154 17.3314 18.1 17.3468C18.0846 17.3622 18.0638 17.371 18.0421 17.3713H14.2217C14.2623 17.013 14.2115 16.6503 14.0743 16.317C13.937 15.9836 13.7176 15.6903 13.4365 15.4646C14.1493 15.2553 15.1423 14.742 15.8963 15.0591L17.3912 15.5562C17.6048 15.6275 17.7905 15.7641 17.9221 15.9468C18.0537 16.1295 18.1245 16.349 18.1245 16.5742L18.1245 17.2889Z" fill="#F0F0F2"/>
<path d="M8.90637 8.13078L9.74688 9.24944C9.7761 9.28809 9.81388 9.31943 9.85725 9.34101C9.90062 9.36259 9.94841 9.37382 9.99686 9.37382C10.0453 9.37382 10.0931 9.36259 10.1365 9.34101C10.1798 9.31943 10.2176 9.28809 10.2468 9.24944L11.0843 8.13078C14.8607 6.82668 14.0033 1.32637 9.99686 1.25C5.98636 1.3265 5.12943 6.82548 8.90637 8.13078ZM9.99689 1.87496C13.3422 1.94304 13.9925 6.56208 10.8093 7.56207C10.7445 7.58112 10.6875 7.62058 10.6468 7.67457L9.99686 8.54326L9.3469 7.67456C9.30504 7.62043 9.24704 7.58103 9.18129 7.56206C5.99588 6.56057 6.65085 1.9423 9.99689 1.87496Z" fill="#F0F0F2"/>
<path d="M9.68292 4.41412V6.2222H9.54545C9.46363 6.22379 9.3857 6.25742 9.3284 6.31585C9.27111 6.37428 9.23901 6.45285 9.23901 6.53468C9.23902 6.61652 9.27111 6.69509 9.32842 6.75351C9.38572 6.81194 9.46365 6.84556 9.54547 6.84715H10.4454C10.4864 6.84716 10.527 6.83909 10.5649 6.82339C10.6029 6.80769 10.6373 6.78467 10.6663 6.75565C10.6953 6.72664 10.7184 6.69218 10.7341 6.65427C10.7498 6.61635 10.7578 6.57571 10.7578 6.53468C10.7523 6.28093 10.5289 6.19738 10.3079 6.22222V4.10166C10.3079 4.06062 10.2998 4.01999 10.2841 3.98207C10.2684 3.94415 10.2454 3.9097 10.2164 3.88068C10.1874 3.85166 10.1529 3.82865 10.115 3.81295C10.0771 3.79725 10.0364 3.78917 9.9954 3.78918H9.54545C9.50441 3.78917 9.46377 3.79725 9.42586 3.81295C9.38794 3.82865 9.35349 3.85166 9.32447 3.88068C9.29545 3.9097 9.27243 3.94415 9.25673 3.98207C9.24103 4.01999 9.23296 4.06062 9.23297 4.10166C9.23846 4.35549 9.46199 4.4389 9.68292 4.41412Z" fill="#F0F0F2"/>
<path d="M10.3843 2.93427C10.3825 2.81284 10.333 2.69699 10.2464 2.61176C10.1599 2.52654 10.0433 2.47876 9.92188 2.47876C9.80043 2.47876 9.68385 2.52653 9.59732 2.61175C9.51079 2.69698 9.46125 2.81282 9.45941 2.93426C9.46125 3.05569 9.51078 3.17154 9.59731 3.25677C9.68383 3.34199 9.80041 3.38977 9.92186 3.38977C10.0433 3.38977 10.1599 3.342 10.2464 3.25678C10.333 3.17155 10.3825 3.05571 10.3843 2.93427Z" fill="#F0F0F2"/>
</svg>
