<svg width="16" height="16" viewBox="0 0 16 16" fill="none" xmlns="http://www.w3.org/2000/svg">
<path d="M3.93413 12.4651L11.9194 4.47986L11.9195 7.78727C11.9194 8.0634 12.1433 8.2873 12.4194 8.28721C12.6955 8.28739 12.9195 8.06331 12.9194 7.78727V3.27318C12.9194 3.24048 12.9161 3.20779 12.9098 3.17558C12.9082 3.16769 12.9049 3.16037 12.9029 3.1526C12.8971 3.12885 12.891 3.10511 12.8816 3.08227C12.8776 3.07271 12.8717 3.06416 12.8672 3.05484C12.8575 3.03495 12.8483 3.01487 12.8358 2.99612C12.8176 2.96865 12.7966 2.94283 12.773 2.91918C12.7493 2.89553 12.7235 2.87456 12.696 2.85633C12.6773 2.84385 12.6572 2.83467 12.6373 2.82498C12.628 2.82046 12.6194 2.81452 12.6099 2.81057C12.587 2.80117 12.5633 2.79509 12.5395 2.7892C12.5318 2.78726 12.5244 2.78395 12.5166 2.78239C12.4844 2.77603 12.4517 2.77275 12.419 2.77278L7.90496 2.77287C7.76685 2.77287 7.64187 2.8288 7.55141 2.91926C7.46095 3.00972 7.40493 3.1348 7.40501 3.27282C7.40493 3.54894 7.62883 3.77285 7.90496 3.77276H11.2123L3.22703 11.758C3.03178 11.9533 3.03178 12.2699 3.22703 12.4651C3.42227 12.6604 3.73888 12.6604 3.93413 12.4651Z" fill="#F0F0F2"/>
</svg>
