<svg width="36" height="36" viewBox="0 0 36 36" fill="none" xmlns="http://www.w3.org/2000/svg">
<path d="M26.6736 15.9208H26.6142V14.4653C26.6142 9.79007 22.8242 6 18.1489 6C13.4735 6 9.68354 9.79007 9.68354 14.4653V15.9208H9.32712C8.02018 15.9208 7.01029 17.0792 7.01029 18.4159V22.1287C6.97738 23.4242 8.00096 24.5011 9.29648 24.5341C9.30671 24.5343 9.31689 24.5345 9.32712 24.5346H11.5251C11.8365 24.52 12.077 24.2557 12.0623 23.9444C12.0618 23.9332 12.061 23.922 12.0598 23.9108V16.6336C12.0598 16.2772 11.8519 15.9207 11.5251 15.9207H10.8717V14.4653C10.8717 10.4462 14.1298 7.18806 18.1489 7.18806C22.168 7.18806 25.4261 10.4462 25.4261 14.4653V15.9207H24.7726C24.4459 15.9207 24.238 16.2771 24.238 16.6336V23.9108C24.2048 24.2207 24.4292 24.4989 24.7391 24.532C24.7502 24.5332 24.7614 24.5341 24.7726 24.5346H25.4558L25.3964 24.6237C24.5051 25.8082 23.1065 26.502 21.6241 26.4949C21.2996 24.9037 19.7465 23.8767 18.1552 24.2013C16.7944 24.4788 15.8133 25.6706 15.8023 27.0593C15.8186 28.6882 17.1437 30 18.7726 29.9999C19.579 29.9868 20.3476 29.6559 20.9112 29.0791C21.2915 28.6896 21.5407 28.1912 21.6241 27.6533C23.4805 27.6604 25.2312 26.7905 26.3468 25.3068L26.9112 24.4751C28.1884 24.386 28.9904 23.584 28.9904 22.4256V18.7127C28.9905 17.4356 28.04 15.9208 26.6736 15.9208ZM10.8717 23.3465H9.32712C8.68752 23.3309 8.18164 22.7999 8.19722 22.1603C8.1975 22.1498 8.1979 22.1392 8.19841 22.1287V18.4158C8.19841 17.7326 8.67365 17.1089 9.32712 17.1089H10.8717V23.3465ZM20.0499 28.2475C19.7207 28.6044 19.2582 28.8088 18.7727 28.8119C17.8063 28.7965 17.022 28.0254 16.9905 27.0594C16.9901 26.0915 17.7744 25.3066 18.7423 25.3062C19.7101 25.3058 20.495 26.0901 20.4954 27.058C20.4954 27.0584 20.4954 27.0589 20.4954 27.0594C20.5202 27.5004 20.3585 27.9315 20.0499 28.2475ZM27.8023 22.4257C27.8023 23.2277 27.0301 23.3465 26.6736 23.3465H25.4261V17.1089H26.6736C27.3271 17.1089 27.8023 18.0297 27.8023 18.7129V22.4257Z" fill="#B6BDC7"/>
</svg>
