<svg width="32" height="32" viewBox="0 0 32 32" fill="none" xmlns="http://www.w3.org/2000/svg">
<path fill-rule="evenodd" clip-rule="evenodd" d="M20.8575 14.6875C20.5066 14.4859 20.0902 14.4315 19.6993 14.5362C19.3084 14.6409 18.975 14.8962 18.7719 15.2463L16.6925 18.8475C15.7103 18.6548 14.6917 18.8123 13.8136 19.2926C12.9355 19.7729 12.2534 20.5456 11.8857 21.4765C11.5181 22.4074 11.4881 23.4376 11.8011 24.3883C12.1141 25.339 12.7503 26.15 13.599 26.6804C14.4478 27.2108 15.4555 27.4272 16.4472 27.2918C17.4389 27.1565 18.3519 26.6781 19.0275 25.9396C19.7031 25.2012 20.0986 24.2494 20.1454 23.2496C20.1923 22.2498 19.8874 21.2652 19.2838 20.4669L21.4163 16.7731C21.6179 16.4223 21.6723 16.0058 21.5675 15.6149C21.4628 15.2241 21.2075 14.8906 20.8575 14.6875ZM15.875 26.3125C15.2274 26.3124 14.5944 26.1202 14.056 25.7604C13.5176 25.4005 13.0981 24.8891 12.8503 24.2907C12.6026 23.6924 12.5378 23.0341 12.6642 22.3989C12.7907 21.7638 13.1026 21.1804 13.5605 20.7226C14.0185 20.2647 14.6019 19.9529 15.2371 19.8266C15.8722 19.7003 16.5305 19.7652 17.1288 20.0131C17.7271 20.2609 18.2384 20.6806 18.5982 21.219C18.958 21.7575 19.15 22.3905 19.15 23.0381C19.149 23.9063 18.8036 24.7387 18.1896 25.3526C17.5757 25.9664 16.7432 26.3117 15.875 26.3125ZM20.55 16.2681L18.5625 19.7169C18.2883 19.4951 17.9879 19.3079 17.6681 19.1594L19.6406 15.7431C19.713 15.6272 19.8275 15.5439 19.9601 15.5108C20.0927 15.4777 20.2329 15.4975 20.3512 15.5658C20.4695 15.6342 20.5567 15.7458 20.5942 15.8772C20.6318 16.0086 20.6168 16.1494 20.5525 16.27L20.55 16.2681ZM26.96 9.22563C24.7922 7.05786 22.0302 5.58164 19.0234 4.98366C16.0165 4.38567 12.8999 4.69278 10.0676 5.86614C7.23529 7.03951 4.81456 9.02643 3.11154 11.5756C1.40851 14.1248 0.499691 17.1218 0.5 20.1875C0.5 20.3201 0.552678 20.4473 0.646447 20.5411C0.740215 20.6348 0.867392 20.6875 1 20.6875H7.05813C7.19073 20.6875 7.31791 20.6348 7.41168 20.5411C7.50545 20.4473 7.55813 20.3201 7.55813 20.1875C7.55813 15.5325 11.345 11.7456 16 11.7456C20.655 11.7456 24.4419 15.5306 24.4419 20.1875C24.4419 20.3201 24.4946 20.4473 24.5883 20.5411C24.6821 20.6348 24.8093 20.6875 24.9419 20.6875H31C31.1326 20.6875 31.2598 20.6348 31.3536 20.5411C31.4473 20.4473 31.5 20.3201 31.5 20.1875C31.5058 18.1509 31.1076 16.1333 30.3283 14.2517C29.549 12.3701 28.4041 10.6617 26.96 9.22563ZM6.57125 19.6875H1.50875C1.62666 16.1889 3.01099 12.8521 5.40438 10.2975L8.9825 13.875C7.53518 15.4782 6.68375 17.5306 6.57125 19.6875ZM9.6875 13.1681L6.11188 9.59C8.66611 7.19731 12.0021 5.81324 15.5 5.695V10.7575C13.3432 10.8698 11.2907 11.721 9.6875 13.1681ZM16.5 10.7569V5.69438C19.9979 5.81262 23.3339 7.19668 25.8881 9.58937L22.3125 13.1681C20.7093 11.7208 18.6569 10.8694 16.5 10.7569ZM25.4287 19.6875C25.3163 17.5306 24.4648 15.4782 23.0175 13.875L26.5956 10.2969C28.9892 12.8516 30.3735 16.1887 30.4912 19.6875H25.4287ZM15.375 23.1787V20.8125C15.375 20.6799 15.4277 20.5527 15.5214 20.4589C15.6152 20.3652 15.7424 20.3125 15.875 20.3125C16.0076 20.3125 16.1348 20.3652 16.2286 20.4589C16.3223 20.5527 16.375 20.6799 16.375 20.8125V23.1775C16.375 23.3101 16.3223 23.4373 16.2286 23.5311C16.1348 23.6248 16.0076 23.6775 15.875 23.6775C15.7424 23.6775 15.6152 23.6248 15.5214 23.5311C15.4277 23.4373 15.375 23.3101 15.375 23.1775V23.1787ZM16.3794 24.7612C16.3795 24.861 16.35 24.9586 16.2947 25.0416C16.2393 25.1247 16.1606 25.1894 16.0684 25.2277C15.9763 25.2659 15.8749 25.276 15.777 25.2566C15.6791 25.2372 15.5892 25.1893 15.5186 25.1187C15.448 25.0482 15.3999 24.9584 15.3804 24.8605C15.3609 24.7626 15.3708 24.6612 15.409 24.569C15.4471 24.4768 15.5118 24.398 15.5947 24.3425C15.6777 24.2871 15.7752 24.2575 15.875 24.2575C16.0086 24.2577 16.1367 24.3108 16.2312 24.4052C16.3258 24.4996 16.379 24.6276 16.3794 24.7612Z" fill="#71757F"/>
</svg>
