<svg width="16" height="16" viewBox="0 0 16 16" fill="none" xmlns="http://www.w3.org/2000/svg">
<g clip-path="url(#clip0_33_4804)">
<path d="M15.7901 7.158L12.8268 1.584C12.5261 1.018 11.9421 0.666664 11.3028 0.666664H4.71143C4.07343 0.666664 3.4901 1.01666 3.18877 1.58133L0.210768 7.158C-0.0712324 7.68733 -0.0712324 8.31933 0.210768 8.848L3.1881 14.4187C3.48943 14.9827 4.07277 15.3327 4.7101 15.3327H11.3014C11.9408 15.3327 12.5248 14.9813 12.8254 14.4153L15.7888 8.84133C16.0694 8.31466 16.0694 7.68466 15.7888 7.158H15.7901ZM15.2014 8.52933L12.2381 14.1033C12.0534 14.4507 11.6954 14.6667 11.3028 14.6667H4.71143C4.3201 14.6667 3.9621 14.452 3.77743 14.1053L0.799434 8.53466C0.622101 8.202 0.621434 7.80466 0.799434 7.472L3.77743 1.89533C3.96277 1.54866 4.32077 1.33333 4.7121 1.33333H11.3034C11.6954 1.33333 12.0534 1.54933 12.2388 1.89666L15.2021 7.47066C15.3781 7.802 15.3774 8.198 15.2014 8.52933ZM8.33344 9.33333H7.66677V4H8.33344V9.33333ZM8.66677 11.3333C8.66677 11.7013 8.3681 12 8.0001 12C7.6321 12 7.33343 11.7013 7.33343 11.3333C7.33343 10.9653 7.6321 10.6667 8.0001 10.6667C8.3681 10.6667 8.66677 10.9653 8.66677 11.3333Z" fill="#F0F0F2"/>
</g>
<defs>
<clipPath id="clip0_33_4804">
<rect width="16" height="16" fill="white"/>
</clipPath>
</defs>
</svg>
