<svg width="24" height="24" viewBox="0 0 24 24" fill="none" xmlns="http://www.w3.org/2000/svg">
<g clip-path="url(#clip0_86_1198)">
<path d="M20.1634 3.04126H3.7658C1.99642 3.04126 -0.0471191 4.03819 -0.0471191 6.86908V17.1563C-0.0471191 19.9874 1.99642 20.9841 3.7658 20.9841H20.1634C21.9229 20.9841 23.9763 19.9874 23.9763 17.1712V6.86908C23.9763 4.03819 21.9328 3.04126 20.1634 3.04126ZM22.9796 17.1563C22.9796 19.6983 20.9859 19.9723 20.1634 19.9723H3.7658C2.91846 19.9723 0.949626 19.6983 0.949626 17.1563V6.86908C0.949626 4.32726 2.9433 4.05309 3.7658 4.05309H20.1634C21.0108 4.05309 22.9796 4.32726 22.9796 6.86908V17.1563Z" fill="#F0F0F2"/>
<path d="M8.76477 14.3552C8.91879 14.4445 9.10923 14.4445 9.26324 14.3552L15.1594 10.9512C15.3977 10.813 15.4785 10.5081 15.3403 10.2698C15.2969 10.1946 15.2341 10.1322 15.1594 10.0889L9.26324 6.67973C9.02496 6.5421 8.71988 6.62398 8.58243 6.86208C8.53863 6.93844 8.51508 7.02511 8.51563 7.11343V13.9217C8.51508 14.1006 8.60984 14.266 8.76477 14.3552ZM9.51238 7.97548L13.9183 10.5175L9.51735 13.0593L9.51238 7.97548Z" fill="#F0F0F2"/>
<path d="M20.3279 16.663H7.83774V15.8107C7.83774 15.5355 7.61436 15.3123 7.33927 15.3123H5.53015C5.25488 15.3123 5.03169 15.5355 5.03169 15.8107V16.8075H3.60125C3.32616 16.8075 3.10278 17.0308 3.10278 17.3059C3.10278 17.581 3.32616 17.8044 3.60125 17.8044H5.03169V18.522C5.03169 18.7971 5.25507 19.0205 5.53015 19.0205H7.33431C7.60957 19.0205 7.83277 18.7971 7.83277 18.522V17.6598H20.3281C20.6031 17.6598 20.8265 17.4366 20.8265 17.1613C20.8263 16.8862 20.6031 16.663 20.3279 16.663ZM6.84081 18.0186H6.02843V16.309H6.83584L6.84081 18.0186Z" fill="#F0F0F2"/>
</g>
<defs>
<clipPath id="clip0_86_1198">
<rect width="24" height="24" fill="white"/>
</clipPath>
</defs>
</svg>
