<svg width="240" height="231" viewBox="0 0 240 231" fill="none" xmlns="http://www.w3.org/2000/svg">
<path d="M120 212.952C186.274 212.952 240 209.975 240 206.302C240 202.63 186.274 199.653 120 199.653C53.7258 199.653 0 202.63 0 206.302C0 209.975 53.7258 212.952 120 212.952Z" fill="#272A35"/>
<path d="M99.5948 230.481C120.784 230.481 137.961 228.13 137.961 225.229C137.961 222.328 120.784 219.976 99.5948 219.976C78.4055 219.976 61.2281 222.328 61.2281 225.229C61.2281 228.13 78.4055 230.481 99.5948 230.481Z" fill="#272A35"/>
<path d="M75.64 206.302H18.9797L17.2564 198.676H76.8117L75.64 206.302Z" fill="#FFBB00"/>
<path d="M18.7096 205.107L18.9797 206.302H75.64L75.8234 205.107H18.7096Z" fill="#FFD666"/>
<path d="M40.4168 206.302H18.9797L17.2564 198.676H40.4168V206.302Z" fill="#EEA200"/>
<path d="M43.7945 198.676H42.4847V206.302H43.7945V198.676Z" fill="#EEA200"/>
<path d="M48.137 198.676H46.4826V206.302H48.137V198.676Z" fill="#EEA200"/>
<path d="M52.2727 206.302H51.1009V198.676H53.1689L52.2727 206.302Z" fill="#EEA200"/>
<path d="M58.752 206.302H57.029L56.6152 198.676H58.752V206.302Z" fill="#EEA200"/>
<path d="M63.5772 206.302H62.5433L61.6473 198.676H63.5772V206.302Z" fill="#EEA200"/>
<path d="M67.9198 206.302H65.9207L66.61 198.676H67.9198V206.302Z" fill="#EEA200"/>
<path d="M70.8148 198.676H69.7808V206.302H70.8148V198.676Z" fill="#EEA200"/>
<path d="M73.9856 206.302H73.0205V198.676H74.7438L73.9856 206.302Z" fill="#EEA200"/>
<path d="M72.3725 198.676H15.7123L13.989 191.05H73.5443L72.3725 198.676Z" fill="#FFBB00"/>
<path d="M15.4421 197.481L15.7122 198.676H72.3725L72.556 197.481H15.4421Z" fill="#FFD666"/>
<path d="M37.1494 198.676H15.7123L13.989 191.05H37.1494V198.676Z" fill="#EEA200"/>
<path d="M40.5271 191.05H39.2173V198.676H40.5271V191.05Z" fill="#EEA200"/>
<path d="M44.8696 191.05H43.2152V198.676H44.8696V191.05Z" fill="#EEA200"/>
<path d="M49.0052 198.676H47.8335V191.05H49.9014L49.0052 198.676Z" fill="#EEA200"/>
<path d="M55.4848 198.676H53.7615L53.348 191.05H55.4848V198.676Z" fill="#EEA200"/>
<path d="M60.3098 198.676H59.2758L58.3798 191.05H60.3098V198.676Z" fill="#EEA200"/>
<path d="M64.6523 198.676H62.6535L63.3428 191.05H64.6523V198.676Z" fill="#EEA200"/>
<path d="M67.5476 191.05H66.5136V198.676H67.5476V191.05Z" fill="#EEA200"/>
<path d="M70.7181 198.676H69.7533V191.05H71.4763L70.7181 198.676Z" fill="#EEA200"/>
<path d="M76.2754 191.05H19.6153L17.8921 183.424H77.4474L76.2754 191.05Z" fill="#FFBB00"/>
<path d="M19.3453 189.855L19.6151 191.05H76.2754L76.4591 189.855H19.3453Z" fill="#FFD666"/>
<path d="M41.0525 191.05H19.6153L17.8921 183.424H41.0525V191.05Z" fill="#EEA200"/>
<path d="M44.4299 183.424H43.1202V191.05H44.4299V183.424Z" fill="#EEA200"/>
<path d="M48.7727 183.424H47.1183V191.05H48.7727V183.424Z" fill="#EEA200"/>
<path d="M52.9084 191.05H51.7364V183.424H53.8043L52.9084 191.05Z" fill="#EEA200"/>
<path d="M59.3877 191.05H57.6644L57.2509 183.424H59.3877V191.05Z" fill="#EEA200"/>
<path d="M64.2127 191.05H63.1789L62.2827 183.424H64.2127V191.05Z" fill="#EEA200"/>
<path d="M68.5554 191.05H66.5564L67.2457 183.424H68.5554V191.05Z" fill="#EEA200"/>
<path d="M71.4505 183.424H70.4165V191.05H71.4505V183.424Z" fill="#EEA200"/>
<path d="M74.6213 191.05H73.6562V183.424H75.3795L74.6213 191.05Z" fill="#EEA200"/>
<path d="M80.4533 183.424H23.793L22.0698 175.798H81.6251L80.4533 183.424Z" fill="#FFBB00"/>
<path d="M23.5229 182.229L23.793 183.424H80.4533L80.6368 182.229H23.5229Z" fill="#FFD666"/>
<path d="M45.2302 183.424H23.793L22.0698 175.798H45.2302V183.424Z" fill="#EEA200"/>
<path d="M48.6079 175.798H47.2981V183.424H48.6079V175.798Z" fill="#EEA200"/>
<path d="M52.9504 175.798H51.296V183.424H52.9504V175.798Z" fill="#EEA200"/>
<path d="M57.0861 183.424H55.9143V175.798H57.9822L57.0861 183.424Z" fill="#EEA200"/>
<path d="M63.5656 183.424H61.8423L61.4288 175.798H63.5656V183.424Z" fill="#EEA200"/>
<path d="M68.3906 183.424H67.3566L66.4607 175.798H68.3906V183.424Z" fill="#EEA200"/>
<path d="M72.7331 183.424H70.7343L71.4236 175.798H72.7331V183.424Z" fill="#EEA200"/>
<path d="M75.6281 175.798H74.5942V183.424H75.6281V175.798Z" fill="#EEA200"/>
<path d="M78.7989 183.424H77.8341V175.798H79.5571L78.7989 183.424Z" fill="#EEA200"/>
<path d="M77.9282 175.798H21.2679L19.5446 168.172H79.1L77.9282 175.798Z" fill="#FFBB00"/>
<path d="M20.9979 174.603L21.268 175.798H77.9282L78.1117 174.603H20.9979Z" fill="#FFD666"/>
<path d="M42.7051 175.798H21.2679L19.5446 168.172H42.7051V175.798Z" fill="#EEA200"/>
<path d="M46.0827 168.172H44.773V175.798H46.0827V168.172Z" fill="#EEA200"/>
<path d="M50.4253 168.172H48.7709V175.798H50.4253V168.172Z" fill="#EEA200"/>
<path d="M54.5609 175.798H53.3892V168.172H55.4571L54.5609 175.798Z" fill="#EEA200"/>
<path d="M61.0405 175.798H59.3172L58.9035 168.172H61.0405V175.798Z" fill="#EEA200"/>
<path d="M65.8655 175.798H64.8315L63.9355 168.172H65.8655V175.798Z" fill="#EEA200"/>
<path d="M70.208 175.798H68.2092L68.8985 168.172H70.208V175.798Z" fill="#EEA200"/>
<path d="M73.1031 168.172H72.0691V175.798H73.1031V168.172Z" fill="#EEA200"/>
<path d="M76.2738 175.798H75.3087V168.172H77.032L76.2738 175.798Z" fill="#EEA200"/>
<path d="M81.7192 168.172H25.0591L23.3358 160.546H82.8912L81.7192 168.172Z" fill="#FFBB00"/>
<path d="M24.789 166.977L25.0589 168.172H81.7192L81.9029 166.977H24.789Z" fill="#FFD666"/>
<path d="M46.4963 168.172H25.0591L23.3358 160.546H46.4963V168.172Z" fill="#EEA200"/>
<path d="M49.8737 160.546H48.5639V168.172H49.8737V160.546Z" fill="#EEA200"/>
<path d="M54.2164 160.546H52.562V168.172H54.2164V160.546Z" fill="#EEA200"/>
<path d="M58.3521 168.172H57.1804V160.546H59.2481L58.3521 168.172Z" fill="#EEA200"/>
<path d="M64.8315 168.172H63.1082L62.6946 160.546H64.8315V168.172Z" fill="#EEA200"/>
<path d="M69.6567 168.172H68.6227L67.7265 160.546H69.6567V168.172Z" fill="#EEA200"/>
<path d="M73.9992 168.172H72.0001L72.6894 160.546H73.9992V168.172Z" fill="#EEA200"/>
<path d="M76.8942 160.546H75.8602V168.172H76.8942V160.546Z" fill="#EEA200"/>
<path d="M80.065 168.172H79.0999V160.546H80.8232L80.065 168.172Z" fill="#EEA200"/>
<path d="M78.8057 160.546H22.1455L20.4222 152.919H79.9777L78.8057 160.546Z" fill="#FFBB00"/>
<path d="M21.8756 159.351L22.1455 160.546H78.8058L78.9895 159.351H21.8756Z" fill="#FFD666"/>
<path d="M43.5826 160.546H22.1455L20.4222 152.919H43.5826V160.546Z" fill="#EEA200"/>
<path d="M46.9603 152.919H45.6505V160.546H46.9603V152.919Z" fill="#EEA200"/>
<path d="M51.3028 152.919H49.6484V160.546H51.3028V152.919Z" fill="#EEA200"/>
<path d="M55.4387 160.546H54.2667V152.919H56.3347L55.4387 160.546Z" fill="#EEA200"/>
<path d="M61.918 160.546H60.1948L59.7812 152.919H61.918V160.546Z" fill="#EEA200"/>
<path d="M66.743 160.546H65.7091L64.8131 152.919H66.743V160.546Z" fill="#EEA200"/>
<path d="M71.0858 160.546H69.0867L69.776 152.919H71.0858V160.546Z" fill="#EEA200"/>
<path d="M73.9808 152.919H72.9468V160.546H73.9808V152.919Z" fill="#EEA200"/>
<path d="M77.1516 160.546H76.1865V152.919H77.9098L77.1516 160.546Z" fill="#EEA200"/>
<path d="M148.322 206.302H91.6622L89.9391 198.676H149.494L148.322 206.302Z" fill="#FFBB00"/>
<path d="M91.3923 205.107L91.6622 206.302H148.322L148.506 205.107H91.3923Z" fill="#FFD666"/>
<path d="M113.1 206.302H91.6622L89.9391 198.676H113.1V206.302Z" fill="#EEA200"/>
<path d="M116.477 198.676H115.167V206.302H116.477V198.676Z" fill="#EEA200"/>
<path d="M120.82 198.676H119.165V206.302H120.82V198.676Z" fill="#EEA200"/>
<path d="M124.955 206.302H123.783V198.676H125.851L124.955 206.302Z" fill="#EEA200"/>
<path d="M131.435 206.302H129.711L129.298 198.676H131.435V206.302Z" fill="#EEA200"/>
<path d="M136.26 206.302H135.226L134.33 198.676H136.26V206.302Z" fill="#EEA200"/>
<path d="M140.603 206.302H138.603L139.293 198.676H140.603V206.302Z" fill="#EEA200"/>
<path d="M143.498 198.676H142.464V206.302H143.498V198.676Z" fill="#EEA200"/>
<path d="M146.668 206.302H145.703V198.676H147.427L146.668 206.302Z" fill="#EEA200"/>
<path d="M145.055 198.676H88.395L86.6717 191.05H146.227L145.055 198.676Z" fill="#FFBB00"/>
<path d="M88.1249 197.481L88.3948 198.676H145.055L145.239 197.481H88.1249Z" fill="#FFD666"/>
<path d="M109.832 198.676H88.395L86.6717 191.05H109.832V198.676Z" fill="#EEA200"/>
<path d="M113.21 191.05H111.9V198.676H113.21V191.05Z" fill="#EEA200"/>
<path d="M117.552 191.05H115.898V198.676H117.552V191.05Z" fill="#EEA200"/>
<path d="M121.688 198.676H120.516V191.05H122.584L121.688 198.676Z" fill="#EEA200"/>
<path d="M128.167 198.676H126.444L126.031 191.05H128.167V198.676Z" fill="#EEA200"/>
<path d="M132.993 198.676H131.959L131.062 191.05H132.993V198.676Z" fill="#EEA200"/>
<path d="M137.335 198.676H135.336L136.025 191.05H137.335V198.676Z" fill="#EEA200"/>
<path d="M140.23 191.05H139.196V198.676H140.23V191.05Z" fill="#EEA200"/>
<path d="M143.401 198.676H142.436V191.05H144.159L143.401 198.676Z" fill="#EEA200"/>
<path d="M148.958 191.05H92.2979L90.5746 183.424H150.13L148.958 191.05Z" fill="#FFBB00"/>
<path d="M92.0278 189.855L92.2979 191.05H148.958L149.142 189.855H92.0278Z" fill="#FFD666"/>
<path d="M113.735 191.05H92.2979L90.5746 183.424H113.735V191.05Z" fill="#EEA200"/>
<path d="M117.113 183.424H115.803V191.05H117.113V183.424Z" fill="#EEA200"/>
<path d="M121.455 183.424H119.801V191.05H121.455V183.424Z" fill="#EEA200"/>
<path d="M125.591 191.05H124.419V183.424H126.487L125.591 191.05Z" fill="#EEA200"/>
<path d="M132.07 191.05H130.347L129.934 183.424H132.07V191.05Z" fill="#EEA200"/>
<path d="M136.895 191.05H135.861L134.965 183.424H136.895V191.05Z" fill="#EEA200"/>
<path d="M141.238 191.05H139.239L139.928 183.424H141.238V191.05Z" fill="#EEA200"/>
<path d="M144.133 183.424H143.099V191.05H144.133V183.424Z" fill="#EEA200"/>
<path d="M147.304 191.05H146.339V183.424H148.062L147.304 191.05Z" fill="#EEA200"/>
<path d="M153.136 183.424H96.4758L94.7525 175.798H154.308L153.136 183.424Z" fill="#FFBB00"/>
<path d="M96.2057 182.229L96.4758 183.424H153.136L153.32 182.229H96.2057Z" fill="#FFD666"/>
<path d="M117.913 183.424H96.4758L94.7525 175.798H117.913V183.424Z" fill="#EEA200"/>
<path d="M121.291 175.798H119.981V183.424H121.291V175.798Z" fill="#EEA200"/>
<path d="M125.633 175.798H123.979V183.424H125.633V175.798Z" fill="#EEA200"/>
<path d="M129.769 183.424H128.597V175.798H130.665L129.769 183.424Z" fill="#EEA200"/>
<path d="M136.248 183.424H134.525L134.111 175.798H136.248V183.424Z" fill="#EEA200"/>
<path d="M141.073 183.424H140.039L139.143 175.798H141.073V183.424Z" fill="#EEA200"/>
<path d="M145.416 183.424H143.417L144.106 175.798H145.416V183.424Z" fill="#EEA200"/>
<path d="M148.311 175.798H147.277V183.424H148.311V175.798Z" fill="#EEA200"/>
<path d="M151.482 183.424H150.517V175.798H152.24L151.482 183.424Z" fill="#EEA200"/>
<path d="M150.611 175.798H93.9507L92.2274 168.172H151.783L150.611 175.798Z" fill="#FFBB00"/>
<path d="M93.6806 174.603L93.9504 175.798H150.611L150.794 174.603H93.6806Z" fill="#FFD666"/>
<path d="M115.388 175.798H93.9507L92.2274 168.172H115.388V175.798Z" fill="#EEA200"/>
<path d="M118.765 168.172H117.456V175.798H118.765V168.172Z" fill="#EEA200"/>
<path d="M123.108 168.172H121.454V175.798H123.108V168.172Z" fill="#EEA200"/>
<path d="M127.244 175.798H126.072V168.172H128.14L127.244 175.798Z" fill="#EEA200"/>
<path d="M133.723 175.798H132L131.586 168.172H133.723V175.798Z" fill="#EEA200"/>
<path d="M138.548 175.798H137.514L136.618 168.172H138.548V175.798Z" fill="#EEA200"/>
<path d="M142.891 175.798H140.892L141.581 168.172H142.891V175.798Z" fill="#EEA200"/>
<path d="M145.786 168.172H144.752V175.798H145.786V168.172Z" fill="#EEA200"/>
<path d="M148.957 175.798H147.991V168.172H149.715L148.957 175.798Z" fill="#EEA200"/>
<path d="M154.402 168.172H97.7417L96.0184 160.546H155.574L154.402 168.172Z" fill="#FFBB00"/>
<path d="M97.4718 166.977L97.7417 168.172H154.402L154.586 166.977H97.4718Z" fill="#FFD666"/>
<path d="M119.179 168.172H97.7417L96.0184 160.546H119.179V168.172Z" fill="#EEA200"/>
<path d="M122.556 160.546H121.247V168.172H122.556V160.546Z" fill="#EEA200"/>
<path d="M126.899 160.546H125.245V168.172H126.899V160.546Z" fill="#EEA200"/>
<path d="M131.035 168.172H129.863V160.546H131.931L131.035 168.172Z" fill="#EEA200"/>
<path d="M137.514 168.172H135.791L135.377 160.546H137.514V168.172Z" fill="#EEA200"/>
<path d="M142.339 168.172H141.305L140.409 160.546H142.339V168.172Z" fill="#EEA200"/>
<path d="M146.682 168.172H144.683L145.372 160.546H146.682V168.172Z" fill="#EEA200"/>
<path d="M149.577 160.546H148.543V168.172H149.577V160.546Z" fill="#EEA200"/>
<path d="M152.748 168.172H151.783V160.546H153.506L152.748 168.172Z" fill="#EEA200"/>
<path d="M151.489 160.546H94.8282L93.1049 152.919H152.66L151.489 160.546Z" fill="#FFBB00"/>
<path d="M94.5581 159.351L94.8282 160.546H151.489L151.672 159.351H94.5581Z" fill="#FFD666"/>
<path d="M116.265 160.546H94.8282L93.1049 152.919H116.265V160.546Z" fill="#EEA200"/>
<path d="M119.643 152.919H118.333V160.546H119.643V152.919Z" fill="#EEA200"/>
<path d="M123.986 152.919H122.331V160.546H123.986V152.919Z" fill="#EEA200"/>
<path d="M128.121 160.546H126.949V152.919H129.017L128.121 160.546Z" fill="#EEA200"/>
<path d="M134.601 160.546H132.877L132.464 152.919H134.601V160.546Z" fill="#EEA200"/>
<path d="M139.426 160.546H138.392L137.496 152.919H139.426V160.546Z" fill="#EEA200"/>
<path d="M143.768 160.546H141.769L142.459 152.919H143.768V160.546Z" fill="#EEA200"/>
<path d="M146.663 152.919H145.629V160.546H146.663V152.919Z" fill="#EEA200"/>
<path d="M149.834 160.546H148.869V152.919H150.592L149.834 160.546Z" fill="#EEA200"/>
<path d="M154.35 152.92H97.6896L95.9663 145.293H155.522L154.35 152.92Z" fill="#FFBB00"/>
<path d="M97.4195 151.725L97.6896 152.92H154.35L154.533 151.725H97.4195Z" fill="#FFD666"/>
<path d="M119.127 152.92H97.6896L95.9663 145.293H119.127V152.92Z" fill="#EEA200"/>
<path d="M122.504 145.293H121.195V152.92H122.504V145.293Z" fill="#EEA200"/>
<path d="M126.847 145.293H125.193V152.92H126.847V145.293Z" fill="#EEA200"/>
<path d="M130.983 152.92H129.811V145.293H131.879L130.983 152.92Z" fill="#EEA200"/>
<path d="M137.462 152.92H135.739L135.325 145.293H137.462V152.92Z" fill="#EEA200"/>
<path d="M142.287 152.92H141.253L140.357 145.293H142.287V152.92Z" fill="#EEA200"/>
<path d="M146.63 152.92H144.631L145.32 145.293H146.63V152.92Z" fill="#EEA200"/>
<path d="M149.525 145.293H148.491V152.92H149.525V145.293Z" fill="#EEA200"/>
<path d="M152.695 152.92H151.73V145.293H153.454L152.695 152.92Z" fill="#EEA200"/>
<path d="M157.867 145.293H101.207L99.4834 137.667H159.039L157.867 145.293Z" fill="#FFBB00"/>
<path d="M100.937 144.098L101.207 145.293H157.867L158.05 144.098H100.937Z" fill="#FFD666"/>
<path d="M122.644 145.293H101.207L99.4834 137.667H122.644V145.293Z" fill="#EEA200"/>
<path d="M126.021 137.667H124.712V145.293H126.021V137.667Z" fill="#EEA200"/>
<path d="M130.364 137.667H128.71V145.293H130.364V137.667Z" fill="#EEA200"/>
<path d="M134.5 145.293H133.328V137.667H135.396L134.5 145.293Z" fill="#EEA200"/>
<path d="M140.979 145.293H139.256L138.842 137.667H140.979V145.293Z" fill="#EEA200"/>
<path d="M145.804 145.293H144.77L143.874 137.667H145.804V145.293Z" fill="#EEA200"/>
<path d="M150.147 145.293H148.148L148.837 137.667H150.147V145.293Z" fill="#EEA200"/>
<path d="M153.042 137.667H152.008V145.293H153.042V137.667Z" fill="#EEA200"/>
<path d="M156.213 145.293H155.248V137.667H156.971L156.213 145.293Z" fill="#EEA200"/>
<path d="M150.611 137.667H93.9507L92.2274 130.041H151.783L150.611 137.667Z" fill="#FFBB00"/>
<path d="M93.6806 136.473L93.9504 137.668H150.611L150.794 136.473H93.6806Z" fill="#FFD666"/>
<path d="M115.388 137.667H93.9507L92.2274 130.041H115.388V137.667Z" fill="#EEA200"/>
<path d="M118.765 130.042H117.456V137.668H118.765V130.042Z" fill="#EEA200"/>
<path d="M123.108 130.042H121.454V137.668H123.108V130.042Z" fill="#EEA200"/>
<path d="M127.244 137.668H126.072V130.042H128.14L127.244 137.668Z" fill="#EEA200"/>
<path d="M133.723 137.668H132L131.586 130.042H133.723V137.668Z" fill="#EEA200"/>
<path d="M138.548 137.668H137.514L136.618 130.042H138.548V137.668Z" fill="#EEA200"/>
<path d="M142.891 137.668H140.892L141.581 130.042H142.891V137.668Z" fill="#EEA200"/>
<path d="M145.786 130.042H144.752V137.668H145.786V130.042Z" fill="#EEA200"/>
<path d="M148.957 137.668H147.991V130.042H149.715L148.957 137.668Z" fill="#EEA200"/>
<path d="M154.402 130.041H97.7417L96.0184 122.415H155.574L154.402 130.041Z" fill="#FFBB00"/>
<path d="M97.4718 128.846L97.7417 130.041H154.402L154.586 128.846H97.4718Z" fill="#FFD666"/>
<path d="M119.179 130.041H97.7417L96.0184 122.415H119.179V130.041Z" fill="#EEA200"/>
<path d="M122.556 122.415H121.247V130.041H122.556V122.415Z" fill="#EEA200"/>
<path d="M126.899 122.415H125.245V130.041H126.899V122.415Z" fill="#EEA200"/>
<path d="M131.035 130.041H129.863V122.415H131.931L131.035 130.041Z" fill="#EEA200"/>
<path d="M137.514 130.041H135.791L135.377 122.415H137.514V130.041Z" fill="#EEA200"/>
<path d="M142.339 130.041H141.305L140.409 122.415H142.339V130.041Z" fill="#EEA200"/>
<path d="M146.682 130.041H144.683L145.372 122.415H146.682V130.041Z" fill="#EEA200"/>
<path d="M149.577 122.415H148.543V130.041H149.577V122.415Z" fill="#EEA200"/>
<path d="M152.748 130.041H151.783V122.415H153.506L152.748 130.041Z" fill="#EEA200"/>
<path d="M151.489 122.415H94.8282L93.1049 114.789H152.66L151.489 122.415Z" fill="#FFBB00"/>
<path d="M94.5581 121.22L94.8282 122.415H151.489L151.672 121.22H94.5581Z" fill="#FFD666"/>
<path d="M116.265 122.415H94.8282L93.1049 114.789H116.265V122.415Z" fill="#EEA200"/>
<path d="M119.643 114.789H118.333V122.415H119.643V114.789Z" fill="#EEA200"/>
<path d="M123.986 114.789H122.331V122.415H123.986V114.789Z" fill="#EEA200"/>
<path d="M128.121 122.415H126.949V114.789H129.017L128.121 122.415Z" fill="#EEA200"/>
<path d="M134.601 122.415H132.877L132.464 114.789H134.601V122.415Z" fill="#EEA200"/>
<path d="M139.426 122.415H138.392L137.496 114.789H139.426V122.415Z" fill="#EEA200"/>
<path d="M143.768 122.415H141.769L142.459 114.789H143.768V122.415Z" fill="#EEA200"/>
<path d="M146.663 114.789H145.629V122.415H146.663V114.789Z" fill="#EEA200"/>
<path d="M149.834 122.415H148.869V114.789H150.592L149.834 122.415Z" fill="#EEA200"/>
<path d="M221.005 206.303H164.345L162.622 198.677H222.177L221.005 206.303Z" fill="#FFBB00"/>
<path d="M164.075 205.108L164.345 206.303H221.005L221.189 205.108H164.075Z" fill="#FFD666"/>
<path d="M185.782 206.303H164.345L162.622 198.677H185.782V206.303Z" fill="#EEA200"/>
<path d="M189.16 198.677H187.85V206.303H189.16V198.677Z" fill="#EEA200"/>
<path d="M193.502 198.677H191.848V206.303H193.502V198.677Z" fill="#EEA200"/>
<path d="M197.638 206.303H196.466V198.677H198.534L197.638 206.303Z" fill="#EEA200"/>
<path d="M204.117 206.303H202.394L201.98 198.677H204.117V206.303Z" fill="#EEA200"/>
<path d="M208.942 206.303H207.908L207.013 198.677H208.942V206.303Z" fill="#EEA200"/>
<path d="M213.285 206.303H211.286L211.975 198.677H213.285V206.303Z" fill="#EEA200"/>
<path d="M216.18 198.677H215.146V206.303H216.18V198.677Z" fill="#EEA200"/>
<path d="M219.351 206.303H218.386V198.677H220.109L219.351 206.303Z" fill="#EEA200"/>
<path d="M217.738 198.677H161.078L159.354 191.051H218.91L217.738 198.677Z" fill="#FFBB00"/>
<path d="M160.808 197.482L161.078 198.677H217.738L217.921 197.482H160.808Z" fill="#FFD666"/>
<path d="M182.515 198.677H161.078L159.354 191.051H182.515V198.677Z" fill="#EEA200"/>
<path d="M185.892 191.051H184.583V198.677H185.892V191.051Z" fill="#EEA200"/>
<path d="M190.235 191.051H188.58V198.677H190.235V191.051Z" fill="#EEA200"/>
<path d="M194.37 198.677H193.199V191.051H195.267L194.37 198.677Z" fill="#EEA200"/>
<path d="M200.85 198.677H199.127L198.713 191.051H200.85V198.677Z" fill="#EEA200"/>
<path d="M205.675 198.677H204.641L203.745 191.051H205.675V198.677Z" fill="#EEA200"/>
<path d="M210.018 198.677H208.019L208.708 191.051H210.018V198.677Z" fill="#EEA200"/>
<path d="M212.913 191.051H211.879V198.677H212.913V191.051Z" fill="#EEA200"/>
<path d="M216.083 198.677H215.119V191.051H216.842L216.083 198.677Z" fill="#EEA200"/>
<path d="M221.641 191.05H164.981L163.257 183.424H222.813L221.641 191.05Z" fill="#FFBB00"/>
<path d="M164.71 189.855L164.981 191.05H221.641L221.824 189.855H164.71Z" fill="#FFD666"/>
<path d="M186.418 191.05H164.981L163.257 183.424H186.418V191.05Z" fill="#EEA200"/>
<path d="M189.795 183.424H188.485V191.05H189.795V183.424Z" fill="#EEA200"/>
<path d="M194.138 183.424H192.484V191.05H194.138V183.424Z" fill="#EEA200"/>
<path d="M198.274 191.05H197.102V183.424H199.17L198.274 191.05Z" fill="#EEA200"/>
<path d="M204.753 191.05H203.03L202.616 183.424H204.753V191.05Z" fill="#EEA200"/>
<path d="M209.578 191.05H208.544L207.648 183.424H209.578V191.05Z" fill="#EEA200"/>
<path d="M213.921 191.05H211.922L212.611 183.424H213.921V191.05Z" fill="#EEA200"/>
<path d="M216.816 183.424H215.782V191.05H216.816V183.424Z" fill="#EEA200"/>
<path d="M219.986 191.05H219.021V183.424H220.745L219.986 191.05Z" fill="#EEA200"/>
<path d="M225.819 183.424H169.158L167.435 175.798H226.99L225.819 183.424Z" fill="#FFBB00"/>
<path d="M168.888 182.23L169.158 183.425H225.819L226.002 182.23H168.888Z" fill="#FFD666"/>
<path d="M190.595 183.424H169.158L167.435 175.798H190.595V183.424Z" fill="#EEA200"/>
<path d="M193.973 175.799H192.663V183.425H193.973V175.799Z" fill="#EEA200"/>
<path d="M198.316 175.799H196.661V183.425H198.316V175.799Z" fill="#EEA200"/>
<path d="M202.451 183.425H201.28V175.799H203.347L202.451 183.425Z" fill="#EEA200"/>
<path d="M208.931 183.425H207.208L206.794 175.799H208.931V183.425Z" fill="#EEA200"/>
<path d="M213.756 183.425H212.722L211.826 175.799H213.756V183.425Z" fill="#EEA200"/>
<path d="M218.098 183.425H216.1L216.789 175.799H218.098V183.425Z" fill="#EEA200"/>
<path d="M220.994 175.799H219.96V183.425H220.994V175.799Z" fill="#EEA200"/>
<path d="M224.164 183.425H223.199V175.799H224.923L224.164 183.425Z" fill="#EEA200"/>
<path d="M223.293 175.798H166.633L164.91 168.172H224.465L223.293 175.798Z" fill="#FFBB00"/>
<path d="M166.363 174.603L166.633 175.798H223.293L223.477 174.603H166.363Z" fill="#FFD666"/>
<path d="M188.07 175.798H166.633L164.91 168.172H188.07V175.798Z" fill="#EEA200"/>
<path d="M191.448 168.172H190.138V175.798H191.448V168.172Z" fill="#EEA200"/>
<path d="M195.79 168.172H194.136V175.798H195.79V168.172Z" fill="#EEA200"/>
<path d="M199.926 175.798H198.754V168.172H200.822L199.926 175.798Z" fill="#EEA200"/>
<path d="M206.405 175.798H204.682L204.269 168.172H206.405V175.798Z" fill="#EEA200"/>
<path d="M211.231 175.798H210.197L209.301 168.172H211.231V175.798Z" fill="#EEA200"/>
<path d="M215.573 175.798H213.574L214.264 168.172H215.573V175.798Z" fill="#EEA200"/>
<path d="M218.468 168.172H217.434V175.798H218.468V168.172Z" fill="#EEA200"/>
<path d="M221.639 175.798H220.674V168.172H222.397L221.639 175.798Z" fill="#EEA200"/>
<path d="M227.085 168.172H170.424L168.701 160.546H228.256L227.085 168.172Z" fill="#FFBB00"/>
<path d="M170.154 166.977L170.424 168.172H227.085L227.268 166.977H170.154Z" fill="#FFD666"/>
<path d="M191.862 168.172H170.424L168.701 160.546H191.862V168.172Z" fill="#EEA200"/>
<path d="M195.239 160.546H193.929V168.172H195.239V160.546Z" fill="#EEA200"/>
<path d="M199.582 160.546H197.927V168.172H199.582V160.546Z" fill="#EEA200"/>
<path d="M203.717 168.172H202.546V160.546H204.613L203.717 168.172Z" fill="#EEA200"/>
<path d="M210.197 168.172H208.473L208.06 160.546H210.197V168.172Z" fill="#EEA200"/>
<path d="M215.022 168.172H213.988L213.092 160.546H215.022V168.172Z" fill="#EEA200"/>
<path d="M219.364 168.172H217.365L218.055 160.546H219.364V168.172Z" fill="#EEA200"/>
<path d="M222.26 160.546H221.226V168.172H222.26V160.546Z" fill="#EEA200"/>
<path d="M225.43 168.172H224.465V160.546H226.188L225.43 168.172Z" fill="#EEA200"/>
<path d="M224.171 160.546H167.511L165.787 152.92H225.343L224.171 160.546Z" fill="#FFBB00"/>
<path d="M167.241 159.351L167.511 160.546H224.171L224.355 159.351H167.241Z" fill="#FFD666"/>
<path d="M188.948 160.546H167.511L165.787 152.92H188.948V160.546Z" fill="#EEA200"/>
<path d="M192.326 152.92H191.016V160.546H192.326V152.92Z" fill="#EEA200"/>
<path d="M196.668 152.92H195.014V160.546H196.668V152.92Z" fill="#EEA200"/>
<path d="M200.804 160.546H199.632V152.92H201.7L200.804 160.546Z" fill="#EEA200"/>
<path d="M207.283 160.546H205.56L205.146 152.92H207.283V160.546Z" fill="#EEA200"/>
<path d="M212.108 160.546H211.074L210.178 152.92H212.108V160.546Z" fill="#EEA200"/>
<path d="M216.451 160.546H214.452L215.141 152.92H216.451V160.546Z" fill="#EEA200"/>
<path d="M219.346 152.92H218.312V160.546H219.346V152.92Z" fill="#EEA200"/>
<path d="M222.517 160.546H221.552V152.92H223.275L222.517 160.546Z" fill="#EEA200"/>
<path d="M227.032 152.92H170.372L168.649 145.294H228.204L227.032 152.92Z" fill="#FFBB00"/>
<path d="M170.102 151.725L170.372 152.92H227.032L227.216 151.725H170.102Z" fill="#FFD666"/>
<path d="M191.809 152.92H170.372L168.649 145.294H191.809V152.92Z" fill="#EEA200"/>
<path d="M195.187 145.294H193.877V152.92H195.187V145.294Z" fill="#EEA200"/>
<path d="M199.53 145.294H197.875V152.92H199.53V145.294Z" fill="#EEA200"/>
<path d="M203.665 152.92H202.493V145.294H204.561L203.665 152.92Z" fill="#EEA200"/>
<path d="M210.145 152.92H208.421L208.008 145.294H210.145V152.92Z" fill="#EEA200"/>
<path d="M214.97 152.92H213.936L213.04 145.294H214.97V152.92Z" fill="#EEA200"/>
<path d="M219.312 152.92H217.313L218.003 145.294H219.312V152.92Z" fill="#EEA200"/>
<path d="M222.207 145.294H221.173V152.92H222.207V145.294Z" fill="#EEA200"/>
<path d="M225.378 152.92H224.413V145.294H226.136L225.378 152.92Z" fill="#EEA200"/>
<path d="M230.549 145.294H173.889L172.166 137.668H231.721L230.549 145.294Z" fill="#FFBB00"/>
<path d="M173.619 144.099L173.889 145.294H230.549L230.733 144.099H173.619Z" fill="#FFD666"/>
<path d="M195.326 145.294H173.889L172.166 137.668H195.326V145.294Z" fill="#EEA200"/>
<path d="M198.704 137.668H197.394V145.294H198.704V137.668Z" fill="#EEA200"/>
<path d="M203.047 137.668H201.392V145.294H203.047V137.668Z" fill="#EEA200"/>
<path d="M207.182 145.294H206.011V137.668H208.078L207.182 145.294Z" fill="#EEA200"/>
<path d="M213.662 145.294H211.938L211.525 137.668H213.662V145.294Z" fill="#EEA200"/>
<path d="M218.487 145.294H217.453L216.557 137.668H218.487V145.294Z" fill="#EEA200"/>
<path d="M222.829 145.294H220.83L221.52 137.668H222.829V145.294Z" fill="#EEA200"/>
<path d="M225.724 137.668H224.69V145.294H225.724V137.668Z" fill="#EEA200"/>
<path d="M228.895 145.294H227.93V137.668H229.653L228.895 145.294Z" fill="#EEA200"/>
<path d="M225.819 137.668H169.158L167.435 130.042H226.99L225.819 137.668Z" fill="#FFBB00"/>
<path d="M168.888 136.473L169.158 137.668H225.819L226.002 136.473H168.888Z" fill="#FFD666"/>
<path d="M190.595 137.668H169.158L167.435 130.042H190.595V137.668Z" fill="#EEA200"/>
<path d="M193.973 130.042H192.663V137.668H193.973V130.042Z" fill="#EEA200"/>
<path d="M198.316 130.042H196.661V137.668H198.316V130.042Z" fill="#EEA200"/>
<path d="M202.451 137.668H201.28V130.042H203.347L202.451 137.668Z" fill="#EEA200"/>
<path d="M208.931 137.668H207.208L206.794 130.042H208.931V137.668Z" fill="#EEA200"/>
<path d="M213.756 137.668H212.722L211.826 130.042H213.756V137.668Z" fill="#EEA200"/>
<path d="M218.098 137.668H216.1L216.789 130.042H218.098V137.668Z" fill="#EEA200"/>
<path d="M220.994 130.042H219.96V137.668H220.994V130.042Z" fill="#EEA200"/>
<path d="M224.164 137.668H223.199V130.042H224.923L224.164 137.668Z" fill="#EEA200"/>
<path d="M223.293 130.041H166.633L164.91 122.415H224.465L223.293 130.041Z" fill="#FFBB00"/>
<path d="M166.363 128.847L166.633 130.041H223.293L223.477 128.847H166.363Z" fill="#FFD666"/>
<path d="M188.07 130.041H166.633L164.91 122.415H188.07V130.041Z" fill="#EEA200"/>
<path d="M191.448 122.415H190.138V130.041H191.448V122.415Z" fill="#EEA200"/>
<path d="M195.79 122.415H194.136V130.041H195.79V122.415Z" fill="#EEA200"/>
<path d="M199.926 130.041H198.754V122.415H200.822L199.926 130.041Z" fill="#EEA200"/>
<path d="M206.405 130.041H204.682L204.269 122.415H206.405V130.041Z" fill="#EEA200"/>
<path d="M211.231 130.041H210.197L209.301 122.415H211.231V130.041Z" fill="#EEA200"/>
<path d="M215.573 130.041H213.574L214.264 122.415H215.573V130.041Z" fill="#EEA200"/>
<path d="M218.468 122.415H217.434V130.041H218.468V122.415Z" fill="#EEA200"/>
<path d="M221.639 130.041H220.674V122.415H222.397L221.639 130.041Z" fill="#EEA200"/>
<path d="M227.085 122.415H170.424L168.701 114.789H228.256L227.085 122.415Z" fill="#FFBB00"/>
<path d="M170.154 121.221L170.424 122.415H227.085L227.268 121.221H170.154Z" fill="#FFD666"/>
<path d="M191.862 122.415H170.424L168.701 114.789H191.862V122.415Z" fill="#EEA200"/>
<path d="M195.239 114.789H193.929V122.415H195.239V114.789Z" fill="#EEA200"/>
<path d="M199.582 114.789H197.927V122.415H199.582V114.789Z" fill="#EEA200"/>
<path d="M203.717 122.415H202.546V114.789H204.613L203.717 122.415Z" fill="#EEA200"/>
<path d="M210.197 122.415H208.473L208.06 114.789H210.197V122.415Z" fill="#EEA200"/>
<path d="M215.022 122.415H213.988L213.092 114.789H215.022V122.415Z" fill="#EEA200"/>
<path d="M219.364 122.415H217.365L218.055 114.789H219.364V122.415Z" fill="#EEA200"/>
<path d="M222.26 114.789H221.226V122.415H222.26V114.789Z" fill="#EEA200"/>
<path d="M225.43 122.415H224.465V114.789H226.188L225.43 122.415Z" fill="#EEA200"/>
<path d="M224.171 114.789H167.511L165.787 107.163H225.343L224.171 114.789Z" fill="#FFBB00"/>
<path d="M167.241 113.594L167.511 114.789H224.171L224.355 113.594H167.241Z" fill="#FFD666"/>
<path d="M188.948 114.789H167.511L165.787 107.163H188.948V114.789Z" fill="#EEA200"/>
<path d="M192.326 107.163H191.016V114.789H192.326V107.163Z" fill="#EEA200"/>
<path d="M196.668 107.163H195.014V114.789H196.668V107.163Z" fill="#EEA200"/>
<path d="M200.804 114.789H199.632V107.163H201.7L200.804 114.789Z" fill="#EEA200"/>
<path d="M207.283 114.789H205.56L205.146 107.163H207.283V114.789Z" fill="#EEA200"/>
<path d="M212.108 114.789H211.074L210.178 107.163H212.108V114.789Z" fill="#EEA200"/>
<path d="M216.451 114.789H214.452L215.141 107.163H216.451V114.789Z" fill="#EEA200"/>
<path d="M219.346 107.163H218.312V114.789H219.346V107.163Z" fill="#EEA200"/>
<path d="M222.517 114.789H221.552V107.163H223.275L222.517 114.789Z" fill="#EEA200"/>
<path d="M227.032 107.163H170.372L168.649 99.5371H228.204L227.032 107.163Z" fill="#FFBB00"/>
<path d="M170.102 105.968L170.372 107.163H227.032L227.216 105.968H170.102Z" fill="#FFD666"/>
<path d="M191.809 107.163H170.372L168.649 99.5371H191.809V107.163Z" fill="#EEA200"/>
<path d="M195.187 99.5369H193.877V107.163H195.187V99.5369Z" fill="#EEA200"/>
<path d="M199.53 99.5369H197.875V107.163H199.53V99.5369Z" fill="#EEA200"/>
<path d="M203.665 107.163H202.493V99.5369H204.561L203.665 107.163Z" fill="#EEA200"/>
<path d="M210.145 107.163H208.421L208.008 99.5369H210.145V107.163Z" fill="#EEA200"/>
<path d="M214.97 107.163H213.936L213.04 99.5369H214.97V107.163Z" fill="#EEA200"/>
<path d="M219.312 107.163H217.313L218.003 99.5369H219.312V107.163Z" fill="#EEA200"/>
<path d="M222.207 99.5369H221.173V107.163H222.207V99.5369Z" fill="#EEA200"/>
<path d="M225.378 107.163H224.413V99.5369H226.136L225.378 107.163Z" fill="#EEA200"/>
<path d="M230.549 99.5372H173.889L172.166 91.9111H231.721L230.549 99.5372Z" fill="#FFBB00"/>
<path d="M173.619 98.3428L173.889 99.5375H230.549L230.733 98.3428H173.619Z" fill="#FFD666"/>
<path d="M195.326 99.5372H173.889L172.166 91.9111H195.326V99.5372Z" fill="#EEA200"/>
<path d="M198.704 91.9114H197.394V99.5375H198.704V91.9114Z" fill="#EEA200"/>
<path d="M203.047 91.9114H201.392V99.5375H203.047V91.9114Z" fill="#EEA200"/>
<path d="M207.182 99.5375H206.011V91.9114H208.078L207.182 99.5375Z" fill="#EEA200"/>
<path d="M213.662 99.5375H211.938L211.525 91.9114H213.662V99.5375Z" fill="#EEA200"/>
<path d="M218.487 99.5375H217.453L216.557 91.9114H218.487V99.5375Z" fill="#EEA200"/>
<path d="M222.829 99.5375H220.83L221.52 91.9114H222.829V99.5375Z" fill="#EEA200"/>
<path d="M225.724 91.9114H224.69V99.5375H225.724V91.9114Z" fill="#EEA200"/>
<path d="M228.895 99.5375H227.93V91.9114H229.653L228.895 99.5375Z" fill="#EEA200"/>
<path d="M124.526 102.593C124.526 102.593 120.805 104.621 118.241 105.116C115.677 105.612 116.314 92.5144 116.314 92.5144L124.526 102.593Z" fill="url(#paint0_linear_73_2390)"/>
<path d="M109.802 156.48C111.02 156.332 112.635 156.07 113.489 154.298C113.912 151.301 114.19 149.648 114.19 149.648L105.413 151.16L106.181 155.496C106.181 155.496 106.932 156.827 109.802 156.48Z" fill="url(#paint1_linear_73_2390)"/>
<path d="M112.943 217.569C111.137 213.149 109.319 209.302 109.319 209.302C109.637 184.409 112.219 163.296 113.489 154.298C112.772 153.682 111.64 152.952 110.422 153.1C107.552 153.446 106.181 155.496 106.181 155.496C102.682 161.301 100.642 173.744 101.517 182.729C102.392 191.715 107.417 205.035 104.769 212.228C103.678 215.19 104.802 217.034 104.802 217.034C109.412 218.479 109.893 224.774 109.893 224.774H116.387C113.467 223.678 114.117 220.443 112.943 217.569Z" fill="url(#paint2_linear_73_2390)"/>
<path d="M103.085 216.514C103.085 216.514 102.234 214.893 104.769 212.228C104.769 212.228 107.229 214.914 106.533 217.559L103.085 216.514Z" fill="#3E3F3E"/>
<path d="M108.839 221.598C108.839 221.598 110.196 224.803 110.291 226.246L118.095 225.944C118.095 225.944 116.808 223.907 115.45 223.771C115.45 223.771 111.412 224.1 108.839 221.598Z" fill="#3E3F3E"/>
<path d="M118.309 226.529L118.095 225.944C118.095 225.944 112.478 226.155 110.656 225.583C110.656 225.583 109.861 221.029 108.064 219.18C106.267 217.331 105.456 216.085 103.002 216.286C103.002 216.286 105.408 220.869 105.515 226.529H106.23C106.23 226.529 105.515 220.311 106.23 218.488C106.23 218.488 107.695 218.631 108.839 222.42C109.473 224.52 109.679 225.555 109.736 226.06C109.766 226.328 109.992 226.529 110.262 226.529L118.309 226.529Z" fill="#1F201F"/>
<path d="M110.628 147.524C110.628 147.524 111.456 151.913 110.628 156.02C109.801 160.126 92.8737 189.979 89.6411 206.002C89.6411 206.002 90.8626 212.131 89.6411 217.916C88.4198 223.701 91.6763 224.126 91.6763 224.126H86.4587C86.4587 224.126 83.8888 216.622 81.9063 215.772C81.9063 215.772 82.2753 210.817 84.4074 210.109C86.5394 209.401 86.5467 204.162 86.4051 201.189C86.2634 198.215 86.4373 186.038 90.6851 174.71C94.9328 163.383 100.912 155.906 100.912 155.906L99.6057 147.524L110.628 147.524Z" fill="url(#paint3_linear_73_2390)"/>
<path d="M80.7737 214.664C80.7737 214.664 80.4388 213.506 83.4552 210.809C83.4552 210.809 85.2151 214.691 83.5998 216.898L80.7737 214.664Z" fill="#3E3F3E"/>
<path d="M85.0132 220.99C85.0132 220.99 86.3052 224.279 86.4012 225.722L94.2689 225.337C94.2689 225.337 92.9824 223.3 91.6245 223.163C91.6245 223.163 87.5863 223.492 85.0132 220.99Z" fill="#3E3F3E"/>
<path d="M94.4836 225.922L94.2692 225.336C94.2692 225.336 88.383 225.498 86.5603 224.927C86.5603 224.927 86.3421 222.425 85.4543 220.473L85.4545 220.472C84.6816 218.55 82.868 215.05 80.7796 214.421C80.7796 214.421 81.6829 218.122 80.4386 223.956L81.1038 224.217C81.1038 224.217 81.6458 219.087 82.9776 217.652C82.9776 217.652 83.0772 217.696 83.6658 218.526C83.6899 218.568 83.7122 218.605 83.7358 218.646C84.1477 219.38 84.6513 220.613 85.013 221.812C85.628 223.849 85.8399 224.884 85.9044 225.405C85.9411 225.701 86.1916 225.922 86.4896 225.922L94.4836 225.922Z" fill="#1F201F"/>
<path d="M121.553 98.6742C121.553 98.6742 118.721 134.497 114.332 153.329C114.332 153.329 104.986 154.179 99.4643 153.329C99.4643 153.329 94.3669 122.604 93.5173 118.922C92.6677 115.241 88.8447 105.754 92.1014 101.648C95.3582 97.5414 102.721 89.6122 102.721 89.6122L117.039 86.7095L121.553 98.6742Z" fill="url(#paint4_linear_73_2390)"/>
<path d="M118.013 87.0632C118.013 87.0632 122.969 98.5324 124.809 102.497C124.809 102.497 119.146 103.134 114.473 89.1162L114.898 87.771L118.013 87.0632Z" fill="url(#paint5_linear_73_2390)"/>
<path d="M103.004 87.0632C103.004 87.0632 93.3757 98.4419 89.5526 102.593C89.5526 102.593 94.0857 105.187 101.306 103.63C108.526 102.072 114.615 94.0014 114.898 87.7712L103.004 87.0632Z" fill="url(#paint6_linear_73_2390)"/>
<path d="M137.229 74.0317C125.872 64.916 121.931 53.0588 121.931 53.0588C120.602 49.1775 118.692 47.7646 117.109 46.8452C111.642 43.6687 108.157 45.7723 108.157 45.7723C104.463 48.4937 104.612 53.4321 107.766 55.3652C114.506 59.497 116.99 62.1697 118.567 64.5848C125.444 75.1111 130.838 80.1564 130.838 80.1564C132.211 81.2858 132.23 81.329 132.426 81.4463C134.99 80.3244 136.252 80.4899 137.229 74.0317Z" fill="url(#paint7_linear_73_2390)"/>
<path d="M77.5463 85.967C81.4805 71.9457 90.6019 64.7379 90.6019 64.7379C93.6517 61.9943 94.2028 59.6833 94.4283 57.8668C95.2072 51.5916 91.9057 49.21 91.9057 49.21C91.9057 49.21 88.5787 52.5556 87.0848 54.3834C73.6262 70.8485 69.165 83.5547 69.165 83.5547C69.124 83.7613 69.0897 83.9812 69.059 84.208C71.096 86.1275 71.2215 87.5991 77.5463 85.967Z" fill="url(#paint8_linear_73_2390)"/>
<path d="M98.6804 25.9385C98.6804 25.9385 99.9569 36.6847 99.9101 37.8978C99.8094 40.5004 99.5161 47.143 92.0585 50.5068C92.0585 50.5068 106.863 60.7124 118.848 57.2342C119.765 56.968 115.531 45.6707 112.819 42.1694C112.819 42.1694 110.225 41.3284 109.682 39.4028C108.792 36.2432 108.835 34.5294 108.835 34.5294L98.6804 25.9385Z" fill="url(#paint9_linear_73_2390)"/>
<path d="M99.8071 39.544C99.8612 38.8818 99.8901 38.4114 99.9101 37.898C99.9569 36.6849 98.6804 25.9387 98.6804 25.9387L108.835 34.5299C108.835 34.5299 108.844 35.9897 109.436 38.4753C107.568 37.6948 104.382 37.0093 99.8071 39.544Z" fill="#FBE7D8"/>
<path d="M91.5349 58.6975C91.5349 58.6975 102.013 80.6916 103.004 87.0634C103.004 87.0634 110.792 88.9042 114.898 87.7714L115.254 66.9904C115.254 66.9904 120.42 63.7004 117.163 56.9039L98.7561 41.895L89.9892 51.1887L91.5349 58.6975Z" fill="url(#paint10_linear_73_2390)"/>
<path d="M115.106 67.309C115.106 67.309 118.296 61.1516 117.163 56.9039C117.147 56.842 117.132 56.7795 117.116 56.7174C117.165 56.6897 117.198 56.6365 117.176 56.5653C116.855 55.5502 116.987 54.4162 116.551 53.4509C116.228 50.3593 116.455 47.7004 116.455 47.7004C116.455 47.7004 121.411 55.2049 122.685 59.4526C122.685 59.4526 123.535 61.8598 120.562 66.2491C120.562 66.2491 120.022 80.6565 118.013 87.0633L114.898 87.7713L115.106 67.309Z" fill="url(#paint11_linear_73_2390)"/>
<path d="M112.207 41.895C112.207 41.895 115.339 45.6433 117.163 56.9039C117.163 56.9039 118.975 52.3022 118.848 50.8154C118.848 50.8154 116.384 43.4526 112.207 41.895Z" fill="url(#paint12_linear_73_2390)"/>
<path d="M99.2517 40.0542C99.2517 40.0542 113.145 53.5724 117.163 56.9039C117.163 56.9039 110.792 54.4261 103.924 51.311C103.924 51.311 99.2449 43.9689 98.466 42.1283L99.2517 40.0542Z" fill="url(#paint13_linear_73_2390)"/>
<path d="M102.957 86.7896C103.751 87.4494 104.608 87.3182 106.976 87.2998C113.104 87.252 110.623 84.1369 110.495 79.5116C110.367 74.8862 110.273 68.3021 112.727 67.7358C114.527 67.3204 118.021 67.2974 120.55 66.5331C120.558 66.3489 120.562 66.2489 120.562 66.2489C122.27 63.7265 122.716 61.8602 122.786 60.7276C121.604 61.4021 119.809 62.0951 117.163 62.4259C111.122 63.1809 101.682 61.6706 101.682 61.6706C101.682 61.6706 98.0836 61.0957 95.8702 57.2426C94.8116 55.4 93.4719 62.8947 95.2013 66.6572C98.3155 73.4333 102.218 82.7686 102.957 86.7896ZM115.254 67.0089L115.254 66.9903C115.254 66.9903 115.26 66.9867 115.267 66.9821C115.263 66.991 115.258 67.0005 115.254 67.0089Z" fill="#EFEEEE"/>
<path d="M118.395 85.6841C118.395 85.6841 110.824 86.8974 102.595 85.2578V87.5458C102.595 87.5458 107.166 89.6297 118.395 87.9453V85.6841Z" fill="url(#paint14_linear_73_2390)"/>
<path d="M119.93 19.4053C119.93 19.4053 110.706 21.2364 106.432 19.7148C102.159 18.1931 104.41 6.67442 106.432 5.63613C108.454 4.59761 118.235 14.0459 119.93 19.4053Z" fill="url(#paint15_linear_73_2390)"/>
<path d="M114.955 12.5849C114.955 12.5849 113.083 17.9353 116.842 20.4968C116.842 20.4968 118.166 26.1127 111.036 34.6093C111.036 34.6093 109.355 35.3122 107.946 35.0606C106.537 34.8089 98.8047 30.7235 95.0779 23.995C95.0779 23.995 91.0838 9.48393 96.1107 8.20101C101.138 6.9181 113.068 4.67283 114.955 12.5849Z" fill="url(#paint16_linear_73_2390)"/>
<path d="M96.6204 8.87352C96.6204 8.87352 94.2878 16.2886 97.4441 24.1218L96.0941 23.648L91.6192 20.1506C91.6192 20.1506 89.7595 18.2734 89.4599 16.222C89.1605 14.1707 88.754 9.71697 89.1916 7.70155C89.1916 7.70155 91.0127 5.9719 95.0919 5.92529L96.6204 8.87352Z" fill="url(#paint17_linear_73_2390)"/>
<path d="M94.4345 6.43307C94.4345 6.43307 93.707 2.04688 106.944 0.0237318C107.691 -0.0903959 108.443 0.212656 108.901 0.813304C111.142 3.75039 117.793 12.7976 119.93 19.4054C119.93 19.4054 114.935 6.56516 95.633 9.00253L94.4345 6.43307Z" fill="url(#paint18_linear_73_2390)"/>
<path d="M89.1955 7.69837C89.2707 7.62857 91.0988 5.97122 95.0922 5.92529L96.6204 8.87352C96.6204 8.87352 96.1166 10.4774 95.8942 12.9794C91.5563 10.7148 89.8514 8.88375 89.1955 7.69837Z" fill="url(#paint19_linear_73_2390)"/>
<path d="M96.579 24.4616C96.579 24.4616 92.9326 23.7132 91.9327 21.2522C90.9331 18.7909 91.6845 15.9727 94.2239 17.2993C94.2239 17.2993 95.1165 22.7997 96.579 24.4616Z" fill="url(#paint20_linear_73_2390)"/>
<path d="M94.5861 22.8774C94.5861 22.8774 93.8058 20.7596 93.7722 20.1422C93.7388 19.5249 92.0448 21.1902 94.5861 22.8774Z" fill="#FBE7D8"/>
<path d="M107.768 19.1229L100.582 19.7147C100.582 19.7147 98.6999 19.6693 98.4046 17.334C98.4046 17.334 99.6516 14.9107 100.976 14.5801C102.299 14.2495 106.404 13.7751 107.626 15.5634C108.847 17.3519 108.218 19.0859 107.768 19.1229Z" fill="#FBE7D8"/>
<path d="M112.226 13.1661C113.383 12.8847 114.209 12.6692 114.935 12.6455C114.814 13.0234 114.199 15.1038 114.656 17.1892L111.113 18.2228C111.113 18.2228 110.348 13.6233 112.226 13.1661Z" fill="#FBE7D8"/>
<path d="M107.768 19.1229C107.768 19.1229 105.3 16.6285 104.079 16.7246C102.858 16.8208 101.054 19.1884 100.582 19.7147C100.582 19.7147 102.716 20.5466 104.578 20.4577C106.441 20.3688 107.768 19.1229 107.768 19.1229Z" fill="white"/>
<path d="M111.225 18.2067C111.225 18.2067 112.156 15.8589 113.043 15.5661C113.93 15.2733 114.546 16.5341 114.546 16.5341L114.812 17.7679C114.812 17.7679 113.634 19.044 111.225 18.2067Z" fill="white"/>
<path d="M111.516 17.5511C111.516 17.5511 112.301 15.3963 113.11 15.3011C113.92 15.2058 115.103 15.7878 115.803 15.7312C115.803 15.7312 115.508 16.2298 114.455 16.373C114.455 16.373 113.726 15.4186 113.125 15.5539C112.523 15.6892 111.516 17.5511 111.516 17.5511Z" fill="#231F20"/>
<path d="M105.931 14.0623C105.931 14.0623 106.241 14.9319 105.672 14.9465C105.102 14.961 101.005 13.8113 98.8186 16.6284C98.8186 16.6284 99.3438 14.6811 101.228 14.269C103.111 13.8566 105.931 14.0623 105.931 14.0623Z" fill="url(#paint21_linear_73_2390)"/>
<path d="M114.823 13.0347C114.823 13.0347 112.839 13.4426 112.139 13.8193C112.139 13.8193 111.605 13.2923 112.009 12.9297C112.009 12.9297 114.247 12.3536 114.888 12.3242C115.303 12.3052 115.028 12.8178 114.823 13.0347Z" fill="url(#paint22_linear_73_2390)"/>
<path d="M113.59 26.5745C113.59 26.5745 110.046 28.1441 106.838 26.6913C106.838 26.6913 109.799 29.2765 111.255 29.0653C112.061 28.9482 113.59 26.5745 113.59 26.5745Z" fill="white"/>
<path d="M110.592 14.6626C110.592 14.6626 109.988 20.4738 112.963 23.533C112.963 23.533 111.737 24.5353 111.515 25.048C111.515 25.048 113.385 24.2261 113.677 23.5659C113.677 23.5659 110.255 20.1778 111.071 14.8392L110.592 14.6626Z" fill="#E0A57E"/>
<mask id="mask0_73_2390" style="mask-type:luminance" maskUnits="userSpaceOnUse" x="111" y="15" width="4" height="4">
<path d="M111.225 18.2067C111.225 18.2067 112.156 15.8589 113.043 15.5661C113.93 15.2733 114.546 16.5341 114.546 16.5341L114.812 17.7679C114.812 17.7679 113.634 19.044 111.225 18.2067Z" fill="white"/>
</mask>
<g mask="url(#mask0_73_2390)">
<path d="M109.969 17.1562C110.132 18.2748 111.171 19.0491 112.29 18.8859C113.408 18.7226 114.183 17.6834 114.019 16.5647C113.856 15.4461 112.817 14.6715 111.698 14.835C110.58 14.9985 109.805 16.0377 109.969 17.1562Z" fill="url(#paint23_linear_73_2390)"/>
<path d="M112.801 17.712C112.67 16.819 111.841 16.2008 110.948 16.3311C110.749 16.3602 110.564 16.4254 110.398 16.5168C110.538 15.8694 111.064 15.3449 111.758 15.2437C112.651 15.1132 113.481 15.7316 113.611 16.6246C113.712 17.3187 113.36 17.9728 112.78 18.2917C112.82 18.106 112.829 17.9109 112.801 17.712Z" fill="url(#paint24_linear_73_2390)"/>
<path d="M111.045 16.9992C111.122 17.5232 111.608 17.8861 112.132 17.8095C112.656 17.7329 113.019 17.2461 112.943 16.7221C112.866 16.198 112.379 15.8352 111.855 15.9118C111.331 15.9882 110.969 16.475 111.045 16.9992Z" fill="#231F20"/>
<path d="M112.392 15.963C112.421 16.161 112.605 16.2981 112.803 16.2692C113.001 16.2404 113.138 16.0564 113.109 15.8584C113.08 15.6604 112.896 15.5233 112.698 15.5522C112.5 15.5811 112.363 15.765 112.392 15.963Z" fill="white"/>
<path d="M112.067 16.5965C112.081 16.6945 112.172 16.7622 112.27 16.7479C112.368 16.7336 112.435 16.6427 112.421 16.5447C112.407 16.4469 112.316 16.3789 112.218 16.3933C112.12 16.4076 112.052 16.4985 112.067 16.5965Z" fill="white"/>
</g>
<mask id="mask1_73_2390" style="mask-type:luminance" maskUnits="userSpaceOnUse" x="100" y="16" width="8" height="5">
<path d="M107.768 19.1229C107.768 19.1229 105.3 16.6285 104.079 16.7246C102.858 16.8208 101.054 19.1884 100.582 19.7147C100.582 19.7147 102.716 20.5466 104.578 20.4577C106.441 20.3688 107.768 19.1229 107.768 19.1229Z" fill="white"/>
</mask>
<g mask="url(#mask1_73_2390)">
<path d="M101.729 18.8327C101.893 19.9512 102.932 20.7258 104.05 20.5623C105.169 20.3991 105.943 19.3599 105.78 18.2411C105.617 17.1226 104.577 16.3482 103.459 16.5115C102.34 16.6749 101.566 17.7141 101.729 18.8327Z" fill="url(#paint25_linear_73_2390)"/>
<path d="M104.561 19.388C104.431 18.495 103.601 17.8769 102.708 18.0071C102.51 18.0362 102.325 18.1015 102.159 18.1929C102.299 17.5454 102.825 17.0209 103.519 16.9197C104.412 16.7892 105.242 17.4076 105.372 18.3006C105.473 18.9947 105.121 19.6488 104.541 19.9678C104.58 19.782 104.59 19.5869 104.561 19.388Z" fill="url(#paint26_linear_73_2390)"/>
<path d="M102.806 18.6755C102.882 19.1995 103.369 19.5624 103.893 19.4857C104.417 19.4091 104.78 18.9224 104.703 18.3984C104.627 17.8743 104.14 17.5115 103.616 17.5881C103.092 17.6645 102.729 18.1515 102.806 18.6755Z" fill="#231F20"/>
<path d="M104.153 17.639C104.182 17.837 104.366 17.9741 104.564 17.945C104.762 17.9161 104.899 17.7322 104.87 17.5342C104.841 17.3362 104.657 17.1991 104.459 17.228C104.261 17.2571 104.124 17.441 104.153 17.639Z" fill="white"/>
<path d="M103.827 18.2728C103.842 18.3705 103.933 18.4385 104.031 18.4242C104.129 18.4099 104.196 18.3189 104.182 18.221C104.168 18.123 104.077 18.0552 103.979 18.0695C103.881 18.0841 103.813 18.1748 103.827 18.2728Z" fill="white"/>
</g>
<path d="M107.204 18.5886C107.204 18.5886 105.42 16.3554 103.747 16.4854C102.073 16.6155 101.021 18.0269 99.479 18.1148L101.436 18.7173C101.436 18.7173 103.112 16.9945 104.056 16.8783C104.999 16.7621 107.204 18.5886 107.204 18.5886Z" fill="#231F20"/>
<path d="M76.3527 82.2307C69.0297 80.0614 67.2755 83.8978 70.5213 88.6437C77.5238 94.1727 101.768 100.665 101.768 100.665C103.493 99.8868 103.584 96.5096 103.584 96.5096C93.4832 90.4647 82.2289 88.3681 76.3527 82.2307Z" fill="url(#paint27_linear_73_2390)"/>
<path d="M125.363 108.355C141.485 108.355 154.554 95.2861 154.554 79.1644C154.554 63.0426 141.485 49.9734 125.363 49.9734C109.242 49.9734 96.1723 63.0426 96.1723 79.1644C96.1723 95.2861 109.242 108.355 125.363 108.355Z" fill="#FFBB00"/>
<path d="M103.777 63.9564C103.653 63.9564 103.529 63.92 103.421 63.8447C103.14 63.6483 103.071 63.2614 103.267 62.9799C108.413 55.6057 116.848 51.2036 125.829 51.2036C126.172 51.2036 126.45 51.4814 126.45 51.8247C126.45 52.168 126.172 52.4458 125.829 52.4458C117.254 52.4458 109.2 56.649 104.286 63.6908C104.165 63.8641 103.972 63.9564 103.777 63.9564Z" fill="#FFEFC2"/>
<path d="M98.955 79.3198C98.6117 79.3198 98.3339 79.042 98.3339 78.6987C98.3339 75.5022 98.8772 72.37 99.9496 69.3895C100.066 69.0669 100.425 68.9044 100.744 69.0146C101.067 69.131 101.234 69.4866 101.119 69.8092C100.095 72.6551 99.5761 75.6452 99.5761 78.6984C99.5761 79.042 99.2983 79.3198 98.955 79.3198Z" fill="#FFEFC2"/>
<path d="M143.908 96.3653C153.408 86.8656 153.408 71.4635 143.908 61.9638C134.408 52.4641 119.006 52.4641 109.506 61.9638C100.007 71.4635 100.007 86.8656 109.506 96.3653C119.006 105.865 134.408 105.865 143.908 96.3653Z" fill="#EEA200"/>
<path d="M141.92 94.3776C150.965 85.3326 150.965 70.6678 141.92 61.6229C132.875 52.5779 118.21 52.5779 109.165 61.6229C100.12 70.6678 100.12 85.3326 109.165 94.3776C118.21 103.423 132.875 103.423 141.92 94.3776Z" fill="#FFD666"/>
<path d="M129.357 74.9189C125.929 73.956 124.274 73.1847 124.274 72.2216C124.274 71.4502 124.892 70.6443 127.356 70.6443C129.859 70.6443 131.717 71.2236 132.962 71.6933C133.232 71.7949 133.532 71.7756 133.787 71.6421C134.042 71.5087 134.228 71.2731 134.298 70.9942L135.147 67.6238C135.275 67.1161 134.995 66.5964 134.501 66.4243C133.195 65.9698 131.548 65.5829 129.273 65.4631C129.041 65.4508 128.859 65.2589 128.859 65.0266V63.2901C128.859 62.7358 128.41 62.2864 127.855 62.2864H125.277C124.723 62.2864 124.274 62.7358 124.274 63.2901V65.1359C124.274 65.4665 124.043 65.7509 123.719 65.818C119.253 66.7442 116.763 69.5169 116.763 73.1092C116.763 77.3053 120.306 79.3471 124.813 80.4259C128.012 81.1972 129.204 81.8497 129.204 83.0069C129.204 84.2771 127.664 84.7382 125.622 84.7382C123.14 84.7382 120.816 84.0552 118.997 83.2959C118.725 83.1824 118.418 83.1927 118.155 83.3245C117.892 83.4564 117.699 83.6967 117.628 83.9822L116.734 87.5597C116.614 88.041 116.859 88.5369 117.315 88.7319C118.915 89.4169 121.254 90.021 123.692 90.2111C124.021 90.2367 124.274 90.5096 124.274 90.8392V92.71C124.274 93.2643 124.723 93.7138 125.278 93.7138H127.856C128.41 93.7138 128.859 93.2643 128.859 92.71V90.6676C128.859 90.2315 129.166 89.8553 129.593 89.7655C134.241 88.7888 136.716 85.8326 136.716 82.3512C136.715 78.538 134.714 76.3802 129.357 74.9189Z" fill="#EEA200"/>
<path d="M142.916 59.8758C142.725 59.7387 142.654 59.488 142.744 59.2711L144.585 54.867C144.706 54.5791 144.985 54.3898 145.297 54.3845C145.749 54.377 146.37 54.5357 146.715 55.3517C146.775 55.4951 146.77 55.6577 146.701 55.7973C146.377 56.4486 145.3 58.5104 143.924 60.0959C143.771 60.2714 143.51 60.3023 143.322 60.1671L142.916 59.8758Z" fill="url(#paint28_linear_73_2390)"/>
<path d="M143.811 61.3748C143.896 61.5385 144.047 61.6583 144.226 61.7044C144.405 61.7506 144.595 61.7185 144.749 61.6169C145.499 61.1217 146.933 60.0007 148.364 57.9236C148.498 57.7297 148.526 57.4808 148.439 57.2621C148.274 56.8467 147.884 56.2347 147.009 56.1601C146.823 56.1442 146.642 56.2279 146.533 56.3797L143.649 60.4013C143.649 60.4013 143.508 60.795 143.811 61.3748Z" fill="url(#paint29_linear_73_2390)"/>
<path d="M144.596 61.856C144.429 62.022 144.366 62.2666 144.432 62.4924C144.507 62.7509 144.695 63.0701 145.15 63.2849C145.334 63.3717 145.552 63.3467 145.712 63.2203C146.364 62.7043 148.226 61.2083 149.442 60.0007C149.59 59.8533 149.672 59.6519 149.669 59.4432C149.664 59.0738 149.518 58.5118 148.779 58.1521C148.592 58.0609 148.368 58.0985 148.22 58.2456L144.596 61.856Z" fill="url(#paint30_linear_73_2390)"/>
<path d="M146.332 63.0729C146.184 63.2071 146.156 63.4299 146.268 63.5958C146.445 63.8593 146.753 64.1763 147.157 64.0458C147.666 63.8814 149.387 62.7999 150.135 62.322C150.359 62.1788 150.514 61.9487 150.563 61.687L150.603 61.4745C150.708 60.9068 150.362 60.3523 149.806 60.1982C149.662 60.1584 149.508 60.195 149.398 60.295L146.332 63.0729Z" fill="url(#paint31_linear_73_2390)"/>
<path d="M142.916 59.8758C142.725 59.7387 142.654 59.488 142.744 59.2711L144.585 54.867C144.706 54.5791 144.985 54.3898 145.297 54.3845C145.749 54.377 146.37 54.5357 146.715 55.3517C146.775 55.4951 146.77 55.6577 146.701 55.7973C146.377 56.4486 145.3 58.5104 143.924 60.0959C143.771 60.2714 143.51 60.3023 143.322 60.1671L142.916 59.8758Z" fill="url(#paint32_linear_73_2390)"/>
<path d="M143.811 61.3748C143.896 61.5385 144.047 61.6583 144.226 61.7044C144.405 61.7506 144.595 61.7185 144.749 61.6169C145.499 61.1217 146.933 60.0007 148.364 57.9236C148.498 57.7297 148.526 57.4808 148.439 57.2621C148.274 56.8467 147.884 56.2347 147.009 56.1601C146.823 56.1442 146.642 56.2279 146.533 56.3797L143.649 60.4013C143.649 60.4013 143.508 60.795 143.811 61.3748Z" fill="url(#paint33_linear_73_2390)"/>
<path d="M144.596 61.856C144.429 62.022 144.366 62.2666 144.432 62.4924C144.507 62.7509 144.695 63.0701 145.15 63.2849C145.334 63.3717 145.552 63.3467 145.712 63.2203C146.364 62.7043 148.226 61.2083 149.442 60.0007C149.59 59.8533 149.672 59.6519 149.669 59.4432C149.664 59.0738 149.518 58.5118 148.779 58.1521C148.592 58.0609 148.368 58.0985 148.22 58.2456L144.596 61.856Z" fill="url(#paint34_linear_73_2390)"/>
<path d="M146.332 63.0729C146.184 63.2071 146.156 63.4299 146.268 63.5958C146.445 63.8593 146.753 64.1763 147.157 64.0458C147.666 63.8814 149.387 62.7999 150.135 62.322C150.359 62.1788 150.514 61.9487 150.563 61.687L150.603 61.4745C150.708 60.9068 150.362 60.3523 149.806 60.1982C149.662 60.1584 149.508 60.195 149.398 60.295L146.332 63.0729Z" fill="url(#paint35_linear_73_2390)"/>
<path d="M104.615 95.1721C104.531 94.9525 104.306 94.8204 104.073 94.8531L99.3467 95.5208C99.038 95.5645 98.7838 95.787 98.7001 96.0874C98.5785 96.523 98.5749 97.1643 99.2774 97.7038C99.4008 97.7986 99.5595 97.8347 99.7118 97.8029C100.424 97.6538 102.691 97.1341 104.573 96.2031C104.781 96.1001 104.878 95.8552 104.794 95.6384L104.615 95.1721Z" fill="url(#paint36_linear_73_2390)"/>
<path d="M105.839 96.4169C105.976 96.5411 106.054 96.7172 106.053 96.9021C106.053 97.0869 105.974 97.2624 105.836 97.3859C105.167 97.9867 103.72 99.0901 101.349 99.9499C101.128 100.03 100.879 99.9947 100.69 99.8551C100.33 99.5902 99.8362 99.058 99.9856 98.1927C100.017 98.0086 100.144 97.8547 100.318 97.7878L104.939 96.0145C104.939 96.0145 105.355 95.9775 105.839 96.4169Z" fill="url(#paint37_linear_73_2390)"/>
<path d="M106.107 97.2985C106.309 97.1794 106.562 97.1801 106.764 97.3008C106.995 97.439 107.256 97.7014 107.349 98.1956C107.386 98.3957 107.307 98.6003 107.144 98.7228C106.48 99.2235 104.562 100.647 103.086 101.518C102.906 101.624 102.691 101.652 102.489 101.596C102.133 101.498 101.626 101.215 101.465 100.409C101.424 100.205 101.517 99.9976 101.697 99.8919L106.107 97.2985Z" fill="url(#paint38_linear_73_2390)"/>
<path d="M106.845 99.2857C107.012 99.1764 107.235 99.2059 107.367 99.3557C107.577 99.5938 107.806 99.9716 107.578 100.329C107.29 100.781 105.809 102.172 105.157 102.775C104.962 102.955 104.7 103.047 104.434 103.029L104.219 103.013C103.643 102.972 103.194 102.497 103.186 101.92C103.184 101.771 103.258 101.631 103.383 101.55L106.845 99.2857Z" fill="url(#paint39_linear_73_2390)"/>
<path d="M104.615 95.1721C104.531 94.9525 104.306 94.8204 104.073 94.8531L99.3467 95.5208C99.038 95.5645 98.7838 95.787 98.7001 96.0874C98.5785 96.523 98.5749 97.1643 99.2774 97.7038C99.4008 97.7986 99.5595 97.8347 99.7118 97.8029C100.424 97.6538 102.691 97.1341 104.573 96.2031C104.781 96.1001 104.878 95.8552 104.794 95.6384L104.615 95.1721Z" fill="url(#paint40_linear_73_2390)"/>
<path d="M105.839 96.4169C105.976 96.5411 106.054 96.7172 106.053 96.9021C106.053 97.0869 105.974 97.2624 105.836 97.3859C105.167 97.9867 103.72 99.0901 101.349 99.9499C101.128 100.03 100.879 99.9947 100.69 99.8551C100.33 99.5902 99.8362 99.058 99.9856 98.1927C100.017 98.0086 100.144 97.8547 100.318 97.7878L104.939 96.0145C104.939 96.0145 105.355 95.9775 105.839 96.4169Z" fill="url(#paint41_linear_73_2390)"/>
<path d="M106.107 97.2985C106.309 97.1794 106.562 97.1801 106.764 97.3008C106.995 97.439 107.256 97.7014 107.349 98.1956C107.386 98.3957 107.307 98.6003 107.144 98.7228C106.48 99.2235 104.562 100.647 103.086 101.518C102.906 101.624 102.691 101.652 102.489 101.596C102.133 101.498 101.626 101.215 101.465 100.409C101.424 100.205 101.517 99.9976 101.697 99.8919L106.107 97.2985Z" fill="url(#paint42_linear_73_2390)"/>
<path d="M106.845 99.2857C107.012 99.1764 107.235 99.2059 107.367 99.3557C107.577 99.5938 107.806 99.9716 107.578 100.329C107.29 100.781 105.809 102.172 105.157 102.775C104.962 102.955 104.7 103.047 104.434 103.029L104.219 103.013C103.643 102.972 103.194 102.497 103.186 101.92C103.184 101.771 103.258 101.631 103.383 101.55L106.845 99.2857Z" fill="url(#paint43_linear_73_2390)"/>
<defs>
<linearGradient id="paint0_linear_73_2390" x1="115.295" y1="73.0655" x2="127.099" y2="73.503" gradientUnits="userSpaceOnUse">
<stop stop-color="#13161F"/>
<stop offset="0.265" stop-color="#525661"/>
<stop offset="0.615" stop-color="#1E212A"/>
<stop offset="1" stop-color="#494F5C"/>
</linearGradient>
<linearGradient id="paint1_linear_73_2390" x1="112.517" y1="188.908" x2="115.03" y2="224.545" gradientUnits="userSpaceOnUse">
<stop stop-color="#F6B98A"/>
<stop offset="1" stop-color="#F4C6A6"/>
</linearGradient>
<linearGradient id="paint2_linear_73_2390" x1="108.427" y1="181.709" x2="110.459" y2="210.529" gradientUnits="userSpaceOnUse">
<stop stop-color="#F6B98A"/>
<stop offset="1" stop-color="#F4C6A6"/>
</linearGradient>
<linearGradient id="paint3_linear_73_2390" x1="97.2506" y1="151.276" x2="97.0619" y2="159.016" gradientUnits="userSpaceOnUse">
<stop stop-color="#F6B98A"/>
<stop offset="1" stop-color="#F4C6A6"/>
</linearGradient>
<linearGradient id="paint4_linear_73_2390" x1="121.553" y1="120.208" x2="90.809" y2="120.208" gradientUnits="userSpaceOnUse">
<stop stop-color="#525252"/>
<stop offset="1" stop-color="#3E3F3E"/>
</linearGradient>
<linearGradient id="paint5_linear_73_2390" x1="113.29" y1="63.2629" x2="128.019" y2="63.8196" gradientUnits="userSpaceOnUse">
<stop stop-color="#13161F"/>
<stop offset="0.265" stop-color="#525661"/>
<stop offset="0.615" stop-color="#1E212A"/>
<stop offset="1" stop-color="#494F5C"/>
</linearGradient>
<linearGradient id="paint6_linear_73_2390" x1="86.6513" y1="60.7556" x2="122.568" y2="63.767" gradientUnits="userSpaceOnUse">
<stop stop-color="#13161F"/>
<stop offset="0.265" stop-color="#525661"/>
<stop offset="0.615" stop-color="#1E212A"/>
<stop offset="1" stop-color="#494F5C"/>
</linearGradient>
<linearGradient id="paint7_linear_73_2390" x1="101.748" y1="-10.961" x2="147.07" y2="-8.72066" gradientUnits="userSpaceOnUse">
<stop stop-color="#13161F"/>
<stop offset="0.265" stop-color="#525661"/>
<stop offset="0.615" stop-color="#1E212A"/>
<stop offset="1" stop-color="#494F5C"/>
</linearGradient>
<linearGradient id="paint8_linear_73_2390" x1="66.1413" y1="-8.54041" x2="102.46" y2="-7.14539" gradientUnits="userSpaceOnUse">
<stop stop-color="#13161F"/>
<stop offset="0.265" stop-color="#525661"/>
<stop offset="0.615" stop-color="#1E212A"/>
<stop offset="1" stop-color="#494F5C"/>
</linearGradient>
<linearGradient id="paint9_linear_73_2390" x1="117.987" y1="41.216" x2="91.5758" y2="42.8886" gradientUnits="userSpaceOnUse">
<stop stop-color="#F6B98A"/>
<stop offset="1" stop-color="#F4C6A6"/>
</linearGradient>
<linearGradient id="paint10_linear_73_2390" x1="86.7551" y1="-29.3991" x2="127.023" y2="-28.0104" gradientUnits="userSpaceOnUse">
<stop stop-color="#13161F"/>
<stop offset="0.265" stop-color="#525661"/>
<stop offset="0.615" stop-color="#1E212A"/>
<stop offset="1" stop-color="#494F5C"/>
</linearGradient>
<linearGradient id="paint11_linear_73_2390" x1="113.993" y1="-14.0755" x2="125.266" y2="-13.95" gradientUnits="userSpaceOnUse">
<stop stop-color="#13161F"/>
<stop offset="0.265" stop-color="#525661"/>
<stop offset="0.615" stop-color="#1E212A"/>
<stop offset="1" stop-color="#494F5C"/>
</linearGradient>
<linearGradient id="paint12_linear_73_2390" x1="118.854" y1="49.3994" x2="112.208" y2="49.3994" gradientUnits="userSpaceOnUse">
<stop stop-color="#525252"/>
<stop offset="1" stop-color="#3E3F3E"/>
</linearGradient>
<linearGradient id="paint13_linear_73_2390" x1="117.163" y1="48.4791" x2="98.4661" y2="48.4791" gradientUnits="userSpaceOnUse">
<stop stop-color="#525252"/>
<stop offset="1" stop-color="#3E3F3E"/>
</linearGradient>
<linearGradient id="paint14_linear_73_2390" x1="118.395" y1="86.9302" x2="102.595" y2="86.9302" gradientUnits="userSpaceOnUse">
<stop stop-color="#525252"/>
<stop offset="1" stop-color="#3E3F3E"/>
</linearGradient>
<linearGradient id="paint15_linear_73_2390" x1="108.134" y1="13.3943" x2="114.583" y2="19.6794" gradientUnits="userSpaceOnUse">
<stop stop-color="#684830"/>
<stop offset="1" stop-color="#563722"/>
</linearGradient>
<linearGradient id="paint16_linear_73_2390" x1="102.425" y1="10.8131" x2="110.597" y2="34.1976" gradientUnits="userSpaceOnUse">
<stop stop-color="#F6B98A"/>
<stop offset="1" stop-color="#F4C6A6"/>
</linearGradient>
<linearGradient id="paint17_linear_73_2390" x1="97.4834" y1="14.7846" x2="89.422" y2="15.9618" gradientUnits="userSpaceOnUse">
<stop stop-color="#684830"/>
<stop offset="1" stop-color="#563722"/>
</linearGradient>
<linearGradient id="paint18_linear_73_2390" x1="112.819" y1="9.28762" x2="102.326" y2="4.8607" gradientUnits="userSpaceOnUse">
<stop stop-color="#684830"/>
<stop offset="1" stop-color="#563722"/>
</linearGradient>
<linearGradient id="paint19_linear_73_2390" x1="92.8313" y1="9.93408" x2="95.8648" y2="5.64894" gradientUnits="userSpaceOnUse">
<stop stop-color="#684830"/>
<stop offset="1" stop-color="#563722"/>
</linearGradient>
<linearGradient id="paint20_linear_73_2390" x1="91.2309" y1="15.8983" x2="96.2351" y2="25.1084" gradientUnits="userSpaceOnUse">
<stop stop-color="#F6B98A"/>
<stop offset="1" stop-color="#F4C6A6"/>
</linearGradient>
<linearGradient id="paint21_linear_73_2390" x1="104.192" y1="13.8835" x2="99.8163" y2="17.3279" gradientUnits="userSpaceOnUse">
<stop stop-color="#684830"/>
<stop offset="1" stop-color="#563722"/>
</linearGradient>
<linearGradient id="paint22_linear_73_2390" x1="115.156" y1="12.8265" x2="111.861" y2="13.3077" gradientUnits="userSpaceOnUse">
<stop stop-color="#684830"/>
<stop offset="1" stop-color="#563722"/>
</linearGradient>
<linearGradient id="paint23_linear_73_2390" x1="109.478" y1="8.50111" x2="115.302" y2="8.82989" gradientUnits="userSpaceOnUse">
<stop stop-color="#13161F"/>
<stop offset="0.265" stop-color="#525661"/>
<stop offset="0.615" stop-color="#1E212A"/>
<stop offset="1" stop-color="#494F5C"/>
</linearGradient>
<linearGradient id="paint24_linear_73_2390" x1="113.792" y1="14.5358" x2="112.239" y2="16.5443" gradientUnits="userSpaceOnUse">
<stop stop-color="#6D6E71"/>
<stop offset="1" stop-color="#231F20"/>
</linearGradient>
<linearGradient id="paint25_linear_73_2390" x1="101.239" y1="10.1776" x2="107.063" y2="10.5064" gradientUnits="userSpaceOnUse">
<stop stop-color="#13161F"/>
<stop offset="0.265" stop-color="#525661"/>
<stop offset="0.615" stop-color="#1E212A"/>
<stop offset="1" stop-color="#494F5C"/>
</linearGradient>
<linearGradient id="paint26_linear_73_2390" x1="105.553" y1="16.2118" x2="103.999" y2="18.2204" gradientUnits="userSpaceOnUse">
<stop stop-color="#6D6E71"/>
<stop offset="1" stop-color="#231F20"/>
</linearGradient>
<linearGradient id="paint27_linear_73_2390" x1="64.9963" y1="52.2314" x2="113.892" y2="57.2467" gradientUnits="userSpaceOnUse">
<stop stop-color="#13161F"/>
<stop offset="0.265" stop-color="#525661"/>
<stop offset="0.615" stop-color="#1E212A"/>
<stop offset="1" stop-color="#494F5C"/>
</linearGradient>
<linearGradient id="paint28_linear_73_2390" x1="147.354" y1="53.2568" x2="142.61" y2="59.7599" gradientUnits="userSpaceOnUse">
<stop stop-color="#F6B98A"/>
<stop offset="1" stop-color="#F4C6A6"/>
</linearGradient>
<linearGradient id="paint29_linear_73_2390" x1="149.273" y1="54.6564" x2="144.529" y2="61.1595" gradientUnits="userSpaceOnUse">
<stop stop-color="#F6B98A"/>
<stop offset="1" stop-color="#F4C6A6"/>
</linearGradient>
<linearGradient id="paint30_linear_73_2390" x1="150.789" y1="55.7617" x2="146.045" y2="62.2648" gradientUnits="userSpaceOnUse">
<stop stop-color="#F6B98A"/>
<stop offset="1" stop-color="#F4C6A6"/>
</linearGradient>
<linearGradient id="paint31_linear_73_2390" x1="152.446" y1="56.9706" x2="147.703" y2="63.4737" gradientUnits="userSpaceOnUse">
<stop stop-color="#F6B98A"/>
<stop offset="1" stop-color="#F4C6A6"/>
</linearGradient>
<linearGradient id="paint32_linear_73_2390" x1="147.354" y1="53.2568" x2="142.61" y2="59.7599" gradientUnits="userSpaceOnUse">
<stop stop-color="#F6B98A"/>
<stop offset="1" stop-color="#F4C6A6"/>
</linearGradient>
<linearGradient id="paint33_linear_73_2390" x1="149.273" y1="54.6564" x2="144.529" y2="61.1595" gradientUnits="userSpaceOnUse">
<stop stop-color="#F6B98A"/>
<stop offset="1" stop-color="#F4C6A6"/>
</linearGradient>
<linearGradient id="paint34_linear_73_2390" x1="150.789" y1="55.7617" x2="146.045" y2="62.2648" gradientUnits="userSpaceOnUse">
<stop stop-color="#F6B98A"/>
<stop offset="1" stop-color="#F4C6A6"/>
</linearGradient>
<linearGradient id="paint35_linear_73_2390" x1="152.446" y1="56.9706" x2="147.703" y2="63.4737" gradientUnits="userSpaceOnUse">
<stop stop-color="#F6B98A"/>
<stop offset="1" stop-color="#F4C6A6"/>
</linearGradient>
<linearGradient id="paint36_linear_73_2390" x1="97.089" y1="97.7915" x2="104.581" y2="94.8474" gradientUnits="userSpaceOnUse">
<stop stop-color="#F6B98A"/>
<stop offset="1" stop-color="#F4C6A6"/>
</linearGradient>
<linearGradient id="paint37_linear_73_2390" x1="97.9579" y1="100.002" x2="105.449" y2="97.0582" gradientUnits="userSpaceOnUse">
<stop stop-color="#F6B98A"/>
<stop offset="1" stop-color="#F4C6A6"/>
</linearGradient>
<linearGradient id="paint38_linear_73_2390" x1="98.6442" y1="101.748" x2="106.136" y2="98.8041" gradientUnits="userSpaceOnUse">
<stop stop-color="#F6B98A"/>
<stop offset="1" stop-color="#F4C6A6"/>
</linearGradient>
<linearGradient id="paint39_linear_73_2390" x1="99.3945" y1="103.657" x2="106.886" y2="100.713" gradientUnits="userSpaceOnUse">
<stop stop-color="#F6B98A"/>
<stop offset="1" stop-color="#F4C6A6"/>
</linearGradient>
<linearGradient id="paint40_linear_73_2390" x1="97.089" y1="97.7915" x2="104.581" y2="94.8474" gradientUnits="userSpaceOnUse">
<stop stop-color="#F6B98A"/>
<stop offset="1" stop-color="#F4C6A6"/>
</linearGradient>
<linearGradient id="paint41_linear_73_2390" x1="97.9579" y1="100.002" x2="105.449" y2="97.0582" gradientUnits="userSpaceOnUse">
<stop stop-color="#F6B98A"/>
<stop offset="1" stop-color="#F4C6A6"/>
</linearGradient>
<linearGradient id="paint42_linear_73_2390" x1="98.6442" y1="101.748" x2="106.136" y2="98.8041" gradientUnits="userSpaceOnUse">
<stop stop-color="#F6B98A"/>
<stop offset="1" stop-color="#F4C6A6"/>
</linearGradient>
<linearGradient id="paint43_linear_73_2390" x1="99.3945" y1="103.657" x2="106.886" y2="100.713" gradientUnits="userSpaceOnUse">
<stop stop-color="#F6B98A"/>
<stop offset="1" stop-color="#F4C6A6"/>
</linearGradient>
</defs>
</svg>
