<svg width="124" height="36" viewBox="0 0 124 36" fill="none" xmlns="http://www.w3.org/2000/svg">
<path d="M25.4621 16.0533C23.7346 22.9782 16.7233 27.1919 9.79592 25.4644C2.87353 23.7369 -1.34021 16.7231 0.387299 9.80071C2.11234 2.87584 9.12617 -1.34037 16.0486 0.387137C22.9759 2.11217 27.1896 9.12848 25.4621 16.0533Z" fill="#4E4F4F"/>
<path d="M18.6238 11.0834C18.8808 9.36331 17.5709 8.439 15.7817 7.82115L16.3624 5.49062L14.9438 5.13721L14.3779 7.40596C14.0047 7.31204 13.6216 7.22554 13.2411 7.13904L13.8095 4.85547L12.3909 4.50206L11.8101 6.83012C11.5012 6.76092 11.1997 6.68925 10.9056 6.61758L10.9081 6.61017L8.95317 6.12083L8.57505 7.6358C8.57505 7.6358 9.62787 7.87799 9.60563 7.89282C10.179 8.03616 10.2828 8.41676 10.2655 8.71827L9.60315 11.3726C9.64269 11.3824 9.6946 11.3973 9.75144 11.4195C9.70448 11.4072 9.65258 11.3948 9.60068 11.3824L8.6739 15.0994C8.6047 15.2749 8.42429 15.5369 8.02392 15.4355C8.03875 15.4553 6.99335 15.1785 6.99335 15.1785L6.289 16.8022L8.13514 17.2619C8.47866 17.3484 8.81477 17.4374 9.14594 17.5239L8.56022 19.8816L9.97634 20.235L10.5571 17.9045C10.9451 18.0083 11.3208 18.1071 11.6865 18.1986L11.1082 20.5192L12.5268 20.8726L13.1125 18.5198C15.532 18.9771 17.3485 18.7917 18.1147 16.6045C18.7325 14.8424 18.085 13.8267 16.8122 13.1643C17.7415 12.9518 18.4384 12.3438 18.6238 11.0834ZM15.3838 15.6283C14.9463 17.3904 11.9806 16.4365 11.0193 16.1992L11.7978 13.0778C12.7591 13.3175 15.8434 13.7921 15.3838 15.6283ZM15.8237 11.0587C15.4233 12.6602 12.9568 11.8471 12.1561 11.6469L12.8629 8.81465C13.6612 9.01483 16.2389 9.38802 15.8237 11.0587Z" fill="#71757F"/>
<path d="M37.8809 7.82114C38.9288 7.82114 39.8358 8.00897 40.5945 8.37721C41.3582 8.75039 41.9908 9.25208 42.495 9.88229C42.9942 10.5174 43.3649 11.2589 43.6047 12.1066C43.8419 12.9592 43.963 13.8736 43.963 14.8547C43.963 16.3598 43.6862 17.7834 43.1301 19.1253C42.5741 20.4673 41.8178 21.6338 40.8565 22.6273C39.8951 23.6208 38.7607 24.4018 37.4533 24.9801C36.1484 25.5584 34.7274 25.8475 33.2025 25.8475C33.0048 25.8475 32.6588 25.8426 32.1695 25.8327C31.6801 25.8228 31.1167 25.7709 30.4865 25.6869C29.8513 25.5979 29.1816 25.4669 28.4747 25.2915C27.7679 25.1185 27.0957 24.8787 26.463 24.5723L32.1225 0.790008L37.1914 0.00410462L35.1648 8.44394C35.5998 8.24869 36.0347 8.09794 36.4722 7.98672C36.9096 7.87798 37.3792 7.82114 37.8809 7.82114ZM33.6276 21.8266C34.3913 21.8266 35.1104 21.6387 35.7851 21.2705C36.4623 20.9023 37.048 20.403 37.5374 19.7827C38.0267 19.1599 38.4147 18.4556 38.6989 17.6721C38.9807 16.8862 39.124 16.0682 39.124 15.2156C39.124 14.1702 38.9485 13.3521 38.6001 12.7615C38.2516 12.1733 37.6066 11.8792 36.6699 11.8792C36.3635 11.8792 35.968 11.9385 35.4762 12.0423C34.9844 12.1535 34.5445 12.3833 34.1491 12.7318L31.9915 21.6931C32.1225 21.7154 32.2362 21.7376 32.3351 21.7574C32.4314 21.7796 32.5377 21.7944 32.644 21.8068C32.7552 21.8192 32.8837 21.8266 33.0394 21.8266C33.1951 21.8266 33.3879 21.8266 33.6276 21.8266Z" fill="#4E4F4F"/>
<path d="M49.2221 25.3927H44.3831L48.4708 8.18681H53.3469L49.2221 25.3927ZM51.5774 6.08859C50.9027 6.08859 50.2898 5.88841 49.7461 5.4831C49.1974 5.08273 48.9256 4.46488 48.9256 3.63449C48.9256 3.17728 49.0195 2.74726 49.2024 2.34442C49.3902 1.94158 49.6349 1.59312 49.9388 1.29655C50.2453 1.00245 50.5987 0.770138 51.0015 0.592197C51.4069 0.419199 51.8369 0.332703 52.2966 0.332703C52.9712 0.332703 53.5817 0.532882 54.1279 0.938191C54.6716 1.3435 54.9459 1.96135 54.9459 2.7868C54.9459 3.24648 54.8544 3.6765 54.6666 4.07934C54.4813 4.48218 54.2366 4.83065 53.9326 5.12722C53.6286 5.42131 53.2728 5.65363 52.8699 5.82909C52.4646 6.00456 52.0346 6.08859 51.5774 6.08859Z" fill="#4E4F4F"/>
<path d="M57.5879 3.89897L62.6592 3.11307L61.4136 8.18438H66.8457L65.8646 12.1732H60.467L59.0287 18.1911C58.8952 18.6928 58.8211 19.1623 58.7989 19.5973C58.7741 20.0347 58.831 20.4104 58.962 20.7267C59.0929 21.0431 59.3253 21.2877 59.6663 21.4607C60.0049 21.6362 60.4868 21.7252 61.122 21.7252C61.6434 21.7252 62.1525 21.6758 62.6444 21.5769C63.1337 21.4805 63.628 21.3446 64.1297 21.1691L64.4905 24.9009C63.8356 25.1407 63.1287 25.3483 62.3651 25.5212C61.6014 25.6967 60.6944 25.7832 59.649 25.7832C58.1439 25.7832 56.9799 25.5608 56.147 25.1159C55.3167 24.6686 54.7309 24.0557 54.38 23.2822C54.034 22.5111 53.8783 21.6214 53.9228 20.618C53.9673 19.6121 54.118 18.5568 54.38 17.4447L57.5879 3.89897Z" fill="#4E4F4F"/>
<path d="M66.6307 18.5223C66.6307 17.0394 66.8704 15.6431 67.3499 14.3332C67.8293 13.0234 68.5188 11.8791 69.4135 10.8955C70.3057 9.91684 71.3906 9.14329 72.6683 8.57486C73.9411 8.00891 75.3646 7.7247 76.9364 7.7247C77.9201 7.7247 78.7974 7.81862 79.5685 8.00397C80.3445 8.1918 81.0464 8.434 81.6791 8.73798L80.0084 12.5341C79.5709 12.3561 79.1187 12.2004 78.6516 12.0595C78.182 11.9162 77.6111 11.847 76.934 11.847C75.3177 11.847 74.04 12.4031 73.0885 13.5152C72.1419 14.6273 71.6649 16.1225 71.6649 17.9983C71.6649 19.1104 71.9047 20.01 72.3866 20.6971C72.866 21.3841 73.7508 21.7277 75.0359 21.7277C75.6711 21.7277 76.2815 21.6609 76.8672 21.5324C77.4579 21.4014 77.9794 21.2359 78.439 21.0431L78.7999 24.9355C78.187 25.1728 77.5123 25.3878 76.7708 25.5756C76.0294 25.756 75.1447 25.85 74.119 25.85C72.7672 25.85 71.6205 25.6522 70.6838 25.2618C69.7471 24.8663 68.9736 24.3399 68.3631 23.6751C67.7502 23.0078 67.3103 22.2294 67.0385 21.3347C66.7716 20.4401 66.6307 19.5009 66.6307 18.5223Z" fill="#4E4F4F"/>
<path d="M88.1393 25.8475C86.9827 25.8475 85.9793 25.672 85.1292 25.3236C84.279 24.9751 83.5771 24.4857 83.0211 23.8506C82.465 23.2204 82.0473 22.4716 81.7606 21.6115C81.4739 20.7515 81.338 19.7975 81.338 18.7521C81.338 17.4423 81.5481 16.1299 81.9732 14.825C82.3958 13.5152 83.0235 12.3388 83.8564 11.2934C84.6818 10.2455 85.6976 9.39043 86.8962 8.72316C88.0924 8.06082 89.4689 7.72718 91.016 7.72718C92.1504 7.72718 93.1488 7.90265 94.0114 8.25112C94.8714 8.59959 95.5782 9.0914 96.1368 9.72408C96.6904 10.3592 97.1105 11.1031 97.3922 11.9656C97.6764 12.8257 97.8173 13.7821 97.8173 14.8275C97.8173 16.1349 97.6097 17.4447 97.197 18.7546C96.7843 20.0595 96.1739 21.2383 95.3657 22.2862C94.56 23.3316 93.5517 24.1867 92.3407 24.8515C91.1347 25.5139 89.7334 25.8475 88.1393 25.8475ZM90.5588 11.847C89.8421 11.847 89.207 12.0546 88.6633 12.4673C88.1171 12.885 87.6599 13.4065 87.2916 14.0391C86.9184 14.6743 86.6417 15.3638 86.4538 16.1176C86.2685 16.8714 86.177 17.5831 86.177 18.2603C86.177 19.3526 86.3525 20.2028 86.6985 20.8133C87.0494 21.4212 87.6796 21.7277 88.5965 21.7277C89.3157 21.7277 89.9484 21.5201 90.4946 21.1049C91.0358 20.6921 91.4955 20.1682 91.8662 19.5355C92.2369 18.9053 92.5162 18.2109 92.704 17.4571C92.8869 16.7058 92.9808 15.9891 92.9808 15.3144C92.9808 14.2245 92.8053 13.3743 92.4569 12.7614C92.1084 12.1535 91.4757 11.847 90.5588 11.847Z" fill="#4E4F4F"/>
<path d="M103.099 25.3927H98.2523L102.342 8.18681H107.221L103.099 25.3927ZM105.451 6.08859C104.777 6.08859 104.164 5.88841 103.62 5.4831C103.074 5.08273 102.802 4.46488 102.802 3.63449C102.802 3.17728 102.896 2.74726 103.081 2.34442C103.267 1.94158 103.511 1.59312 103.818 1.29655C104.122 1.00245 104.48 0.770138 104.881 0.592197C105.283 0.419199 105.713 0.332703 106.171 0.332703C106.848 0.332703 107.458 0.532882 108.004 0.938191C108.548 1.3435 108.825 1.96135 108.825 2.7868C108.825 3.24648 108.726 3.6765 108.543 4.07934C108.36 4.48218 108.113 4.83065 107.809 5.12722C107.503 5.42131 107.149 5.65363 106.746 5.82909C106.339 6.00456 105.911 6.08859 105.451 6.08859Z" fill="#4E4F4F"/>
<path d="M110.708 8.96779C111.076 8.86152 111.487 8.73054 111.931 8.58967C112.379 8.4488 112.881 8.31782 113.439 8.19919C113.993 8.07809 114.615 7.97923 115.302 7.90262C115.99 7.82353 116.77 7.78646 117.64 7.78646C120.193 7.78646 121.955 8.53036 122.927 10.0132C123.898 11.496 124.066 13.5251 123.436 16.0978L121.209 25.3878H116.336L118.493 16.293C118.624 15.7246 118.728 15.176 118.804 14.6397C118.881 14.1083 118.876 13.6387 118.787 13.2334C118.701 12.8331 118.498 12.5044 118.184 12.2498C117.865 12.0002 117.381 11.8742 116.726 11.8742C116.096 11.8742 115.453 11.9409 114.796 12.0719L111.623 25.3853H106.746C106.746 25.3903 110.708 8.96779 110.708 8.96779Z" fill="#4E4F4F"/>
<path d="M30.8676 30.5431C32.4666 30.5431 34.0359 30.5308 35.6028 30.5481C36.2552 30.5555 36.7198 31.1808 36.5666 31.8802C36.3417 32.9206 36.0575 33.9487 35.798 34.9842C35.7955 34.9966 35.7832 35.0065 35.7733 35.0213C35.5014 35.0213 35.2271 35.0213 34.9305 35.0213C35.0961 34.3516 35.2617 33.6917 35.4248 33.0318C35.5237 32.6315 35.625 32.2286 35.7239 31.8283C35.8425 31.334 35.6349 31.0646 35.1357 31.0621C34.8317 31.0597 34.5252 31.0621 34.1965 31.0621C33.8678 32.3769 33.5391 33.6892 33.208 35.0164C32.9287 35.0164 32.647 35.0164 32.3455 35.0164C32.4591 34.5616 32.5679 34.1118 32.6791 33.6645C32.8694 32.9058 33.0597 32.1446 33.25 31.3859C33.3167 31.114 33.2772 31.0646 32.9954 31.0646C32.5951 31.0646 32.1972 31.072 31.7968 31.0597C31.6386 31.0547 31.5892 31.1091 31.5546 31.2574C31.263 32.456 30.9565 33.6497 30.6649 34.8458C30.6278 34.9966 30.5685 35.046 30.4178 35.0362C30.2077 35.0213 29.9976 35.0337 29.7505 35.0337C30.1237 33.5261 30.4944 32.0408 30.8676 30.5431Z" fill="#4E4F4F"/>
<path d="M84.0225 32.9206C84.3932 33.1504 84.4945 33.3976 84.4031 33.8671C84.324 34.2725 84.1757 34.6357 83.8 34.8532C83.6542 34.9373 83.4837 35.0163 83.3231 35.0238C82.7695 35.0435 82.2159 35.0312 81.6499 35.0312C82.0058 33.6027 82.3592 32.1817 82.7151 30.7507C82.7571 30.7482 82.7942 30.7408 82.8337 30.7408C83.2539 30.7408 83.6715 30.7384 84.0917 30.7408C84.6848 30.7458 85.0382 31.1881 84.9221 31.7714C84.8479 32.1347 84.7318 32.4758 84.4179 32.7056C84.2968 32.7921 84.151 32.8514 84.0225 32.9206ZM82.3419 34.6753C82.5792 34.6753 82.7942 34.6778 83.0117 34.6753C83.3725 34.6703 83.6246 34.4875 83.7308 34.1415C83.7902 33.9487 83.8371 33.7535 83.8742 33.5557C83.9211 33.2962 83.7827 33.0985 83.5183 33.0788C83.2637 33.059 83.0067 33.0738 82.7423 33.0738C82.6088 33.6052 82.4778 34.1316 82.3419 34.6753ZM82.8312 32.7006C83.1006 32.7006 83.3577 32.7179 83.6122 32.6957C83.9088 32.6685 84.1139 32.4906 84.2078 32.2064C84.2745 32.0062 84.324 31.7986 84.361 31.591C84.4105 31.329 84.2721 31.1338 84.0076 31.1115C83.7531 31.0918 83.4961 31.1066 83.2291 31.1066C83.0957 31.6379 82.9647 32.1643 82.8312 32.7006Z" fill="#4E4F4F"/>
<path d="M105.763 30.7408C105.934 30.7408 106.107 30.7334 106.277 30.7433C106.693 30.7631 106.95 31.0522 106.88 31.46C106.811 31.8653 106.7 32.2657 106.601 32.6661C106.473 33.1851 106.354 33.7041 106.203 34.2181C106.048 34.7519 105.637 35.0386 105.086 35.0411C104.814 35.0436 104.54 35.0436 104.268 35.0411C103.732 35.0361 103.46 34.7322 103.579 34.2107C103.779 33.3309 103.999 32.456 104.236 31.5885C104.392 31.0226 104.804 30.7433 105.395 30.7433C105.521 30.7384 105.642 30.7384 105.763 30.7408C105.763 30.7384 105.763 30.7384 105.763 30.7408ZM104.772 34.6778C105.323 34.6778 105.541 34.5097 105.677 33.9685C105.835 33.3432 105.991 32.718 106.146 32.0927C106.184 31.9419 106.226 31.7912 106.255 31.638C106.317 31.3192 106.154 31.1165 105.83 31.1041C105.753 31.1017 105.679 31.1017 105.603 31.1017C105.146 31.1017 104.893 31.2994 104.782 31.7442C104.597 32.4857 104.421 33.232 104.221 33.971C104.11 34.396 104.204 34.7149 104.772 34.6778Z" fill="#4E4F4F"/>
<path d="M110.914 30.7408C111.084 30.7408 111.257 30.7334 111.428 30.7433C111.843 30.7656 112.1 31.0522 112.028 31.4625C111.959 31.8678 111.848 32.2682 111.749 32.6685C111.623 33.1826 111.504 33.6991 111.356 34.2057C111.193 34.7569 110.79 35.0386 110.219 35.0411C109.952 35.0411 109.686 35.0436 109.416 35.0411C108.88 35.0337 108.61 34.7297 108.729 34.2082C108.929 33.3284 109.149 32.4535 109.386 31.5861C109.54 31.0251 109.955 30.7433 110.533 30.7433C110.662 30.7384 110.788 30.7384 110.914 30.7408C110.914 30.7384 110.914 30.7384 110.914 30.7408ZM109.933 34.6778C110.469 34.6778 110.691 34.5048 110.822 33.9883C110.963 33.4322 111.102 32.8737 111.24 32.3176C111.297 32.0878 111.361 31.8604 111.408 31.6281C111.47 31.3167 111.302 31.1165 110.988 31.1041C110.916 31.1017 110.847 31.1017 110.775 31.1017C110.293 31.1017 110.049 31.292 109.933 31.7566C109.747 32.4931 109.574 33.2345 109.377 33.9685C109.263 34.3763 109.33 34.7173 109.933 34.6778Z" fill="#4E4F4F"/>
<path d="M114.52 30.7408C114.69 30.7408 114.863 30.7334 115.034 30.7433C115.449 30.7656 115.706 31.0522 115.634 31.4625C115.565 31.8678 115.454 32.2682 115.355 32.6685C115.226 33.1875 115.108 33.7065 114.957 34.2206C114.801 34.7519 114.391 35.0386 113.84 35.0411C113.568 35.0436 113.294 35.0436 113.022 35.0411C112.486 35.0337 112.216 34.7297 112.335 34.2082C112.535 33.3284 112.755 32.4535 112.992 31.5861C113.145 31.0251 113.561 30.7433 114.139 30.7433C114.267 30.7384 114.393 30.7384 114.52 30.7408C114.52 30.7384 114.52 30.7384 114.52 30.7408ZM113.533 34.6778C114.07 34.6778 114.292 34.5048 114.423 33.9883C114.562 33.4421 114.7 32.8959 114.836 32.3473C114.895 32.1075 114.962 31.8703 115.009 31.6281C115.071 31.3167 114.905 31.1165 114.591 31.1017C114.515 31.0992 114.44 31.0992 114.364 31.0992C113.897 31.0992 113.65 31.2944 113.536 31.7516C113.351 32.4881 113.178 33.2295 112.98 33.9636C112.866 34.3787 112.938 34.7173 113.533 34.6778Z" fill="#4E4F4F"/>
<path d="M118.12 30.7384C118.286 30.7384 118.454 30.7334 118.62 30.7384C119.05 30.7532 119.312 31.0448 119.237 31.4699C119.168 31.8752 119.057 32.2756 118.958 32.6759C118.832 33.19 118.711 33.704 118.563 34.2131C118.405 34.7519 117.997 35.0361 117.433 35.0386C117.166 35.0386 116.9 35.0411 116.63 35.0386C116.089 35.0337 115.817 34.7198 115.941 34.1934C116.143 33.321 116.358 32.4486 116.598 31.586C116.754 31.0176 117.166 30.7384 117.757 30.7384C117.878 30.7384 117.999 30.7384 118.12 30.7384ZM117.134 34.6778C117.68 34.6778 117.9 34.5072 118.034 33.9808C118.219 33.2444 118.405 32.5054 118.587 31.7689C118.607 31.6923 118.622 31.6108 118.625 31.5317C118.632 31.2994 118.506 31.1461 118.279 31.1115C118.18 31.0967 118.078 31.1017 117.977 31.1017C117.505 31.1017 117.258 31.2944 117.144 31.7467C116.959 32.4881 116.783 33.2345 116.583 33.9734C116.469 34.3911 116.558 34.7173 117.134 34.6778Z" fill="#4E4F4F"/>
<path d="M50.965 30.5407C51.0886 30.0439 51.2171 29.5546 51.3258 29.0603C51.3654 28.8873 51.4321 28.8181 51.615 28.8354C51.8152 28.8552 52.0203 28.8403 52.2501 28.8403C52.1389 29.2877 52.0327 29.7152 51.9264 30.1403C51.5359 31.7072 51.1405 33.274 50.7574 34.8434C50.7203 34.9966 50.6586 35.0337 50.5103 35.0312C49.9221 35.0213 49.3339 35.0312 48.7482 35.0263C47.8832 35.0213 47.3592 34.3689 47.552 33.5311C47.6879 32.9379 47.8239 32.3448 48.0018 31.7615C48.2366 30.988 48.8742 30.5431 49.6873 30.5382C50.1074 30.5382 50.5276 30.5407 50.965 30.5407ZM50.834 31.0621C50.4683 31.0621 50.1297 31.0572 49.7886 31.0646C49.3685 31.0745 49.02 31.3266 48.8791 31.722C48.8347 31.8431 48.8075 31.9716 48.7754 32.0977C48.6419 32.6241 48.5084 33.1505 48.3775 33.6793C48.2415 34.228 48.4565 34.5048 49.0151 34.5097C49.2919 34.5122 49.5662 34.5172 49.843 34.5048C49.8998 34.5023 49.9888 34.4381 50.0036 34.3862C50.2804 33.2889 50.5523 32.194 50.834 31.0621Z" fill="#4E4F4F"/>
<path d="M62.3408 30.5406C62.4718 30.0142 62.6053 29.5076 62.7214 29.001C62.7511 28.8774 62.7956 28.8329 62.9216 28.8378C63.1465 28.8477 63.3689 28.8403 63.626 28.8403C63.5296 29.2308 63.4381 29.6015 63.3467 29.9698C62.9414 31.5935 62.5336 33.2172 62.1357 34.8409C62.0986 34.9916 62.0418 35.0361 61.8911 35.0337C61.3029 35.0238 60.7147 35.0337 60.1289 35.0287C59.2516 35.0238 58.7375 34.3738 58.9353 33.5162C59.0737 32.9231 59.2071 32.3299 59.3851 31.7467C59.6124 31.0003 60.2575 30.5481 61.0384 30.5406C61.466 30.5382 61.8935 30.5406 62.3408 30.5406ZM62.2049 31.0794C62.1629 31.072 62.1407 31.0646 62.1209 31.0646C61.8021 31.0646 61.4833 31.0596 61.162 31.0646C60.7418 31.0745 60.3934 31.3266 60.2525 31.722C60.208 31.8431 60.1808 31.9716 60.1487 32.0976C60.0153 32.624 59.8818 33.1504 59.7508 33.6793C59.6149 34.228 59.8299 34.5048 60.3909 34.5072C60.6677 34.5097 60.942 34.5147 61.2188 34.5023C61.2757 34.4998 61.3646 34.4356 61.3795 34.3837C61.6587 33.2888 61.9281 32.1915 62.2049 31.0794Z" fill="#4E4F4F"/>
<path d="M98.6952 34.6754C99.355 34.6754 99.9729 34.6754 100.618 34.6754C100.588 34.8014 100.561 34.9101 100.534 35.0288C99.701 35.0288 98.8706 35.0288 98.0304 35.0288C98.0748 34.6507 98.1885 34.2997 98.4579 34.0254C98.6976 33.7832 98.9547 33.5533 99.2191 33.3383C99.5552 33.064 99.9111 32.8144 100.247 32.5401C100.524 32.3152 100.704 32.0236 100.771 31.6627C100.84 31.297 100.699 31.1017 100.331 31.1017C100.166 31.1017 99.9976 31.0992 99.8345 31.1289C99.5947 31.1759 99.4292 31.3316 99.36 31.5688C99.3303 31.6677 99.2908 31.7097 99.1845 31.6998C99.0807 31.6899 98.9744 31.6973 98.8706 31.6973C98.8978 31.2648 99.2067 30.8867 99.6738 30.8002C100.005 30.7384 100.358 30.7261 100.695 30.7631C101.172 30.8175 101.433 31.2525 101.349 31.7319C101.27 32.1842 101.055 32.5574 100.702 32.8441C100.351 33.1307 99.9778 33.3927 99.6269 33.6794C99.3699 33.8895 99.1252 34.1144 98.8879 34.3467C98.8113 34.4282 98.7693 34.5468 98.6952 34.6754Z" fill="#4E4F4F"/>
<path d="M73.1113 35.0189C72.9383 35.0189 72.7603 35.0411 72.5898 35.0164C71.9027 34.9175 71.4678 34.3343 71.6037 33.6522C71.7298 33.0195 71.8854 32.3918 72.0708 31.7764C72.3056 31.0004 72.9457 30.5506 73.7514 30.5456C74.0059 30.5431 74.2605 30.5308 74.5125 30.5555C75.2391 30.6296 75.6939 31.2574 75.5382 31.9914C75.4146 32.5722 75.2737 33.1505 75.1032 33.7189C74.8437 34.5913 74.2209 35.0337 73.3065 35.0337C73.2422 35.0337 73.1755 35.0337 73.1113 35.0337C73.1113 35.0263 73.1113 35.0213 73.1113 35.0189ZM73.1335 34.5221C73.7785 34.5097 74.0949 34.2675 74.2555 33.6448C74.3939 33.1109 74.5298 32.5796 74.6584 32.0433C74.6979 31.8826 74.7226 31.7171 74.7276 31.5515C74.7325 31.3513 74.6287 31.1857 74.4433 31.1289C73.9194 30.9633 73.1508 31.0177 72.9333 31.7739C72.743 32.4338 72.5873 33.106 72.4217 33.7733C72.402 33.8499 72.4044 33.9314 72.4094 34.0105C72.4193 34.2478 72.5379 34.4059 72.7702 34.4702C72.8864 34.5023 73.0124 34.5048 73.1335 34.5221Z" fill="#4E4F4F"/>
<path d="M77.1618 30.5456C77.8859 30.5456 78.5903 30.5184 79.2922 30.553C80.0435 30.5876 80.5081 31.2598 80.3302 32.0285C80.0978 33.0244 79.8408 34.013 79.5912 35.0188C79.307 35.0188 79.0277 35.0188 78.7262 35.0188C78.8671 34.4504 79.0055 33.8869 79.1439 33.3259C79.26 32.8613 79.3787 32.3992 79.4874 31.9321C79.6184 31.3711 79.3713 31.0646 78.7954 31.0646C78.5557 31.0646 78.316 31.072 78.0762 31.0621C77.9329 31.0547 77.881 31.1042 77.8464 31.245C77.5523 32.4486 77.2483 33.6522 76.9468 34.8557C76.932 34.9126 76.9147 34.9669 76.8974 35.0263C76.6156 35.0263 76.3413 35.0263 76.0398 35.0263C76.4179 33.5237 76.7886 32.0359 77.1618 30.5456Z" fill="#4E4F4F"/>
<path d="M56.1253 28.8503C57.1015 28.8503 58.0654 28.8503 59.0515 28.8503C59.007 29.0257 58.9674 29.1839 58.9254 29.3594C58.2359 29.3594 57.5563 29.3594 56.8643 29.3594C56.6715 30.1329 56.4812 30.8892 56.286 31.6701C56.7506 31.6701 57.1979 31.6701 57.6675 31.6701C57.6255 31.853 57.5909 32.0137 57.5513 32.1891C57.0892 32.1891 56.6344 32.1891 56.1649 32.1891C55.9721 32.9602 55.7818 33.7189 55.589 34.4999C56.2761 34.4999 56.9458 34.4999 57.6477 34.4999C57.6008 34.6902 57.5612 34.8558 57.5192 35.0214C56.5356 35.0214 55.5717 35.0214 54.5906 35.0214C55.1022 32.9577 55.6137 30.9065 56.1253 28.8503Z" fill="#4E4F4F"/>
<path d="M95.0993 31.0968C94.9658 31.6331 94.8324 32.1595 94.6989 32.7007C95.0202 32.7007 95.3291 32.7007 95.6603 32.7007C95.6307 32.8342 95.6035 32.9478 95.5738 33.0665C95.2501 33.0665 94.9387 33.0665 94.6124 33.0665C94.479 33.5978 94.348 34.1242 94.2121 34.6655C94.689 34.6655 95.1537 34.6655 95.6405 34.6655C95.6134 34.7792 95.5985 34.8755 95.5664 34.967C95.5565 34.9966 95.5046 35.0312 95.47 35.0312C94.825 35.0362 94.1799 35.0337 93.5176 35.0337C93.876 33.5953 94.2318 32.1694 94.5877 30.7384C95.2649 30.7384 95.9346 30.7384 96.6192 30.7384C96.5895 30.857 96.5624 30.9682 96.5327 31.0918C96.0533 31.0968 95.5812 31.0968 95.0993 31.0968Z" fill="#4E4F4F"/>
<path d="M90.3913 34.0896C90.2801 34.6333 89.9341 34.9669 89.3978 35.0263C89.1481 35.0534 88.8911 35.0559 88.644 35.0263C88.1497 34.9694 87.8432 34.532 87.9569 34.0402C88.1373 33.2543 88.3276 32.4708 88.5377 31.6923C88.7082 31.0523 89.1531 30.731 89.8154 30.7384C90.0601 30.7409 90.3122 30.7433 90.5494 30.7952C90.9325 30.8768 91.1179 31.2129 91.019 31.5935C91.0091 31.633 90.9572 31.6874 90.9177 31.6923C90.799 31.7047 90.6779 31.6973 90.5445 31.6973C90.5519 31.6429 90.5544 31.6058 90.5618 31.5663C90.6087 31.3167 90.4827 31.1313 90.2306 31.1066C90.0601 31.0918 89.8846 31.0844 89.7166 31.1091C89.4101 31.1536 89.2248 31.3488 89.1506 31.6454C89.0172 32.1619 88.8911 32.6809 88.7601 33.1974C88.686 33.4965 88.6119 33.793 88.5377 34.0921C88.4413 34.4875 88.5847 34.6753 88.9875 34.6729C89.1383 34.6729 89.2915 34.6728 89.4373 34.6457C89.6721 34.5987 89.8352 34.4455 89.897 34.2132C89.9266 34.1044 89.9761 34.0772 90.0749 34.0847C90.1787 34.0945 90.2776 34.0896 90.3913 34.0896Z" fill="#4E4F4F"/>
<path d="M46.4794 33.0244C45.5774 33.0244 44.7 33.0244 43.7905 33.0244C43.7238 33.3136 43.6373 33.5978 43.6003 33.8894C43.5508 34.27 43.7634 34.4974 44.1514 34.5073C44.5938 34.5171 45.0361 34.5097 45.481 34.5122C45.5601 34.5122 45.6392 34.5122 45.7553 34.5122C45.7108 34.6901 45.6738 34.8483 45.6293 35.0337C45.4662 35.0337 45.303 35.0337 45.1375 35.0337C44.7297 35.0337 44.3244 35.0411 43.9191 35.0312C43.1653 35.0114 42.6414 34.3862 42.7896 33.6447C42.9181 33.0121 43.0738 32.3843 43.2592 31.769C43.489 31.0053 44.1316 30.5555 44.9249 30.5456C45.1276 30.5431 45.3327 30.5431 45.5354 30.5456C46.3509 30.5555 46.8625 31.1462 46.734 31.9518C46.6747 32.3028 46.5684 32.6512 46.4794 33.0244ZM45.7479 32.4955C45.8146 32.2064 45.8962 31.9197 45.9407 31.6281C45.9728 31.418 45.8715 31.25 45.6787 31.1462C45.266 30.9237 44.5765 31.0671 44.2922 31.4378C44.0575 31.7467 44.0327 32.1248 43.9438 32.4955C44.5567 32.4955 45.1424 32.4955 45.7479 32.4955Z" fill="#4E4F4F"/>
<path d="M86.6594 31.1017C86.2887 31.1017 85.9477 31.1017 85.5844 31.1017C85.614 30.9757 85.6387 30.862 85.6659 30.7458C86.5878 30.7458 87.4997 30.7458 88.4117 30.7458C88.3598 31.1017 88.3597 31.1017 88.0162 31.1017C87.7691 31.1017 87.5219 31.1017 87.26 31.1017C87.1735 31.4502 87.087 31.7962 87.0005 32.1422C86.7706 33.0665 86.5383 33.9883 86.311 34.9126C86.2862 35.009 86.2541 35.0486 86.1528 35.0411C86.002 35.0337 85.8513 35.0387 85.6758 35.0387C86.0094 33.7239 86.3332 32.4215 86.6594 31.1017Z" fill="#4E4F4F"/>
<path d="M24.6347 34.5098C25.3341 34.5098 26.0014 34.5098 26.6711 34.5098C26.6761 34.5419 26.6835 34.5642 26.6786 34.5815C26.5846 35.0288 26.5846 35.0288 26.12 35.0288C25.3069 35.0288 24.4963 35.0288 23.6437 35.0288C24.1553 32.9627 24.6619 30.9139 25.1735 28.8527C25.4552 28.8527 25.7345 28.8527 26.0385 28.8527C25.5738 30.7335 25.1092 32.6068 24.6347 34.5098Z" fill="#4E4F4F"/>
<path d="M90.8559 35.0386C91.2118 33.5978 91.5652 32.1767 91.9186 30.7483C92.1139 30.7483 92.3091 30.7483 92.5192 30.7483C92.1954 32.0556 91.8717 33.3556 91.543 34.6753C92.0224 34.6753 92.4895 34.6753 92.9566 34.6753C92.9591 34.7025 92.964 34.7173 92.9615 34.7297C92.8948 35.0411 92.8948 35.0411 92.5735 35.0411C92.01 35.0386 91.4466 35.0386 90.8559 35.0386Z" fill="#4E4F4F"/>
<path d="M41.6552 29.3692C41.5613 29.7622 41.4699 30.1329 41.376 30.5308C41.8332 30.5308 42.278 30.5308 42.7525 30.5308C42.708 30.7186 42.671 30.8792 42.6265 31.0621C42.2335 31.0621 41.8431 31.072 41.455 31.0572C41.2821 31.0498 41.2227 31.1116 41.1832 31.2747C40.9904 32.0853 40.7828 32.8934 40.5851 33.704C40.4566 34.2329 40.6691 34.5048 41.2079 34.5097C41.3809 34.5122 41.5564 34.5097 41.759 34.5097C41.7368 34.6036 41.722 34.6852 41.7022 34.7643C41.6824 34.8483 41.6577 34.9323 41.6355 35.0238C41.3191 35.0238 41.0053 35.0485 40.6963 35.0188C40.0019 34.9546 39.5793 34.3367 39.7523 33.6077C40.076 32.2385 40.4245 30.8768 40.768 29.5126C40.7828 29.4557 40.8619 29.3791 40.9138 29.3766C41.1461 29.3618 41.3858 29.3692 41.6552 29.3692Z" fill="#4E4F4F"/>
<path d="M68.1141 29.3693C68.0177 29.7672 67.9287 30.1379 67.8323 30.5333C68.292 30.5333 68.7394 30.5333 69.2114 30.5333C69.1644 30.7211 69.1274 30.8793 69.0829 31.0597C68.68 31.0597 68.2821 31.0646 67.8843 31.0572C67.7434 31.0548 67.6865 31.0943 67.6519 31.2376C67.4567 32.0557 67.2466 32.8712 67.0464 33.6868C66.9105 34.2429 67.1206 34.5024 67.6915 34.5073C67.8571 34.5073 68.0251 34.5073 68.2179 34.5073C68.1734 34.6902 68.1339 34.8533 68.0943 35.0214C67.7681 35.0214 67.4542 35.0461 67.1453 35.0164C66.4508 34.9497 66.0381 34.3318 66.2086 33.6003C66.4854 32.4214 66.7869 31.2475 67.0761 30.0736C67.1231 29.8833 67.1651 29.693 67.2244 29.5052C67.2417 29.4508 67.3059 29.3767 67.3529 29.3742C67.5976 29.3618 67.8422 29.3693 68.1141 29.3693Z" fill="#4E4F4F"/>
<path d="M102.615 31.5836C102.454 31.5836 102.308 31.5836 102.155 31.5836C102.185 31.3735 102.205 31.1906 102.434 31.1016C102.622 31.03 102.798 30.9262 102.968 30.8199C103.112 30.7309 103.26 30.7309 103.425 30.7482C103.07 32.1816 102.716 33.6076 102.363 35.0336C102.158 35.0336 101.967 35.0336 101.762 35.0336C102.044 33.8844 102.328 32.7426 102.615 31.5836Z" fill="#4E4F4F"/>
<path d="M28.3492 35.0213C28.0601 35.0213 27.7858 35.0213 27.4843 35.0213C27.5979 34.5641 27.7067 34.1168 27.8179 33.6695C28.0601 32.6908 28.3072 31.7146 28.542 30.7334C28.5766 30.5876 28.6236 30.5234 28.7842 30.5357C28.9943 30.5505 29.2044 30.5407 29.4589 30.5407C29.0857 32.0457 28.7175 33.5311 28.3492 35.0213Z" fill="#4E4F4F"/>
<path d="M69.933 35.0213C69.6463 35.0213 69.372 35.0213 69.068 35.0213C69.1817 34.5641 69.2929 34.1167 69.4016 33.6694C69.6389 32.7056 69.8836 31.7417 70.1109 30.7754C70.1579 30.5802 70.2395 30.5184 70.4322 30.5357C70.625 30.5554 70.8202 30.5406 71.0427 30.5406C70.6695 32.0506 70.3012 33.5335 69.933 35.0213Z" fill="#4E4F4F"/>
<path d="M37.9827 35.0189C37.6837 35.0189 37.4094 35.0189 37.1177 35.0189C37.2759 34.3862 37.4291 33.7684 37.5824 33.1505C37.785 32.3349 37.9902 31.5194 38.1879 30.7013C38.2175 30.5778 38.262 30.5333 38.3905 30.5382C38.6154 30.5481 38.8403 30.5407 39.0949 30.5407C38.7192 32.0458 38.3534 33.5262 37.9827 35.0189Z" fill="#4E4F4F"/>
<path d="M64.4391 35.0238C64.1425 35.0238 63.8731 35.0238 63.5766 35.0238C63.6754 34.6209 63.7718 34.2304 63.8682 33.8424C64.1277 32.802 64.3896 31.7615 64.6393 30.7161C64.6739 30.5703 64.7332 30.5308 64.8716 30.5382C65.0866 30.5481 65.3041 30.5406 65.5487 30.5406C65.178 32.0482 64.8098 33.531 64.4391 35.0238Z" fill="#4E4F4F"/>
<path d="M107.775 34.1909C107.634 34.658 107.602 35.1399 107.357 35.5576C107.219 35.7924 107.024 35.953 106.727 36C106.784 35.8048 106.779 35.6169 106.96 35.4736C107.068 35.3871 107.108 35.2092 107.187 35.0535C107.09 35.0436 107.034 35.0362 106.962 35.0287C107.026 34.7668 107.088 34.5097 107.157 34.2527C107.165 34.2255 107.212 34.1934 107.241 34.1934C107.412 34.1885 107.582 34.1909 107.775 34.1909Z" fill="#4E4F4F"/>
<path d="M28.8534 29.5298C28.9102 29.2852 28.9597 29.0751 29.0116 28.8552C29.2859 28.8552 29.5602 28.8552 29.879 28.8552C29.8247 29.0677 29.7752 29.2778 29.7159 29.4854C29.7085 29.5101 29.6443 29.5298 29.6072 29.5298C29.3675 29.5298 29.1302 29.5298 28.8534 29.5298Z" fill="#4E4F4F"/>
<path d="M70.5978 28.8478C70.8969 28.8478 71.1712 28.8478 71.4603 28.8478C71.4134 29.048 71.3738 29.2407 71.3195 29.4261C71.3071 29.4706 71.233 29.5225 71.186 29.5249C70.9488 29.5348 70.709 29.5299 70.4397 29.5299C70.494 29.2902 70.5434 29.0752 70.5978 28.8478Z" fill="#4E4F4F"/>
<path d="M64.9457 29.5298C65.0025 29.2876 65.052 29.0776 65.1039 28.8552C65.3856 28.8552 65.6649 28.8552 65.9664 28.8552C65.9194 29.0529 65.8799 29.2481 65.823 29.4409C65.8107 29.4804 65.744 29.5249 65.6995 29.5274C65.4622 29.5323 65.225 29.5298 64.9457 29.5298Z" fill="#4E4F4F"/>
<path d="M38.6475 28.8503C38.9342 28.8503 39.2061 28.8503 39.5076 28.8503C39.4606 29.0505 39.4211 29.2457 39.3667 29.436C39.3543 29.4755 39.2901 29.525 39.2481 29.525C39.0034 29.5324 38.7587 29.5299 38.4869 29.5299C38.5437 29.2852 38.5956 29.0702 38.6475 28.8503Z" fill="#4E4F4F"/>
</svg>
