<svg width="28" height="28" viewBox="0 0 28 28" fill="none" xmlns="http://www.w3.org/2000/svg">
<path d="M27.5805 17.3874C25.7093 24.8877 18.1146 29.4516 10.6109 27.5805C3.1126 25.7095 -1.45171 18.1128 0.419521 10.6151C2.28808 3.11483 9.88544 -1.45176 17.3838 0.419308C24.8874 2.2877 29.4517 9.88706 27.5805 17.3874Z" fill="#353945"/>
<path d="M20.1732 12.0044C20.4516 10.1414 19.0328 9.14026 17.0947 8.47106L17.7238 5.94687L16.1872 5.56408L15.5741 8.02137C15.1699 7.91965 14.755 7.82596 14.3427 7.73227L14.9584 5.25894L13.4218 4.87616L12.7927 7.39768C12.4581 7.32273 12.1315 7.2451 11.8129 7.16748L11.8156 7.15945L9.69808 6.62944L9.28849 8.27031C9.28849 8.27031 10.4289 8.53263 10.4048 8.54869C11.0259 8.70395 11.1383 9.11617 11.1196 9.44273L10.4021 12.3176C10.445 12.3283 10.5012 12.3444 10.5628 12.3684C10.5119 12.3551 10.4557 12.3417 10.3995 12.3283L9.39557 16.3542C9.32062 16.5442 9.12519 16.8279 8.69152 16.7182C8.70758 16.7396 7.57521 16.4398 7.57521 16.4398L6.81226 18.1985L8.81199 18.6963C9.18409 18.79 9.54816 18.8864 9.90688 18.9801L9.27243 21.5337L10.8064 21.9165L11.4355 19.3923C11.8557 19.5047 12.2627 19.6118 12.6589 19.7108L12.0324 22.2243L13.569 22.6071L14.2035 20.0588C16.8243 20.554 18.7919 20.3533 19.6218 17.9843C20.291 16.0758 19.5896 14.9756 18.211 14.2582C19.2175 14.028 19.9725 13.3696 20.1732 12.0044ZM16.6637 16.927C16.1898 18.8355 12.9774 17.8023 11.9361 17.5453L12.7793 14.1646C13.8207 14.4242 17.1616 14.9381 16.6637 16.927ZM17.1402 11.9776C16.7065 13.7122 14.0348 12.8315 13.1675 12.6147L13.9331 9.54712C14.7978 9.76394 17.5899 10.1681 17.1402 11.9776Z" fill="#F0F0F2"/>
</svg>
