<svg width="24" height="24" viewBox="0 0 24 24" fill="none" xmlns="http://www.w3.org/2000/svg">
<g clip-path="url(#clip0_0_119)">
<path d="M13.0605 10.5004V5.16769C14.2013 5.36012 15.2769 5.82822 16.1965 6.53116C16.3799 6.65688 16.595 6.72508 16.8177 6.72808C17.5312 6.72808 18.113 6.15391 18.1206 5.44037C18.1221 5.13436 18.0024 4.84046 17.7873 4.6223C16.4586 3.48454 14.7922 2.81342 13.0454 2.71343V0.925745C13.0454 0.415177 12.6318 0.00159529 12.1212 0.00159529C12.1107 9.5279e-05 12.1 9.5279e-05 12.0894 9.5279e-05C11.5713 -0.00749855 11.1441 0.406131 11.1365 0.925745V2.65282C7.72779 2.89522 5.4099 5.00105 5.4099 7.80373C5.4099 11.2427 8.3338 12.1972 11.1365 12.9546V19.0146C9.65784 18.8161 8.2641 18.2025 7.12179 17.2421C6.90668 17.0709 6.64 16.9754 6.36428 16.9694C5.66588 17.0179 5.12808 17.6026 5.13713 18.3026C5.13563 18.6086 5.2553 18.9025 5.47041 19.1206C7.0354 20.5296 9.04729 21.3401 11.1516 21.4083V23.0747C11.1516 23.0853 11.1531 23.096 11.1531 23.1066C11.1773 23.6247 11.6182 24.0246 12.1363 23.9989C12.6469 23.9989 13.0604 23.5853 13.0604 23.0747V21.378C17.1963 21.1053 18.8628 18.5904 18.8628 15.9241C18.8629 12.3487 15.8633 11.2579 13.0605 10.5004ZM11.1517 10.0156C9.50034 9.53081 8.21263 9.03089 8.21263 7.62195C8.21263 6.21302 9.37917 5.19797 11.1517 5.06166V10.0156ZM13.0605 19.0448V13.5304C14.7725 14.0152 16.1056 14.6666 16.0905 16.2573C16.0905 17.4087 15.3027 18.7722 13.0605 19.0448Z" fill="#F0F0F2"/>
</g>
<defs>
<clipPath id="clip0_0_119">
<rect width="24" height="24" fill="white"/>
</clipPath>
</defs>
</svg>
