<svg width="36" height="36" viewBox="0 0 36 36" fill="none" xmlns="http://www.w3.org/2000/svg">
<g clip-path="url(#clip0_2005_2293)">
<path d="M9.09084 24.0645C9.53103 24.6175 10.1909 24.9346 10.9007 24.9346H13.1448C13.5012 26.957 15.267 28.5 17.3899 28.5C19.5128 28.5 21.2787 26.957 21.635 24.9346H23.9055C24.6153 24.9346 25.2752 24.6175 25.7154 24.0645C26.1555 23.5115 26.3167 22.7974 26.1577 22.106L25.3389 18.5175C25.2466 18.1136 24.8423 17.8598 24.4409 17.9532C24.3212 17.9805 24.221 18.0409 24.1329 18.1148C23.924 18.2899 23.8121 18.5673 23.877 18.8511L24.6958 22.4415C24.7522 22.6854 24.6958 22.9366 24.542 23.1299C24.3882 23.3233 24.156 23.4346 23.9055 23.4346H10.9007C10.6502 23.4346 10.418 23.3233 10.2642 23.1299C10.1104 22.9366 10.054 22.6854 10.1104 22.4407L11.2324 17.5434C11.4031 16.808 11.5188 16.061 11.6301 15.3381L11.7415 14.6254C12.1568 12.1147 14.2068 10.1606 16.7271 9.8731C16.8786 9.85584 17.005 9.78434 17.1137 9.69324C17.3003 9.53687 17.4166 9.30295 17.387 9.0429C17.3401 8.63201 16.9724 8.33281 16.5571 8.38262C13.374 8.7459 10.7857 11.2123 10.2613 14.3826L10.147 15.1099C10.0357 15.8372 9.92946 16.5242 9.77126 17.2061L8.64846 22.1045C8.48952 22.7974 8.65066 23.5115 9.09084 24.0645ZM17.3899 27C16.0991 27 15.0198 26.1216 14.6893 24.9346H20.0905C19.76 26.1216 18.6808 27 17.3899 27Z" fill="#B6BDC7"/>
<g filter="url(#filter0_d_2005_2293)">
<path d="M22.8132 16.5314C22.8404 16.532 22.8668 16.5355 22.894 16.5355C25.385 16.5355 27.4116 14.5089 27.4116 12.0179C27.4116 9.52661 25.385 7.5 22.894 7.5C20.6528 7.5 18.7927 9.14241 18.4412 11.286C18.4021 11.5248 18.3765 11.7682 18.3765 12.0179C18.3765 14.4816 20.3598 16.4877 22.8132 16.5314ZM19.8765 12.0179C19.8765 10.3539 21.23 9 22.894 9C24.5581 9 25.9116 10.3539 25.9116 12.0179C25.9116 13.682 24.5581 15.0355 22.894 15.0355C21.23 15.0355 19.8765 13.682 19.8765 12.0179Z" fill="#EB5757"/>
</g>
</g>
<defs>
<filter id="filter0_d_2005_2293" x="10.3765" y="3.5" width="25.0352" height="25.0355" filterUnits="userSpaceOnUse" color-interpolation-filters="sRGB">
<feFlood flood-opacity="0" result="BackgroundImageFix"/>
<feColorMatrix in="SourceAlpha" type="matrix" values="0 0 0 0 0 0 0 0 0 0 0 0 0 0 0 0 0 0 127 0" result="hardAlpha"/>
<feOffset dy="4"/>
<feGaussianBlur stdDeviation="4"/>
<feComposite in2="hardAlpha" operator="out"/>
<feColorMatrix type="matrix" values="0 0 0 0 0.921569 0 0 0 0 0.341176 0 0 0 0 0.341176 0 0 0 1 0"/>
<feBlend mode="normal" in2="BackgroundImageFix" result="effect1_dropShadow_2005_2293"/>
<feBlend mode="normal" in="SourceGraphic" in2="effect1_dropShadow_2005_2293" result="shape"/>
</filter>
<clipPath id="clip0_2005_2293">
<rect width="24" height="24" fill="white" transform="translate(6 6)"/>
</clipPath>
</defs>
</svg>
