<svg width="20" height="20" viewBox="0 0 20 20" fill="none" xmlns="http://www.w3.org/2000/svg">
<path d="M10.5417 9.54167C9.20835 9.54167 8.12502 10.625 8.12502 11.9583V13.375C8.12502 13.75 8.41669 14.0417 8.79169 14.0417H12.2917C12.6667 14.0417 12.9584 13.75 12.9584 13.375V11.9583C12.9584 10.625 11.875 9.54167 10.5417 9.54167ZM12.125 13.2083H8.95835V11.9583C8.95835 11.0833 9.66669 10.375 10.5417 10.375C11.4167 10.375 12.125 11.0833 12.125 11.9583V13.2083ZM10.5417 9.08333C11.4584 9.08333 12.25 8.33333 12.25 7.375C12.25 6.45833 11.5 5.66667 10.5417 5.66667C9.62502 5.66667 8.83335 6.41667 8.83335 7.375C8.87502 8.33333 9.62502 9.08333 10.5417 9.08333ZM10.5417 6.54167C11 6.54167 11.4167 6.91667 11.4167 7.41667C11.4167 7.875 11.0417 8.29167 10.5417 8.29167C10.0834 8.29167 9.66669 7.91667 9.66669 7.41667C9.70835 6.91667 10.0834 6.54167 10.5417 6.54167ZM16.125 2.25H5.00002C4.25002 2.25 3.66669 2.83333 3.66669 3.58333V4.375H2.95835C2.70835 4.375 2.54169 4.54167 2.54169 4.79167C2.54169 5.04167 2.70835 5.20833 2.95835 5.20833H3.66669V7.83333H2.95835C2.70835 7.83333 2.54169 8 2.54169 8.25C2.54169 8.5 2.70835 8.66667 2.95835 8.66667H3.66669V11.2917H2.95835C2.70835 11.2917 2.54169 11.4583 2.54169 11.7083C2.54169 11.9583 2.70835 12.125 2.95835 12.125H3.66669V14.75H2.95835C2.70835 14.75 2.54169 14.9167 2.54169 15.1667C2.54169 15.4167 2.70835 15.5833 2.95835 15.5833H3.66669V16.4167C3.66669 17.1667 4.25002 17.75 5.00002 17.75H16.125C16.875 17.75 17.4584 17.1667 17.4584 16.4167V3.58333C17.4584 2.83333 16.875 2.25 16.125 2.25ZM16.625 16.4167C16.625 16.7083 16.4167 16.9167 16.125 16.9167H5.00002C4.70835 16.9167 4.50002 16.7083 4.50002 16.4167V15.5833H5.20835C5.45835 15.5833 5.62502 15.4167 5.62502 15.1667C5.62502 14.9167 5.45835 14.75 5.20835 14.75H4.50002V12.125H5.20835C5.45835 12.125 5.62502 11.9583 5.62502 11.7083C5.62502 11.4583 5.45835 11.2917 5.20835 11.2917H4.50002V8.66667H5.20835C5.45835 8.66667 5.62502 8.5 5.62502 8.25C5.62502 8 5.45835 7.83333 5.20835 7.83333H4.50002V5.20833H5.20835C5.45835 5.20833 5.62502 5.04167 5.62502 4.79167C5.62502 4.54167 5.45835 4.375 5.20835 4.375H4.50002V3.58333C4.50002 3.29167 4.70835 3.08333 5.00002 3.08333H16.125C16.4167 3.08333 16.625 3.29167 16.625 3.58333V16.4167Z" fill="#F0F0F2"/>
</svg>
