<svg width="20" height="20" viewBox="0 0 20 20" fill="none" xmlns="http://www.w3.org/2000/svg">
<path d="M16.694 10.0934C16.6939 11.2002 16.4193 12.2898 15.8948 13.2645C15.3703 14.2392 14.6123 15.0686 13.6887 15.6785C12.765 16.2884 11.7046 16.6598 10.6022 16.7594C9.49985 16.8589 8.39 16.6836 7.37201 16.2491C6.35403 15.8145 5.45968 15.1344 4.76902 14.2694C4.07837 13.4045 3.61297 12.3818 3.41448 11.2929C3.216 10.204 3.29062 9.08285 3.63167 8.02985C3.97272 6.97686 4.56956 6.02486 5.36875 5.25909C5.42798 5.20225 5.49783 5.15764 5.57431 5.1278C5.65078 5.09795 5.73238 5.08346 5.81446 5.08516C5.89653 5.08685 5.97747 5.10469 6.05265 5.13766C6.12783 5.17064 6.19577 5.21809 6.25261 5.27733C6.30945 5.33656 6.35406 5.40641 6.38391 5.48288C6.41375 5.55936 6.42824 5.64096 6.42655 5.72303C6.42485 5.80511 6.40701 5.88604 6.37404 5.96122C6.34107 6.0364 6.29361 6.10435 6.23438 6.16119C5.44963 6.9129 4.9078 7.88227 4.67864 8.94453C4.44948 10.0068 4.54347 11.1133 4.94852 12.1217C5.35357 13.1301 6.05113 13.9942 6.95143 14.6028C7.85172 15.2114 8.91355 15.5366 10.0003 15.5366C11.0869 15.5366 12.1488 15.2114 13.0491 14.6028C13.9494 13.9942 14.6469 13.1301 15.052 12.1217C15.457 11.1133 15.551 10.0068 15.3219 8.94453C15.0927 7.88227 14.5509 6.9129 13.7661 6.16119C13.7069 6.10435 13.6594 6.0364 13.6265 5.96122C13.5935 5.88604 13.5756 5.80511 13.574 5.72303C13.5723 5.64096 13.5868 5.55936 13.6166 5.48288C13.6464 5.40641 13.6911 5.33656 13.7479 5.27733C13.8047 5.21809 13.8727 5.17064 13.9479 5.13766C14.023 5.10469 14.104 5.08685 14.186 5.08516C14.2681 5.08346 14.3497 5.09795 14.4262 5.1278C14.5027 5.15764 14.5725 5.20225 14.6318 5.25909C15.2863 5.88219 15.8068 6.63232 16.1614 7.46356C16.516 8.2948 16.6973 9.18966 16.694 10.0934ZM10 10.9515C10.1658 10.9515 10.3247 10.8857 10.4419 10.7685C10.5592 10.6513 10.625 10.4923 10.625 10.3265V3.83728C10.625 3.67152 10.5592 3.51255 10.4419 3.39534C10.3247 3.27813 10.1658 3.21228 10 3.21228C9.83424 3.21228 9.67527 3.27813 9.55806 3.39534C9.44085 3.51255 9.375 3.67152 9.375 3.83728V10.3265C9.375 10.4923 9.44085 10.6513 9.55806 10.7685C9.67527 10.8857 9.83424 10.9515 10 10.9515Z" fill="#EB5757"/>
</svg>
