<svg width="40" height="40" viewBox="0 0 40 40" fill="none" xmlns="http://www.w3.org/2000/svg">
<path d="M39.4007 24.8391C36.7275 35.5538 25.878 42.0737 15.1584 39.4007C4.44657 36.7278 -2.07387 25.8754 0.599315 15.1645C3.26868 4.44975 14.1221 -2.07394 24.8339 0.599011C35.5535 3.26814 42.0739 14.1244 39.4007 24.8391Z" fill="#404040"/>
<path d="M29.0871 17.1491C29.4848 14.4877 27.4579 13.0575 24.6892 12.1015L25.5879 8.4955L23.3927 7.94867L22.517 11.4591C21.9395 11.3138 21.3467 11.1799 20.7578 11.0461L21.6374 7.51274L19.4422 6.96592L18.5435 10.5681C18.0655 10.461 17.5989 10.3501 17.1438 10.2392L17.1476 10.2278L14.1226 9.47061L13.5375 11.8147C13.5375 11.8147 15.1666 12.1895 15.1322 12.2124C16.0195 12.4342 16.1801 13.0231 16.1533 13.4896L15.1284 17.5965C15.1896 17.6118 15.2699 17.6348 15.3579 17.6692C15.2852 17.6501 15.2049 17.6309 15.1246 17.6118L13.6905 23.3631C13.5834 23.6346 13.3042 24.0399 12.6847 23.8831C12.7076 23.9137 11.0899 23.4854 11.0899 23.4854L10 25.9978L12.8568 26.709C13.3883 26.8429 13.9084 26.9805 14.4209 27.1144L13.5145 30.7624L15.7059 31.3093L16.6046 27.7033C17.205 27.8639 17.7863 28.0168 18.3523 28.1583L17.4574 31.749L19.6525 32.2958L20.5589 28.6554C24.3029 29.3629 27.1138 29.0761 28.2993 25.6919C29.2554 22.9654 28.2534 21.3937 26.2839 20.3689C27.7218 20.04 28.8003 19.0994 29.0871 17.1491ZM24.0734 24.1814C23.3965 26.9079 18.8074 25.4318 17.3197 25.0647L18.5244 20.2351C20.012 20.606 24.7848 21.3402 24.0734 24.1814ZM24.7542 17.1109C24.1346 19.5888 20.318 18.3307 19.0789 18.021L20.1727 13.6387C21.4079 13.9485 25.3966 14.5259 24.7542 17.1109Z" fill="#F0F0F2"/>
</svg>
