<svg width="40" height="40" viewBox="0 0 40 40" fill="none" xmlns="http://www.w3.org/2000/svg">
<path fill-rule="evenodd" clip-rule="evenodd" d="M20 3.125C10.6802 3.125 3.125 10.6802 3.125 20C3.125 29.3198 10.6802 36.875 20 36.875C29.3198 36.875 36.875 29.3198 36.875 20C36.875 10.6802 29.3198 3.125 20 3.125ZM1.875 20C1.875 9.98984 9.98984 1.875 20 1.875C30.0102 1.875 38.125 9.98984 38.125 20C38.125 30.0102 30.0102 38.125 20 38.125C9.98984 38.125 1.875 30.0102 1.875 20ZM20 6.25C12.4061 6.25 6.25 12.4061 6.25 20C6.25 27.5939 12.4061 33.75 20 33.75C27.5939 33.75 33.75 27.5939 33.75 20C33.75 12.4061 27.5939 6.25 20 6.25ZM5 20C5 11.7157 11.7157 5 20 5C28.2843 5 35 11.7157 35 20C35 28.2843 28.2843 35 20 35C11.7157 35 5 28.2843 5 20ZM26.875 16.25H20.625V29.375C20.625 29.7202 20.3452 30 20 30C19.6548 30 19.375 29.7202 19.375 29.375V16.25H13.125C12.7798 16.25 12.5 15.9702 12.5 15.625C12.5 15.2798 12.7798 15 13.125 15H20H26.875C27.2202 15 27.5 15.2798 27.5 15.625C27.5 15.9702 27.2202 16.25 26.875 16.25ZM13.125 11.25C12.7798 11.25 12.5 11.5298 12.5 11.875C12.5 12.2202 12.7798 12.5 13.125 12.5H26.875C27.2202 12.5 27.5 12.2202 27.5 11.875C27.5 11.5298 27.2202 11.25 26.875 11.25H13.125Z" fill="#F0F0F2"/>
</svg>
