<svg width="16" height="16" viewBox="0 0 16 16" fill="none" xmlns="http://www.w3.org/2000/svg">
<g clip-path="url(#clip0_29_1956)">
<path d="M8.47788 9.28448C8.47788 9.41392 8.58278 9.51886 8.71225 9.51886C8.84172 9.51886 8.94663 9.41392 8.94663 9.28448C8.94663 8.86298 8.61878 8.54799 8.23438 8.56933V8.43974C8.23438 8.3103 8.12947 8.20536 8.00001 8.20536C7.87057 8.20536 7.76563 8.3103 7.76563 8.43974V8.56933C7.37907 8.54327 7.0527 8.86958 7.05338 9.28448V9.60498C7.05145 10.0147 7.37907 10.3499 7.76563 10.3201V11.1334C7.63254 11.1495 7.52213 11.0497 7.52213 10.887C7.52213 10.7576 7.4172 10.6527 7.28776 10.6527C7.15832 10.6527 7.05338 10.7576 7.05338 10.887C7.05338 11.2967 7.37907 11.632 7.76563 11.6022V11.7318C7.76563 11.8613 7.87057 11.9662 8.00001 11.9662C8.12947 11.9662 8.23438 11.8613 8.23438 11.7318V11.6022C8.61725 11.6235 8.94766 11.3054 8.94663 10.887V10.5665C8.94756 10.1449 8.61875 9.8301 8.23438 9.85135V9.03808C8.36347 9.01592 8.47788 9.12633 8.47788 9.28448ZM7.76563 9.85142C7.63257 9.86751 7.52232 9.76767 7.52213 9.60501V9.28451C7.52182 9.1298 7.63691 9.01411 7.76563 9.03811V9.85142ZM8.47788 10.5665V10.8871C8.47591 11.0409 8.36491 11.1582 8.23438 11.1335V10.3202C8.36347 10.2979 8.47813 10.4084 8.47788 10.5665ZM9.07813 2.49663C9.07813 1.90217 8.59447 1.41851 8.00001 1.41851C7.40554 1.41851 6.92189 1.90217 6.92189 2.49663C6.92189 3.0911 7.40554 3.57475 8.00001 3.57475C8.59447 3.57475 9.07813 3.0911 9.07813 2.49663ZM7.39063 2.49663C7.39063 2.16063 7.66401 1.88726 8.00001 1.88726C8.336 1.88726 8.60938 2.16063 8.60938 2.49663C8.60938 2.83263 8.336 3.10601 8.00001 3.10601C7.66401 3.10601 7.39063 2.83263 7.39063 2.49663ZM8.00001 7.40024C6.5192 7.40024 5.31445 8.60498 5.31445 10.0858C5.31445 11.5666 6.5192 12.7713 8.00001 12.7713C9.48084 12.7713 10.6856 11.5666 10.6856 10.0858C10.6856 8.60498 9.48084 7.40024 8.00001 7.40024ZM8.00001 12.3026C6.77767 12.3026 5.7832 11.3081 5.7832 10.0858C5.7832 8.86345 6.77767 7.86899 8.00001 7.86899C9.22234 7.86899 10.2168 8.86345 10.2168 10.0858C10.2168 11.3081 9.22234 12.3026 8.00001 12.3026ZM14.9491 6.04981C15.4916 6.08374 16.0046 5.68928 16 5.11231V4.40919C15.9961 4.34203 15.974 4.25694 15.8769 4.20288L8.56819 0.151111C8.21244 -0.0461385 7.7876 -0.0461385 7.43182 0.151111L4.48308 1.78585C4.36986 1.8486 4.32896 1.99126 4.39174 2.10448C4.45449 2.2177 4.59718 2.25863 4.71036 2.19582L7.6591 0.561078C7.8726 0.442735 8.12747 0.442766 8.34094 0.561078L14.8595 4.17481H1.14056L3.74293 2.7321C3.85615 2.66935 3.89705 2.5267 3.83427 2.41348C3.77152 2.30026 3.62887 2.25935 3.51565 2.32213L0.123224 4.20285C0.0693495 4.23441 -0.00090023 4.30191 3.72661e-05 4.40919V5.11231C-0.00496271 5.66418 0.49391 6.11006 1.05091 6.04981L1.87503 7.20983V12.9617L1.05091 14.1217H0.54691C0.24538 14.1217 3.72661e-05 14.3671 3.72661e-05 14.6686V15.4499C3.72661e-05 15.7514 0.24538 15.9967 0.54691 15.9967H15.4531C15.7546 15.9967 16 15.7514 16 15.4499V14.6686C16 14.3671 15.7546 14.1217 15.4531 14.1217H14.9491L14.125 12.9617V7.20983L14.9491 6.04981ZM0.937534 5.58106C0.679066 5.58106 0.468785 5.37078 0.468785 5.11231V4.64356H15.5312V5.11231C15.5312 5.37078 15.3209 5.58106 15.0625 5.58106H0.937534ZM12.0078 10.287C12.1372 10.287 12.2421 10.1821 12.2421 10.0527V7.36943H13.6562V12.8022H12.2421V11.1464C12.2421 11.017 12.1372 10.912 12.0078 10.912C11.8783 10.912 11.7734 11.017 11.7734 11.1464V12.9617L10.9493 14.1217H5.05077L4.22665 12.9617V7.20983L5.05077 6.04981H10.9493L11.7734 7.20983V10.0527C11.7734 10.1821 11.8783 10.287 12.0078 10.287ZM1.62594 6.04981H4.47577L3.8713 6.90068H2.2304L1.62594 6.04981ZM3.7579 7.36943V12.8022H2.34378V7.36943H3.7579ZM2.2304 13.2709H3.87127L4.47574 14.1217H1.62594L2.2304 13.2709ZM15.4531 14.5905C15.4962 14.5905 15.5312 14.6256 15.5312 14.6686V15.4499C15.5312 15.4929 15.4962 15.528 15.4531 15.528H0.54691C0.503848 15.528 0.468785 15.4929 0.468785 15.4499V14.6686C0.468785 14.6256 0.503848 14.5905 0.54691 14.5905H15.4531ZM14.3741 14.1217H11.5243L12.1288 13.2709H13.7696L14.3741 14.1217ZM13.7696 6.90068H12.1288L11.5243 6.04981H14.3741L13.7696 6.90068Z" fill="#F0F0F2"/>
</g>
<defs>
<clipPath id="clip0_29_1956">
<rect width="16" height="16" fill="white"/>
</clipPath>
</defs>
</svg>
