<svg width="280" height="247" viewBox="0 0 280 247" fill="none" xmlns="http://www.w3.org/2000/svg">
<path d="M6.52248 103.648C10.6988 107.824 16.3631 110.17 22.2693 110.17C26.7063 110.17 31.0067 108.846 34.6424 106.416L18.7893 122.269C14.613 126.446 12.2666 132.11 12.2666 138.016C12.2666 143.922 14.6129 149.587 18.7893 153.763C22.9655 157.939 28.6298 160.286 34.5361 160.286C38.973 160.286 43.2733 158.961 46.9089 156.532L38.5889 164.852C34.4126 169.028 32.0664 174.693 32.0664 180.599C32.0664 186.505 34.4125 192.169 38.5889 196.346C42.7653 200.522 48.4296 202.868 54.3358 202.868C58.7727 202.868 63.0729 201.544 66.7085 199.115L64.6761 201.147C60.4998 205.323 58.1534 210.988 58.1534 216.894C58.1534 222.8 60.4997 228.464 64.6761 232.641C68.8523 236.817 74.5167 239.163 80.4229 239.163C86.3292 239.163 91.9935 236.817 96.1698 232.641L117.273 211.538C114.843 215.173 113.519 219.474 113.519 223.911C113.519 229.817 115.865 235.481 120.042 239.658C124.218 243.834 129.882 246.18 135.788 246.18C141.695 246.18 147.359 243.834 151.535 239.658L183.599 207.594C181.17 211.229 179.846 215.529 179.846 219.966C179.846 225.873 182.192 231.537 186.368 235.713C190.545 239.89 196.209 242.236 202.115 242.236C208.021 242.236 213.686 239.89 217.862 235.713L267.78 185.796C271.956 181.619 274.302 175.955 274.302 170.049C274.302 164.143 271.956 158.478 267.78 154.302C263.603 150.126 257.939 147.779 252.033 147.779C247.596 147.779 243.296 149.104 239.66 151.533L250.109 141.084C254.285 136.907 256.632 131.243 256.632 125.337C256.632 119.431 254.285 113.766 250.109 109.59C245.933 105.414 240.269 103.068 234.362 103.068C229.925 103.068 225.625 104.392 221.989 106.821L243.092 85.7183C247.269 81.5419 249.615 75.8776 249.615 69.9713C249.615 64.0651 247.269 58.4008 243.092 54.2245C238.916 50.0482 233.252 47.7019 227.346 47.7019C222.909 47.7019 218.608 49.0261 214.973 51.4554L228.412 38.0163C232.588 33.84 234.935 28.1757 234.935 22.2694C234.935 16.3631 232.588 10.6988 228.412 6.52257C224.236 2.34624 218.571 0 212.665 0C206.759 0 201.095 2.34624 196.918 6.52257L166.983 36.4573C169.413 32.8217 170.737 28.5214 170.737 24.0845C170.737 18.1783 168.391 12.5139 164.215 8.3377C160.038 4.16137 154.374 1.81505 148.468 1.81505C142.562 1.81505 136.897 4.16129 132.721 8.3377L90.7026 50.356C93.1321 46.7203 94.4564 42.42 94.4564 37.983C94.4564 32.0768 92.1102 26.4124 87.9339 22.2362C83.7575 18.0598 78.0932 15.7136 72.187 15.7136C66.2808 15.7136 60.6165 18.0598 56.4402 22.2362L6.52257 72.1538C2.34624 76.3301 0 81.9944 0 87.9006C0 93.8068 2.34616 99.4712 6.52248 103.648Z" fill="#0E111A"/>
<path d="M273.645 198.568L272.105 200.109C271.502 200.711 271.502 201.688 272.105 202.29C272.707 202.893 273.683 202.893 274.286 202.29L275.826 200.749L277.367 202.29C277.97 202.893 278.946 202.893 279.548 202.29C280.151 201.688 280.151 200.711 279.548 200.109L278.008 198.568L279.548 197.028C280.151 196.425 280.151 195.449 279.548 194.847C279.247 194.546 278.852 194.395 278.458 194.395C278.063 194.395 277.668 194.546 277.367 194.847L275.826 196.387L274.286 194.847C273.985 194.546 273.59 194.395 273.195 194.395C272.8 194.395 272.406 194.546 272.105 194.847C271.502 195.449 271.502 196.425 272.105 197.028L273.645 198.568Z" fill="#0E111A"/>
<path d="M53.466 231.767L51.9252 233.308C51.3229 233.91 51.3229 234.886 51.9252 235.489C52.5275 236.091 53.5039 236.091 54.1062 235.489L55.647 233.948L57.1878 235.489C57.7901 236.091 58.7665 236.091 59.3688 235.489C59.9711 234.886 59.9711 233.91 59.3688 233.308L57.8281 231.767L59.3688 230.226C59.9711 229.624 59.9711 228.647 59.3688 228.045C59.0677 227.744 58.673 227.593 58.2783 227.593C57.8836 227.593 57.489 227.744 57.1878 228.045L55.647 229.586L54.1062 228.045C53.8051 227.744 53.4104 227.593 53.0157 227.593C52.6211 227.593 52.2264 227.744 51.9252 228.045C51.3229 228.647 51.3229 229.624 51.9252 230.226L53.466 231.767Z" fill="#0E111A"/>
<path d="M14.0397 95.1835L12.4989 96.7242C11.8966 97.3265 11.8966 98.303 12.4989 98.9053C13.1012 99.5075 14.0776 99.5075 14.6799 98.9053L16.2207 97.3645L17.7615 98.9053C18.3638 99.5075 19.3402 99.5075 19.9425 98.9053C20.5448 98.303 20.5448 97.3266 19.9425 96.7242L18.4018 95.1835L19.9425 93.6427C20.5448 93.0404 20.5448 92.064 19.9425 91.4616C19.6414 91.1605 19.2467 91.01 18.852 91.01C18.4573 91.01 18.0627 91.1605 17.7615 91.4616L16.2207 93.0024L14.6799 91.4616C14.3788 91.1605 13.9841 91.01 13.5894 91.01C13.1948 91.01 12.8001 91.1605 12.4989 91.4616C11.8966 92.0639 11.8966 93.0404 12.4989 93.6427L14.0397 95.1835Z" fill="#0E111A"/>
<path d="M199.503 15.9925L197.962 17.5332C197.36 18.1355 197.36 19.112 197.962 19.7143C198.564 20.3165 199.541 20.3165 200.143 19.7143L201.684 18.1735L203.225 19.7143C203.827 20.3165 204.803 20.3165 205.406 19.7143C206.008 19.112 206.008 18.1355 205.406 17.5332L203.865 15.9925L205.406 14.4517C206.008 13.8494 206.008 12.8729 205.406 12.2707C205.105 11.9696 204.71 11.819 204.315 11.819C203.92 11.819 203.526 11.9696 203.225 12.2707L201.684 13.8114L200.143 12.2707C199.842 11.9696 199.447 11.819 199.053 11.819C198.658 11.819 198.263 11.9696 197.962 12.2707C197.36 12.8729 197.36 13.8494 197.962 14.4517L199.503 15.9925Z" fill="#0E111A"/>
<path d="M171.29 233.915C173.774 233.915 175.795 235.936 175.795 238.42C175.795 240.904 173.774 242.925 171.29 242.925C168.806 242.925 166.785 240.904 166.785 238.42C166.785 235.936 168.806 233.915 171.29 233.915ZM171.29 239.84C172.074 239.84 172.711 239.203 172.711 238.42C172.711 237.637 172.074 236.999 171.29 236.999C170.507 236.999 169.87 237.637 169.87 238.42C169.87 239.203 170.507 239.84 171.29 239.84Z" fill="#0E111A"/>
<path d="M256.196 90.3637C258.68 90.3637 260.701 92.3847 260.701 94.8687C260.701 97.3528 258.68 99.3737 256.196 99.3737C253.712 99.3737 251.691 97.3528 251.691 94.8687C251.691 92.3847 253.712 90.3637 256.196 90.3637ZM256.196 96.2893C256.98 96.2893 257.617 95.652 257.617 94.8687C257.617 94.0854 256.98 93.4482 256.196 93.4482C255.413 93.4482 254.776 94.0855 254.776 94.8687C254.776 95.652 255.413 96.2893 256.196 96.2893Z" fill="#0E111A"/>
<path d="M67.6042 18.0615C70.0882 18.0615 72.1091 20.0825 72.1091 22.5665C72.1091 25.0506 70.0882 27.0715 67.6042 27.0715C65.1201 27.0715 63.0992 25.0506 63.0992 22.5665C63.0993 20.0825 65.1202 18.0615 67.6042 18.0615ZM67.6042 23.9871C68.3875 23.9871 69.0247 23.3498 69.0247 22.5666C69.0247 21.7834 68.3874 21.146 67.6042 21.146C66.8208 21.146 66.1836 21.7833 66.1836 22.5666C66.1836 23.3499 66.8209 23.9871 67.6042 23.9871Z" fill="#0E111A"/>
<path d="M15.1218 158.721C17.6058 158.721 19.6267 160.742 19.6267 163.226C19.6267 165.71 17.6058 167.731 15.1218 167.731C12.6377 167.731 10.6168 165.71 10.6168 163.226C10.6168 160.742 12.6377 158.721 15.1218 158.721ZM15.1218 164.647C15.9051 164.647 16.5424 164.01 16.5424 163.226C16.5424 162.443 15.9051 161.806 15.1218 161.806C14.3384 161.806 13.7013 162.443 13.7013 163.226C13.7012 164.01 14.3384 164.647 15.1218 164.647Z" fill="#0E111A"/>
<path d="M6.52248 103.648C10.6988 107.824 16.3631 110.17 22.2693 110.17C26.7063 110.17 31.0067 108.846 34.6424 106.416L18.7893 122.269C14.613 126.446 12.2666 132.11 12.2666 138.016C12.2666 143.922 14.6129 149.587 18.7893 153.763C22.9655 157.939 28.6298 160.286 34.5361 160.286C38.973 160.286 43.2733 158.961 46.9089 156.532L38.5889 164.852C34.4126 169.028 32.0664 174.693 32.0664 180.599C32.0664 186.505 34.4125 192.169 38.5889 196.346C42.7652 200.522 48.4296 202.868 54.3358 202.868C58.7727 202.868 63.0729 201.544 66.7085 199.115L64.6761 201.147C60.4998 205.323 58.1534 210.988 58.1534 216.894C58.1534 222.8 60.4997 228.464 64.6761 232.641C68.8523 236.817 74.5167 239.163 80.4229 239.163C86.3292 239.163 91.9935 236.817 96.1698 232.641L117.273 211.538C114.843 215.173 113.519 219.474 113.519 223.911C113.519 229.817 115.865 235.481 120.042 239.658C124.218 243.834 129.882 246.18 135.788 246.18C141.695 246.18 147.359 243.834 151.535 239.658L183.599 207.594C181.17 211.229 179.846 215.529 179.846 219.966C179.846 225.873 182.192 231.537 186.368 235.713C190.545 239.89 196.209 242.236 202.115 242.236C208.021 242.236 213.686 239.89 217.862 235.713L267.78 185.796C271.956 181.619 274.302 175.955 274.302 170.049C274.302 164.143 271.956 158.478 267.78 154.302C263.603 150.126 257.939 147.779 252.033 147.779C247.596 147.779 243.296 149.104 239.66 151.533L250.109 141.084C254.285 136.907 256.632 131.243 256.632 125.337C256.632 119.431 254.285 113.766 250.109 109.59C245.933 105.414 240.269 103.068 234.362 103.068C229.925 103.068 225.625 104.392 221.989 106.821L243.092 85.7183C247.269 81.5419 249.615 75.8776 249.615 69.9713C249.615 64.0651 247.269 58.4008 243.092 54.2245C238.916 50.0482 233.252 47.7019 227.346 47.7019C222.909 47.7019 218.608 49.0261 214.973 51.4554L228.412 38.0163C232.588 33.84 234.935 28.1757 234.935 22.2694C234.935 16.3631 232.588 10.6988 228.412 6.52257C224.236 2.34624 218.571 0 212.665 0C206.759 0 201.095 2.34624 196.918 6.52257L166.983 36.4573C169.413 32.8217 170.737 28.5214 170.737 24.0845C170.737 18.1783 168.391 12.5139 164.215 8.3377C160.038 4.16137 154.374 1.81505 148.468 1.81505C142.562 1.81505 136.897 4.16129 132.721 8.3377L90.7026 50.356C93.1321 46.7203 94.4564 42.42 94.4564 37.983C94.4564 32.0768 92.1102 26.4124 87.9339 22.2362C83.7575 18.0598 78.0932 15.7136 72.187 15.7136C66.2808 15.7136 60.6165 18.0598 56.4402 22.2362L6.52257 72.1538C2.34624 76.3301 0 81.9944 0 87.9006C0 93.8068 2.34616 99.4712 6.52248 103.648Z" fill="#272A35"/>
<path d="M273.645 198.568L272.105 200.109C271.502 200.711 271.502 201.688 272.105 202.29C272.707 202.893 273.683 202.893 274.286 202.29L275.826 200.749L277.367 202.29C277.97 202.893 278.946 202.893 279.548 202.29C280.151 201.688 280.151 200.711 279.548 200.109L278.008 198.568L279.548 197.028C280.151 196.425 280.151 195.449 279.548 194.847C279.247 194.546 278.852 194.395 278.458 194.395C278.063 194.395 277.668 194.546 277.367 194.847L275.826 196.387L274.286 194.847C273.985 194.546 273.59 194.395 273.195 194.395C272.8 194.395 272.406 194.546 272.105 194.847C271.502 195.449 271.502 196.425 272.105 197.028L273.645 198.568Z" fill="#EB5757"/>
<path d="M53.466 231.767L51.9252 233.308C51.3229 233.91 51.3229 234.886 51.9252 235.489C52.5275 236.091 53.5039 236.091 54.1062 235.489L55.647 233.948L57.1878 235.489C57.7901 236.091 58.7665 236.091 59.3688 235.489C59.9711 234.886 59.9711 233.91 59.3688 233.308L57.8281 231.767L59.3688 230.226C59.9711 229.624 59.9711 228.647 59.3688 228.045C59.0677 227.744 58.673 227.593 58.2783 227.593C57.8836 227.593 57.489 227.744 57.1878 228.045L55.647 229.586L54.1062 228.045C53.8051 227.744 53.4104 227.593 53.0157 227.593C52.6211 227.593 52.2264 227.744 51.9252 228.045C51.3229 228.647 51.3229 229.624 51.9252 230.226L53.466 231.767Z" fill="#EB5757"/>
<path d="M14.0397 95.1835L12.4989 96.7242C11.8966 97.3265 11.8966 98.303 12.4989 98.9053C13.1012 99.5075 14.0776 99.5075 14.6799 98.9053L16.2207 97.3645L17.7615 98.9053C18.3638 99.5075 19.3402 99.5075 19.9425 98.9053C20.5448 98.303 20.5448 97.3266 19.9425 96.7242L18.4018 95.1835L19.9425 93.6427C20.5448 93.0404 20.5448 92.064 19.9425 91.4616C19.6414 91.1605 19.2467 91.01 18.852 91.01C18.4573 91.01 18.0627 91.1605 17.7615 91.4616L16.2207 93.0024L14.6799 91.4616C14.3788 91.1605 13.9841 91.01 13.5894 91.01C13.1948 91.01 12.8001 91.1605 12.4989 91.4616C11.8966 92.0639 11.8966 93.0404 12.4989 93.6427L14.0397 95.1835Z" fill="#EB5757"/>
<path d="M199.503 15.9925L197.962 17.5332C197.36 18.1355 197.36 19.112 197.962 19.7143C198.564 20.3165 199.541 20.3165 200.143 19.7143L201.684 18.1735L203.225 19.7143C203.827 20.3165 204.803 20.3165 205.406 19.7143C206.008 19.112 206.008 18.1355 205.406 17.5332L203.865 15.9925L205.406 14.4517C206.008 13.8494 206.008 12.8729 205.406 12.2707C205.105 11.9696 204.71 11.819 204.315 11.819C203.92 11.819 203.526 11.9696 203.225 12.2707L201.684 13.8114L200.143 12.2707C199.842 11.9696 199.447 11.819 199.053 11.819C198.658 11.819 198.263 11.9696 197.962 12.2707C197.36 12.8729 197.36 13.8494 197.962 14.4517L199.503 15.9925Z" fill="#EB5757"/>
<path d="M171.29 233.915C173.774 233.915 175.795 235.936 175.795 238.42C175.795 240.904 173.774 242.925 171.29 242.925C168.806 242.925 166.785 240.904 166.785 238.42C166.785 235.936 168.806 233.915 171.29 233.915ZM171.29 239.84C172.074 239.84 172.711 239.203 172.711 238.42C172.711 237.637 172.074 236.999 171.29 236.999C170.507 236.999 169.87 237.637 169.87 238.42C169.87 239.203 170.507 239.84 171.29 239.84Z" fill="#EB5757"/>
<path d="M256.196 90.3637C258.68 90.3637 260.701 92.3847 260.701 94.8687C260.701 97.3528 258.68 99.3737 256.196 99.3737C253.712 99.3737 251.691 97.3528 251.691 94.8687C251.691 92.3847 253.712 90.3637 256.196 90.3637ZM256.196 96.2893C256.98 96.2893 257.617 95.652 257.617 94.8687C257.617 94.0854 256.98 93.4482 256.196 93.4482C255.413 93.4482 254.776 94.0855 254.776 94.8687C254.776 95.652 255.413 96.2893 256.196 96.2893Z" fill="#EB5757"/>
<path d="M67.6042 18.0615C70.0882 18.0615 72.1091 20.0825 72.1091 22.5665C72.1091 25.0506 70.0882 27.0715 67.6042 27.0715C65.1201 27.0715 63.0992 25.0506 63.0992 22.5665C63.0993 20.0825 65.1202 18.0615 67.6042 18.0615ZM67.6042 23.9871C68.3875 23.9871 69.0247 23.3498 69.0247 22.5666C69.0247 21.7834 68.3874 21.146 67.6042 21.146C66.8208 21.146 66.1836 21.7833 66.1836 22.5666C66.1836 23.3499 66.8209 23.9871 67.6042 23.9871Z" fill="#EB5757"/>
<path d="M15.1218 158.721C17.6058 158.721 19.6267 160.742 19.6267 163.226C19.6267 165.71 17.6058 167.731 15.1218 167.731C12.6377 167.731 10.6168 165.71 10.6168 163.226C10.6168 160.742 12.6377 158.721 15.1218 158.721ZM15.1218 164.647C15.9051 164.647 16.5424 164.01 16.5424 163.226C16.5424 162.443 15.9051 161.806 15.1218 161.806C14.3384 161.806 13.7013 162.443 13.7013 163.226C13.7012 164.01 14.3384 164.647 15.1218 164.647Z" fill="#EB5757"/>
<path d="M222.151 196.144C222.151 196.997 221.459 197.689 220.606 197.689H49.8762C49.0235 197.689 48.3311 196.997 48.3311 196.144C48.3311 195.29 49.0235 194.599 49.8762 194.599H220.606C221.459 194.599 222.151 195.29 222.151 196.144Z" fill="#231F20"/>
<path d="M43.5011 197.688H36.4641C35.6108 197.688 34.919 196.997 34.919 196.143C34.919 195.29 35.6108 194.598 36.4641 194.598H43.5011C44.3544 194.598 45.0462 195.29 45.0462 196.143C45.0462 196.997 44.3545 197.688 43.5011 197.688Z" fill="#231F20"/>
<path d="M78.1547 190.116H71.1178C70.2644 190.116 69.5726 189.424 69.5726 188.571C69.5726 187.718 70.2644 187.026 71.1178 187.026H78.1547C79.0081 187.026 79.6998 187.718 79.6998 188.571C79.6998 189.424 79.0081 190.116 78.1547 190.116Z" fill="#231F20"/>
<path d="M64.7432 190.116H57.7062C56.8529 190.116 56.1611 189.424 56.1611 188.571C56.1611 187.718 56.8529 187.026 57.7062 187.026H64.7432C65.5965 187.026 66.2883 187.718 66.2883 188.571C66.2883 189.424 65.5965 190.116 64.7432 190.116Z" fill="#231F20"/>
<path d="M199.364 190.116H192.326C191.473 190.116 190.781 189.424 190.781 188.571C190.781 187.718 191.473 187.026 192.326 187.026H199.364C200.217 187.026 200.909 187.718 200.909 188.571C200.909 189.424 200.217 190.116 199.364 190.116Z" fill="#231F20"/>
<path d="M212.776 190.116H205.739C204.885 190.116 204.193 189.424 204.193 188.571C204.193 187.718 204.885 187.026 205.739 187.026H212.776C213.629 187.026 214.321 187.718 214.321 188.571C214.321 189.424 213.629 190.116 212.776 190.116Z" fill="#231F20"/>
<path d="M234.017 197.688H226.98C226.126 197.688 225.435 196.997 225.435 196.143C225.435 195.29 226.126 194.598 226.98 194.598H234.017C234.87 194.598 235.562 195.29 235.562 196.143C235.562 196.997 234.87 197.688 234.017 197.688Z" fill="#231F20"/>
<path d="M134.061 83.3027H120.489H96.9859V85.2057V87.2868H134.061V83.3027Z" fill="#EB5757"/>
<path d="M134.061 71.2543H96.9859V75.2379H134.061V71.2543Z" fill="#EB5757"/>
<path d="M110.945 111.384L108.39 108.828L106.962 107.4H96.9859V111.384H98.2187H110.945Z" fill="#EB5757"/>
<path d="M157.176 111.384H171.136V107.4H161.16L157.176 111.384Z" fill="#EB5757"/>
<path d="M147.128 121.433L149.127 123.433H171.136V119.449H149.112L147.128 121.433Z" fill="#EB5757"/>
<path d="M120.994 121.433L119.01 119.449H96.9859V123.433H118.995L120.994 121.433Z" fill="#EB5757"/>
<path d="M164.048 135.482H167.199H171.136V133.598V131.551V131.497H163.582H159.362H157.192L161.176 135.482H164.048Z" fill="#EB5757"/>
<path d="M128.491 143.546H125.014L124.281 144.279L121.03 147.53H121.517H147.091L145.292 145.731L143.107 143.546H128.491Z" fill="#EB5757"/>
<path d="M96.9859 143.546V147.53H106.865L102.882 143.546H96.9859Z" fill="#EB5757"/>
<path d="M161.256 147.53H171.136V143.546H165.24L161.256 147.53Z" fill="#EB5757"/>
<path d="M96.9859 159.578H123.569H148.856H171.136V157.775V155.727V155.595H96.9859V159.578Z" fill="#EB5757"/>
<path d="M96.9859 95.3518V99.3354H102.866L106.85 95.3518H96.9859Z" fill="#EB5757"/>
<path d="M165.255 99.3353H171.135V97.3347V95.3518H170.338H164.979H161.271L165.21 99.2895L165.255 99.3353Z" fill="#EB5757"/>
<path d="M125.03 99.3354H143.092L147.075 95.3518H121.046L125.03 99.3354Z" fill="#EB5757"/>
<path d="M138.892 107.401L137.047 109.246L136.641 109.652L136.64 109.652L136.639 109.653L135.274 111.018L134.908 111.384L134.061 112.231L131.077 109.247L129.23 107.401L121.165 99.3353L119.073 97.2431L117.181 95.3518L113.948 92.1184L110.714 95.3518L106.73 99.3353L104.746 101.32L105.634 102.209L110.242 106.817L114.809 111.384L122.875 119.449L124.859 121.433L122.859 123.433L118.757 127.535L118.755 127.537L118.753 127.538L118.752 127.54L116.349 129.943L114.794 131.498L112.7 133.593L112.695 133.598L109.773 136.519L107.545 138.748L104.746 141.546L105.88 142.68L106.746 143.546L110.73 147.53L113.55 150.35L113.948 150.748L114.362 150.334L115.81 148.886L134.061 130.635L134.924 131.498L135.045 131.619L136.493 133.067L137.047 133.621L138.907 135.482L148.868 145.442L150.762 147.336L154.174 150.748L156.283 148.639L157.73 147.191L161.375 143.546L163.375 141.546L157.311 135.482L153.327 131.498L145.262 123.433L143.262 121.433L145.246 119.449L146.217 118.48L146.22 118.476L163.375 101.32L161.986 99.931L161.391 99.3353L157.407 95.3518L154.174 92.1184L150.94 95.3518L146.956 99.3353L138.892 107.401Z" fill="#EB5757"/>
<path d="M133.56 63.1895H134.061V59.206H133.238H131.191H119.512H96.9859V61.0295V63.1895H119.669H133.56Z" fill="#EB5757"/>
<path d="M188.206 73.0549L187.246 72.0952L163.846 48.6947L154.684 39.5323C154.487 39.336 154.262 39.1799 154.019 39.0663C153.915 39.0177 153.808 38.9769 153.698 38.9438C153.479 38.8782 153.252 38.8445 153.023 38.8445H89.8205C88.6247 38.8445 87.4741 39.0436 86.4007 39.411C84.6345 40.015 83.0774 41.0735 81.8694 42.4464C80.2257 44.3135 79.2279 46.7609 79.2279 49.4383V169.346C79.2279 173.746 81.9229 177.527 85.7487 179.126C86.8646 179.592 88.0769 179.873 89.3467 179.929C89.5039 179.937 89.6616 179.94 89.8205 179.94H124.389H149.677H178.3C181.124 179.94 183.693 178.83 185.593 177.023C186.369 176.286 187.034 175.432 187.559 174.491C188.409 172.967 188.894 171.212 188.894 169.346V92.4437V74.7163C188.894 74.1051 188.655 73.5045 188.206 73.0549ZM89.8205 175.956C88.2722 175.956 86.8469 175.421 85.7189 174.526C84.1921 173.314 83.2114 171.443 83.2114 169.346V96.7196V71.4294V49.4383C83.2114 49.1647 83.228 48.8955 83.2605 48.6307C83.3885 47.5822 83.7636 46.6092 84.3245 45.7708C85.511 43.998 87.5314 42.8281 89.8205 42.8281H118.848H144.141H144.484H146.532H150.674V77.0649H184.91V169.346C184.91 169.939 184.832 170.514 184.684 171.061C184.172 172.969 182.824 174.539 181.06 175.352C180.22 175.74 179.285 175.956 178.3 175.956H173.595H89.8205Z" fill="#EB5757"/>
<path d="M100.169 135.482H106.946L109.916 132.511H109.916L110.929 131.497H97.7995H96.9859V135.482H98.1221H100.169Z" fill="#EB5757"/>
<path d="M93.4187 77.4026L93.5834 79.4368L95.6176 79.2721L132.572 76.2802L134.606 76.1155L134.441 74.0813L134.12 70.1107L133.955 68.0765L131.921 68.2412L94.9667 71.2331L92.9325 71.3978L93.0973 73.432L93.4187 77.4026ZM132.086 70.2754L132.407 74.246L95.4529 77.2379L95.1314 73.2673L132.086 70.2754Z" fill="#231F20"/>
<path d="M96.9853 59.2056H119.511L131.114 58.2662L131.19 59.2056H133.238L133.148 58.1013L132.983 56.0671L130.949 56.232L93.9946 59.2238L91.9604 59.3882L92.1253 61.4224L92.4469 65.3933L92.6112 67.4275L94.6455 67.2626L131.6 64.2708L133.634 64.1064L133.56 63.1891H119.669L94.4811 65.2283L94.1595 61.258L96.9853 61.0291V59.2056Z" fill="#231F20"/>
<path d="M178.3 175.956C179.285 175.956 180.22 175.74 181.06 175.351L173.595 175.956H178.3Z" fill="#231F20"/>
<path d="M189.054 69.1368C188.959 67.968 188.416 66.9062 187.522 66.1467L151.404 35.4389C151.014 35.1074 150.574 34.8487 150.095 34.67C149.895 34.5955 149.688 34.5348 149.479 34.4902C149.061 34.4008 148.632 34.3727 148.206 34.4074L93.399 38.8449L86.4005 39.4114L85.2102 39.5079C78.2668 40.07 73.0747 46.1766 73.6373 53.1205L79.2277 122.172L83.3132 172.637C83.5102 175.074 84.3899 177.294 85.7485 179.126C88.2632 182.516 92.4183 184.576 96.9258 184.211L149.677 179.94H124.389L96.7609 182.177C93.9881 182.401 91.3741 181.532 89.3465 179.93C87.6344 178.577 86.3398 176.704 85.7187 174.526C85.5312 173.868 85.4049 173.181 85.3475 172.473L83.2112 146.087L79.2277 96.8849L75.671 52.9561C75.3009 48.3802 77.9094 44.2389 81.8692 42.4468C82.9487 41.9575 84.1279 41.6431 85.3751 41.5422L118.688 38.8449L148.37 36.4417C148.599 36.4229 148.829 36.4383 149.052 36.4863C149.164 36.5101 149.274 36.542 149.382 36.5823C149.633 36.6761 149.87 36.8134 150.082 36.9932L152.26 38.8449L163.846 48.6951L186.2 67.7011C186.684 68.1125 186.971 68.6923 187.02 69.3018L187.246 72.0955L188.206 73.0553C188.655 73.5048 188.894 74.1055 188.894 74.7167V92.4441L194.657 163.623C195.054 168.537 192.016 172.95 187.558 174.491C187.034 175.433 186.369 176.286 185.593 177.024C192.296 176.228 197.24 170.243 196.69 163.458L189.054 69.1368Z" fill="#231F20"/>
<path d="M85.6968 45.5119C85.2219 45.5505 84.763 45.6382 84.3245 45.7706C83.7635 46.609 83.3885 47.582 83.2605 48.6306C83.9671 48.0238 84.8645 47.6273 85.8612 47.5462L144.141 42.8279H118.848L85.6968 45.5119Z" fill="#231F20"/>
<path d="M188.894 169.02C190.14 167.705 190.843 165.887 190.686 163.944L188.894 141.809L184.911 92.6068L183.652 77.0648L183.239 71.9637C178.149 72.3758 162.192 73.6676 150.674 74.5998C150.144 74.6428 149.624 74.6847 149.114 74.7261L146.532 42.8279H144.484L147.08 74.891L147.244 76.9252L149.279 76.7603L150.674 76.6472L181.37 74.1623L181.605 77.0648L184.911 117.895L188.652 164.109C188.843 166.469 187.195 168.562 184.911 168.974C184.765 169 184.617 169.019 184.466 169.032L98.9389 175.956L96.2752 176.172C95.6475 176.223 95.0386 176.143 94.4754 175.956C92.7854 175.396 91.5051 173.87 91.3529 171.986L83.2115 71.4292V96.7194L89.3187 172.151C89.4372 173.614 90.0258 174.928 90.9232 175.956C92.2559 177.483 94.2697 178.382 96.4396 178.206L124.229 175.956L184.631 171.066C184.649 171.064 184.667 171.063 184.684 171.061C186.352 170.913 187.824 170.152 188.894 169.02Z" fill="#231F20"/>
<path d="M98.4456 139.484L100.48 139.319L107.545 138.748L109.773 136.519L100.315 137.285L100.169 135.482H98.1218L98.2807 137.45L98.4456 139.484Z" fill="#231F20"/>
<path d="M114.794 131.497L116.349 129.942L113.727 130.155L99.8291 131.28L97.7949 131.445L97.7993 131.497H110.929L109.916 132.511L113.892 132.189L112.7 133.592L114.794 131.497Z" fill="#231F20"/>
<path d="M98.9319 145.489L99.0974 147.53L99.2535 149.46L99.4184 151.493L101.453 151.329L111.3 150.532L113.55 150.35L110.73 147.53L106.747 143.547L105.881 142.681L105.7 142.893L100.802 143.29L98.7675 143.454L98.7747 143.547L98.9319 145.489ZM104.383 145.047L106.843 144.848L111.135 148.498L101.288 149.295L101.145 147.53L100.966 145.324L104.383 145.047Z" fill="#231F20"/>
<path d="M161.531 147.53L162.503 146.386L165.513 146.142L171.136 145.687L175.36 145.345L177.395 145.18L177.23 143.146L176.909 139.175L176.744 137.141L174.709 137.305L169.811 137.702L168.3 136.417L167.199 135.481H164.048L166.978 137.972L165.145 140.127L161.496 144.419L158.549 147.887L157.731 147.191L155.081 144.939L150.789 141.29L142.1 133.902L140.095 132.197L137.808 130.253L136.878 129.463L136.088 130.392L135.045 131.619L134.145 132.677L132.439 134.684L125.051 143.373L124.281 144.279L125.014 143.546H128.491L128.903 143.062L145.17 141.745L146.937 141.602L151.23 145.251L148.868 145.442L145.292 145.731L147.091 147.53H121.517L121.402 147.666L118.454 151.133L115.81 148.885L114.362 150.333L117.132 152.688L118.601 153.936L101.773 155.299L99.7391 155.464L99.7496 155.595L99.904 157.498L100.073 159.578L100.226 161.468L100.39 163.502L102.424 163.338L148.856 159.578H123.569L102.26 161.304L102.12 159.578L101.938 157.333L123.407 155.595L175.847 151.349L176.168 155.32L171.136 155.727V157.775L176.333 157.354L178.367 157.19L178.202 155.155L177.88 151.184L177.716 149.15L175.682 149.315L158.855 150.678L160.103 149.209L161.531 147.53ZM165.826 143.546L168.998 139.816L174.874 139.34L175.196 143.311L171.136 143.639L165.348 144.108L165.826 143.546ZM143.276 139.851L129.797 140.942L133.994 136.006L135.7 133.999L136.493 133.067L137.111 132.339L138.773 133.752L140.778 135.457L145.714 139.653L143.276 139.851ZM118.76 153.924L120.009 152.455L122.409 149.632L125.419 149.388L150.762 147.336L151.394 147.285L154.403 147.042L156.283 148.639L157.226 149.441L158.695 150.69L118.76 153.924Z" fill="#231F20"/>
<path d="M171.471 97.3073L173.505 97.1424L173.341 95.1082L173.019 91.1373L172.854 89.1036L170.82 89.268L160.988 90.0639L157.979 90.3077L155.139 87.8934L153.584 86.5713L152.262 88.1262L149.847 90.9658L146.838 91.2096L120.894 93.31L117.884 93.5538L115.044 91.1395L113.592 89.9051L133.544 88.2895L135.579 88.1251L135.414 86.0909L135.093 82.12L134.928 80.0858L132.894 80.2507L95.9394 83.2425L93.9052 83.4069L94.0701 85.4411L94.3912 89.412L94.5561 91.4462L96.5903 91.2813L113.402 89.9205L112.168 91.3723L109.753 94.2124L106.743 94.4557L96.9119 95.2516L94.8776 95.4165L95.042 97.4508L95.3636 101.422L95.5285 103.455L97.5628 103.291L102.476 102.893L103.971 104.164L106.768 106.542L97.8838 107.261L95.8495 107.426L96.0145 109.46L96.336 113.431L96.5004 115.465L98.5347 115.3L112.448 114.174L115.458 113.93L119.75 117.579L98.8562 119.27L96.822 119.435L96.9853 121.449L96.9869 121.47L97.1458 123.433L97.3085 125.44L97.4729 127.475L99.5071 127.31L120.385 125.619L118.756 127.535L122.859 123.433L124.858 121.433L122.874 119.449L114.809 111.384L110.242 106.817L105.293 102.609L105.634 102.208L107.111 100.47L110.76 96.1782L113.722 92.6944L117.206 95.6565L119.072 97.2428L121.498 99.3052L130.188 106.693L132.177 108.385L134.48 110.342L135.274 111.018L135.393 111.118L136.169 110.206L136.639 109.653L136.64 109.652L136.64 109.651L138.127 107.902L139.818 105.914L147.206 97.2241L150.855 92.9322L153.817 89.4484L157.301 92.4104L161.593 96.0591L163.731 97.8777L161.986 99.9307L158.162 104.428L154.513 108.721L147.125 117.41L146.22 118.476L146.216 118.479L145.307 119.548L147.31 121.251L147.462 121.38L149.877 123.433L156.151 128.768L159.362 131.497H163.581L160.003 128.456L173.902 127.331L174.223 131.301L171.135 131.551V133.598L174.387 133.335L176.422 133.171L176.257 131.137L175.936 127.166L175.771 125.131L173.737 125.296L159.839 126.422L156.829 126.665L153.027 123.433L152.538 123.016L171.135 121.511L173.416 121.326L175.45 121.161L175.285 119.127L174.963 115.157L174.799 113.122L172.765 113.287L151.871 114.978L155.52 110.687L158.081 110.479L158.529 110.443L171.135 109.422L172.443 109.316L174.477 109.152L174.312 107.118L173.991 103.147L173.827 101.113L171.792 101.278L162.908 101.997L165.21 99.2892L161.271 95.3514H164.979L161.153 92.0982L170.985 91.3022L171.306 95.2731L170.338 95.3514H171.135V97.3344L171.471 97.3073ZM123.111 121.345L121.279 123.499L99.3427 125.275L99.1932 123.433L99.0212 121.305L119.229 119.669L120.974 119.527L123.111 121.345ZM108.389 108.828L112.284 112.139L98.3703 113.266L98.218 111.384H96.9853V107.4H106.961L108.389 108.828ZM103.259 100.782L97.3978 101.257L97.2423 99.335L97.0763 97.2858L105.605 96.5952L106.908 96.4899L103.259 100.782ZM96.4254 89.247L96.1038 85.2767L96.9853 85.2056V83.3026H120.488L133.058 82.2849L133.141 83.3026L133.38 86.2552L120.639 87.2867L96.4254 89.247ZM138.263 104.592L136.573 106.579L135.16 108.242L133.5 106.83L131.51 105.139L126.574 100.942L142.46 99.656L138.263 104.592ZM145.211 95.3514L143.354 97.5363L125.35 98.9935L121.066 95.3514L121.058 95.3443L147.003 93.2438L145.211 95.3514ZM172.929 115.321L173.251 119.292L171.135 119.463L151.314 121.068L149.41 119.449L149.159 119.236L150.977 117.098L172.929 115.321ZM171.957 103.312L172.278 107.282L170.82 107.4L160.309 108.251L158.365 108.409L162.014 104.117L171.957 103.312Z" fill="#231F20"/>
<path d="M113.038 184.053L111.742 184.16C111.08 184.215 110.587 184.796 110.641 185.459C110.696 186.121 111.277 186.614 111.94 186.559L113.236 186.452C113.311 186.446 113.384 186.433 113.454 186.414C114.003 186.265 114.385 185.741 114.336 185.154C114.282 184.491 113.7 183.998 113.038 184.053Z" fill="#231F20"/>
<path d="M107.664 184.497L106.368 184.604C105.706 184.658 105.213 185.24 105.267 185.902C105.322 186.565 105.903 187.058 106.566 187.003L107.862 186.896C107.937 186.89 108.01 186.877 108.08 186.858C108.629 186.708 109.011 186.185 108.962 185.597C108.908 184.935 108.326 184.442 107.664 184.497Z" fill="#231F20"/>
<path d="M102.289 184.94L100.993 185.047C100.331 185.102 99.838 185.683 99.8928 186.346C99.9474 187.008 100.529 187.501 101.191 187.447L102.487 187.34C102.562 187.333 102.635 187.32 102.706 187.301C103.254 187.152 103.636 186.628 103.588 186.041C103.533 185.378 102.952 184.886 102.289 184.94Z" fill="#231F20"/>
<path d="M128.888 182.832L127.592 182.939C126.93 182.994 126.437 183.575 126.491 184.238C126.546 184.9 127.127 185.393 127.79 185.338L129.086 185.232C129.161 185.225 129.234 185.212 129.304 185.193C129.853 185.044 130.235 184.52 130.186 183.933C130.132 183.27 129.55 182.778 128.888 182.832Z" fill="#231F20"/>
<path d="M123.513 183.275L122.217 183.382C121.555 183.437 121.062 184.018 121.116 184.681C121.171 185.343 121.752 185.836 122.415 185.781L123.711 185.674C123.786 185.668 123.859 185.655 123.929 185.636C124.478 185.487 124.86 184.963 124.811 184.376C124.757 183.713 124.175 183.22 123.513 183.275Z" fill="#231F20"/>
<path d="M118.138 183.719L116.842 183.826C116.179 183.88 115.687 184.462 115.741 185.124C115.796 185.787 116.377 186.28 117.04 186.225L118.336 186.118C118.411 186.112 118.484 186.099 118.554 186.08C119.103 185.93 119.485 185.407 119.436 184.819C119.382 184.157 118.8 183.664 118.138 183.719Z" fill="#231F20"/>
<path d="M166.852 46.1236L167.847 46.9605C167.905 47.0092 167.966 47.0514 168.029 47.0874C168.524 47.368 169.163 47.2653 169.543 46.8144C169.971 46.3058 169.905 45.5464 169.397 45.1184L168.402 44.2814C167.893 43.8537 167.134 43.9188 166.706 44.4275C166.278 44.9362 166.343 45.6955 166.852 46.1236Z" fill="#231F20"/>
<path d="M162.725 42.6518L163.72 43.4888C163.778 43.5373 163.839 43.5796 163.902 43.6156C164.397 43.8962 165.037 43.7935 165.416 43.3426C165.844 42.8339 165.779 42.0745 165.27 41.6465L164.275 40.8095C163.767 40.3816 163.007 40.4469 162.579 40.9557C162.151 41.4644 162.217 42.2237 162.725 42.6518Z" fill="#231F20"/>
<path d="M158.599 39.1798L159.594 40.0168C159.652 40.0654 159.713 40.1077 159.776 40.1436C160.271 40.4242 160.911 40.3216 161.29 39.8706C161.718 39.3619 161.653 38.6025 161.144 38.1746L160.149 37.3376C159.64 36.9097 158.881 36.975 158.453 37.4837C158.025 37.9924 158.091 38.7519 158.599 39.1798Z" fill="#231F20"/>
<path d="M178.96 56.4226L179.955 57.2596C180.013 57.3082 180.074 57.3505 180.137 57.3865C180.632 57.6671 181.272 57.5644 181.651 57.1135C182.079 56.6048 182.014 55.8455 181.505 55.4174L180.51 54.5805C180.001 54.1528 179.242 54.2178 178.814 54.7266C178.386 55.2353 178.451 55.9947 178.96 56.4226Z" fill="#231F20"/>
<path d="M174.834 52.9509L175.829 53.7878C175.887 53.8364 175.948 53.8787 176.011 53.9146C176.506 54.1952 177.146 54.0925 177.525 53.6417C177.953 53.133 177.888 52.3736 177.379 51.9456L176.384 51.1086C175.875 50.6807 175.116 50.746 174.688 51.2547C174.26 51.7635 174.325 52.5229 174.834 52.9509Z" fill="#231F20"/>
<path d="M170.707 49.4787L171.702 50.3157C171.76 50.3643 171.821 50.4066 171.884 50.4426C172.379 50.7232 173.019 50.6205 173.398 50.1696C173.826 49.6609 173.761 48.9015 173.252 48.4735L172.257 47.6366C171.749 47.2086 170.989 47.274 170.561 47.7827C170.133 48.2914 170.199 49.0508 170.707 49.4787Z" fill="#231F20"/>
<path d="M67.5933 131.001L65.6415 132.953C65.2305 133.364 65.2305 134.031 65.6415 134.442C66.0526 134.853 66.719 134.853 67.13 134.442L69.0817 132.49C69.4928 132.079 69.4928 131.412 69.0817 131.001C68.6707 130.59 68.0043 130.59 67.5933 131.001Z" fill="#231F20"/>
<path d="M75.8694 122.725L73.9176 124.677C73.5065 125.088 73.5065 125.754 73.9176 126.165C74.3286 126.576 74.995 126.576 75.406 126.165L77.3578 124.213C77.7688 123.802 77.7688 123.136 77.3578 122.725C76.9468 122.314 76.2803 122.314 75.8694 122.725Z" fill="#231F20"/>
<path d="M75.406 131.001C74.995 130.59 74.3286 130.59 73.9176 131.001C73.5065 131.412 73.5065 132.079 73.9176 132.49L75.8694 134.442C76.2804 134.853 76.9468 134.853 77.3578 134.442C77.7688 134.031 77.7688 133.364 77.3578 132.953L75.406 131.001Z" fill="#231F20"/>
<path d="M67.13 122.725C66.7189 122.314 66.0525 122.314 65.6415 122.725C65.2305 123.136 65.2305 123.802 65.6415 124.213L67.5933 126.165C68.0043 126.576 68.6708 126.576 69.0817 126.165C69.4928 125.754 69.4928 125.088 69.0817 124.677L67.13 122.725Z" fill="#231F20"/>
<path d="M185.535 61.6804L186.914 60.3017C187.204 60.0114 187.204 59.5406 186.914 59.2503C186.624 58.9599 186.153 58.9599 185.863 59.2503L184.484 60.629C184.194 60.9193 184.194 61.3901 184.484 61.6804C184.774 61.9707 185.245 61.9707 185.535 61.6804Z" fill="#231F20"/>
<path d="M191.381 55.8342L192.759 54.4555C193.05 54.1652 193.05 53.6944 192.759 53.4041C192.469 53.1137 191.998 53.1137 191.708 53.4041L190.329 54.7828C190.039 55.0731 190.039 55.5439 190.329 55.8342C190.62 56.1246 191.09 56.1246 191.381 55.8342Z" fill="#231F20"/>
<path d="M191.708 61.6804C191.999 61.9708 192.47 61.9708 192.76 61.6804C193.05 61.3901 193.05 60.9193 192.76 60.629L191.381 59.2503C191.091 58.9599 190.62 58.9599 190.33 59.2503C190.039 59.5406 190.039 60.0114 190.33 60.3017L191.708 61.6804Z" fill="#231F20"/>
<path d="M185.863 55.8349C186.153 56.1252 186.624 56.1252 186.914 55.8349C187.204 55.5445 187.204 55.0738 186.914 54.7835L185.535 53.4048C185.245 53.1145 184.774 53.1145 184.484 53.4048C184.194 53.6952 184.194 54.1659 184.484 54.4563L185.863 55.8349Z" fill="#231F20"/>
<path d="M139.701 187.881L138.322 189.26C138.032 189.551 138.032 190.021 138.322 190.312C138.612 190.602 139.083 190.602 139.373 190.312L140.752 188.933C141.042 188.643 141.042 188.172 140.752 187.881C140.462 187.591 139.991 187.591 139.701 187.881Z" fill="#231F20"/>
<path d="M145.546 182.035L144.168 183.414C143.877 183.704 143.877 184.175 144.168 184.465C144.458 184.756 144.929 184.756 145.219 184.465L146.598 183.087C146.888 182.796 146.888 182.326 146.598 182.035C146.308 181.745 145.837 181.745 145.546 182.035Z" fill="#231F20"/>
<path d="M145.219 187.882C144.929 187.591 144.458 187.591 144.168 187.882C143.877 188.172 143.877 188.643 144.168 188.933L145.546 190.312C145.837 190.602 146.308 190.602 146.598 190.312C146.888 190.021 146.888 189.551 146.598 189.26L145.219 187.882Z" fill="#231F20"/>
<path d="M139.373 182.035C139.083 181.745 138.612 181.745 138.322 182.035C138.032 182.326 138.032 182.796 138.322 183.087L139.701 184.465C139.991 184.756 140.462 184.756 140.752 184.465C141.042 184.175 141.042 183.704 140.752 183.414L139.373 182.035Z" fill="#231F20"/>
<path d="M100.861 36.494L102.239 35.1153C102.53 34.8249 102.53 34.3542 102.239 34.0639C101.949 33.7735 101.478 33.7735 101.188 34.0639L99.8093 35.4426C99.519 35.7329 99.519 36.2036 99.8093 36.494C100.1 36.7843 100.57 36.7843 100.861 36.494Z" fill="#231F20"/>
<path d="M106.707 30.6479L108.085 29.2692C108.376 28.9789 108.376 28.5081 108.085 28.2178C107.795 27.9274 107.324 27.9274 107.034 28.2178L105.655 29.5965C105.365 29.8868 105.365 30.3576 105.655 30.6479C105.946 30.9383 106.416 30.9383 106.707 30.6479Z" fill="#231F20"/>
<path d="M107.034 36.4939C107.324 36.7843 107.795 36.7843 108.085 36.4939C108.376 36.2036 108.376 35.7328 108.085 35.4426L106.707 34.0639C106.416 33.7735 105.946 33.7735 105.655 34.0639C105.365 34.3542 105.365 34.8249 105.655 35.1153L107.034 36.4939Z" fill="#231F20"/>
<path d="M101.188 30.6479C101.478 30.9383 101.949 30.9383 102.239 30.6479C102.53 30.3576 102.53 29.8868 102.239 29.5965L100.861 28.2178C100.57 27.9274 100.1 27.9274 99.8093 28.2178C99.519 28.5081 99.519 28.9789 99.8093 29.2692L101.188 30.6479Z" fill="#231F20"/>
<path d="M198.219 143.431L196.84 144.81C196.55 145.101 196.55 145.571 196.84 145.862C197.13 146.152 197.601 146.152 197.891 145.862L199.27 144.483C199.56 144.193 199.56 143.722 199.27 143.431C198.98 143.141 198.509 143.141 198.219 143.431Z" fill="#231F20"/>
<path d="M203.737 140.016L205.116 138.637C205.406 138.347 205.406 137.876 205.116 137.586C204.825 137.296 204.355 137.296 204.064 137.586L202.686 138.965C202.395 139.255 202.395 139.726 202.686 140.016C202.976 140.306 203.447 140.306 203.737 140.016Z" fill="#231F20"/>
<path d="M203.737 143.432C203.447 143.142 202.976 143.142 202.686 143.432C202.395 143.723 202.395 144.193 202.686 144.484L204.064 145.862C204.355 146.153 204.825 146.153 205.116 145.862C205.406 145.572 205.406 145.101 205.116 144.811L203.737 143.432Z" fill="#231F20"/>
<path d="M197.891 137.586C197.601 137.296 197.13 137.296 196.84 137.586C196.55 137.876 196.55 138.347 196.84 138.637L198.219 140.016C198.509 140.307 198.98 140.307 199.27 140.016C199.56 139.726 199.56 139.255 199.27 138.965L197.891 137.586Z" fill="#231F20"/>
</svg>
