<svg width="36" height="36" viewBox="0 0 36 36" fill="none" xmlns="http://www.w3.org/2000/svg">
<g clip-path="url(#clip0_106_1791)">
<path d="M11.75 27.375H14.25C14.4158 27.375 14.5747 27.3092 14.6919 27.1919C14.8092 27.0747 14.875 26.9158 14.875 26.75C14.875 26.5842 14.8092 26.4253 14.6919 26.3081C14.5747 26.1908 14.4158 26.125 14.25 26.125H11.75C11.2529 26.1244 10.7763 25.9267 10.4248 25.5752C10.0733 25.2237 9.87556 24.7471 9.875 24.25V21.75C9.875 21.5842 9.80915 21.4253 9.69194 21.3081C9.57473 21.1908 9.41576 21.125 9.25 21.125C9.08424 21.125 8.92527 21.1908 8.80806 21.3081C8.69085 21.4253 8.625 21.5842 8.625 21.75V24.25C8.62586 25.0785 8.95538 25.8729 9.54124 26.4588C10.1271 27.0446 10.9215 27.3741 11.75 27.375Z" fill="#B6BDC7"/>
<path d="M26.75 21.125C26.5842 21.125 26.4253 21.1908 26.3081 21.3081C26.1908 21.4253 26.125 21.5842 26.125 21.75V24.25C26.1244 24.7471 25.9267 25.2237 25.5752 25.5752C25.2237 25.9267 24.7471 26.1244 24.25 26.125H21.75C21.5842 26.125 21.4253 26.1908 21.3081 26.3081C21.1908 26.4253 21.125 26.5842 21.125 26.75C21.125 26.9158 21.1908 27.0747 21.3081 27.1919C21.4253 27.3092 21.5842 27.375 21.75 27.375H24.25C25.0785 27.3741 25.8729 27.0446 26.4588 26.4588C27.0446 25.8729 27.3741 25.0785 27.375 24.25V21.75C27.375 21.5842 27.3092 21.4253 27.1919 21.3081C27.0747 21.1908 26.9158 21.125 26.75 21.125Z" fill="#B6BDC7"/>
<path d="M24.25 8.625H21.75C21.5842 8.625 21.4253 8.69085 21.3081 8.80806C21.1908 8.92527 21.125 9.08424 21.125 9.25C21.125 9.41576 21.1908 9.57473 21.3081 9.69194C21.4253 9.80915 21.5842 9.875 21.75 9.875H24.25C24.7471 9.87556 25.2237 10.0733 25.5752 10.4248C25.9267 10.7763 26.1244 11.2529 26.125 11.75V14.25C26.125 14.4158 26.1908 14.5747 26.3081 14.6919C26.4253 14.8092 26.5842 14.875 26.75 14.875C26.9158 14.875 27.0747 14.8092 27.1919 14.6919C27.3092 14.5747 27.375 14.4158 27.375 14.25V11.75C27.3741 10.9215 27.0446 10.1271 26.4588 9.54124C25.8729 8.95538 25.0785 8.62586 24.25 8.625Z" fill="#B6BDC7"/>
<path d="M9.25 14.875C9.41576 14.875 9.57473 14.8092 9.69194 14.6919C9.80915 14.5747 9.875 14.4158 9.875 14.25V11.75C9.87556 11.2529 10.0733 10.7763 10.4248 10.4248C10.7763 10.0733 11.2529 9.87556 11.75 9.875H14.25C14.4158 9.875 14.5747 9.80915 14.6919 9.69194C14.8092 9.57473 14.875 9.41576 14.875 9.25C14.875 9.08424 14.8092 8.92527 14.6919 8.80806C14.5747 8.69085 14.4158 8.625 14.25 8.625H11.75C10.9215 8.62586 10.1271 8.95538 9.54124 9.54124C8.95538 10.1271 8.62586 10.9215 8.625 11.75V14.25C8.625 14.4158 8.69085 14.5747 8.80806 14.6919C8.92527 14.8092 9.08424 14.875 9.25 14.875Z" fill="#B6BDC7"/>
<path d="M9.875 18C9.875 18.1658 9.94085 18.3247 10.0581 18.4419C10.1753 18.5592 10.3342 18.625 10.5 18.625H25.5C25.6658 18.625 25.8247 18.5592 25.9419 18.4419C26.0592 18.3247 26.125 18.1658 26.125 18C26.125 17.8342 26.0592 17.6753 25.9419 17.5581C25.8247 17.4408 25.6658 17.375 25.5 17.375H10.5C10.3342 17.375 10.1753 17.4408 10.0581 17.5581C9.94085 17.6753 9.875 17.8342 9.875 18Z" fill="#B6BDC7"/>
</g>
<defs>
<clipPath id="clip0_106_1791">
<rect width="20" height="20" fill="white" transform="translate(8 8)"/>
</clipPath>
</defs>
</svg>
