<svg width="32" height="32" viewBox="0 0 32 32" fill="none" xmlns="http://www.w3.org/2000/svg">
<path d="M24.0235 29.6618C23.7647 29.6297 23.5292 29.8136 23.4971 30.0724C23.4279 30.6328 22.9492 31.0554 22.3831 31.0554H3.87542C3.25642 31.0554 2.75261 30.5522 2.75261 29.9326V10.8122L5.3213 19.2807C5.38298 19.4847 5.57067 19.6164 5.7728 19.6164C5.81811 19.6164 5.86473 19.6094 5.91005 19.5956C6.16005 19.5201 6.30111 19.2562 6.22492 19.0068L3.86848 11.2372C4.18967 12.0364 4.97305 12.6025 5.88673 12.6025C7.08573 12.6025 8.0618 11.6264 8.0618 10.4274C8.0618 9.58837 8.0618 5.65106 8.0618 5.00231C11.2089 4.04719 14.9883 2.90137 18.4901 1.83919C18.7395 1.763 18.8805 1.49975 18.805 1.24975C18.7288 1.00037 18.4649 0.859311 18.2155 0.934874L9.47805 3.58537C8.97361 2.59669 7.9453 1.9185 6.7608 1.9185C5.07942 1.9185 3.71167 3.28625 3.71167 4.96762V5.33475L3.28973 5.46256C2.41192 5.72837 1.82248 6.52312 1.82248 7.44L1.80798 7.99919V29.9326C1.80798 31.0731 2.73555 32 3.87536 32H22.383C23.4252 32 24.3069 31.221 24.4347 30.1882C24.467 29.9294 24.2824 29.6933 24.0235 29.6618ZM4.65636 4.96769C4.65636 3.80712 5.6003 2.86312 6.76092 2.86312C7.51786 2.86312 8.18286 3.26487 8.55311 3.86631L7.73823 4.11319C6.9893 3.25169 5.56655 3.67981 5.42523 4.81469C5.40861 4.94494 5.41442 9.49131 5.41455 9.6655C5.41455 9.92619 5.62611 10.1378 5.88686 10.1378C6.14761 10.1378 6.35917 9.92625 6.35917 9.6655C6.35917 9.31769 6.35917 5.18619 6.35917 4.97969C6.35917 4.77062 6.52917 4.60056 6.7383 4.60056C6.94742 4.60056 7.11742 4.77056 7.11742 4.97969C7.11742 5.627 7.11742 9.70725 7.11742 10.4274C7.11742 11.1056 6.56517 11.6579 5.88692 11.6579C5.20867 11.6579 4.65642 11.1057 4.65642 10.4274C4.65636 9.26169 4.65636 6.14737 4.65636 4.96769ZM3.09586 6.64969C3.09648 6.64844 3.09711 6.64781 3.09773 6.64844C3.1408 6.619 3.34823 6.40337 3.71173 6.35181C3.72705 10.5961 3.67717 10.4841 3.75705 10.8701L2.81567 7.76681C2.69111 7.35169 2.81498 6.93231 3.09586 6.64969Z" fill="#71757F"/>
<path d="M23.5789 1.46826C23.2377 0.343757 22.0661 -0.235993 21.0008 0.0904448L20.0235 0.386445C19.7741 0.462632 19.6331 0.725882 19.7086 0.975882C19.7842 1.22526 20.0481 1.36632 20.2974 1.29076C21.2236 1.02307 21.3253 0.945695 21.6016 0.945695C22.0909 0.945695 22.533 1.27313 22.6753 1.74294L24.0324 6.21782L24.4505 7.59569L29.1974 23.2457C29.3829 23.8522 29.0235 24.472 28.4492 24.6462C9.53043 30.3847 10.6653 30.0669 10.4119 30.0669C9.92199 30.0669 9.48055 29.7394 9.33824 29.2696L6.77337 20.8143C6.6978 20.5649 6.43393 20.4238 6.18455 20.4994C5.93455 20.5756 5.79412 20.8394 5.86968 21.0888L8.43393 29.5442C8.7003 30.422 9.49499 31.0114 10.4119 31.0114C10.6147 31.0114 10.8169 30.9812 11.0127 30.922L23.5059 27.1323V28.2419C23.5059 28.5026 23.7168 28.7142 23.9782 28.7142C24.2389 28.7142 24.4505 28.5026 24.4505 28.2419V26.8458L28.7232 25.5498C29.601 25.2834 30.1911 24.4887 30.1911 23.5724C30.1911 22.9976 30.424 24.1411 23.5789 1.46826Z" fill="#71757F"/>
<path d="M16.1271 11.4864C15.7279 10.1701 14.6719 10.1072 14.041 10.0698C13.4713 10.028 13.0754 10.0542 12.9464 9.62894C12.8226 9.22076 13.1101 9.00969 13.5192 8.88557C14.1175 8.70407 14.3256 8.94057 14.6131 8.85332C14.9512 8.75076 15.0337 8.34938 14.9614 8.11119C14.8076 7.60407 14.0342 7.65632 13.62 7.72382L13.5624 7.53394C13.4677 7.22151 13.1364 7.04444 12.824 7.13919C12.5116 7.23394 12.3345 7.56519 12.4293 7.87769L12.5084 8.13844C11.8489 8.57213 11.6157 9.23069 11.8516 10.0084C12.1914 11.1286 13.0843 11.1867 13.8017 11.2333C14.5174 11.2798 14.8686 11.3261 15.0323 11.8659C15.1731 12.3301 14.9972 12.6196 14.4789 12.7768C13.6436 13.0301 13.5182 12.4139 13.0627 12.5521C12.7628 12.643 12.6252 13.0269 12.707 13.2964C12.8411 13.7387 13.5245 14.0183 14.273 13.9562L14.3301 14.1444C14.4249 14.4569 14.7561 14.6339 15.0686 14.5391C15.3811 14.4444 15.5581 14.1131 15.4633 13.8006L15.4024 13.5999C16.1389 13.1577 16.4031 12.3961 16.1271 11.4864Z" fill="#71757F"/>
<path d="M23.3839 13.9651C23.3082 13.7154 23.0442 13.5746 22.7948 13.6502L9.33117 17.7341C9.08161 17.8099 8.94061 18.0736 9.01629 18.3232C9.09167 18.5716 9.35448 18.7141 9.60536 18.6381L23.069 14.5541C23.3186 14.4783 23.4596 14.2146 23.3839 13.9651Z" fill="#71757F"/>
<path d="M24.1704 16.5566C24.0941 16.3072 23.8302 16.1661 23.5809 16.2417L23.506 16.2644L10.1174 20.3255C9.86799 20.4017 9.72693 20.6649 9.80249 20.9149C9.87849 21.1654 10.1436 21.3047 10.3919 21.2298C10.3993 21.2276 23.8283 17.1542 23.8555 17.146C24.1049 17.0697 24.2459 16.8059 24.1704 16.5566Z" fill="#71757F"/>
<path d="M24.9562 19.1479C24.8818 18.9034 24.6235 18.7573 24.3674 18.833L23.5059 19.0943L10.9032 22.9174C10.3857 23.0742 10.5002 23.8418 11.0404 23.8418C11.0857 23.8418 11.1317 23.8349 11.1777 23.8211C14.1747 22.912 21.4594 20.7024 24.6412 19.7372C24.8907 19.6617 25.0317 19.3979 24.9562 19.1479Z" fill="#71757F"/>
<path d="M25.7421 21.7399C25.6665 21.4905 25.4026 21.3494 25.1533 21.425L24.4505 21.6385C12.5466 25.2489 11.7308 25.4963 11.6909 25.5084C11.6908 25.5084 11.6908 25.5085 11.6906 25.5085L11.6908 25.5084C11.6904 25.5086 11.69 25.5087 11.6898 25.5088L11.6899 25.5087C11.6898 25.5087 11.6897 25.5088 11.6897 25.5088C11.1711 25.6656 11.2871 26.4333 11.8263 26.4333C11.9327 26.4333 11.1414 26.6646 25.4272 22.3287C25.6772 22.2531 25.8183 21.9892 25.7421 21.7399Z" fill="#71757F"/>
<path d="M11.6909 25.5087H11.6911C11.6922 25.5082 11.693 25.508 11.693 25.508C11.6927 25.5081 11.6919 25.5084 11.6909 25.5087Z" fill="#71757F"/>
</svg>
