<svg width="20" height="20" viewBox="0 0 20 20" fill="none" xmlns="http://www.w3.org/2000/svg">
<path fill-rule="evenodd" clip-rule="evenodd" d="M14.3506 17.3431L14.375 17.3438L14.395 17.3419C14.485 17.3306 14.8438 17.2619 14.8438 16.875C14.8438 13.855 12.395 11.4062 9.375 11.4062C8.96 11.4062 8.54 11.4062 8.125 11.4062C5.105 11.4062 2.65625 13.855 2.65625 16.875C2.65625 16.8844 2.65625 16.8944 2.6575 16.9037C2.66437 17.0556 2.72937 17.1556 2.80875 17.2206C2.89187 17.2969 3.00313 17.3438 3.125 17.3438C3.125 17.3438 3.59375 17.3169 3.59375 16.875C3.59375 14.3725 5.6225 12.3438 8.125 12.3438H9.375C11.8775 12.3438 13.9062 14.3725 13.9062 16.875C13.9062 16.8844 13.9063 16.8944 13.9075 16.9037C13.9144 17.0556 13.9794 17.1556 14.0588 17.2206C14.1362 17.2919 14.2388 17.3375 14.3506 17.3431Z" fill="#EB5757"/>
<path fill-rule="evenodd" clip-rule="evenodd" d="M8.75 2.65625C6.07687 2.65625 3.90625 4.82687 3.90625 7.5C3.90625 10.1731 6.07687 12.3438 8.75 12.3438C11.4231 12.3438 13.5938 10.1731 13.5938 7.5C13.5938 4.82687 11.4231 2.65625 8.75 2.65625ZM8.75 3.59375C10.9056 3.59375 12.6562 5.34438 12.6562 7.5C12.6562 9.65562 10.9056 11.4062 8.75 11.4062C6.59438 11.4062 4.84375 9.65562 4.84375 7.5C4.84375 5.34438 6.59438 3.59375 8.75 3.59375Z" fill="#EB5757"/>
<path fill-rule="evenodd" clip-rule="evenodd" d="M15.3312 12.8312L17.8312 10.3312C18.0144 10.1487 18.0144 9.85122 17.8312 9.66872C17.6487 9.48559 17.3512 9.48559 17.1687 9.66872L14.6687 12.1687C14.4856 12.3512 14.4856 12.6487 14.6687 12.8312C14.8512 13.0143 15.1487 13.0143 15.3312 12.8312Z" fill="#EB5757"/>
<path fill-rule="evenodd" clip-rule="evenodd" d="M17.8312 12.1687L15.3312 9.66872C15.1487 9.48559 14.8512 9.48559 14.6687 9.66872C14.4856 9.85122 14.4856 10.1487 14.6687 10.3312L17.1687 12.8312C17.3512 13.0143 17.6487 13.0143 17.8312 12.8312C18.0144 12.6487 18.0144 12.3512 17.8312 12.1687Z" fill="#EB5757"/>
</svg>
