<svg width="35" height="35" viewBox="0 0 35 35" fill="none" xmlns="http://www.w3.org/2000/svg">
<path d="M18.8467 24.2334V14.8955C18.8467 14.1025 19.4892 13.46 20.2822 13.46H25.4912C26.2842 13.46 26.9267 14.1025 26.9267 14.8955V24.2334H30.5771C31.2197 24.2334 31.5342 25.0059 31.083 25.457L23.9053 32.6484C23.3447 33.209 22.4355 33.209 21.875 32.6484L14.6836 25.457C14.2324 25.0059 14.5537 24.2334 15.1894 24.2334H18.8467ZM8.07323 10.7666V20.1045C8.07323 20.8975 8.71581 21.54 9.50878 21.54H14.7178C15.5107 21.54 16.1533 20.8975 16.1533 20.1045V10.7666H19.8037C20.4463 10.7666 20.7676 9.99414 20.3096 9.54297L13.1318 2.35156C12.5713 1.79102 11.6621 1.79102 11.1015 2.35156L3.91014 9.53613C3.45897 9.9873 3.78026 10.7598 4.416 10.7598L8.07323 10.7666Z" fill="#F0F0F2"/>
</svg>
