<svg width="8" height="7" viewBox="0 0 8 7" fill="none" xmlns="http://www.w3.org/2000/svg">
<path d="M3.72662 0.11787C3.80616 -0.0393084 4.03062 -0.0393087 4.11016 0.11787L5.20027 2.2722C5.22424 2.31956 5.26489 2.35639 5.3144 2.37557L7.69951 3.29959C7.88255 3.37051 7.88255 3.62949 7.69951 3.70041L5.3144 4.62444C5.26489 4.64361 5.22424 4.68044 5.20027 4.7278L4.11016 6.88213C4.03062 7.03931 3.80616 7.03931 3.72662 6.88213L2.63651 4.72781C2.61254 4.68044 2.57188 4.64361 2.52238 4.62444L0.137271 3.70041C-0.0457688 3.62949 -0.0457691 3.37051 0.137271 3.29959L2.52238 2.37557C2.57188 2.35639 2.61254 2.31956 2.63651 2.2722L3.72662 0.11787Z" fill="#F0F0F2"/>
</svg>
