<svg width="24" height="24" viewBox="0 0 24 24" fill="none" xmlns="http://www.w3.org/2000/svg">
<path d="M19.2487 3.8625H18.3525V2.96766C18.3525 1.33125 17.0217 0 15.3862 0H4.75125C3.11484 0 1.78359 1.33125 1.78359 2.96766V17.1698C1.78359 18.8062 3.11484 20.1375 4.75125 20.1375H5.64609V21.0323C5.64609 22.6688 6.97734 24 8.61375 24H19.2487C20.8852 24 22.2164 22.6688 22.2164 21.0323V6.83016C22.2164 5.19375 20.8852 3.8625 19.2487 3.8625ZM5.64609 6.83016V18.6375H4.75125C3.94219 18.6375 3.28359 17.9789 3.28359 17.1698V2.96766C3.28359 2.15812 3.94219 1.5 4.75125 1.5H15.3862C16.1948 1.5 16.8525 2.15859 16.8525 2.96766V3.8625H8.61375C6.97734 3.8625 5.64609 5.19375 5.64609 6.83016ZM20.7164 21.0323C20.7164 21.8414 20.0578 22.5 19.2487 22.5H8.61375C7.80469 22.5 7.14609 21.8414 7.14609 21.0323V6.83016C7.14609 6.02109 7.80469 5.3625 8.61375 5.3625H19.2487C20.0578 5.3625 20.7164 6.02109 20.7164 6.83016V21.0323Z" fill="#F0F0F2"/>
</svg>
