<svg width="24" height="24" viewBox="0 0 24 24" fill="none" xmlns="http://www.w3.org/2000/svg">
<path d="M22.1217 9.8913H20.9176V8.22851C20.9172 7.3902 20.5984 6.58334 20.0258 5.97108C19.4531 5.35882 18.6694 4.98685 17.833 4.93039C17.6918 4.47585 17.4125 4.07661 17.0339 3.78817C16.6553 3.49974 16.1963 3.33646 15.7206 3.32104H4.11396C2.85662 3.32104 1.83375 4.4574 1.83375 5.85404V6.4332C1.88985 7.0077 1.43598 7.53645 1.50344 8.22854L1.50335 17.3709C1.50275 18.2464 1.84943 19.0863 2.46731 19.7065C3.0852 20.3266 3.92385 20.6764 4.79928 20.679H17.6217C18.4971 20.6763 19.3357 20.3266 19.9536 19.7064C20.5715 19.0863 20.9182 18.2464 20.9176 17.3709V15.7096H22.1217C22.1709 15.7096 22.2197 15.7 22.2652 15.6811C22.3107 15.6623 22.352 15.6347 22.3868 15.5999C22.4217 15.5651 22.4493 15.5237 22.4681 15.4782C22.4869 15.4327 22.4966 15.384 22.4966 15.3347V10.2662C22.4966 10.2169 22.4869 10.1682 22.4681 10.1227C22.4493 10.0772 22.4217 10.0359 22.3868 10.001C22.352 9.96623 22.3107 9.93861 22.2652 9.91978C22.2197 9.90095 22.1709 9.89128 22.1217 9.8913ZM4.11396 4.07079H15.7206C15.9934 4.08065 16.2583 4.16501 16.4866 4.31473C16.7149 4.46446 16.8978 4.67383 17.0156 4.92013H4.79929C3.98074 4.92295 3.19273 5.23121 2.58953 5.78454C2.62163 4.83403 3.29053 4.07079 4.11396 4.07079ZM20.1679 17.3709C20.1687 18.0476 19.9011 18.6969 19.4237 19.1765C18.9464 19.6561 18.2983 19.9268 17.6217 19.9292H4.79929C4.12264 19.9268 3.47457 19.6561 2.99724 19.1765C2.5199 18.6969 2.25229 18.0476 2.25311 17.3709V8.22851C2.25587 7.55292 2.52463 6.90561 3.00118 6.42673C3.47774 5.94785 4.12374 5.67595 4.79931 5.66991L17.6217 5.66989C18.298 5.67362 18.9453 5.94479 19.4224 6.42417C19.8994 6.90356 20.1674 7.55223 20.1678 8.22853L20.1679 9.8913H16.0208C15.7226 9.89163 15.4367 10.0102 15.2259 10.2211C15.0151 10.4319 14.8965 10.7178 14.8961 11.0159V14.585C14.8965 14.8831 15.0151 15.169 15.2259 15.3798C15.4367 15.5907 15.7226 15.7093 16.0208 15.7096H20.1679V17.3709ZM21.7468 14.9599H16.0208C15.9214 14.9598 15.8261 14.9203 15.7558 14.85C15.6855 14.7797 15.646 14.6844 15.6459 14.585V11.0159C15.646 10.9165 15.6855 10.8212 15.7558 10.7509C15.8261 10.6806 15.9214 10.6411 16.0208 10.6411H21.7468V14.9599Z" fill="#71757F"/>
<path d="M18.2487 13.4826C18.3411 13.4872 18.4334 13.4729 18.5202 13.4407C18.6069 13.4084 18.6861 13.3589 18.7531 13.2951C18.8201 13.2313 18.8735 13.1546 18.9099 13.0695C18.9464 12.9845 18.9652 12.893 18.9652 12.8005C18.9652 12.7079 18.9464 12.6164 18.9099 12.5314C18.8735 12.4463 18.8201 12.3696 18.7531 12.3058C18.6861 12.242 18.6068 12.1925 18.5201 12.1603C18.4334 12.1281 18.3411 12.1138 18.2487 12.1183C18.1563 12.1138 18.0639 12.1281 17.9772 12.1603C17.8905 12.1925 17.8112 12.242 17.7442 12.3058C17.6772 12.3696 17.6239 12.4464 17.5874 12.5314C17.551 12.6164 17.5322 12.708 17.5322 12.8005C17.5322 12.893 17.551 12.9846 17.5874 13.0696C17.6239 13.1546 17.6772 13.2313 17.7442 13.2951C17.8112 13.3589 17.8905 13.4084 17.9772 13.4407C18.0639 13.4729 18.1563 13.4872 18.2487 13.4826Z" fill="#71757F"/>
<path d="M5.53299 8.90577H8.43939C8.48862 8.90577 8.53737 8.89607 8.58285 8.87723C8.62834 8.85839 8.66966 8.83078 8.70447 8.79597C8.73928 8.76116 8.7669 8.71983 8.78574 8.67435C8.80458 8.62886 8.81427 8.58012 8.81427 8.53089C8.81427 8.48166 8.80458 8.43291 8.78574 8.38743C8.7669 8.34194 8.73928 8.30062 8.70447 8.26581C8.66966 8.231 8.62834 8.20338 8.58285 8.18454C8.53737 8.1657 8.48862 8.15601 8.43939 8.15601H5.53299C5.43483 8.15792 5.34134 8.19826 5.27259 8.26835C5.20385 8.33845 5.16534 8.43271 5.16534 8.53089C5.16534 8.62906 5.20385 8.72332 5.27259 8.79342C5.34134 8.86351 5.43483 8.90385 5.53299 8.90577Z" fill="#71757F"/>
<path d="M10.5025 10.6777H5.53294C5.4348 10.6796 5.34133 10.72 5.27261 10.7901C5.20389 10.8602 5.1654 10.9544 5.16541 11.0526C5.16541 11.1507 5.20391 11.245 5.27263 11.3151C5.34135 11.3852 5.43482 11.4255 5.53296 11.4274H10.5025C10.6006 11.4255 10.6941 11.3851 10.7628 11.3151C10.8315 11.245 10.87 11.1507 10.87 11.0526C10.87 10.9544 10.8315 10.8601 10.7628 10.7901C10.6941 10.72 10.6006 10.6796 10.5025 10.6777Z" fill="#71757F"/>
</svg>
