<svg width="20" height="20" viewBox="0 0 20 20" fill="none" xmlns="http://www.w3.org/2000/svg">
<path d="M16.7206 4.31568L11.5625 1.33818C10.5994 0.780679 9.40061 0.781304 8.43748 1.33818L3.27936 4.31568C2.31561 4.87255 1.71686 5.90943 1.71686 7.02255V12.9782C1.71686 14.0913 2.31561 15.1282 3.27936 15.6851L8.43748 18.6626C8.91936 18.9413 9.45998 19.0801 9.99998 19.0801C10.54 19.0801 11.0806 18.9407 11.5625 18.6626L16.7206 15.6844C17.6844 15.1276 18.2831 14.0907 18.2831 12.9776V7.02193C18.2831 5.9088 17.6844 4.87193 16.7206 4.31505V4.31568ZM17.0331 12.9782C17.0331 13.6457 16.6737 14.2682 16.0956 14.6019L10.9375 17.5801C10.3587 17.9138 9.64123 17.9144 9.06248 17.5801L3.90436 14.6019C3.32623 14.2682 2.96686 13.6457 2.96686 12.9782V7.02193C2.96686 6.35443 3.32623 5.73193 3.90436 5.39818L9.06248 2.42005C9.35186 2.25318 9.67561 2.16943 9.99998 2.16943C10.3244 2.16943 10.6481 2.25318 10.9375 2.42005L16.0956 5.39818C16.6737 5.73193 17.0331 6.35443 17.0331 7.02193V12.9782Z" fill="#F0F0F2"/>
<path d="M9.99999 6.42749C8.03061 6.42749 6.42749 8.02999 6.42749 9.99999C6.42749 11.97 8.02999 13.5725 9.99999 13.5725C11.97 13.5725 13.5725 11.97 13.5725 9.99999C13.5725 8.02999 11.97 6.42749 9.99999 6.42749ZM9.99999 12.3231C8.71936 12.3231 7.67749 11.2812 7.67749 10.0006C7.67749 8.71999 8.71936 7.67811 9.99999 7.67811C11.2806 7.67811 12.3225 8.71999 12.3225 10.0006C12.3225 11.2812 11.2806 12.3231 9.99999 12.3231Z" fill="#F0F0F2"/>
</svg>
