<svg width="8" height="8" viewBox="0 0 8 8" fill="none" xmlns="http://www.w3.org/2000/svg">
<path d="M3.80261 0.12841C3.87846 -0.0428892 4.12154 -0.0428897 4.19739 0.12841L5.29119 2.59882C5.31291 2.64788 5.35212 2.68709 5.40118 2.70881L7.87159 3.80261C8.04289 3.87846 8.04289 4.12154 7.87159 4.19739L5.40118 5.29119C5.35212 5.31291 5.31291 5.35212 5.29119 5.40118L4.19739 7.87159C4.12154 8.04289 3.87846 8.04289 3.80261 7.87159L2.70881 5.40118C2.68709 5.35212 2.64788 5.31291 2.59882 5.29119L0.12841 4.19739C-0.0428892 4.12154 -0.0428897 3.87846 0.12841 3.80261L2.59882 2.70881C2.64788 2.68709 2.68709 2.64788 2.70881 2.59882L3.80261 0.12841Z" fill="#F0F0F2"/>
</svg>
