<svg width="24" height="24" viewBox="0 0 24 24" fill="none" xmlns="http://www.w3.org/2000/svg">
<path d="M8.1729 15.3697C6.69531 15.3697 4.98787 14.5552 4 13.3263V16.8248C4.85315 17.6854 6.68872 18.2545 8.1729 18.2545C11.4464 18.2545 13.0401 15.7212 15.8271 15.7212C17.6959 15.7212 18.7876 16.7042 20 17.7646V14.2661C19.2051 13.7682 17.2762 12.8364 15.8271 12.8364C12.9731 12.8364 10.6381 15.3697 8.1729 15.3697Z" fill="#B6BDC7"/>
<path d="M15.8271 6C12.9731 6 10.6381 8.53324 8.1729 8.53324C6.69531 8.53324 4.98787 7.71885 4 6.48995V9.9884C4.85315 10.849 6.68834 11.4182 8.1729 11.4182C11.4464 11.4182 13.0401 8.88487 15.8271 8.88487C17.6959 8.88487 18.7876 9.86784 20 10.9282V7.42972C19.2051 6.93196 17.2762 6 15.8271 6Z" fill="#B6BDC7"/>
</svg>
