<svg width="48" height="48" viewBox="0 0 48 48" fill="none" xmlns="http://www.w3.org/2000/svg">
<g clip-path="url(#clip0_32_1735)">
<path d="M40 23.7875V24.1894C39.8896 25.2523 39.4458 26.0773 38.6688 26.6644C38.4729 26.8127 38.1098 27.0152 37.5794 27.2719C29.4998 31.1823 21.4202 35.0933 13.3406 39.005C12.7977 39.2679 12.414 39.4281 12.1894 39.4856C11.694 39.6127 11.1887 39.6221 10.6737 39.5137C9.14812 39.1931 8.125 37.9425 8 36.3875V36.1031C8.025 35.706 8.11083 35.3237 8.2575 34.9562C9.715 31.3096 11.1708 27.6679 12.625 24.0312C12.6342 24.0087 12.6342 23.9862 12.625 23.9637C11.1613 20.3058 9.69896 16.6512 8.23812 13C8.11687 12.6971 8.0375 12.3519 8 11.9644V11.5644C8.11062 10.3087 8.79125 9.27561 9.9175 8.73874C10.6813 8.37457 11.4717 8.31165 12.2888 8.54999C12.5079 8.61374 12.8904 8.7777 13.4363 9.04186C21.4662 12.9294 29.4967 16.816 37.5275 20.7019C38.0642 20.9614 38.4288 21.1619 38.6213 21.3031C39.4254 21.8927 39.885 22.7208 40 23.7875ZM11.4631 10.6544C10.6275 10.5625 10.0169 11.4125 10.3269 12.1887C11.7444 15.7404 13.1648 19.2954 14.5881 22.8537C14.591 22.8613 14.5962 22.8678 14.6029 22.8724C14.6096 22.877 14.6175 22.8794 14.6256 22.8794H36.8444C36.8474 22.8794 36.8503 22.8784 36.8526 22.8765C36.8549 22.8746 36.8566 22.872 36.8572 22.8691C36.8579 22.8662 36.8575 22.8632 36.8562 22.8605C36.8549 22.8578 36.8527 22.8556 36.85 22.8544C28.6375 18.8814 20.4233 14.9079 12.2075 10.9337C11.8542 10.7629 11.606 10.6698 11.4631 10.6544ZM14.5869 25.145C13.1613 28.7087 11.7262 32.2656 10.3144 35.8287C10.0144 36.5869 10.6325 37.4312 11.445 37.3419C11.6133 37.3231 11.8883 37.2214 12.27 37.0369C20.4696 33.0689 28.6675 29.1023 36.8638 25.1369C36.8658 25.1359 36.8674 25.1343 36.8684 25.1322C36.8693 25.1302 36.8695 25.1279 36.869 25.1257C36.8684 25.1234 36.8671 25.1214 36.8652 25.1199C36.8634 25.1185 36.8611 25.1176 36.8587 25.1175H14.6275C14.6079 25.1175 14.5944 25.1267 14.5869 25.145Z" fill="#F0F0F2"/>
</g>
<defs>
<clipPath id="clip0_32_1735">
<rect width="32" height="32" fill="white" transform="translate(8 8)"/>
</clipPath>
</defs>
</svg>
