<svg width="11" height="11" viewBox="0 0 11 11" fill="none" xmlns="http://www.w3.org/2000/svg">
<path d="M5.10094 0.19486C5.30357 -0.0648978 5.69643 -0.0648979 5.89906 0.19486L7.69522 2.49736C7.75371 2.57234 7.83214 2.62932 7.92153 2.66178L10.6664 3.65851C10.976 3.77096 11.0974 4.14459 10.913 4.41757L9.27824 6.83733C9.22501 6.91613 9.19505 7.00833 9.1918 7.10337L9.09205 10.0219C9.0808 10.3511 8.76298 10.5821 8.44636 10.491L5.63987 9.684C5.54847 9.65772 5.45153 9.65772 5.36013 9.684L2.55364 10.491C2.23702 10.5821 1.9192 10.3511 1.90795 10.0219L1.8082 7.10337C1.80495 7.00833 1.77499 6.91613 1.72176 6.83733L0.0869947 4.41757C-0.097432 4.14459 0.0239659 3.77096 0.333628 3.65851L3.07847 2.66178C3.16786 2.62932 3.24629 2.57234 3.30478 2.49736L5.10094 0.19486Z" fill="#E6C356"/>
</svg>
