<svg width="24" height="24" viewBox="0 0 24 24" fill="none" xmlns="http://www.w3.org/2000/svg">
<g clip-path="url(#clip0_82_801)">
<path d="M9.021 5.6956C8.9235 5.2921 9.1725 4.8871 9.5745 4.7911C14.3565 3.6406 19.149 5.90709 23.826 11.5201C24.057 11.7976 24.0585 12.2011 23.8275 12.4786C22.7025 13.8391 21.4995 15.0631 20.253 16.1131C20.112 16.2316 19.941 16.2901 19.77 16.2901C19.557 16.2901 19.3455 16.1986 19.197 16.0231C18.9285 15.7066 18.9705 15.2341 19.287 14.9656C20.3175 14.0971 21.318 13.1011 22.2675 12.0001C18.1215 7.2121 13.974 5.2816 9.9255 6.24909C9.5055 6.3451 9.117 6.0976 9.021 5.6956ZM11.7675 8.17959C11.712 8.5906 11.9985 8.96859 12.408 9.02409C13.7415 9.20409 14.796 10.2601 14.9775 11.5906C15.027 11.9671 15.3495 12.2401 15.7185 12.2401C15.7515 12.2401 15.786 12.2386 15.8205 12.2341C16.23 12.1786 16.518 11.8006 16.4625 11.3896C16.1925 9.39009 14.6085 7.8061 12.609 7.5361C12.204 7.4821 11.8215 7.7686 11.7675 8.17959ZM23.781 22.7191C24.0735 23.0116 24.0735 23.4871 23.781 23.7796C23.634 23.9266 23.442 24.0001 23.25 24.0001C23.058 24.0001 22.866 23.9266 22.719 23.7811L17.1135 18.1756C15.4095 19.0471 13.701 19.5061 11.9955 19.5061C8.0325 19.5061 4.077 17.1601 0.174002 12.4816C-0.0569982 12.2041 -0.0584982 11.7991 0.172502 11.5216C1.947 9.3871 3.75 7.75959 5.5455 6.60609L0.220502 1.2811C-0.0719982 0.988596 -0.0719982 0.513096 0.220502 0.220596C0.513002 -0.0719043 0.988502 -0.0719043 1.281 0.220596L23.781 22.7191ZM9 12.0001C9 13.6546 10.3455 15.0001 12 15.0001C12.5385 15.0001 13.0605 14.8441 13.5165 14.5771L9.4215 10.4821C9.153 10.9381 9 11.4541 9 12.0001ZM16.005 17.0656L14.601 15.6616C13.8465 16.1956 12.936 16.5001 12 16.5001C9.519 16.5001 7.5 14.4811 7.5 12.0001C7.5 11.0506 7.8 10.1536 8.337 9.39759L6.6285 7.6891C5.01 8.6776 3.3675 10.1071 1.7325 12.0001C6.579 17.5996 11.262 19.2646 16.005 17.0656Z" fill="#F0F0F2"/>
</g>
<defs>
<clipPath id="clip0_82_801">
<rect width="24" height="24" fill="white"/>
</clipPath>
</defs>
</svg>
