<svg width="32" height="32" viewBox="0 0 32 32" fill="none" xmlns="http://www.w3.org/2000/svg">
<g clip-path="url(#clip0_2018_1154)">
<path d="M31.768 16.638C26.592 22.85 21.286 26 16 26C10.714 26 5.408 22.85 0.232002 16.638C-0.0759976 16.266 -0.0779976 15.728 0.230002 15.358C2.372 12.782 4.54 10.73 6.672 9.254C7.126 8.942 7.748 9.052 8.062 9.506C8.376 9.962 8.264 10.584 7.808 10.9C6.004 12.148 4.158 13.862 2.31 15.996C11.506 26.62 20.496 26.618 29.686 15.996C23.428 8.752 17.406 6.454 11.28 8.978C10.77 9.19 10.186 8.948 9.976 8.436C9.766 7.926 10.01 7.342 10.52 7.13C17.636 4.2 24.782 6.97 31.768 15.358C32.078 15.728 32.078 16.268 31.768 16.638ZM16 22C12.692 22 10 19.308 10 16C10 12.692 12.692 10 16 10C19.308 10 22 12.692 22 16C22 19.308 19.308 22 16 22ZM16 20C18.206 20 20 18.206 20 16C20 13.794 18.206 12 16 12C13.794 12 12 13.794 12 16C12 18.206 13.794 20 16 20Z" fill="#F0F0F2"/>
</g>
<defs>
<clipPath id="clip0_2018_1154">
<rect width="32" height="32" fill="white"/>
</clipPath>
</defs>
</svg>
