<svg width="16" height="16" viewBox="0 0 16 16" fill="none" xmlns="http://www.w3.org/2000/svg">
<path d="M3.93413 12.4651L11.9194 4.47989L11.9195 7.7873C11.9194 8.06343 12.1433 8.28733 12.4194 8.28725C12.6955 8.28742 12.9195 8.06334 12.9194 7.7873V3.27321C12.9194 3.24051 12.9161 3.20782 12.9098 3.17561C12.9082 3.16772 12.9049 3.1604 12.9029 3.15263C12.8971 3.12888 12.891 3.10514 12.8816 3.0823C12.8776 3.07274 12.8717 3.06419 12.8672 3.05488C12.8575 3.03498 12.8483 3.0149 12.8358 2.99615C12.8176 2.96868 12.7966 2.94286 12.773 2.91921C12.7493 2.89556 12.7235 2.87459 12.696 2.85636C12.6773 2.84388 12.6572 2.8347 12.6373 2.82501C12.628 2.82049 12.6194 2.81455 12.6099 2.8106C12.587 2.8012 12.5633 2.79512 12.5395 2.78924C12.5318 2.78729 12.5244 2.78398 12.5166 2.78242C12.4844 2.77606 12.4517 2.77278 12.419 2.77281L7.90496 2.7729C7.76685 2.7729 7.64187 2.82883 7.55141 2.91929C7.46095 3.00975 7.40493 3.13483 7.40501 3.27285C7.40493 3.54897 7.62883 3.77288 7.90496 3.77279H11.2123L3.22703 11.758C3.03178 11.9533 3.03178 12.2699 3.22703 12.4651C3.42227 12.6604 3.73888 12.6604 3.93413 12.4651Z" fill="#97A1AD"/>
</svg>
