<svg width="20" height="20" viewBox="0 0 20 20" fill="none" xmlns="http://www.w3.org/2000/svg">
<path d="M6.81079 12.808C5.57947 12.808 4.1566 12.1293 3.33337 11.1052V14.0206C4.04433 14.7378 5.57398 15.2121 6.81079 15.2121C9.53871 15.2121 10.8668 13.101 13.1893 13.101C14.7466 13.101 15.6564 13.9201 16.6667 14.8038V11.8883C16.0043 11.4735 14.3969 10.6969 13.1893 10.6969C10.8109 10.6969 8.86515 12.808 6.81079 12.808Z" fill="#71757F"/>
<path d="M13.1893 5C10.8109 5 8.86515 7.11104 6.81079 7.11104C5.57947 7.11104 4.1566 6.43238 3.33337 5.40829V8.32366C4.04433 9.04081 5.57366 9.51516 6.81079 9.51516C9.53871 9.51516 10.8668 7.40406 13.1893 7.40406C14.7466 7.40406 15.6564 8.2232 16.6667 9.10687V6.19144C16.0043 5.77663 14.3969 5 13.1893 5Z" fill="#71757F"/>
</svg>
