<svg width="24" height="24" viewBox="0 0 24 24" fill="none" xmlns="http://www.w3.org/2000/svg">
<path fill-rule="evenodd" clip-rule="evenodd" d="M4.5 11.25V19.5C4.5 21.156 5.844 22.5 7.5 22.5H16.5C18.156 22.5 19.5 21.156 19.5 19.5V11.25C19.5 10.836 19.164 10.5 18.75 10.5C18.336 10.5 18 10.836 18 11.25V19.5C18 20.328 17.328 21 16.5 21H7.5C6.672 21 6 20.328 6 19.5V11.25C6 10.836 5.664 10.5 5.25 10.5C4.836 10.5 4.5 10.836 4.5 11.25ZM11.25 11.25V18.75C11.25 19.164 11.586 19.5 12 19.5C12.414 19.5 12.75 19.164 12.75 18.75V11.25C12.75 10.836 12.414 10.5 12 10.5C11.586 10.5 11.25 10.836 11.25 11.25ZM8.25 11.25V18.75C8.25 19.164 8.586 19.5 9 19.5C9.414 19.5 9.75 19.164 9.75 18.75V11.25C9.75 10.836 9.414 10.5 9 10.5C8.586 10.5 8.25 10.836 8.25 11.25ZM14.25 11.25V18.75C14.25 19.164 14.586 19.5 15 19.5C15.414 19.5 15.75 19.164 15.75 18.75V11.25C15.75 10.836 15.414 10.5 15 10.5C14.586 10.5 14.25 10.836 14.25 11.25ZM7.5 4.5H4.5C3.258 4.5 2.25 5.508 2.25 6.75C2.25 7.992 3.258 9 4.5 9H19.5C20.742 9 21.75 7.992 21.75 6.75C21.75 5.508 20.742 4.5 19.5 4.5H16.5V3C16.5 2.172 15.828 1.5 15 1.5H9C8.172 1.5 7.5 2.172 7.5 3V4.5ZM20.25 6.75C20.25 7.164 19.914 7.5 19.5 7.5H4.5C4.086 7.5 3.75 7.164 3.75 6.75C3.75 6.336 4.086 6 4.5 6H19.5C19.914 6 20.25 6.336 20.25 6.75ZM15 4.5H9V3H15V4.5Z" fill="#EB5757"/>
</svg>
