<svg width="7" height="8" viewBox="0 0 7 8" fill="none" xmlns="http://www.w3.org/2000/svg">
<path d="M3.2996 0.137268C3.37051 -0.045768 3.62949 -0.0457682 3.7004 0.137268L4.62441 2.52233C4.64359 2.57184 4.68041 2.61249 4.72778 2.63646L6.88207 3.72655C7.03924 3.80608 7.03924 4.03055 6.88207 4.11008L4.72778 5.20017C4.68041 5.22414 4.64359 5.2648 4.62441 5.3143L3.7004 7.69936C3.62949 7.8824 3.37051 7.8824 3.2996 7.69936L2.37559 5.3143C2.35641 5.2648 2.31959 5.22414 2.27222 5.20017L0.117933 4.11008C-0.0392421 4.03055 -0.0392424 3.80608 0.117933 3.72655L2.27222 2.63646C2.31959 2.61249 2.35641 2.57184 2.37559 2.52233L3.2996 0.137268Z" fill="#F0F0F2"/>
</svg>
