<svg width="12" height="12" viewBox="0 0 12 12" fill="none" xmlns="http://www.w3.org/2000/svg">
<path d="M11.1865 4.58352H7.74714V3.39559C7.74715 3.37794 7.74368 3.36046 7.73693 3.34416C7.73018 3.32785 7.72029 3.31304 7.70781 3.30056C7.69533 3.28808 7.68052 3.27819 7.66421 3.27144C7.64791 3.26469 7.63043 3.26122 7.61278 3.26123H5.48176C5.44613 3.26123 5.41196 3.27539 5.38676 3.30058C5.36157 3.32578 5.34741 3.35995 5.34741 3.39559C5.34741 3.43122 5.36157 3.46539 5.38676 3.49059C5.41196 3.51578 5.44613 3.52994 5.48176 3.52994H7.47844V4.58352H0.795376C0.655663 4.58352 0.521673 4.52801 0.422881 4.42922C0.324089 4.33043 0.268588 4.19644 0.268588 4.05673C0.268588 3.91701 0.324089 3.78302 0.422881 3.68423C0.521673 3.58544 0.655663 3.52994 0.795376 3.52994H2.25175C2.28738 3.52994 2.32156 3.51578 2.34675 3.49059C2.37195 3.46539 2.3861 3.43122 2.3861 3.39559C2.3861 3.35995 2.37195 3.32578 2.34675 3.30058C2.32156 3.27539 2.28738 3.26123 2.25175 3.26123H0.795376C0.690865 3.26105 0.587348 3.28151 0.490759 3.32142C0.394171 3.36134 0.306413 3.41993 0.232519 3.49383C0.158624 3.56774 0.100047 3.65551 0.060146 3.7521C0.0202453 3.8487 -0.000193649 3.95222 1.3827e-06 4.05673V10.9721C0.000295848 11.2447 0.108683 11.5059 0.30138 11.6986C0.494078 11.8913 0.755347 11.9997 1.02786 12H11.1865C11.2042 12 11.2217 11.9965 11.238 11.9898C11.2543 11.983 11.2691 11.9732 11.2816 11.9607C11.294 11.9482 11.3039 11.9334 11.3107 11.9171C11.3174 11.9008 11.3209 11.8833 11.3209 11.8656V4.71787C11.3209 4.70022 11.3174 4.68275 11.3107 4.66644C11.3039 4.65014 11.294 4.63532 11.2816 4.62284C11.2691 4.61037 11.2543 4.60047 11.238 4.59372C11.2217 4.58697 11.2042 4.5835 11.1865 4.58352ZM1.02787 11.7313C0.826609 11.731 0.633658 11.651 0.491343 11.5087C0.349028 11.3664 0.268967 11.1734 0.26872 10.9721V4.64823C0.413087 4.77889 0.600673 4.85155 0.795387 4.85222H11.0522V6.97669H8.92903C8.75723 6.97645 8.58706 7.01007 8.42826 7.07565C8.26947 7.14122 8.12516 7.23746 8.00358 7.35886C7.88201 7.48026 7.78557 7.62443 7.71977 7.78313C7.65396 7.94183 7.62009 8.11195 7.62009 8.28375C7.62009 8.45556 7.65396 8.62568 7.71977 8.78438C7.78557 8.94308 7.88201 9.08725 8.00358 9.20865C8.12516 9.33005 8.26947 9.42629 8.42826 9.49186C8.58706 9.55744 8.75723 9.59106 8.92903 9.59082H11.0522V11.7313H1.02787ZM11.0522 9.32211H8.92903C8.79253 9.32233 8.65733 9.29563 8.53116 9.24355C8.40498 9.19147 8.29032 9.11502 8.19372 9.01857C8.09712 8.92213 8.02049 8.80759 7.9682 8.6815C7.91592 8.55541 7.889 8.42025 7.889 8.28375C7.889 8.14725 7.91592 8.0121 7.9682 7.88601C8.02049 7.75992 8.09712 7.64538 8.19372 7.54894C8.29032 7.45249 8.40498 7.37604 8.53116 7.32396C8.65733 7.27188 8.79253 7.24518 8.92903 7.2454H11.0522V9.32211Z" fill="#F0F0F2"/>
<path d="M3.8341 4.4632C3.84669 4.47867 3.86258 4.49114 3.8806 4.4997C3.89862 4.50825 3.91832 4.51268 3.93827 4.51266H3.94037C3.96062 4.51232 3.98053 4.50741 3.99861 4.4983C4.0167 4.48919 4.03249 4.47611 4.04481 4.46005C4.43161 3.95517 4.81813 3.44955 5.2044 2.94319C5.2196 2.92329 5.22893 2.89952 5.23134 2.87459C5.23375 2.84966 5.22914 2.82456 5.21803 2.80211C5.20692 2.77966 5.18976 2.76077 5.16848 2.74756C5.1472 2.73435 5.12265 2.72735 5.0976 2.72736H4.53499V0.134354C4.535 0.116707 4.53153 0.0992318 4.52479 0.0829266C4.51804 0.0666215 4.50814 0.0518064 4.49566 0.0393284C4.48319 0.0268505 4.46837 0.0169544 4.45207 0.0102061C4.43576 0.00345779 4.41829 -1.02212e-05 4.40064 2.26277e-08H3.4313C3.41365 -1.02212e-05 3.39618 0.00345779 3.37987 0.0102061C3.36357 0.0169544 3.34875 0.0268505 3.33627 0.0393284C3.32379 0.0518064 3.3139 0.0666215 3.30715 0.0829266C3.3004 0.0992318 3.29693 0.116707 3.29694 0.134354V2.72736H2.7031C2.67771 2.7274 2.65284 2.73463 2.63139 2.74822C2.60993 2.7618 2.59276 2.78118 2.58186 2.80412C2.57096 2.82706 2.56678 2.85261 2.5698 2.87783C2.57282 2.90304 2.58292 2.92688 2.59892 2.9466L3.8341 4.4632ZM3.43131 2.99605C3.44895 2.99606 3.46643 2.99259 3.48273 2.98585C3.49904 2.9791 3.51385 2.9692 3.52633 2.95672C3.53881 2.94425 3.54871 2.92943 3.55545 2.91313C3.5622 2.89682 3.56567 2.87935 3.56566 2.8617V0.268708H4.26629V2.86171C4.26628 2.87936 4.26975 2.89683 4.2765 2.91314C4.28325 2.92944 4.29314 2.94426 4.30562 2.95673C4.3181 2.96921 4.33292 2.97911 4.34922 2.98586C4.36553 2.9926 4.383 2.99607 4.40065 2.99606H4.82628C4.52897 3.38535 4.23192 3.77385 3.93514 4.16156L2.98574 2.99606L3.43131 2.99605Z" fill="#F0F0F2"/>
<path d="M8.31476 8.28371C8.31473 8.4062 8.35103 8.52594 8.41906 8.6278C8.4871 8.72966 8.58381 8.80905 8.69696 8.85595C8.81012 8.90284 8.93464 8.91512 9.05478 8.89124C9.17492 8.86736 9.28528 8.80839 9.3719 8.72179C9.45852 8.63518 9.51752 8.52484 9.54142 8.4047C9.56533 8.28457 9.55307 8.16005 9.50621 8.04688C9.45934 7.93371 9.37996 7.83698 9.27812 7.76893C9.17627 7.70087 9.05654 7.66455 8.93405 7.66455C8.76988 7.66474 8.61249 7.73003 8.4964 7.8461C8.38031 7.96217 8.31498 8.11954 8.31476 8.28371ZM8.93405 7.93326C9.00337 7.93327 9.07114 7.95384 9.12877 7.99237C9.18641 8.03089 9.23132 8.08564 9.25784 8.1497C9.28436 8.21375 9.29129 8.28423 9.27775 8.35222C9.26421 8.42021 9.23082 8.48266 9.18179 8.53167C9.13276 8.58068 9.07029 8.61406 9.0023 8.62757C8.9343 8.64108 8.86383 8.63412 8.79978 8.60758C8.73574 8.58104 8.68101 8.5361 8.6425 8.47845C8.604 8.4208 8.58345 8.35303 8.58347 8.28371C8.58357 8.19077 8.62054 8.10168 8.68627 8.03597C8.752 7.97027 8.84111 7.93333 8.93405 7.93326Z" fill="#F0F0F2"/>
</svg>
