<svg width="20" height="20" viewBox="0 0 20 20" fill="none" xmlns="http://www.w3.org/2000/svg">
<path d="M8.00813 7.02393L6.9917 12.9887H8.61732L9.63459 7.02393H8.00813Z" fill="#F0F0F2"/>
<path d="M5.62863 7.03055L4.03645 11.0984L3.8667 10.4842C3.5527 9.7441 2.66128 8.68126 1.61475 8.01144L3.07061 12.9857L4.79073 12.9828L7.35083 7.0293L5.62863 7.03055Z" fill="#F0F0F2"/>
<path d="M3.24957 7.45749C3.15508 7.09415 2.88121 6.98586 2.54129 6.9729H0.0209056L0 7.09164C1.96137 7.56746 3.25919 8.71392 3.79772 10.0924L3.24957 7.45749Z" fill="#F0F0F2"/>
<path d="M12.9293 8.16736C13.4611 8.159 13.8466 8.27524 14.146 8.39565L14.2928 8.46464L14.5127 7.17184C14.1908 7.051 13.6861 6.92139 13.0564 6.92139C11.45 6.92139 10.3178 7.73043 10.309 8.88986C10.2985 9.74657 11.1155 10.2249 11.7327 10.5105C12.3661 10.8031 12.5785 10.9892 12.5756 11.2505C12.5706 11.6498 12.0705 11.833 11.6035 11.833C10.9525 11.833 10.6067 11.7431 10.0728 11.5206L9.86329 11.4253L9.63458 12.7603C10.0151 12.9272 10.7171 13.0706 11.4458 13.0781C13.1547 13.0781 14.2652 12.2787 14.2769 11.0398C14.284 10.362 13.8504 9.84483 12.9109 9.42045C12.3423 9.14366 11.9944 8.95969 11.9978 8.68039C11.9978 8.43245 12.2929 8.16736 12.9293 8.16736Z" fill="#F0F0F2"/>
<path d="M18.6846 7.03052H17.4286C17.0385 7.03052 16.7483 7.13672 16.5769 7.52556L14.1631 12.992H15.8703C15.8703 12.992 16.1488 12.2569 16.2119 12.096C16.3988 12.096 18.0574 12.0985 18.2937 12.0985C18.3422 12.3067 18.4919 12.992 18.4919 12.992H20L18.6846 7.03052ZM16.6798 10.8751C16.8136 10.5326 17.3274 9.20805 17.3274 9.20805C17.3186 9.22435 17.46 8.8631 17.544 8.63858L17.6536 9.15286C17.6536 9.15286 17.965 10.5769 18.0303 10.8751H16.6798Z" fill="#F0F0F2"/>
</svg>
