<svg width="52" height="52" viewBox="0 0 52 52" fill="none" xmlns="http://www.w3.org/2000/svg">
<path d="M51.2209 32.2908C47.7458 46.22 33.6414 54.6958 19.706 51.221C5.78054 47.7461 -2.69604 33.638 0.77911 19.7138C4.24928 5.78468 18.3587 -2.69612 32.2841 0.778714C46.2195 4.24858 54.6961 18.3617 51.2209 32.2908Z" fill="url(#paint0_linear_0_23)"/>
<path d="M27.3339 32.6693V23.4203C27.3339 22.6349 27.9704 21.9984 28.7558 21.9984H33.9152C34.7006 21.9984 35.337 22.6349 35.337 23.4203V32.6693H38.9527C39.5891 32.6693 39.9006 33.4344 39.4537 33.8812L32.3443 41.0041C31.7891 41.5594 30.8886 41.5594 30.3334 41.0041L23.2105 33.8812C22.7636 33.4344 23.0818 32.6693 23.7115 32.6693H27.3339ZM16.6631 19.3307V28.5797C16.6631 29.3651 17.2995 30.0015 18.085 30.0015H23.2443C24.0298 30.0015 24.6662 29.3651 24.6662 28.5797V19.3307H28.2818C28.9183 19.3307 29.2365 18.5656 28.7829 18.1187L21.6735 10.9958C21.1183 10.4406 20.2178 10.4406 19.6626 10.9958L12.5397 18.112C12.0928 18.5588 12.411 19.3239 13.0407 19.3239L16.6631 19.3307Z" fill="#F0F0F2"/>
<defs>
<linearGradient id="paint0_linear_0_23" x1="-5.95263" y1="-80.1667" x2="68.0176" y2="-75.991" gradientUnits="userSpaceOnUse">
<stop stop-color="#13161F"/>
<stop offset="0.265" stop-color="#525661"/>
<stop offset="0.615" stop-color="#1E212A"/>
<stop offset="1" stop-color="#494F5C"/>
</linearGradient>
</defs>
</svg>
