<svg width="8" height="7" viewBox="0 0 8 7" fill="none" xmlns="http://www.w3.org/2000/svg">
<path d="M3.72655 0.117933C3.80608 -0.0392421 4.03055 -0.0392424 4.11008 0.117933L5.20017 2.27222C5.22414 2.31959 5.2648 2.35641 5.3143 2.37559L7.69936 3.2996C7.8824 3.37051 7.8824 3.62949 7.69936 3.7004L5.3143 4.62441C5.2648 4.64359 5.22414 4.68041 5.20017 4.72778L4.11008 6.88207C4.03055 7.03924 3.80608 7.03924 3.72655 6.88207L2.63646 4.72778C2.61249 4.68041 2.57184 4.64359 2.52233 4.62441L0.137268 3.7004C-0.045768 3.62949 -0.0457682 3.37051 0.137268 3.2996L2.52233 2.37559C2.57184 2.35641 2.61249 2.31959 2.63646 2.27222L3.72655 0.117933Z" fill="#F0F0F2"/>
</svg>
